<?xml version="1.0" encoding="utf-8"?>
<!-- Generator: Adobe Illustrator 21.0.0, SVG Export Plug-In . SVG Version: 6.00 Build 0)  -->
<svg version="1.1" id="图层_1" xmlns="http://www.w3.org/2000/svg" xmlns:xlink="http://www.w3.org/1999/xlink" x="0px" y="0px"
	 viewBox="0 0 16 16" style="enable-background:new 0 0 16 16;" xml:space="preserve">
<style type="text/css">
	.st0{fill:#FFFFFF;}
	.st1{fill:#5D5D5D;}
</style>
<g>
	<path id="path-1" class="st0" d="M7.2,7.2V2.8C7.2,2.3,7.6,2,8,2c0.4,0,0.8,0.3,0.8,0.8v4.5h4.5C13.7,7.2,14,7.6,14,8
		c0,0.4-0.3,0.8-0.8,0.8H8.8v4.5C8.8,13.7,8.4,14,8,14c-0.4,0-0.8-0.3-0.8-0.8V8.8H2.8C2.3,8.8,2,8.4,2,8c0-0.4,0.3-0.8,0.8-0.8H7.2
		z"/>
</g>
<title>16 / ic_add</title>
<desc>Created with Sketch.</desc>
<g id="_x31_6-_x2F_-ic_x5F_add">
	<g id="路径">
		<path id="path-1_1_" class="st1" d="M7.2,7.2V2.8C7.2,2.3,7.6,2,8,2c0.4,0,0.8,0.3,0.8,0.8v4.5h4.5C13.7,7.2,14,7.6,14,8
			c0,0.4-0.3,0.8-0.8,0.8H8.8v4.5C8.8,13.7,8.4,14,8,14c-0.4,0-0.8-0.3-0.8-0.8V8.8H2.8C2.3,8.8,2,8.4,2,8c0-0.4,0.3-0.8,0.8-0.8
			H7.2z"/>
	</g>
</g>
</svg>
