<?xml version="1.0" encoding="utf-8"?>
<!-- Generator: Adobe Illustrator 21.0.0, SVG Export Plug-In . SVG Version: 6.00 Build 0)  -->
<svg version="1.1" id="图层_1" xmlns="http://www.w3.org/2000/svg" xmlns:xlink="http://www.w3.org/1999/xlink" x="0px" y="0px"
	 viewBox="0 0 16 16" style="enable-background:new 0 0 16 16;" xml:space="preserve">
<style type="text/css">
	.st0{fill:#FFFFFF;}
	.st1{fill:#5D5D5D;}
</style>
<g>
	<path id="path-1" class="st0" d="M12.2,8c0-0.8,0.4-1.6,1-2.1V5c0-0.7-0.6-1.2-1.2-1.2H4C3.3,3.8,2.8,4.3,2.8,5v0.9
		c0.6,0.5,1,1.3,1,2.1s-0.4,1.6-1,2.1V11c0,0.7,0.6,1.2,1.2,1.2h8c0.7,0,1.2-0.6,1.2-1.2v-0.9C12.6,9.6,12.2,8.8,12.2,8z M14.8,9.7
		V11c0,1.5-1.2,2.8-2.8,2.8H4c-1.5,0-2.8-1.2-2.8-2.8V9.7c0-0.3,0.1-0.5,0.4-0.6C2,8.9,2.2,8.5,2.2,8c0-0.5-0.2-0.9-0.6-1.1
		C1.4,6.8,1.2,6.5,1.2,6.3V5c0-1.5,1.2-2.8,2.8-2.8h8c1.5,0,2.8,1.2,2.8,2.8v1.3c0,0.3-0.1,0.5-0.4,0.6C14,7.1,13.8,7.5,13.8,8
		c0,0.5,0.2,0.9,0.6,1.1C14.6,9.2,14.8,9.5,14.8,9.7z M10,5.8c0.4,0,0.8,0.3,0.8,0.8S10.4,7.2,10,7.2H6c-0.4,0-0.8-0.3-0.8-0.8
		S5.6,5.8,6,5.8H10z M10,8.8c0.4,0,0.8,0.3,0.8,0.8s-0.3,0.8-0.8,0.8H6c-0.4,0-0.8-0.3-0.8-0.8S5.6,8.8,6,8.8H10z"/>
</g>
<title>16 / ic_coupon</title>
<desc>Created with Sketch.</desc>
<g id="_x31_6-_x2F_-ic_x5F_coupon">
	<g id="合并形状">
		<path id="path-1_1_" class="st1" d="M12.2,8c0-0.8,0.4-1.6,1-2.1V5c0-0.7-0.6-1.2-1.2-1.2H4C3.3,3.8,2.8,4.3,2.8,5v0.9
			c0.6,0.5,1,1.3,1,2.1s-0.4,1.6-1,2.1V11c0,0.7,0.6,1.2,1.2,1.2h8c0.7,0,1.2-0.6,1.2-1.2v-0.9C12.6,9.6,12.2,8.8,12.2,8z M14.8,9.7
			V11c0,1.5-1.2,2.8-2.8,2.8H4c-1.5,0-2.8-1.2-2.8-2.8V9.7c0-0.3,0.1-0.5,0.4-0.6C2,8.9,2.2,8.5,2.2,8c0-0.5-0.2-0.9-0.6-1.1
			C1.4,6.8,1.2,6.5,1.2,6.3V5c0-1.5,1.2-2.8,2.8-2.8h8c1.5,0,2.8,1.2,2.8,2.8v1.3c0,0.3-0.1,0.5-0.4,0.6C14,7.1,13.8,7.5,13.8,8
			c0,0.5,0.2,0.9,0.6,1.1C14.6,9.2,14.8,9.5,14.8,9.7z M10,5.8c0.4,0,0.8,0.3,0.8,0.8S10.4,7.2,10,7.2H6c-0.4,0-0.8-0.3-0.8-0.8
			S5.6,5.8,6,5.8H10z M10,8.8c0.4,0,0.8,0.3,0.8,0.8s-0.3,0.8-0.8,0.8H6c-0.4,0-0.8-0.3-0.8-0.8S5.6,8.8,6,8.8H10z"/>
	</g>
</g>
</svg>
