<?xml version="1.0" encoding="utf-8"?>
<!-- Generator: Adobe Illustrator 21.0.0, SVG Export Plug-In . SVG Version: 6.00 Build 0)  -->
<svg version="1.1" id="图层_1" xmlns="http://www.w3.org/2000/svg" xmlns:xlink="http://www.w3.org/1999/xlink" x="0px" y="0px"
	 viewBox="0 0 16 16" style="enable-background:new 0 0 16 16;" xml:space="preserve">
<style type="text/css">
	.st0{fill:#FFFFFF;}
	.st1{fill:#5D5D5D;}
</style>
<g>
	<path id="path-1" class="st0" d="M6.9,8.1l-4-4C2.1,3.4,3.2,2.3,3.9,3l4.1,4L12,3c0.3-0.3,0.8-0.3,1.1,0c0.3,0.3,0.3,0.8,0,1.1
		l-4,4l4.1,4c0.7,0.7-0.3,1.8-1.1,1.1l-4.1-4l-4.1,4c-0.3,0.3-0.8,0.3-1.1,0c-0.3-0.3-0.3-0.8,0-1.1L6.9,8.1z"/>
</g>
<title>16 / ic_close_16</title>
<desc>Created with Sketch.</desc>
<g id="_x31_6-_x2F_-ic_x5F_close_x5F_16">
	<g id="合并形状">
		<path id="path-1_1_" class="st1" d="M6.9,8.1l-4-4C2.1,3.4,3.2,2.3,3.9,3l4.1,4L12,3c0.3-0.3,0.8-0.3,1.1,0c0.3,0.3,0.3,0.8,0,1.1
			l-4,4l4.1,4c0.7,0.7-0.3,1.8-1.1,1.1l-4.1-4l-4.1,4c-0.3,0.3-0.8,0.3-1.1,0c-0.3-0.3-0.3-0.8,0-1.1L6.9,8.1z"/>
	</g>
</g>
</svg>
