<?xml version="1.0" encoding="utf-8"?>
<!-- Generator: Adobe Illustrator 21.0.0, SVG Export Plug-In . SVG Version: 6.00 Build 0)  -->
<svg version="1.1" id="图层_1" xmlns="http://www.w3.org/2000/svg" xmlns:xlink="http://www.w3.org/1999/xlink" x="0px" y="0px"
	 viewBox="0 0 16 16" style="enable-background:new 0 0 16 16;" xml:space="preserve">
<style type="text/css">
	.st0{fill:#FFFFFF;}
	.st1{fill:#5D5D5D;}
</style>
<g>
	<path id="path-1" class="st0" d="M8,15c-3.9,0-7-3.1-7-7s3.1-7,7-7s7,3.1,7,7S11.9,15,8,15z M8.1,7.1l-2-2c-0.3-0.3-0.8-0.3-1.1,0
		c-0.3,0.3-0.3,0.8,0,1.1l2,2L5.2,10c-0.7,0.7,0.4,1.8,1.1,1.1l1.8-1.8l1.7,1.7c0.3,0.3,0.8,0.3,1.1,0s0.3-0.8,0-1.1L9.2,8.1L11,6.3
		c0.7-0.7-0.4-1.8-1.1-1.1L8.1,7.1z"/>
</g>
<title>16 / ic_fail_o</title>
<desc>Created with Sketch.</desc>
<g id="_x31_6-_x2F_-ic_x5F_fail_x5F_o">
	<g id="合并形状">
		<path id="path-1_1_" class="st1" d="M8,15c-3.9,0-7-3.1-7-7s3.1-7,7-7s7,3.1,7,7S11.9,15,8,15z M8.1,7.1l-2-2
			c-0.3-0.3-0.8-0.3-1.1,0c-0.3,0.3-0.3,0.8,0,1.1l2,2L5.2,10c-0.7,0.7,0.4,1.8,1.1,1.1l1.8-1.8l1.7,1.7c0.3,0.3,0.8,0.3,1.1,0
			s0.3-0.8,0-1.1L9.2,8.1L11,6.3c0.7-0.7-0.4-1.8-1.1-1.1L8.1,7.1z"/>
	</g>
</g>
</svg>
