<?xml version="1.0" standalone="no"?><!DOCTYPE svg PUBLIC "-//W3C//DTD SVG 1.1//EN" "http://www.w3.org/Graphics/SVG/1.1/DTD/svg11.dtd"><svg t="1546067828103" class="icon" style="" viewBox="0 0 1024 1024" version="1.1" xmlns="http://www.w3.org/2000/svg" p-id="5608" xmlns:xlink="http://www.w3.org/1999/xlink" width="200" height="200"><defs><style type="text/css"></style></defs><path d="M697.6 457.6c28.8-19.2 48-57.6 48-96 0-64-48-115.2-102.4-115.2-12.8 0-25.6-9.6-25.6-25.6s9.6-25.6 25.6-25.6c83.2 0 153.6 73.6 153.6 163.2 0 41.6-12.8 80-38.4 108.8 54.4 22.4 92.8 60.8 115.2 112 19.2 41.6 22.4 86.4 19.2 121.6v3.2c3.2 48-35.2 83.2-83.2 83.2h-38.4c-12.8 0-25.6-9.6-25.6-25.6s9.6-25.6 25.6-25.6h38.4c19.2 0 38.4-16 35.2-35.2v-3.2-3.2c3.2-28.8-3.2-67.2-16-99.2-22.4-48-60.8-83.2-124.8-96-12.8-3.2-22.4-16-19.2-28.8-3.2-3.2 3.2-9.6 12.8-12.8z m-316.8-3.2c-38.4-28.8-60.8-70.4-60.8-118.4C320 256 384 192 464 192S608 256 608 336c0 51.2-25.6 96-67.2 121.6 220.8 51.2 192 278.4 192 278.4 0 35.2-28.8 64-64 64H224c-35.2 0-64-28.8-64-64 0 0-25.6-246.4 220.8-281.6z m83.2-22.4c54.4 0 96-41.6 96-96s-41.6-96-96-96-96 41.6-96 96 41.6 96 96 96zM224 752h448c9.6 0 16-6.4 16-12.8v-6.4-3.2c3.2-35.2-3.2-76.8-19.2-115.2-32-73.6-99.2-115.2-217.6-115.2s-185.6 41.6-217.6 115.2c-16 38.4-22.4 83.2-19.2 115.2V739.2c-6.4 6.4 3.2 12.8 9.6 12.8z" p-id="5609"></path><path d="M697.6 457.6c28.8-19.2 48-57.6 48-96 0-64-48-115.2-102.4-115.2-12.8 0-25.6-9.6-25.6-25.6s9.6-25.6 25.6-25.6c83.2 0 153.6 73.6 153.6 163.2 0 41.6-12.8 80-38.4 108.8 54.4 22.4 92.8 60.8 115.2 112 19.2 41.6 22.4 86.4 19.2 121.6v3.2c3.2 48-35.2 83.2-83.2 83.2h-38.4c-12.8 0-25.6-9.6-25.6-25.6s9.6-25.6 25.6-25.6h38.4c19.2 0 38.4-16 35.2-35.2v-3.2-3.2c3.2-28.8-3.2-67.2-16-99.2-22.4-48-60.8-83.2-124.8-96-12.8-3.2-22.4-16-19.2-28.8-3.2-3.2 3.2-9.6 12.8-12.8z m-316.8-3.2c-38.4-28.8-60.8-70.4-60.8-118.4C320 256 384 192 464 192S608 256 608 336c0 51.2-25.6 96-67.2 121.6 220.8 51.2 192 278.4 192 278.4 0 35.2-28.8 64-64 64H224c-35.2 0-64-28.8-64-64 0 0-25.6-246.4 220.8-281.6z m83.2-22.4c54.4 0 96-41.6 96-96s-41.6-96-96-96-96 41.6-96 96 41.6 96 96 96zM224 752h448c9.6 0 16-6.4 16-12.8v-6.4-3.2c3.2-35.2-3.2-76.8-19.2-115.2-32-73.6-99.2-115.2-217.6-115.2s-185.6 41.6-217.6 115.2c-16 38.4-22.4 83.2-19.2 115.2V739.2c-6.4 6.4 3.2 12.8 9.6 12.8z" p-id="5610"></path></svg>