<?xml version="1.0" standalone="no"?><!DOCTYPE svg PUBLIC "-//W3C//DTD SVG 1.1//EN" "http://www.w3.org/Graphics/SVG/1.1/DTD/svg11.dtd"><svg t="1546067817808" class="icon" style="" viewBox="0 0 1024 1024" version="1.1" xmlns="http://www.w3.org/2000/svg" p-id="5165" xmlns:xlink="http://www.w3.org/1999/xlink" width="200" height="200"><defs><style type="text/css"></style></defs><path d="M800 320c16 0 32 12.8 32 32v96c0 16-16 32-32 32h-9.6v294.4c0 44.8-35.2 83.2-80 83.2H313.6c-44.8 0-80-38.4-80-83.2V480H224c-16 0-32-12.8-32-32v-96c0-16 16-32 32-32h147.2c-32-28.8-48-67.2-32-99.2 22.4-38.4 76.8-38.4 124.8-9.6 12.8 9.6 25.6 19.2 35.2 28.8 9.6-9.6 22.4-22.4 35.2-28.8 48-28.8 105.6-25.6 124.8 9.6 19.2 32 3.2 70.4-32 99.2H800z m-275.2-16c6.4 6.4 32 6.4 60.8-9.6 28.8-16 41.6-41.6 35.2-48-6.4-9.6-32-9.6-60.8 6.4-19.2 12.8-32 25.6-35.2 38.4v12.8z m-48-12.8c-3.2-9.6-16-25.6-35.2-38.4-28.8-16-54.4-16-60.8-6.4-6.4 9.6 9.6 32 35.2 48 28.8 16 54.4 16 60.8 9.6v-12.8z m9.6 515.2V480H281.6v294.4c0 19.2 16 35.2 32 35.2h172.8z m51.2 0h176c19.2 0 32-16 32-35.2V480h-208v326.4zM240 432h544v-64h-544v64z" p-id="5166"></path><path d="M800 320c16 0 32 12.8 32 32v96c0 16-16 32-32 32h-9.6v294.4c0 44.8-35.2 83.2-80 83.2H313.6c-44.8 0-80-38.4-80-83.2V480H224c-16 0-32-12.8-32-32v-96c0-16 16-32 32-32h147.2c-32-28.8-48-67.2-32-99.2 22.4-38.4 76.8-38.4 124.8-9.6 12.8 9.6 25.6 19.2 35.2 28.8 9.6-9.6 22.4-22.4 35.2-28.8 48-28.8 105.6-25.6 124.8 9.6 19.2 32 3.2 70.4-32 99.2H800z m-275.2-16c6.4 6.4 32 6.4 60.8-9.6 28.8-16 41.6-41.6 35.2-48-6.4-9.6-32-9.6-60.8 6.4-19.2 12.8-32 25.6-35.2 38.4v12.8z m-48-12.8c-3.2-9.6-16-25.6-35.2-38.4-28.8-16-54.4-16-60.8-6.4-6.4 9.6 9.6 32 35.2 48 28.8 16 54.4 16 60.8 9.6v-12.8z m9.6 515.2V480H281.6v294.4c0 19.2 16 35.2 32 35.2h172.8z m51.2 0h176c19.2 0 32-16 32-35.2V480h-208v326.4zM240 432h544v-64h-544v64z" p-id="5167"></path></svg>