<?xml version="1.0" standalone="no"?><!DOCTYPE svg PUBLIC "-//W3C//DTD SVG 1.1//EN" "http://www.w3.org/Graphics/SVG/1.1/DTD/svg11.dtd"><svg t="1546067833398" class="icon" style="" viewBox="0 0 1024 1024" version="1.1" xmlns="http://www.w3.org/2000/svg" p-id="5829" xmlns:xlink="http://www.w3.org/1999/xlink" width="200" height="200"><defs><style type="text/css"></style></defs><path d="M185.6 288h656c12.8 0 22.4 9.6 22.4 25.6s-9.6 25.6-25.6 25.6H185.6c-16-3.2-25.6-12.8-25.6-25.6s9.6-25.6 25.6-25.6z m0 192h656c12.8 0 25.6 9.6 25.6 25.6s-9.6 25.6-25.6 25.6H185.6c-12.8 0-25.6-9.6-25.6-25.6s9.6-25.6 25.6-25.6z m0 192h656c12.8 0 25.6 9.6 25.6 25.6s-9.6 25.6-25.6 25.6H185.6c-12.8 0-25.6-9.6-25.6-25.6s9.6-25.6 25.6-25.6z" p-id="5830"></path></svg>