<?xml version="1.0" encoding="utf-8"?>
<!-- Generator: Adobe Illustrator 21.0.0, SVG Export Plug-In . SVG Version: 6.00 Build 0)  -->
<svg version="1.1" id="图层_1" xmlns="http://www.w3.org/2000/svg" xmlns:xlink="http://www.w3.org/1999/xlink" x="0px" y="0px"
	 viewBox="0 0 16 16" style="enable-background:new 0 0 16 16;" xml:space="preserve">
<style type="text/css">
	.st0{fill:#FFFFFF;}
	.st1{fill:#5D5D5D;}
</style>
<g>
	<path id="path-1" class="st0" d="M11.6,4.8l-1.5,1.5c0.7,0.8,1.1,1.8,1.1,3c0,2.5-2,4.5-4.5,4.5s-4.5-2-4.5-4.5s2-4.5,4.5-4.5
		C7.6,4.8,8.3,5,9,5.3l1.6-1.6H8.6C8.2,3.8,7.9,3.4,7.9,3s0.3-0.8,0.8-0.8h3.8c0.4,0,0.8,0.3,0.8,0.8v3.8c0,0.4-0.3,0.8-0.8,0.8
		s-0.8-0.3-0.8-0.8V4.8z M6.8,12.2c1.7,0,3-1.3,3-3s-1.3-3-3-3s-3,1.3-3,3S5.1,12.2,6.8,12.2z"/>
</g>
<title>16 / ic_men</title>
<desc>Created with Sketch.</desc>
<g id="_x31_6-_x2F_-ic_x5F_men">
	<g id="合并形状">
		<path id="path-1_1_" class="st1" d="M11.6,4.8l-1.5,1.5c0.7,0.8,1.1,1.8,1.1,3c0,2.5-2,4.5-4.5,4.5s-4.5-2-4.5-4.5s2-4.5,4.5-4.5
			C7.6,4.8,8.3,5,9,5.3l1.6-1.6H8.6C8.2,3.8,7.9,3.4,7.9,3s0.3-0.8,0.8-0.8h3.8c0.4,0,0.8,0.3,0.8,0.8v3.8c0,0.4-0.3,0.8-0.8,0.8
			s-0.8-0.3-0.8-0.8V4.8z M6.8,12.2c1.7,0,3-1.3,3-3s-1.3-3-3-3s-3,1.3-3,3S5.1,12.2,6.8,12.2z"/>
	</g>
</g>
</svg>
