<?xml version="1.0" standalone="no"?><!DOCTYPE svg PUBLIC "-//W3C//DTD SVG 1.1//EN" "http://www.w3.org/Graphics/SVG/1.1/DTD/svg11.dtd"><svg t="1546067836053" class="icon" style="" viewBox="0 0 1024 1024" version="1.1" xmlns="http://www.w3.org/2000/svg" p-id="5939" xmlns:xlink="http://www.w3.org/1999/xlink" width="200" height="200"><defs><style type="text/css"></style></defs><path d="M249.6 512c0 22.4 19.2 38.4 38.4 38.4 22.4 0 38.4-19.2 38.4-38.4 0-22.4-19.2-38.4-38.4-38.4-22.4 0-38.4 16-38.4 38.4z m-51.2 0c0-48 38.4-89.6 89.6-89.6 48 0 89.6 38.4 89.6 89.6 0 48-38.4 89.6-89.6 89.6-48 0-89.6-41.6-89.6-89.6z m275.2 0c0 22.4 19.2 38.4 38.4 38.4 22.4 0 38.4-19.2 38.4-38.4 0-22.4-19.2-38.4-38.4-38.4-22.4 0-38.4 16-38.4 38.4z m-51.2 0c0-48 38.4-89.6 89.6-89.6 48 0 89.6 38.4 89.6 89.6 0 48-38.4 89.6-89.6 89.6-48 0-89.6-41.6-89.6-89.6z m275.2 0c0 22.4 19.2 38.4 38.4 38.4 22.4 0 38.4-19.2 38.4-38.4 0-22.4-19.2-38.4-38.4-38.4-22.4 0-38.4 16-38.4 38.4z m-51.2 0c0-48 38.4-89.6 89.6-89.6 48 0 89.6 38.4 89.6 89.6 0 48-38.4 89.6-89.6 89.6-48 0-89.6-41.6-89.6-89.6z" p-id="5940"></path><path d="M249.6 512c0 22.4 19.2 38.4 38.4 38.4 22.4 0 38.4-19.2 38.4-38.4 0-22.4-19.2-38.4-38.4-38.4-22.4 0-38.4 16-38.4 38.4z m-51.2 0c0-48 38.4-89.6 89.6-89.6 48 0 89.6 38.4 89.6 89.6 0 48-38.4 89.6-89.6 89.6-48 0-89.6-41.6-89.6-89.6z m275.2 0c0 22.4 19.2 38.4 38.4 38.4 22.4 0 38.4-19.2 38.4-38.4 0-22.4-19.2-38.4-38.4-38.4-22.4 0-38.4 16-38.4 38.4z m-51.2 0c0-48 38.4-89.6 89.6-89.6 48 0 89.6 38.4 89.6 89.6 0 48-38.4 89.6-89.6 89.6-48 0-89.6-41.6-89.6-89.6z m275.2 0c0 22.4 19.2 38.4 38.4 38.4 22.4 0 38.4-19.2 38.4-38.4 0-22.4-19.2-38.4-38.4-38.4-22.4 0-38.4 16-38.4 38.4z m-51.2 0c0-48 38.4-89.6 89.6-89.6 48 0 89.6 38.4 89.6 89.6 0 48-38.4 89.6-89.6 89.6-48 0-89.6-41.6-89.6-89.6z" p-id="5941"></path></svg>