<?xml version="1.0" encoding="utf-8"?>
<!-- Generator: Adobe Illustrator 21.0.0, SVG Export Plug-In . SVG Version: 6.00 Build 0)  -->
<svg version="1.1" id="图层_1" xmlns="http://www.w3.org/2000/svg" xmlns:xlink="http://www.w3.org/1999/xlink" x="0px" y="0px"
	 viewBox="0 0 16 16" style="enable-background:new 0 0 16 16;" xml:space="preserve">
<style type="text/css">
	.st0{fill:#FFFFFF;}
	.st1{fill:#5D5D5D;}
</style>
<g>
	<path id="path-1" class="st0" d="M13.6,4.5c0.3-0.3,0.8-0.3,1.1,0c0.3,0.3,0.3,0.8,0,1.1L7,13.1c-0.3,0.3-0.8,0.3-1.1,0L1.5,8.6
		c-0.3-0.3-0.3-0.8,0-1.1c0.3-0.3,0.8-0.3,1.1,0l4,4L13.6,4.5z"/>
</g>
<title>16 / ic_right</title>
<desc>Created with Sketch.</desc>
<g id="_x31_6-_x2F_-ic_x5F_right">
	<g id="路径">
		<path id="path-1_1_" class="st1" d="M13.6,4.5c0.3-0.3,0.8-0.3,1.1,0c0.3,0.3,0.3,0.8,0,1.1L7,13.1c-0.3,0.3-0.8,0.3-1.1,0
			L1.5,8.6c-0.3-0.3-0.3-0.8,0-1.1c0.3-0.3,0.8-0.3,1.1,0l4,4L13.6,4.5z"/>
	</g>
</g>
</svg>
