<?xml version="1.0" encoding="utf-8"?>
<!-- Generator: Adobe Illustrator 21.0.0, SVG Export Plug-In . SVG Version: 6.00 Build 0)  -->
<svg version="1.1" id="图层_1" xmlns="http://www.w3.org/2000/svg" xmlns:xlink="http://www.w3.org/1999/xlink" x="0px" y="0px"
	 viewBox="0 0 16 16" style="enable-background:new 0 0 16 16;" xml:space="preserve">
<style type="text/css">
	.st0{fill:#FFFFFF;}
	.st1{fill:#5D5D5D;}
</style>
<g>
	<path id="path-1" class="st0" d="M15,8.1c0,3.8-3.1,6.9-7.1,6.9C4.1,15,1,11.9,1,8.1C1,4.1,4.1,1,7.9,1C11.9,1,15,4.1,15,8.1z
		 M10.5,5.5L6.9,9L5.5,7.6c-0.3-0.3-0.8-0.3-1.1,0C4.2,8,4.2,8.5,4.5,8.7l1.9,1.8c0.3,0.3,0.8,0.3,1,0l4.1-4c0.3-0.3,0.3-0.8,0-1.1
		C11.2,5.2,10.8,5.2,10.5,5.5z"/>
</g>
<title>16 / ic_select_o</title>
<desc>Created with Sketch.</desc>
<g id="_x31_6-_x2F_-ic_x5F_select_x5F_o">
	<g id="合并形状">
		<path id="path-1_1_" class="st1" d="M15,8.1c0,3.8-3.1,6.9-7.1,6.9C4.1,15,1,11.9,1,8.1C1,4.1,4.1,1,7.9,1C11.9,1,15,4.1,15,8.1z
			 M10.5,5.5L6.9,9L5.5,7.6c-0.3-0.3-0.8-0.3-1.1,0C4.2,8,4.2,8.5,4.5,8.7l1.9,1.8c0.3,0.3,0.8,0.3,1,0l4.1-4c0.3-0.3,0.3-0.8,0-1.1
			C11.2,5.2,10.8,5.2,10.5,5.5z"/>
	</g>
</g>
</svg>
