<?xml version="1.0" standalone="no"?><!DOCTYPE svg PUBLIC "-//W3C//DTD SVG 1.1//EN" "http://www.w3.org/Graphics/SVG/1.1/DTD/svg11.dtd"><svg t="1546067830362" class="icon" style="" viewBox="0 0 1024 1024" version="1.1" xmlns="http://www.w3.org/2000/svg" p-id="5719" xmlns:xlink="http://www.w3.org/1999/xlink" width="200" height="200"><defs><style type="text/css"></style></defs><path d="M694.4 233.6h80c35.2 0 64 28.8 64 64v480c0 35.2-28.8 64-64 64H256c-35.2 0-64-28.8-64-64v-480c0-35.2 28.8-64 64-64h105.6V185.6c-3.2-16 9.6-25.6 22.4-25.6s25.6 9.6 25.6 25.6v51.2h240V185.6c-3.2-16 9.6-25.6 22.4-25.6s25.6 9.6 25.6 25.6l-3.2 48c3.2 0 0 0 0 0zM240 377.6h553.6V297.6c0-9.6-6.4-16-16-16H256c-9.6 0-16 6.4-16 16v80z m553.6 48H240v355.2c0 9.6 6.4 16 16 16h521.6c9.6 0 16-6.4 16-16V425.6z m-320 236.8l169.6-169.6c9.6-9.6 25.6-9.6 35.2 0 9.6 9.6 9.6 25.6 0 35.2l-185.6 185.6c-9.6 9.6-25.6 9.6-35.2 0l-112-112c-9.6-9.6-9.6-25.6 0-35.2s25.6-9.6 35.2 0l92.8 96z" p-id="5720"></path></svg>