<?xml version="1.0" encoding="utf-8"?>
<!-- Generator: Adobe Illustrator 21.0.0, SVG Export Plug-In . SVG Version: 6.00 Build 0)  -->
<svg version="1.1" id="图层_1" xmlns="http://www.w3.org/2000/svg" xmlns:xlink="http://www.w3.org/1999/xlink" x="0px" y="0px"
	 viewBox="0 0 16 16" style="enable-background:new 0 0 16 16;" xml:space="preserve">
<style type="text/css">
	.st0{fill:#FFFFFF;}
	.st1{fill:#5D5D5D;}
</style>
<g>
	<path id="path-1" class="st0" d="M8,15c-3.9,0-7-3.1-7-7s3.1-7,7-7s7,3.1,7,7S11.9,15,8,15z M7.8,8.2V5c0-0.4-0.3-0.8-0.8-0.8
		S6.2,4.6,6.2,5v4c0,0.4,0.3,0.8,0.8,0.8h4c0.4,0,0.8-0.3,0.8-0.8S11.4,8.2,11,8.2H7.8z"/>
</g>
<title>16 / ic_time_o</title>
<desc>Created with Sketch.</desc>
<g id="_x31_6-_x2F_-ic_x5F_time_x5F_o">
	<g id="合并形状">
		<path id="path-1_1_" class="st1" d="M8,15c-3.9,0-7-3.1-7-7s3.1-7,7-7s7,3.1,7,7S11.9,15,8,15z M7.8,8.2V5c0-0.4-0.3-0.8-0.8-0.8
			S6.2,4.6,6.2,5v4c0,0.4,0.3,0.8,0.8,0.8h4c0.4,0,0.8-0.3,0.8-0.8S11.4,8.2,11,8.2H7.8z"/>
	</g>
</g>
</svg>
