<?xml version="1.0" encoding="utf-8"?>
<!-- Generator: Adobe Illustrator 21.0.0, SVG Export Plug-In . SVG Version: 6.00 Build 0)  -->
<svg version="1.1" id="图层_1" xmlns="http://www.w3.org/2000/svg" xmlns:xlink="http://www.w3.org/1999/xlink" x="0px" y="0px"
	 viewBox="0 0 16 16" style="enable-background:new 0 0 16 16;" xml:space="preserve">
<style type="text/css">
	.st0{fill:#FFFFFF;}
	.st1{fill:#5D5D5D;}
</style>
<g>
	<path id="path-1" class="st0" d="M9,10.6h1.6c0.4,0,0.8,0.3,0.8,0.8c0,0.4-0.3,0.8-0.8,0.8H9v1.6c0,0.4-0.3,0.8-0.8,0.8
		c-0.4,0-0.8-0.3-0.8-0.8v-1.6H5.9c-0.4,0-0.8-0.3-0.8-0.8c0-0.4,0.3-0.8,0.8-0.8h1.6v-1C5.5,9.3,4,7.5,4,5.3C4,3,5.9,1,8.2,1
		s4.2,2,4.2,4.3c0,2.1-1.5,3.9-3.5,4.3V10.6z M8.2,8.2c1.5,0,2.8-1.3,2.8-2.8S9.8,2.5,8.2,2.5S5.5,3.8,5.5,5.3S6.7,8.2,8.2,8.2z"/>
</g>
<title>16 / ic_women</title>
<desc>Created with Sketch.</desc>
<g id="_x31_6-_x2F_-ic_x5F_women">
	<g id="合并形状">
		<path id="path-1_1_" class="st1" d="M9,10.6h1.6c0.4,0,0.8,0.3,0.8,0.8c0,0.4-0.3,0.8-0.8,0.8H9v1.6c0,0.4-0.3,0.8-0.8,0.8
			c-0.4,0-0.8-0.3-0.8-0.8v-1.6H5.9c-0.4,0-0.8-0.3-0.8-0.8c0-0.4,0.3-0.8,0.8-0.8h1.6v-1C5.5,9.3,4,7.5,4,5.3C4,3,5.9,1,8.2,1
			s4.2,2,4.2,4.3c0,2.1-1.5,3.9-3.5,4.3V10.6z M8.2,8.2c1.5,0,2.8-1.3,2.8-2.8S9.8,2.5,8.2,2.5S5.5,3.8,5.5,5.3S6.7,8.2,8.2,8.2z"/>
	</g>
</g>
</svg>
