<?xml version="1.0" encoding="utf-8"?>
<!DOCTYPE svg PUBLIC "-//W3C//DTD SVG 1.1//EN" "http://www.w3.org/Graphics/SVG/1.1/DTD/svg11.dtd">
<svg version="1.1" id="图形" xmlns="http://www.w3.org/2000/svg" xmlns:xlink="http://www.w3.org/1999/xlink" x="0px" y="0px" width="1037px" height="1024px" viewBox="0 0 1037 1024" enable-background="new 0 0 1037 1024" xml:space="preserve">
  <path fill="#272636" d="M265.162105 249.338947c-11.856842-5.389474-115.334737-56.050526-77.608421-134.736842 34.492632-71.141053 163.84-75.452632 241.448421-32.336842 73.296842 40.96 98.088421 80.842105 101.322105 85.153684-50.661053 25.869474-119.646316 53.894737-218.812632 76.530526C294.265263 249.338947 279.174737 250.416842 265.162105 249.338947zM660.749474 188.976842c60.362105-20.48 219.890526-95.932632 321.212632-118.568421 34.492632 68.985263 54.972632 146.593684 54.972632 229.591579C1036.934737 582.408421 805.187368 812 518.467368 812S0 582.408421 0 300C0 17.591579 232.825263-212 518.467368-212c163.84 0 309.355789 74.374737 404.210526 191.865263-68.985263 32.336842-310.433684 142.282105-315.823158 145.515789-14.012632-14.012632-85.153684-86.231579-136.892632-105.633684-76.530526-28.025263-132.581053-28.025263-186.475789-16.168421 16.168421-4.311579 29.103158-5.389474 37.726316-6.467368C275.941053 0.345263 100.244211 24.058947 112.101053 176.042105c12.934737 176.774737 298.576842 120.724211 439.781053 54.972632 5.389474-2.155789 12.934737-5.389474 21.557895-9.701053 0 0 30.181053 37.726316 47.427368 67.907368 21.557895 39.882105 25.869474 74.374737 25.869474 74.374737L330.913684 363.595789l-1.077895 50.661053L485.052632 414.256842 485.052632 499.410526 267.317895 499.410526l-2.155789 46.349474 217.734737 0 0 85.153684 115.334737 0 0-82.997895 230.669474 0 0-51.738947L598.231579 496.176842l0-77.608421 176.774737 0c0 0-21.557895-73.296842-51.738947-134.736842C697.397895 232.092632 669.372632 198.677895 660.749474 188.976842z" transform="translate(0, 812) scale(1, -1)"/>
</svg>
