<?xml version="1.0" encoding="utf-8"?>
<!-- Generator: Adobe Illustrator 17.0.0, SVG Export Plug-In . SVG Version: 6.00 Build 0)  -->
<!DOCTYPE svg PUBLIC "-//W3C//DTD SVG 1.1//EN" "http://www.w3.org/Graphics/SVG/1.1/DTD/svg11.dtd">
<svg version="1.1" id="图层_1" xmlns="http://www.w3.org/2000/svg" xmlns:xlink="http://www.w3.org/1999/xlink" x="0px" y="0px"
	 width="18px" height="18px" viewBox="0 0 18 18" enable-background="new 0 0 18 18" xml:space="preserve">
<image overflow="visible" width="18" height="18" xlink:href="E10A7E9BFB3C25CF.jpg" >
</image>
<path fill="#0E0E0E" d="M0,9c0-4.963,4.037-9,9-9c4.963,0,9,4.037,9,9s-4.037,9-9,9C4.037,18,0,13.963,0,9L0,9L0,9L0,9L0,9z
	 M16.941,9c0-4.38-3.563-7.941-7.941-7.941S1.059,4.621,1.059,9c0,4.38,3.563,7.941,7.941,7.941S16.941,13.38,16.941,9L16.941,9
	L16.941,9L16.941,9L16.941,9z M10.204,13.097l3.598-3.559c0.213-0.21,0.265-0.519,0.159-0.78c-0.006-0.017-0.021-0.031-0.031-0.046
	c-0.032-0.066-0.069-0.133-0.124-0.19c-0.002,0-0.002,0-0.003,0c0-0.002,0-0.002,0-0.003l-3.569-3.578
	c-0.278-0.28-0.733-0.282-1.015,0C9.08,5.08,9.009,5.265,9.009,5.449c0,0.182,0.069,0.367,0.21,0.507l2.318,2.328H4.689
	C4.291,8.283,3.97,8.604,3.97,9c0,0.396,0.321,0.719,0.719,0.719h6.888l-2.383,2.357c-0.141,0.139-0.213,0.324-0.213,0.511
	c0,0.181,0.069,0.364,0.207,0.505C9.467,13.374,9.923,13.377,10.204,13.097L10.204,13.097L10.204,13.097L10.204,13.097
	L10.204,13.097z"/>
</svg>
