<?xml version="1.0" encoding="utf-8"?>
<!-- Generator: Adobe Illustrator 17.0.0, SVG Export Plug-In . SVG Version: 6.00 Build 0)  -->
<!DOCTYPE svg PUBLIC "-//W3C//DTD SVG 1.1//EN" "http://www.w3.org/Graphics/SVG/1.1/DTD/svg11.dtd">
<svg version="1.1" id="图层_1" xmlns="http://www.w3.org/2000/svg" xmlns:xlink="http://www.w3.org/1999/xlink" x="0px" y="0px"
	 width="17px" height="17px" viewBox="0 0 17 17" enable-background="new 0 0 17 17" xml:space="preserve">
<path fill="#040000" d="M0,8.5C0,3.813,3.813,0,8.5,0C13.187,0,17,3.813,17,8.5c0,4.687-3.813,8.5-8.5,8.5C3.813,17,0,13.187,0,8.5
	L0,8.5L0,8.5L0,8.5z M16,8.5C16,4.364,12.635,1,8.5,1C4.365,1,1,4.364,1,8.5S4.365,16,8.5,16C12.635,16,16,12.636,16,8.5L16,8.5
	L16,8.5L16,8.5z M9.637,12.369l3.398-3.361c0.201-0.198,0.251-0.491,0.151-0.738c-0.006-0.016-0.021-0.028-0.029-0.043
	c-0.031-0.063-0.065-0.126-0.118-0.179c-0.001-0.001-0.001-0.001-0.002-0.001c-0.001-0.001-0.001-0.001-0.001-0.002l-3.37-3.379
	C9.403,4.401,8.974,4.4,8.708,4.665c-0.133,0.132-0.2,0.307-0.2,0.48c0,0.173,0.066,0.347,0.198,0.479l2.191,2.197H4.429
	C4.053,7.821,3.75,8.125,3.75,8.5c0,0.375,0.303,0.679,0.679,0.679h6.505l-2.25,2.226c-0.134,0.132-0.202,0.307-0.202,0.482
	c0,0.172,0.065,0.345,0.196,0.477C8.941,12.63,9.371,12.633,9.637,12.369L9.637,12.369L9.637,12.369L9.637,12.369z M9.637,12.369"/>
</svg>
