<?xml version="1.0" encoding="utf-8"?>
<!-- Generator: Adobe Illustrator 17.0.0, SVG Export Plug-In . SVG Version: 6.00 Build 0)  -->
<!DOCTYPE svg PUBLIC "-//W3C//DTD SVG 1.1//EN" "http://www.w3.org/Graphics/SVG/1.1/DTD/svg11.dtd">
<svg version="1.1" id="图层_1" xmlns="http://www.w3.org/2000/svg" xmlns:xlink="http://www.w3.org/1999/xlink" x="0px" y="0px"
	 width="16px" height="16px" viewBox="0 0 16 16" enable-background="new 0 0 16 16" xml:space="preserve">
<g>
	<path fill="#050101" d="M0.039,9.12c-0.291,2,1.063,3.862,3.022,4.159c1.389,0.21,2.709-0.422,3.464-1.52l4.391,1.132l-0.015,0.092
		c-0.207,1.429,0.759,2.759,2.159,2.97c1.4,0.212,2.703-0.775,2.91-2.203c0.208-1.429-0.759-2.759-2.159-2.971
		c-1.015-0.153-1.979,0.322-2.511,1.14l-4.31-1.103c0.065-0.199,0.114-0.407,0.145-0.622c0.137-0.945-0.093-1.86-0.58-2.593
		l3.54-2.68c0.263,0.149,0.556,0.253,0.871,0.301c1.4,0.212,2.703-0.774,2.91-2.204c0.208-1.428-0.759-2.759-2.159-2.97
		c-1.4-0.212-2.703,0.775-2.911,2.203C8.703,2.977,8.9,3.676,9.304,4.218L5.861,6.824C5.375,6.418,4.78,6.136,4.114,6.035
		C2.154,5.739,0.33,7.12,0.039,9.12L0.039,9.12L0.039,9.12z M0.039,9.12"/>
</g>
</svg>
