<?xml version="1.0" encoding="UTF-8" standalone="no"?>
<svg width="56px" height="58px" viewBox="0 0 56 58" version="1.1" xmlns="http://www.w3.org/2000/svg" xmlns:xlink="http://www.w3.org/1999/xlink">
    <!-- Generator: Sketch 3.8.3 (29802) - http://www.bohemiancoding.com/sketch -->
    <title>Artboard 8</title>
    <desc>Created with Sketch.</desc>
    <defs></defs>
    <g id="Page-1" stroke="none" stroke-width="1" fill="none" fill-rule="evenodd">
        <g id="Artboard-8" transform="translate(-405.000000, -45.000000)" fill="#000000">
            <g id="Group-12-Copy" transform="translate(405.000000, 45.000000)">
                <path d="M19.3103448,37.7631567 L19.3103448,37.4326241 L19.3103448,37.7631567 L19.3103448,37.7631567 Z M1.04409485,-2.98015656e-18 C0.467457185,-1.33426154e-18 -2.8769158e-16,0.458213659 7.39165673e-16,1.04154477 C7.39165673e-16,1.04154477 4.20996571e-14,23.6113475 3.83693077e-14,37.4326241 C3.61932706e-14,51.2539007 28,57.5886525 28,57.5886525 C28,57.5886525 56,53.5574468 56,37.4326241 L56,1.03527352 C56,0.463507745 55.532697,-1.58506798e-16 54.9559052,-1.56860463e-16 L1.04409485,-2.98015656e-18 Z M19.3103448,37.7631567 L19.3103448,38.0936894 L26.3387762,32.3411501 L27.1444071,31.6737589 L28.1931034,31.6737589 L42.4922414,31.6737589 C43.0183837,31.6737589 43.4482759,31.2446739 43.4482759,30.7086496 L43.4482759,13.4426506 C43.4482759,12.9039342 43.02053,12.4775414 42.4922414,12.4775414 L15.4387931,12.4775414 C14.9126508,12.4775414 14.4827586,12.9066264 14.4827586,13.4426506 L14.4827586,30.7086496 C14.4827586,31.247366 14.9105045,31.6737589 15.4387931,31.6737589 L19.3103448,31.6737589 L22.2068966,31.6737589 L22.2068966,34.5531915 L22.2068964,35.7254032 L19.3103448,38.0936894 L19.3103448,37.7631567 L19.3103448,34.5531915 L15.4387931,34.5531915 C13.3110685,34.5531915 11.5862069,32.8379276 11.5862069,30.7086496 L11.5862069,13.4426506 C11.5862069,11.3193688 13.3098923,9.59810875 15.4387931,9.59810875 L42.4922414,9.59810875 C44.619966,9.59810875 46.3448276,11.3133726 46.3448276,13.4426506 L46.3448276,30.7086496 C46.3448276,32.8319315 44.6211422,34.5531915 42.4922414,34.5531915 L28.1931034,34.5531915 L21.2413793,40.3120567 L19.3103448,40.3120567 L19.3103448,37.7631567 Z M19.3103448,17.2765957 L34.7586207,17.2765957 L34.7586207,20.1560284 L19.3103448,20.1560284 L19.3103448,17.2765957 Z M17.3793103,23.035461 L36.6896552,23.035461 L36.6896552,25.9148936 L17.3793103,25.9148936 L17.3793103,23.035461 Z" id="Combined-Shape"></path>
            </g>
        </g>
    </g>
</svg>