<?xml version="1.0" encoding="utf-8"?>
<!-- Generator: Adobe Illustrator 17.0.0, SVG Export Plug-In . SVG Version: 6.00 Build 0)  -->
<!DOCTYPE svg PUBLIC "-//W3C//DTD SVG 1.1//EN" "http://www.w3.org/Graphics/SVG/1.1/DTD/svg11.dtd">
<svg version="1.1" id="图层_1" xmlns="http://www.w3.org/2000/svg" xmlns:xlink="http://www.w3.org/1999/xlink" x="0px" y="0px"
	 width="14px" height="14px" viewBox="0 0 14 14" enable-background="new 0 0 14 14" xml:space="preserve">
<path d="M9.541,4.471L8.653,3.584l-4.441,4.44c-0.736,0.735-0.736,1.928,0,2.664c0.736,0.735,1.929,0.735,2.664,0l5.329-5.328
	c1.227-1.226,1.227-3.214,0-4.44c-1.226-1.226-3.214-1.226-4.44,0L2.17,6.514C2.166,6.518,2.161,6.522,2.158,6.526
	c-1.71,1.71-1.71,4.482,0,6.192c1.71,1.71,4.483,1.71,6.193,0c0.004-0.004,0.007-0.008,0.011-0.012l0,0l3.819-3.818L11.293,8
	l-3.819,3.818c-0.004,0.004-0.008,0.008-0.012,0.012c-1.218,1.218-3.199,1.218-4.417,0c-1.218-1.217-1.218-3.198,0-4.416
	C3.05,7.41,3.054,7.406,3.058,7.402L3.057,7.402l5.596-5.594c0.734-0.735,1.93-0.735,2.664,0c0.734,0.735,0.734,1.93,0,2.664
	L5.988,9.799c-0.245,0.245-0.643,0.245-0.888,0c-0.245-0.245-0.245-0.643,0-0.888L9.541,4.471L9.541,4.471z"/>
</svg>
