<?xml version="1.0" encoding="utf-8"?>
<!-- Generator: Adobe Illustrator 17.0.0, SVG Export Plug-In . SVG Version: 6.00 Build 0)  -->
<!DOCTYPE svg PUBLIC "-//W3C//DTD SVG 1.1//EN" "http://www.w3.org/Graphics/SVG/1.1/DTD/svg11.dtd">
<svg version="1.1" id="图层_1" xmlns="http://www.w3.org/2000/svg" xmlns:xlink="http://www.w3.org/1999/xlink" x="0px" y="0px"
	 width="18px" height="18px" viewBox="0 0 18 18" enable-background="new 0 0 18 18" xml:space="preserve">
<g>
	<g>
		<path fill="#221F20" d="M17.917,13.158h-1.207V9.064c0-4.286-3.477-7.773-7.751-7.773S1.207,4.778,1.207,9.064v4.094H0V9.064
			c0-4.952,4.019-8.981,8.958-8.981s8.958,4.029,8.958,8.981V13.158z"/>
	</g>
	<g>
		<path fill="#221F20" d="M4.044,17.012C1.814,17.012,0,15.193,0,12.959s1.814-4.053,4.044-4.053v1.207
			c-1.565,0-2.837,1.276-2.837,2.846s1.272,2.846,2.837,2.846V17.012z"/>
	</g>
	<g>
		<path fill="#221F20" d="M5.096,18c-1.01,0-1.832-0.839-1.832-1.87V9.792c0-1.031,0.822-1.87,1.832-1.87
			c1.011,0,1.833,0.839,1.833,1.87v6.338C6.929,17.161,6.106,18,5.096,18z M5.096,9.13c-0.344,0-0.625,0.297-0.625,0.663v6.338
			c0,0.365,0.28,0.663,0.625,0.663c0.345,0,0.626-0.297,0.626-0.663V9.792C5.721,9.427,5.441,9.13,5.096,9.13z"/>
	</g>
	<g>
		<path fill="#221F20" d="M13.873,17.012v-1.207c1.565,0,2.837-1.276,2.837-2.846s-1.272-2.846-2.837-2.846V8.906
			c2.23,0,4.044,1.818,4.044,4.053S16.103,17.012,13.873,17.012z"/>
	</g>
	<g>
		<path fill="#221F20" d="M12.821,18c-1.01,0-1.832-0.839-1.832-1.87V9.792c0-1.031,0.822-1.87,1.832-1.87s1.832,0.839,1.832,1.87
			v6.338C14.653,17.161,13.831,18,12.821,18z M12.821,9.13c-0.344,0-0.625,0.297-0.625,0.663v6.338c0,0.365,0.28,0.663,0.625,0.663
			s0.625-0.297,0.625-0.663V9.792C13.446,9.427,13.166,9.13,12.821,9.13z"/>
	</g>
</g>
</svg>
