<?xml version="1.0" encoding="utf-8"?>
<!-- Generator: Adobe Illustrator 17.0.0, SVG Export Plug-In . SVG Version: 6.00 Build 0)  -->
<!DOCTYPE svg PUBLIC "-//W3C//DTD SVG 1.1//EN" "http://www.w3.org/Graphics/SVG/1.1/DTD/svg11.dtd">
<svg version="1.1" id="图层_1" xmlns="http://www.w3.org/2000/svg" xmlns:xlink="http://www.w3.org/1999/xlink" x="0px" y="0px"
	 width="10px" height="9.995px" viewBox="0 0 10 9.995" enable-background="new 0 0 10 9.995" xml:space="preserve">
<g>
	<path fill="#272636" d="M4.344,5.87H3.851c0,0-0.492,0.04-0.665,0.601C3.127,6.845,3.24,7.065,3.26,7.112s0.179,0.32,0.579,0.4
		h0.925V5.269l-0.42-0.006V5.87z M4.337,7.145H3.964c0,0-0.259-0.013-0.339-0.313c-0.04-0.134,0.006-0.287,0.027-0.347
		c0.02-0.06,0.106-0.2,0.285-0.254h0.399L4.337,7.145L4.337,7.145z"/>
	<path fill="#272636" d="M6.026,7.112H5.588c0,0-0.14-0.02-0.167-0.134V5.917L4.989,5.924v1.181c0,0,0.019,0.294,0.432,0.401h1.064
		V5.924H6.026V7.112z"/>
	<path fill="#272636" d="M5,0C2.239,0,0,2.239,0,5s2.239,5,5,5c2.762,0,5-2.239,5-5S7.762,0,5,0z M6.198,1.709
		C6.57,1.794,6.909,2.289,6.84,2.715c-0.067,0.426-0.405,0.989-0.93,0.92C5.386,3.568,5.267,3.091,5.318,2.613
		C5.36,2.222,5.825,1.623,6.198,1.709z M4.218,1.538c0.393,0,0.71,0.454,0.71,1.015S4.61,3.568,4.218,3.568S3.507,3.114,3.507,2.553
		S3.826,1.538,4.218,1.538z M2.001,3.943c0,0,0.084-0.835,0.66-0.887c0.458-0.04,0.795,0.463,0.83,0.751
		C3.512,3.993,3.609,4.847,2.897,5C2.188,5.153,1.923,4.329,2.001,3.943z M7.417,7.541c-0.39,0.921-1.812,0.442-1.812,0.442
		S5.081,7.814,4.472,7.949C3.863,8.086,3.338,8.034,3.338,8.034S2.626,8.052,2.424,7.148c-0.203-0.904,0.71-1.399,0.779-1.483
		C3.27,5.579,3.744,5.256,4.048,4.744c0.305-0.511,1.219-0.92,1.862,0.085c0.475,0.682,1.287,1.313,1.287,1.313
		S7.805,6.62,7.417,7.541z M7.298,5.443C6.519,5.46,6.486,4.914,6.486,4.523c0-0.41,0.084-0.99,0.711-0.99
		c0.626,0,0.795,0.615,0.795,0.818C7.992,4.557,8.077,5.426,7.298,5.443z"/>
</g>
</svg>
