<?xml version="1.0" encoding="utf-8"?>
<!-- Generator: Adobe Illustrator 17.0.0, SVG Export Plug-In . SVG Version: 6.00 Build 0)  -->
<!DOCTYPE svg PUBLIC "-//W3C//DTD SVG 1.1//EN" "http://www.w3.org/Graphics/SVG/1.1/DTD/svg11.dtd">
<svg version="1.1" id="图层_1" xmlns="http://www.w3.org/2000/svg" xmlns:xlink="http://www.w3.org/1999/xlink" x="0px" y="0px"
	 width="16px" height="16px" viewBox="0 0 16 16" enable-background="new 0 0 16 16" xml:space="preserve">
<g>
	<g>
		<path d="M2.605,11.257c0.52-0.059,1.047-0.123,1.582-0.193V7.574H2.75V6.755h1.438V4.156H2.639V3.338H6.51v0.818H4.995v2.599
			h1.327v0.819H4.995v3.379c0.512-0.074,1.032-0.153,1.56-0.238c-0.03,0.295-0.048,0.575-0.055,0.841
			c-1.121,0.17-2.382,0.369-3.783,0.598L2.605,11.257z M8.047,2.696h0.796c0,1.785-0.011,3.425-0.033,4.922
			c-0.03,2.515-0.667,4.428-1.914,5.74c-0.192-0.199-0.428-0.395-0.708-0.586c1.195-1.15,1.803-2.887,1.825-5.209
			C8.036,6.56,8.047,4.938,8.047,2.696z M6.631,4.599h0.741C7.365,6.074,7.31,7.574,7.207,9.101C6.949,9.094,6.702,9.09,6.466,9.09
			C6.562,7.792,6.617,6.295,6.631,4.599z M8.877,11.921h1.925V8.05H9.297V7.253h1.505V4.09H9.22V3.293h4.016V4.09H11.62v3.164h1.549
			V8.05H11.62v3.871h1.924v0.796H8.877V11.921z"/>
	</g>
	<g>
		<path d="M13.5,16h-11C1.121,16,0,14.878,0,13.5v-11C0,1.122,1.121,0,2.5,0h11C14.879,0,16,1.122,16,2.5v11
			C16,14.878,14.879,16,13.5,16z M2.5,1C1.673,1,1,1.673,1,2.5v11C1,14.327,1.673,15,2.5,15h11c0.827,0,1.5-0.673,1.5-1.5v-11
			C15,1.673,14.327,1,13.5,1H2.5z"/>
	</g>
</g>
</svg>
