<?xml version="1.0" encoding="utf-8"?>
<!-- Generator: Adobe Illustrator 17.0.0, SVG Export Plug-In . SVG Version: 6.00 Build 0)  -->
<!DOCTYPE svg PUBLIC "-//W3C//DTD SVG 1.1//EN" "http://www.w3.org/Graphics/SVG/1.1/DTD/svg11.dtd">
<svg version="1.1" id="图层_1" xmlns="http://www.w3.org/2000/svg" xmlns:xlink="http://www.w3.org/1999/xlink" x="0px" y="0px"
	 width="10px" height="10px" viewBox="0 0 10 10" enable-background="new 0 0 10 10" xml:space="preserve">
<path fill="#231F20" d="M5,0C2.239,0,0,2.239,0,5s2.239,5,5,5s5-2.239,5-5S7.761,0,5,0z M8.769,5c0,0.779-0.237,1.502-0.641,2.103
	L2.897,1.872C3.498,1.467,4.221,1.231,5,1.231C7.082,1.231,8.769,2.918,8.769,5z M1.231,5c0-0.779,0.237-1.502,0.641-2.103
	l5.231,5.231C6.502,8.533,5.779,8.769,5,8.769C2.918,8.769,1.231,7.082,1.231,5z"/>
</svg>
