<?xml version="1.0" encoding="utf-8"?>
<!-- Generator: Adobe Illustrator 17.0.0, SVG Export Plug-In . SVG Version: 6.00 Build 0)  -->
<!DOCTYPE svg PUBLIC "-//W3C//DTD SVG 1.1//EN" "http://www.w3.org/Graphics/SVG/1.1/DTD/svg11.dtd">
<svg version="1.1" id="图层_1" xmlns="http://www.w3.org/2000/svg" xmlns:xlink="http://www.w3.org/1999/xlink" x="0px" y="0px"
	 width="24px" height="24px" viewBox="0 0 24 24" enable-background="new 0 0 24 24" xml:space="preserve">
<path d="M12,0C5.372,0,0,5.372,0,12s5.372,12,12,12s12-5.372,12-12S18.627,0,12,0z M12,22.285C6.318,22.285,1.714,17.681,1.714,12
	S6.318,1.714,12,1.714S22.285,6.319,22.285,12S17.682,22.285,12,22.285z"/>
<g>
	<path d="M6.566,8.118h10.868V6.566H6.566V8.118L6.566,8.118z M6.566,12.776h10.868v-1.553H6.566V12.776L6.566,12.776z
		 M6.566,17.433h10.868v-1.552H6.566V17.433L6.566,17.433z M6.566,17.433"/>
</g>
</svg>
