<?xml version="1.0" encoding="utf-8"?>
<!-- Generator: Adobe Illustrator 17.0.0, SVG Export Plug-In . SVG Version: 6.00 Build 0)  -->
<!DOCTYPE svg PUBLIC "-//W3C//DTD SVG 1.1//EN" "http://www.w3.org/Graphics/SVG/1.1/DTD/svg11.dtd">
<svg version="1.1" id="图层_1" xmlns="http://www.w3.org/2000/svg" xmlns:xlink="http://www.w3.org/1999/xlink" x="0px" y="0px"
	 width="18px" height="20px" viewBox="0 0 18 20" enable-background="new 0 0 18 20" xml:space="preserve">
<path fill="#090C0E" d="M15.382,13.743V7.618c0-3.188-2.272-5.832-5.258-6.369V0.762C10.125,0.341,9.789,0,9.375,0h-0.75
	c-0.414,0-0.75,0.341-0.75,0.762v0.489c-2.98,0.544-5.243,3.184-5.243,6.367v6.125L0,15.907v1.235h18v-1.235L15.382,13.743
	L15.382,13.743z M17.25,16.38H0.75v-0.109l2.354-1.936l0.278-0.228v-0.364V7.618c0-3.15,2.523-5.713,5.625-5.713
	c3.101,0,5.625,2.563,5.625,5.713v6.125v0.362l0.276,0.229l2.342,1.936L17.25,16.38L17.25,16.38z M8.999,19.802
	c1.036,0,1.877-0.851,1.877-1.904H7.124C7.124,18.95,7.965,19.802,8.999,19.802L8.999,19.802z M8.999,19.802"/>
</svg>
