<?xml version="1.0" encoding="utf-8"?>
<!-- Generator: Adobe Illustrator 18.0.0, SVG Export Plug-In . SVG Version: 6.00 Build 0)  -->
<!DOCTYPE svg PUBLIC "-//W3C//DTD SVG 1.1//EN" "http://www.w3.org/Graphics/SVG/1.1/DTD/svg11.dtd" [
	<!ENTITY ns_flows "http://ns.adobe.com/Flows/1.0/">
	<!ENTITY ns_extend "http://ns.adobe.com/Extensibility/1.0/">
	<!ENTITY ns_ai "http://ns.adobe.com/AdobeIllustrator/10.0/">
	<!ENTITY ns_graphs "http://ns.adobe.com/Graphs/1.0/">
]>
<svg version="1.1" id="图层_1" xmlns:x="&ns_extend;" xmlns:i="&ns_ai;" xmlns:graph="&ns_graphs;"
	 xmlns="http://www.w3.org/2000/svg" xmlns:xlink="http://www.w3.org/1999/xlink" xmlns:a="http://ns.adobe.com/AdobeSVGViewerExtensions/3.0/"
	 x="0px" y="0px" viewBox="0 0 30 30" enable-background="new 0 0 30 30" xml:space="preserve">
<g>
	<path fill="#272636" d="M13,11l-2.1,2c1,2.5,3.1,5.2,5.6,6.3l1.9-1.6c0,0,4.1,1,5.1,1.5c0.8,0.5,1,1.4,0.9,2.4
		c-0.3,1.1-1.9,3.6-4.6,3.5s-6.8-2.4-9.5-5.6S5.1,12,5.6,8.7C6.3,5.5,9.1,5,9.9,5s1.2,0.2,1.8,0.7C12.1,6.5,13,11,13,11L13,11L13,11
		z"/>
</g>
<g>
	<g>
		<path fill="#272636" d="M15,29.8c-4,0-7.7-1.5-10.5-4.3C1.7,22.7,0.2,19,0.2,15c0-4,1.5-7.7,4.3-10.5C7.3,1.7,11,0.2,15,0.2
			c4,0,7.7,1.5,10.5,4.3c2.8,2.8,4.3,6.5,4.3,10.5c0,4-1.5,7.7-4.3,10.5C22.7,28.3,19,29.8,15,29.8z M15,1.2c-3.7,0-7.2,1.4-9.8,4
			c-2.6,2.6-4,6.1-4,9.8s1.4,7.2,4,9.8c2.6,2.6,6.1,4,9.8,4c3.7,0,7.2-1.4,9.8-4c2.6-2.6,4-6.1,4-9.8c0-3.7-1.4-7.2-4-9.8
			C22.2,2.6,18.7,1.2,15,1.2z"/>
	</g>
</g>
</svg>
