<?xml version="1.0" encoding="utf-8"?>
<!-- Generator: Adobe Illustrator 17.0.0, SVG Export Plug-In . SVG Version: 6.00 Build 0)  -->
<!DOCTYPE svg PUBLIC "-//W3C//DTD SVG 1.1//EN" "http://www.w3.org/Graphics/SVG/1.1/DTD/svg11.dtd">
<svg version="1.1" id="图层_1" xmlns="http://www.w3.org/2000/svg" xmlns:xlink="http://www.w3.org/1999/xlink" x="0px" y="0px"
	 width="15.006px" height="15.006px" viewBox="0 0 15.006 15.006" enable-background="new 0 0 15.006 15.006" xml:space="preserve">
<path fill="#040000" d="M2.216,5.23L5.49,6.037c0.042,0.01,0.084,0.015,0.122,0.015c0.207,0,0.395-0.127,0.451-0.319
	C6.13,5.503,5.982,5.268,5.732,5.207L2.461,4.4C2.211,4.337,1.954,4.475,1.887,4.704C1.82,4.934,1.968,5.169,2.216,5.23L2.216,5.23
	L2.216,5.23z M2.216,7.595L5.49,8.407c0.042,0.01,0.084,0.015,0.122,0.015c0.207,0,0.395-0.128,0.451-0.321
	C6.13,7.869,5.982,7.632,5.732,7.57L2.459,6.759C2.21,6.697,1.953,6.834,1.886,7.066C1.82,7.297,1.968,7.534,2.216,7.595
	L2.216,7.595L2.216,7.595z M2.216,9.972l3.274,0.804c0.041,0.01,0.082,0.015,0.122,0.015c0.207,0,0.395-0.127,0.451-0.318
	c0.066-0.228-0.081-0.464-0.332-0.525L2.461,9.143C2.211,9.081,1.954,9.217,1.887,9.446S1.968,9.912,2.216,9.972L2.216,9.972
	L2.216,9.972z M14.782,0.49c-0.115-0.091-0.267-0.122-0.405-0.082L7.483,2.28L0.589,0.408C0.449,0.369,0.297,0.399,0.182,0.49
	C0.067,0.579,0,0.718,0,0.865v11.372c0,0.215,0.141,0.402,0.345,0.456L7.36,14.6c0.041,0.01,0.081,0.015,0.122,0.015
	c0.04,0,0.081-0.005,0.121-0.015l7.015-1.906c0.205-0.055,0.347-0.242,0.347-0.456V0.865C14.965,0.718,14.897,0.579,14.782,0.49
	L14.782,0.49L14.782,0.49z M7.065,13.741l-6.297-1.71V1.267l6.297,1.71V13.741L7.065,13.741L7.065,13.741z M14.182,12.008
	l-6.267,1.702V2.998l6.267-1.702V12.008L14.182,12.008L14.182,12.008z M9.352,6.052c0.04,0,0.081-0.005,0.123-0.015l3.272-0.821
	c0.249-0.062,0.397-0.303,0.332-0.536c-0.067-0.233-0.324-0.372-0.574-0.309L9.231,5.193C8.983,5.255,8.835,5.496,8.902,5.729
	C8.958,5.924,9.146,6.052,9.352,6.052L9.352,6.052L9.352,6.052z M9.352,8.422c0.04,0,0.081-0.005,0.123-0.015l3.272-0.827
	c0.249-0.064,0.397-0.304,0.332-0.539c-0.067-0.234-0.324-0.374-0.574-0.312L9.231,7.556C8.983,7.62,8.835,7.861,8.902,8.095
	C8.958,8.293,9.146,8.422,9.352,8.422L9.352,8.422L9.352,8.422z M9.352,10.791c0.04,0,0.081-0.005,0.123-0.015l3.272-0.808
	c0.249-0.061,0.397-0.298,0.332-0.528c-0.067-0.231-0.324-0.367-0.574-0.306L9.231,9.943c-0.248,0.061-0.397,0.298-0.33,0.529
	C8.958,10.664,9.146,10.791,9.352,10.791L9.352,10.791L9.352,10.791z"/>
</svg>
