<?xml version="1.0" encoding="utf-8"?>
<!-- Generator: Adobe Illustrator 16.0.0, SVG Export Plug-In . SVG Version: 6.00 Build 0)  -->
<!DOCTYPE svg PUBLIC "-//W3C//DTD SVG 1.1//EN" "http://www.w3.org/Graphics/SVG/1.1/DTD/svg11.dtd">
<svg version="1.1" id="图层_1" xmlns="http://www.w3.org/2000/svg" xmlns:xlink="http://www.w3.org/1999/xlink" x="0px" y="0px"
	 width="32px" height="32px" viewBox="0 0 32 32" enable-background="new 0 0 32 32" xml:space="preserve">
<path fill="#040000" d="M24.862,4.547c-0.293-0.184-0.662-0.209-0.98-0.072L23.298,4.73L20.237,3.34
	c0.094-0.242,0.09-0.52-0.035-0.773c-0.242-0.492-0.855-0.705-1.369-0.473L7.257,7.383c-0.359,0.164-0.59,0.514-0.59,0.896v18.764
	c0,0.387,0.23,0.736,0.592,0.9l4.33,1.963C11.728,29.969,11.878,30,12.026,30c0.141,0,0.283-0.029,0.414-0.084l12.277-5.205
	c0.375-0.156,0.615-0.512,0.615-0.908V5.381C25.333,5.045,25.155,4.73,24.862,4.547L24.862,4.547z M23.274,23.154l-11.232,4.762
	l-3.316-1.502V10.453l2.566,1.271c0.277,0.137,0.607,0.145,0.893,0.021l11.09-4.828V23.154L23.274,23.154L23.274,23.154z
	 M23.274,23.154"/>
</svg>
