<?xml version="1.0" encoding="utf-8"?>
<!-- Generator: Adobe Illustrator 17.0.0, SVG Export Plug-In . SVG Version: 6.00 Build 0)  -->
<!DOCTYPE svg PUBLIC "-//W3C//DTD SVG 1.1//EN" "http://www.w3.org/Graphics/SVG/1.1/DTD/svg11.dtd">
<svg version="1.1" id="图层_1" xmlns="http://www.w3.org/2000/svg" xmlns:xlink="http://www.w3.org/1999/xlink" x="0px" y="0px"
	 width="48px" height="48px" viewBox="0 0 48 48" enable-background="new 0 0 48 48" xml:space="preserve">
<g>
	<path fill="#231F20" d="M31.163,29.558c2.847,0,5.163,2.316,5.163,5.163c0,1.683-0.828,3.265-2.215,4.234l-0.855,0.597v1.043v3.169
		l-1.199-0.599l-0.894-0.447l-0.894,0.447l-1.199,0.599v-3.169v-1.043l-0.855-0.597C26.828,37.986,26,36.404,26,34.721
		C26,31.874,28.316,29.558,31.163,29.558 M31.163,27.558c-3.956,0-7.163,3.207-7.163,7.163c0,2.433,1.216,4.579,3.07,5.874V47
		l4.093-2.047L35.256,47v-6.406c1.854-1.295,3.07-3.441,3.07-5.874C38.326,30.765,35.119,27.558,31.163,27.558L31.163,27.558z"/>
</g>
<g>
	<g>
		<rect x="9" y="8" fill-rule="evenodd" clip-rule="evenodd" fill="#231F20" width="28" height="2"/>
	</g>
</g>
<g>
	<g>
		<rect x="9" y="14" fill-rule="evenodd" clip-rule="evenodd" fill="#231F20" width="28" height="2"/>
	</g>
</g>
<path fill="#231F20" d="M41.86,1H5.14C3.958,1,3,1.958,3,3.14V43.86C3,45.042,3.958,46,5.14,46h17.465H25v-2h-2.395H5.14
	C5.063,44,5,43.937,5,43.86V3.14C5,3.063,5.063,3,5.14,3H41.86C41.937,3,42,3.063,42,3.14v40.586C41.877,43.825,41.513,44,40.791,44
	h-1.07H37v2h2.721h1.07C42.997,46,44,44.863,44,43.86c0-1.003,0-40.721,0-40.721C44,1.958,43.042,1,41.86,1z"/>
</svg>
