<?xml version="1.0" encoding="utf-8"?>
<!-- Generator: Adobe Illustrator 17.0.0, SVG Export Plug-In . SVG Version: 6.00 Build 0)  -->
<!DOCTYPE svg PUBLIC "-//W3C//DTD SVG 1.1//EN" "http://www.w3.org/Graphics/SVG/1.1/DTD/svg11.dtd">
<svg version="1.1" id="图层_1" xmlns="http://www.w3.org/2000/svg" xmlns:xlink="http://www.w3.org/1999/xlink" x="0px" y="0px"
	 width="10px" height="10px" viewBox="0 0 10 10" enable-background="new 0 0 10 10" xml:space="preserve">
<g>
	<g>
		<path fill-rule="evenodd" clip-rule="evenodd" d="M5,0C2.239,0,0,2.239,0,5s2.239,5,5,5s5-2.239,5-5S7.761,0,5,0z M5,9.333
			c-2.393,0-4.333-1.94-4.333-4.333c0-2.393,1.94-4.333,4.333-4.333S9.333,2.607,9.333,5C9.333,7.393,7.393,9.333,5,9.333z M5,1.719
			C3.188,1.719,1.719,3.188,1.719,5c0,1.812,1.469,3.281,3.281,3.281S8.281,6.812,8.281,5C8.281,3.188,6.812,1.719,5,1.719z
			 M5,7.656C3.533,7.656,2.344,6.467,2.344,5c0-1.467,1.189-2.656,2.656-2.656S7.656,3.533,7.656,5C7.656,6.467,6.467,7.656,5,7.656
			z M5,4.063c-0.518,0-0.938,0.42-0.938,0.938S4.482,5.938,5,5.938S5.938,5.518,5.938,5S5.518,4.063,5,4.063z"/>
	</g>
</g>
</svg>
