<?xml version="1.0" encoding="utf-8"?>
<!-- Generator: Adobe Illustrator 17.0.0, SVG Export Plug-In . SVG Version: 6.00 Build 0)  -->
<!DOCTYPE svg PUBLIC "-//W3C//DTD SVG 1.1//EN" "http://www.w3.org/Graphics/SVG/1.1/DTD/svg11.dtd">
<svg version="1.1" id="图层_1" xmlns="http://www.w3.org/2000/svg" xmlns:xlink="http://www.w3.org/1999/xlink" x="0px" y="0px"
	 width="18px" height="18px" viewBox="0 0 18 18" enable-background="new 0 0 18 18" xml:space="preserve">
<g>
	<path fill="#323333" d="M9.9,13.752c-0.906,0-1.639,0.768-1.639,1.715c0,0.947,0.734,1.715,1.639,1.715
		c0.906,0,1.64-0.768,1.64-1.715C11.54,14.519,10.806,13.752,9.9,13.752L9.9,13.752z M18,2.006V1.696
		c0-0.485-0.401-0.878-0.897-0.878h-1.867c-0.045,0-0.089,0.004-0.133,0.011c-0.335,0.02-0.639,0.248-0.748,0.6l-1.007,2.987H0.839
		C0.376,4.416,0,4.424,0,4.909v0.818c0,0.485,0.376,0.716,0.839,0.716h11.825L12.25,7.671c-0.004,0-0.007-0.001-0.011-0.001H0.915
		C0.452,7.67,0,7.697,0,8.182V9c0,0.485,0.452,0.698,0.915,0.698h10.651l-0.424,1.259H0.729C0.247,10.956,0,10.97,0,11.455v0.818
		c0,0.485,0.247,0.711,0.729,0.711h11.057c0.024,0,0.047-0.002,0.071-0.004c0.377,0.03,0.738-0.208,0.86-0.599l3.202-9.497h1.185
		C17.599,2.884,18,2.491,18,2.006L18,2.006L18,2.006z M18,2.006"/>
	<path fill="#323333" d="M3.355,13.752c-0.905,0-1.64,0.768-1.64,1.715c0,0.947,0.734,1.715,1.64,1.715
		c0.906,0,1.64-0.768,1.64-1.715C4.995,14.519,4.261,13.752,3.355,13.752L3.355,13.752z M18,2.006V1.696
		c0-0.485-0.401-0.878-0.897-0.878h-1.867c-0.045,0-0.089,0.004-0.133,0.011c-0.335,0.02-0.639,0.248-0.748,0.6l-1.007,2.987H0.839
		C0.376,4.416,0,4.424,0,4.909v0.818c0,0.485,0.376,0.716,0.839,0.716h11.825L12.25,7.671c-0.004,0-0.007-0.001-0.011-0.001H0.915
		C0.452,7.67,0,7.697,0,8.182V9c0,0.485,0.452,0.698,0.915,0.698h10.651l-0.424,1.259H0.729C0.247,10.956,0,10.97,0,11.455v0.818
		c0,0.485,0.247,0.711,0.729,0.711h11.057c0.024,0,0.047-0.002,0.071-0.004c0.377,0.03,0.738-0.208,0.86-0.599l3.202-9.497h1.185
		C17.599,2.884,18,2.491,18,2.006L18,2.006L18,2.006z M18,2.006"/>
</g>
</svg>
