<?xml version="1.0" encoding="utf-8"?>
<!-- Generator: Adobe Illustrator 17.0.0, SVG Export Plug-In . SVG Version: 6.00 Build 0)  -->
<!DOCTYPE svg PUBLIC "-//W3C//DTD SVG 1.1//EN" "http://www.w3.org/Graphics/SVG/1.1/DTD/svg11.dtd">
<svg version="1.1" id="图层_1" xmlns="http://www.w3.org/2000/svg" xmlns:xlink="http://www.w3.org/1999/xlink" x="0px" y="0px"
	 width="16px" height="16px" viewBox="0 0 16 16" enable-background="new 0 0 16 16" xml:space="preserve">
<path fill="#231F20" d="M13.909,4.537l-1.908,0.734V5c0-1.385-0.71-1.5-1.5-1.5h-8C1.589,3.5,1,4.104,1,5.037L1,11
	c0,0.925,0.575,1.5,1.5,1.5h8c0.925,0,1.5-0.575,1.5-1.5v-0.296l1.743,0.607l0.165,0.028c0.602,0,1.091-0.484,1.091-1.08V5.617
	C15,5.021,14.511,4.537,13.909,4.537z M14,10.26c0,0.028-0.017,0.054-0.042,0.067l-2.957-1.031V11c0,0.369-0.131,0.5-0.5,0.5h-8
	C2.131,11.5,2,11.369,2,11l0-5.963C2,4.565,2.241,4.5,2.5,4.5h8c0.166,0,0.393,0,0.437,0.017C10.939,4.521,11.001,4.61,11.001,5
	l-0.002,1.757l2.966-1.203C13.986,5.568,14,5.591,14,5.617V10.26z"/>
</svg>
