<?xml version="1.0" encoding="UTF-8" standalone="no"?>
<svg width="74px" height="19px" viewBox="0 0 74 19" version="1.1" xmlns="http://www.w3.org/2000/svg" xmlns:xlink="http://www.w3.org/1999/xlink">
    <!-- Generator: Sketch 39.1 (31720) - http://www.bohemiancoding.com/sketch -->
    <title>Group 6</title>
    <desc>Created with Sketch.</desc>
    <defs></defs>
    <g id="Page-1" stroke="none" stroke-width="1" fill="none" fill-rule="evenodd">
        <g id="Group-6" fill="#000000">
            <path d="M1,0.994771168 L1,0.994771168 L1,18.0052288 C1,18.0006063 0.999398863,18 0.990129262,18 L73.0098707,18 C72.9983449,18 73,17.9983487 73,18.0052288 L73,0.994771168 C73,0.999393717 73.0006011,1 73.0098707,1 L0.990129262,1 C1.00165514,1 1,1.0016513 1,0.994771168 L1,0.994771168 L1,0.994771168 Z M0,0.994771168 C0,0.445374222 0.453369457,0 0.990129262,0 L73.0098707,0 C73.556704,0 74,0.450925395 74,0.994771168 L74,18.0052288 C74,18.5546258 73.5466305,19 73.0098707,19 L0.990129262,19 C0.44329597,19 0,18.5490746 0,18.0052288 L0,0.994771168 L0,0.994771168 L0,0.994771168 Z" id="Rectangle-1-Copy-10"></path>
            <path d="M0,0.994771168 C0,0.445374222 0.444946289,0 0.993397683,0 L18,0 L18,19 L0.993397683,19 C0.444759292,19 0,18.5490746 0,18.0052288 L0,0.994771168 Z M4.512,4.388 C5.33600412,5.03600324 6.01999728,5.66399696 6.564,6.272 L5.94,6.896 C5.4599976,6.295997 4.78800432,5.64800348 3.924,4.952 L4.512,4.388 Z M11.328,14.984 C10.935998,14.984 10.244005,14.9760001 9.252,14.96 C8.49999624,14.9439999 7.88800236,14.8720006 7.416,14.744 C6.95999772,14.5999993 6.54800184,14.3080022 6.18,13.868 C6.02799924,13.667999 5.88000072,13.568 5.736,13.568 C5.44799856,13.568 4.97200332,14.1199945 4.308,15.224 L3.66,14.636 C4.3000032,13.627995 4.86399756,13.0160011 5.352,12.8 L5.352,9.152 L3.648,9.152 L3.648,8.36 L6.156,8.36 L6.156,12.86 C6.2360004,12.9240003 6.32799948,13.0119994 6.432,13.124 C6.72000144,13.4680017 7.01999844,13.7199992 7.332,13.88 C7.6920018,14.0480008 8.21599656,14.1439999 8.904,14.168 C9.73600416,14.1840001 10.5039965,14.192 11.208,14.192 C11.600002,14.192 12.2119958,14.1840001 13.044,14.168 C13.7480035,14.1519999 14.2279987,14.1360001 14.484,14.12 L14.268,14.984 L11.328,14.984 Z M10.164,9.548 C10.8840036,9.97200212 11.4959975,10.3639982 12,10.724 C12.4880024,10.2919978 12.8919984,9.88000196 13.212,9.488 L13.836,9.98 C13.4119979,10.4680024 13.0120019,10.8719984 12.636,11.192 C13.2920033,11.7040026 13.8479977,12.1879977 14.304,12.644 L13.764,13.28 C12.7079947,12.1679944 11.3440084,11.1200049 9.672,10.136 L10.164,9.548 Z M8.556,7.256 L8.556,8.36 L12.636,8.36 L12.636,7.256 L8.556,7.256 Z M12.636,6.536 L12.636,5.42 L8.556,5.42 L8.556,6.536 L12.636,6.536 Z M8.556,9.128 L8.556,12.38 C9.3160038,12.2439993 10.1159958,12.0560012 10.956,11.816 L11.148,12.596 C10.2039953,12.8600013 9.01600716,13.1119988 7.584,13.352 L7.392,12.62 C7.60800108,12.5479996 7.716,12.4280008 7.716,12.26 L7.716,4.652 L13.476,4.652 L13.476,9.128 L8.556,9.128 Z" id="Combined-Shape"></path>
            <path d="M28.9,4.82 L39.1,4.82 L39.1,5.672 L35.188,5.672 C34.979999,6.1520024 34.7320014,6.62799764 34.444,7.1 L34.444,15.224 L33.556,15.224 L33.556,8.372 C32.4279944,9.772007 30.9520091,11.0199945 29.128,12.116 L28.564,11.36 C31.2840136,9.79199216 33.1719947,7.89601112 34.228,5.672 L28.9,5.672 L28.9,4.82 Z M35.956,8.048 C37.3240068,9.1280054 38.4799953,10.2199945 39.424,11.324 L38.764,11.996 C37.9239958,10.9399947 36.7800072,9.82000592 35.332,8.636 L35.956,8.048 Z M40.3705882,4.916 L51.0745882,4.916 L51.0745882,5.756 L49.4905882,5.756 L49.4905882,13.916 C49.4905882,14.716004 49.1065921,15.116 48.3385882,15.116 L46.3345882,15.116 L46.1425882,14.276 C47.0225926,14.3080002 47.6545863,14.324 48.0385882,14.324 C48.4305902,14.324 48.6265882,14.1160021 48.6265882,13.7 L48.6265882,5.756 L40.3705882,5.756 L40.3705882,4.916 Z M46.4305882,7.592 L46.4305882,11.996 L42.6025882,11.996 L42.6025882,13.052 L41.7625882,13.052 L41.7625882,7.592 L46.4305882,7.592 Z M42.6025882,11.204 L45.6025882,11.204 L45.6025882,8.372 L42.6025882,8.372 L42.6025882,11.204 Z M52.9331765,4.388 C53.7571806,5.03600324 54.4411738,5.66399696 54.9851765,6.272 L54.3611765,6.896 C53.8811741,6.295997 53.2091808,5.64800348 52.3451765,4.952 L52.9331765,4.388 Z M59.7491765,14.984 C59.3571745,14.984 58.6651815,14.9760001 57.6731765,14.96 C56.9211727,14.9439999 56.3091789,14.8720006 55.8371765,14.744 C55.3811742,14.5999993 54.9691783,14.3080022 54.6011765,13.868 C54.4491757,13.667999 54.3011772,13.568 54.1571765,13.568 C53.8691751,13.568 53.3931798,14.1199945 52.7291765,15.224 L52.0811765,14.636 C52.7211797,13.627995 53.2851741,13.0160011 53.7731765,12.8 L53.7731765,9.152 L52.0691765,9.152 L52.0691765,8.36 L54.5771765,8.36 L54.5771765,12.86 C54.6571769,12.9240003 54.749176,13.0119994 54.8531765,13.124 C55.1411779,13.4680017 55.4411749,13.7199992 55.7531765,13.88 C56.1131783,14.0480008 56.6371731,14.1439999 57.3251765,14.168 C58.1571807,14.1840001 58.925173,14.192 59.6291765,14.192 C60.0211785,14.192 60.6331723,14.1840001 61.4651765,14.168 C62.16918,14.1519999 62.6491752,14.1360001 62.9051765,14.12 L62.6891765,14.984 L59.7491765,14.984 Z M58.5851765,9.548 C59.3051801,9.97200212 59.917174,10.3639982 60.4211765,10.724 C60.9091789,10.2919978 61.3131749,9.88000196 61.6331765,9.488 L62.2571765,9.98 C61.8331744,10.4680024 61.4331784,10.8719984 61.0571765,11.192 C61.7131798,11.7040026 62.2691742,12.1879977 62.7251765,12.644 L62.1851765,13.28 C61.1291712,12.1679944 59.7651849,11.1200049 58.0931765,10.136 L58.5851765,9.548 Z M56.9771765,7.256 L56.9771765,8.36 L61.0571765,8.36 L61.0571765,7.256 L56.9771765,7.256 Z M61.0571765,6.536 L61.0571765,5.42 L56.9771765,5.42 L56.9771765,6.536 L61.0571765,6.536 Z M56.9771765,9.128 L56.9771765,12.38 C57.7371803,12.2439993 58.5371723,12.0560012 59.3771765,11.816 L59.5691765,12.596 C58.6251718,12.8600013 57.4371837,13.1119988 56.0051765,13.352 L55.8131765,12.62 C56.0291776,12.5479996 56.1371765,12.4280008 56.1371765,12.26 L56.1371765,4.652 L61.8971765,4.652 L61.8971765,9.128 L56.9771765,9.128 Z" id="不可退"></path>
        </g>
    </g>
</svg>