<?xml version="1.0" encoding="utf-8"?>
<!-- Generator: Adobe Illustrator 17.0.0, SVG Export Plug-In . SVG Version: 6.00 Build 0)  -->
<!DOCTYPE svg PUBLIC "-//W3C//DTD SVG 1.1//EN" "http://www.w3.org/Graphics/SVG/1.1/DTD/svg11.dtd">
<svg version="1.1" id="图层_1" xmlns="http://www.w3.org/2000/svg" xmlns:xlink="http://www.w3.org/1999/xlink" x="0px" y="0px"
	 width="48px" height="48px" viewBox="0 0 48 48" enable-background="new 0 0 48 48" xml:space="preserve">
<g>
	<polygon fill-rule="evenodd" clip-rule="evenodd" points="31.507,11.995 24.007,19.495 16.507,11.995 14.507,13.995 22.495,21.983 
		14.495,21.983 14.493,24.001 22.514,24.001 22.514,28.983 14.495,28.983 14.493,31.001 22.514,31.001 22.514,36.004 25.514,36.004 
		25.514,31.001 32.506,31.001 32.515,28.983 25.514,28.983 25.514,24.001 32.506,24.001 32.515,21.983 25.52,21.983 33.507,13.995 	
		"/>
	<path fill-rule="evenodd" clip-rule="evenodd" d="M24,1C11.297,1,1,11.297,1,24c0,12.703,10.297,23,23,23
		c5.334,0,10.24-1.821,14.141-4.868l-1.445-1.445C33.165,43.381,28.773,45,24,45C12.421,45,3,35.579,3,24C3,12.421,12.421,3,24,3
		c11.579,0,21,9.421,21,21c0,2-0.297,3.929-0.825,5.761l-3.463-3.463c-0.394-0.394-1.03-0.397-1.42-0.006
		c-0.391,0.391-0.388,1.026,0.006,1.42l4.158,4.158c-0.002,0.005-0.003,0.01-0.005,0.015l1.532,1.532C46.275,30.542,47,27.357,47,24
		C47,11.297,36.703,1,24,1z"/>
</g>
</svg>
