<?xml version="1.0" encoding="UTF-8" standalone="no"?>
<svg width="74px" height="19px" viewBox="0 0 74 19" version="1.1" xmlns="http://www.w3.org/2000/svg" xmlns:xlink="http://www.w3.org/1999/xlink">
    <!-- Generator: Sketch 3.8.3 (29802) - http://www.bohemiancoding.com/sketch -->
    <title>实名认证</title>
    <desc>Created with Sketch.</desc>
    <defs></defs>
    <g id="Page-1" stroke="none" stroke-width="1" fill="none" fill-rule="evenodd">
        <g id="Artboard-1" transform="translate(-11.000000, -71.000000)" fill="#000000">
            <g id="实名认证" transform="translate(11.000000, 71.000000)">
                <path d="M1,0.994771168 L1,0.994771168 L1,18.0052288 C1,18.0006063 0.999398863,18 0.990129262,18 L73.0098707,18 C72.9983449,18 73,17.9983487 73,18.0052288 L73,0.994771168 C73,0.999393717 73.0006011,1 73.0098707,1 L0.990129262,1 C1.00165514,1 1,1.0016513 1,0.994771168 L1,0.994771168 Z M0,0.994771168 C0,0.445374222 0.453369457,0 0.990129262,0 L73.0098707,0 C73.556704,0 74,0.450925395 74,0.994771168 L74,18.0052288 C74,18.5546258 73.5466305,19 73.0098707,19 L0.990129262,19 C0.44329597,19 0,18.5490746 0,18.0052288 L0,0.994771168 L0,0.994771168 Z" id="Rectangle-1-Copy-6"></path>
                <path d="M0,0.994771168 C0,0.445374222 0.450925395,0 0.994771168,0 L19,0 L19,19 L0.994771168,19 C0.445374222,19 0,18.5490746 0,18.0052288 L0,0.994771168 Z M7.26,14.456 L7.26,15.164 L6.396,15.164 L6.396,10.928 C5.6759964,11.1600012 4.88800428,11.379999 4.032,11.588 L3.576,10.76 C5.68001052,10.3199978 7.40799324,9.7600034 8.76,9.08 C8.23199736,8.63199776 7.51200456,8.15200256 6.6,7.64 L7.344,7.172 C8.27200464,7.74800288 8.98799748,8.25199784 9.492,8.684 C10.7160061,7.95599636 11.6079972,7.10000492 12.168,6.116 L7.728,6.116 C6.91199592,6.86800376 5.87200632,7.543997 4.608,8.144 L4.032,7.4 C6.0720102,6.52799564 7.45599636,5.4520064 8.184,4.172 L9.132,4.28 C8.94799908,4.62400172 8.73200124,4.96399832 8.484,5.3 L13.164,5.3 L13.164,6.068 C12.2999957,7.71600824 10.7440112,9.0599948 8.496,10.1 L13.5,10.1 L13.5,15.164 L12.624,15.164 L12.624,14.456 L7.26,14.456 Z M12.624,13.616 L12.624,10.904 L7.26,10.904 L7.26,13.616 L12.624,13.616 Z" id="Combined-Shape"></path>
                <path d="M33.14,5.368 L33.14,7.768 L32.264,7.768 L32.264,6.172 L24.224,6.172 L24.224,7.828 L23.348,7.828 L23.348,5.368 L27.908,5.368 C27.7399992,4.89599764 27.5680009,4.48800172 27.392,4.144 L28.304,4 C28.4480007,4.34400172 28.5999992,4.79999716 28.76,5.368 L33.14,5.368 Z M24.824,8.476 C25.7440046,8.8360018 26.5639964,9.25999756 27.284,9.748 L26.84,10.432 C26.039996,9.85599712 25.2240042,9.41600152 24.392,9.112 L24.824,8.476 Z M25.544,6.652 C26.3840042,6.9720016 27.1839962,7.38399748 27.944,7.888 L27.512,8.572 C26.703996,7.99599712 25.9080039,7.56000148 25.124,7.264 L25.544,6.652 Z M29.18,6.784 L30.056,6.784 L30.056,8.116 C30.0159998,9.16400524 29.8440015,10.083996 29.54,10.876 L33.452,10.876 L33.452,11.68 L29.168,11.68 C29.0719995,11.8560009 28.9440008,12.0519989 28.784,12.268 C30.4320082,12.860003 31.9679929,13.5879957 33.392,14.452 L32.912,15.196 C31.3839924,14.2279952 29.8360078,13.4520029 28.268,12.868 C27.2999952,13.8120047 25.7840103,14.5639972 23.72,15.124 L23.252,14.392 C25.4680111,13.799997 27.0079957,13.0240048 27.872,12.064 L28.148,11.68 L23,11.68 L23,10.876 L28.592,10.876 C28.9440018,10.0919961 29.1399998,9.17200528 29.18,8.116 L29.18,6.784 Z M38.504,14.38 L38.504,15.088 L37.64,15.088 L37.64,10.852 C36.9199964,11.0840012 36.1320043,11.303999 35.276,11.512 L34.82,10.684 C36.9240105,10.2439978 38.6519932,9.6840034 40.004,9.004 C39.4759974,8.55599776 38.7560046,8.07600256 37.844,7.564 L38.588,7.096 C39.5160046,7.67200288 40.2319975,8.17599784 40.736,8.608 C41.9600061,7.87999636 42.8519972,7.02400492 43.412,6.04 L38.972,6.04 C38.1559959,6.79200376 37.1160063,7.467997 35.852,8.068 L35.276,7.324 C37.3160102,6.45199564 38.6999964,5.3760064 39.428,4.096 L40.376,4.204 C40.1919991,4.54800172 39.9760012,4.88799832 39.728,5.224 L44.408,5.224 L44.408,5.992 C43.5439957,7.64000824 41.9880112,8.9839948 39.74,10.024 L44.744,10.024 L44.744,15.088 L43.868,15.088 L43.868,14.38 L38.504,14.38 Z M43.868,13.54 L43.868,10.828 L38.504,10.828 L38.504,13.54 L43.868,13.54 Z M54.656,4.18 C54.656,5.19600508 54.6200004,6.13599568 54.548,7 C55.1880032,10.0800154 56.2919922,12.519991 57.86,14.32 L57.236,15.04 C55.9639936,13.4239919 54.9880034,11.416012 54.308,9.016 L54.128,9.976 C53.6719977,12.0560104 52.648008,13.7519934 51.056,15.064 L50.468,14.356 C51.868007,13.1719941 52.7959977,11.6920089 53.252,9.916 C53.5960017,8.37999232 53.768,6.46801144 53.768,4.18 L54.656,4.18 Z M48.188,4.24 C49.0120041,4.85600308 49.6959973,5.47199692 50.24,6.088 L49.652,6.688 C49.1559975,6.10399708 48.4680044,5.48400328 47.588,4.828 L48.188,4.24 Z M46.784,7.792 L49.376,7.792 L49.376,13.036 C49.8720025,12.6199979 50.3359978,12.208002 50.768,11.8 L50.984,12.688 C50.2239962,13.4080036 49.4320041,14.0399973 48.608,14.584 L48.272,13.816 C48.4560009,13.6719993 48.548,13.500001 48.548,13.3 L48.548,8.62 L46.784,8.62 L46.784,7.792 Z M66.212,5.536 L62.84,5.536 L62.84,4.684 L69.572,4.684 L69.572,5.536 L67.088,5.536 L67.088,8.908 L69.404,8.908 L69.404,9.712 L67.088,9.712 L67.088,13.864 L69.812,13.864 L69.812,14.716 L62.468,14.716 L62.468,13.864 L63.692,13.864 L63.692,7.516 L64.532,7.516 L64.532,13.864 L66.212,13.864 L66.212,5.536 Z M60.236,4.24 C61.028004,4.87200316 61.6879974,5.487997 62.216,6.088 L61.628,6.688 C61.1399976,6.087997 60.4760042,5.46000328 59.636,4.804 L60.236,4.24 Z M58.772,7.792 L61.34,7.792 L61.34,12.976 C61.6840017,12.6719985 62.0959976,12.2880023 62.576,11.824 L62.804,12.748 C62.0839964,13.4440035 61.3480038,14.0519974 60.596,14.572 L60.26,13.792 C60.4280008,13.6479993 60.512,13.480001 60.512,13.288 L60.512,8.62 L58.772,8.62 L58.772,7.792 Z" id="实名认证-copy"></path>
            </g>
        </g>
    </g>
</svg>