<?xml version="1.0" encoding="UTF-8" standalone="no"?>
<svg width="56px" height="58px" viewBox="0 0 56 58" version="1.1" xmlns="http://www.w3.org/2000/svg" xmlns:xlink="http://www.w3.org/1999/xlink">
    <!-- Generator: Sketch 3.8.3 (29802) - http://www.bohemiancoding.com/sketch -->
    <title>Artboard 8</title>
    <desc>Created with Sketch.</desc>
    <defs></defs>
    <g id="Page-1" stroke="none" stroke-width="1" fill="none" fill-rule="evenodd">
        <g id="Artboard-8" transform="translate(-586.000000, -45.000000)" fill="#000000">
            <g id="Group-5-Copy" transform="translate(586.000000, 45.000000)">
                <path d="M1.04409485,1.53880307e-16 C0.467457185,1.55526202e-16 -4.57957093e-15,0.458213659 -3.55271368e-15,1.04154477 C-3.55271368e-15,1.04154477 3.78077777e-14,23.6113475 3.40774284e-14,37.4326241 C3.19013913e-14,51.2539007 28,57.5886525 28,57.5886525 C28,57.5886525 56,53.5574468 56,37.4326241 L56,1.03527352 C56,0.463507745 55.532697,-1.64633504e-18 54.9559052,0 L1.04409485,1.53880307e-16 L1.04409485,1.53880307e-16 Z M21.1272727,19.0292939 C22.9548332,19.0292939 24.4363636,17.5719759 24.4363636,15.7742831 C24.4363636,13.9765903 22.9548332,12.5192723 21.1272727,12.5192723 C19.2997123,12.5192723 17.8181818,13.9765903 17.8181818,15.7742831 C17.8181818,17.5719759 19.2997123,19.0292939 21.1272727,19.0292939 L21.1272727,19.0292939 Z M21.1272727,21.9087265 C17.7067917,21.9087265 14.9216301,19.1690825 14.9216301,15.7742831 C14.9216301,12.3794836 17.7067917,9.63983965 21.1272727,9.63983965 C24.5477538,9.63983965 27.3329154,12.3794836 27.3329154,15.7742831 C27.3329154,19.1690825 24.5477538,21.9087265 21.1272727,21.9087265 L21.1272727,21.9087265 Z M34.3636364,16.3167849 L44.5454545,16.3167849 C45.3453152,16.3167849 45.9937304,15.6722019 45.9937304,14.8770686 C45.9937304,14.0819352 45.3453152,13.4373522 44.5454545,13.4373522 L34.3636364,13.4373522 C33.5637757,13.4373522 32.9153605,14.0819352 32.9153605,14.8770686 C32.9153605,15.6722019 33.5637757,16.3167849 34.3636364,16.3167849 L34.3636364,16.3167849 Z M36.9090909,23.9952719 L44.5454545,23.9952719 C45.3453152,23.9952719 45.9937304,23.3506889 45.9937304,22.5555556 C45.9937304,21.7604222 45.3453152,21.1158392 44.5454545,21.1158392 L36.9090909,21.1158392 C36.1092302,21.1158392 35.460815,21.7604222 35.460815,22.5555556 C35.460815,23.3506889 36.1092302,23.9952719 36.9090909,23.9952719 L36.9090909,23.9952719 Z M38.1818182,31.6737589 L44.5454545,31.6737589 C45.3453152,31.6737589 45.9937304,31.0291759 45.9937304,30.2340426 C45.9937304,29.4389092 45.3453152,28.7943262 44.5454545,28.7943262 L38.1818182,28.7943262 C37.3819575,28.7943262 36.7335423,29.4389092 36.7335423,30.2340426 C36.7335423,31.0291759 37.3819575,31.6737589 38.1818182,31.6737589 Z M25.5274958,23.035461 C29.5592247,23.035461 32.8275867,26.2945611 32.8275867,30.296639 L32.8275867,35.5689954 C32.8275867,36.6673912 31.9474966,37.5578169 30.8117235,37.5578169 L11.6710356,37.557817 C10.5577051,37.557817 9.65517239,36.6493786 9.65517239,35.5689955 L9.65517239,30.296639 C9.6551724,26.2864011 12.926066,23.035461 16.9552633,23.035461 L25.5274958,23.035461 Z M12.5578613,34.6783844 C18.642482,34.6783844 29.931035,34.9667647 29.931035,34.6656494 L29.931035,30.296639 C29.931035,27.8811343 27.9557904,25.9148936 25.5274958,25.9148936 L16.9552633,25.9148936 C14.5251358,25.9148936 12.5517241,27.877316 12.5517241,30.296639 C12.5517241,30.296639 12.2622528,34.6783844 12.5578613,34.6783844 Z" id="Combined-Shape"></path>
            </g>
        </g>
    </g>
</svg>