<?xml version="1.0" encoding="utf-8"?>
<!-- Generator: Adobe Illustrator 17.0.0, SVG Export Plug-In . SVG Version: 6.00 Build 0)  -->
<!DOCTYPE svg PUBLIC "-//W3C//DTD SVG 1.1//EN" "http://www.w3.org/Graphics/SVG/1.1/DTD/svg11.dtd">
<svg version="1.1" id="Layer_1" xmlns="http://www.w3.org/2000/svg" xmlns:xlink="http://www.w3.org/1999/xlink" x="0px" y="0px"
	 width="68px" height="68px" viewBox="-26 -26 68 68" enable-background="new -26 -26 68 68" xml:space="preserve">
<path fill-rule="evenodd" clip-rule="evenodd" fill="#161616" d="M36.171,2.64c0-14.982-13.945-27.17-31.086-27.17
	C-12.055-24.531-26-12.342-26,2.64c0,7.442,4.472,14.513,8.844,18.93l-2.327,9.844c-0.32,1.352,0.2,2.765,1.319,3.586
	c0.606,0.444,1.323,0.669,2.042,0.669c0.611,0,1.224-0.162,1.771-0.489l10.515-6.289c2.478,0.795,5.334,0.923,7.911,0.923
	l0.558-0.001l0.453-0.001C22.227,29.811,36.171,17.622,36.171,2.64z M5.086,26.353c-0.307,0-0.647,0.002-1.01,0.002
	c-2.414,0-5.909-0.081-8.2-1.319l-11.996,7.175l2.786-11.786c-4.878-4.277-9.211-11.328-9.211-17.785
	c0-13.095,12.37-23.712,27.632-23.712c15.261,0,27.632,10.617,27.632,23.712C32.718,15.736,20.347,26.353,5.086,26.353z
	 M-7.057-2.203c-1.878,0-3.4,1.522-3.4,3.4c0,1.878,1.522,3.4,3.4,3.4c1.878,0,3.4-1.522,3.4-3.4
	C-3.657-0.68-5.179-2.203-7.057-2.203z M4.6-2.203c-1.878,0-3.4,1.522-3.4,3.4c0,1.878,1.522,3.4,3.4,3.4c1.878,0,3.4-1.522,3.4-3.4
	C8-0.68,6.478-2.203,4.6-2.203z M16.257-2.203c-1.878,0-3.4,1.522-3.4,3.4c0,1.878,1.522,3.4,3.4,3.4c1.878,0,3.4-1.522,3.4-3.4
	C19.657-0.68,18.135-2.203,16.257-2.203z M36.196,31.207C39.065,28.286,42,23.61,42,18.689c0-3.693-1.274-7.128-3.452-9.986
	c-0.244,1.262-0.569,2.496-0.97,3.696c0.971,1.97,1.518,4.126,1.518,6.357c0,4.123-2.743,8.625-5.832,11.355l1.764,7.525
	l-7.596-4.581c-1.451,0.791-3.664,0.842-5.192,0.842c-0.23,0-0.445-0.001-0.64-0.001c-2.746,0-5.334-0.563-7.646-1.538
	c-1.621,0.266-3.284,0.411-4.982,0.411c-0.002,0-0.005,0-0.007,0c3.479,2.427,7.863,3.888,12.636,3.888l0.297,0l0.366,0.001
	c1.691,0,3.565-0.084,5.191-0.61l6.9,4.159c0.359,0.216,0.761,0.323,1.162,0.323c0.472,0,0.943-0.148,1.34-0.442
	c0.735-0.543,1.076-1.477,0.866-2.371L36.196,31.207z"/>
</svg>
