<?xml version="1.0" encoding="utf-8"?>
<!-- Generator: Adobe Illustrator 17.0.0, SVG Export Plug-In . SVG Version: 6.00 Build 0)  -->
<!DOCTYPE svg PUBLIC "-//W3C//DTD SVG 1.1//EN" "http://www.w3.org/Graphics/SVG/1.1/DTD/svg11.dtd">
<svg version="1.1" id="图层_1" xmlns="http://www.w3.org/2000/svg" xmlns:xlink="http://www.w3.org/1999/xlink" x="0px" y="0px"
	 width="16px" height="16px" viewBox="0 0 16 16" enable-background="new 0 0 16 16" xml:space="preserve">
<path d="M8,0C3.582,0,0,3.017,0,6.738c0,2.212,1.266,4.175,3.221,5.404L2.587,16l3.309-2.76c0.671,0.153,1.376,0.236,2.105,0.236
	c4.418,0,7.999-3.017,7.999-6.738C16,3.017,12.418,0,8,0L8,0z M4.531,4.989c0.638,0,1.156,0.533,1.156,1.192
	c0,0.658-0.518,1.191-1.156,1.191c-0.638,0-1.155-0.534-1.155-1.191C3.375,5.523,3.893,4.989,4.531,4.989L4.531,4.989z M7.946,7.372
	c-0.638,0-1.155-0.534-1.155-1.191c0-0.658,0.517-1.192,1.155-1.192c0.638,0,1.155,0.533,1.155,1.192
	C9.102,6.839,8.584,7.372,7.946,7.372L7.946,7.372z M11.362,7.372c-0.638,0-1.155-0.534-1.155-1.191
	c0-0.658,0.517-1.192,1.155-1.192c0.638,0,1.155,0.533,1.155,1.192C12.517,6.839,12,7.372,11.362,7.372L11.362,7.372z M11.362,7.372
	"/>
</svg>
