<?xml version="1.0" encoding="utf-8"?>
<!-- Generator: Adobe Illustrator 17.0.0, SVG Export Plug-In . SVG Version: 6.00 Build 0)  -->
<!DOCTYPE svg PUBLIC "-//W3C//DTD SVG 1.1//EN" "http://www.w3.org/Graphics/SVG/1.1/DTD/svg11.dtd">
<svg version="1.1" id="Layer_1" xmlns="http://www.w3.org/2000/svg" xmlns:xlink="http://www.w3.org/1999/xlink" x="0px" y="0px"
	 width="16px" height="16px" viewBox="1.491 1.491 16 16" enable-background="new 1.491 1.491 16 16" xml:space="preserve">
<g>
	<path fill-rule="evenodd" clip-rule="evenodd" d="M9.492,2.491c-3.866,0-7,2.687-7,6c0,3.314,3.134,6,7,6
		c0.593,0,1.166-0.07,1.716-0.189l3.283,2.189l0.001-3.805c1.236-1.082,2-2.562,2-4.195C16.492,5.177,13.358,2.491,9.492,2.491z
		 M13.833,11.934c-0.217,0.19-0.341,0.464-0.341,0.752l0,1.936l-1.729-1.153c-0.166-0.11-0.359-0.168-0.555-0.168
		c-0.071,0-0.142,0.008-0.212,0.023c-0.51,0.111-1.017,0.167-1.505,0.167c-3.308,0-6-2.243-6-5s2.692-5,6-5s6,2.243,6,5
		C15.492,9.774,14.902,10.997,13.833,11.934z"/>
	<rect x="5.492" y="7.491" fill-rule="evenodd" clip-rule="evenodd" width="2" height="2"/>
	<rect x="8.492" y="7.491" fill-rule="evenodd" clip-rule="evenodd" width="2" height="2"/>
	<rect x="11.492" y="7.491" fill-rule="evenodd" clip-rule="evenodd" width="2" height="2"/>
</g>
</svg>
