<?xml version="1.0" encoding="utf-8"?>
<!-- Generator: Adobe Illustrator 17.0.0, SVG Export Plug-In . SVG Version: 6.00 Build 0)  -->
<!DOCTYPE svg PUBLIC "-//W3C//DTD SVG 1.1//EN" "http://www.w3.org/Graphics/SVG/1.1/DTD/svg11.dtd">
<svg version="1.1" id="图层_1" xmlns="http://www.w3.org/2000/svg" xmlns:xlink="http://www.w3.org/1999/xlink" x="0px" y="0px"
	 width="112.229px" height="16.487px" viewBox="0 0 112.229 16.487" enable-background="new 0 0 112.229 16.487"
	 xml:space="preserve">
<g>
	<g>
		<path fill="#100D0D" d="M6.05,11.557c-0.048,0-0.096,0.016-0.144,0.032c-0.112,0.032-0.352,0.192-0.704,0.464
			c-0.096,0.064-0.176,0.112-0.272,0.16c0.08-0.128,0.16-0.272,0.224-0.432c0.064-0.24,0.112-0.448,0.112-0.608
			c0-0.256-0.288-0.496-0.832-0.688c-0.448-0.16-1.008-0.256-1.697-0.272c-0.752,0.016-1.249,0.08-1.505,0.192
			c-0.016,0.016-0.032,0.032-0.048,0.064C1.057,10.1,0.96,9.812,0.864,9.62C0.8,9.508,0.72,9.428,0.608,9.364
			c-0.048,0-0.112-0.016-0.208-0.016c-0.112,0-0.208,0.048-0.272,0.144C0.048,9.588,0,9.668,0,9.748
			c0.256,0.768,0.576,1.729,0.944,2.881c0.192,0.8,0.32,1.457,0.368,2.001c0,0.192,0.128,0.304,0.352,0.304
			c0.192-0.016,0.32-0.16,0.352-0.416c0,0,0.032-0.016,0.064-0.016c0.752-0.24,1.537-0.608,2.353-1.121
			c0.688-0.432,1.265-0.864,1.713-1.312c0.064-0.096,0.096-0.176,0.112-0.272c0-0.064-0.016-0.096-0.016-0.128
			C6.179,11.605,6.115,11.573,6.05,11.557z M3.874,12.261c-0.448,0.48-0.928,0.848-1.409,1.104
			c-0.032,0.032-0.064,0.064-0.096,0.096c-0.128,0.048-0.288,0.112-0.448,0.176c-0.064-0.448-0.192-1.056-0.352-1.793
			c-0.064-0.24-0.128-0.464-0.192-0.688c0,0.016,0.016,0.016,0.032,0.016c0.512-0.016,0.96-0.032,1.361-0.032
			c0.8,0,1.36,0.112,1.697,0.32C4.466,11.557,4.258,11.813,3.874,12.261z M7.427,5.186c0-0.032-0.032-0.064-0.064-0.112
			c0.288-0.336,0.576-0.72,0.848-1.153C8.563,3.281,8.74,2.705,8.74,2.225c0-0.24-0.32-0.416-0.944-0.544
			C7.267,1.585,6.307,1.537,4.93,1.537c-0.272,0-0.56,0.016-0.864,0.016c-0.032,0-0.064,0.016-0.096,0.016
			C3.938,1.505,3.906,1.457,3.874,1.393C3.762,1.264,3.633,1.201,3.49,1.201c-0.08,0-0.16,0.032-0.224,0.08
			c-0.16,0.112-0.224,0.24-0.224,0.368c0,0.176,0.08,0.4,0.256,0.688c0.24,0.4,0.432,0.896,0.592,1.473
			c0.144,0.592,0.224,1.088,0.224,1.473c0,0.384-0.048,0.848-0.112,1.377C3.97,6.675,3.938,6.691,3.906,6.707
			c-0.128,0.032-0.24,0.096-0.32,0.16c-0.128,0.08-0.192,0.176-0.192,0.272c0,0.208,0.096,0.352,0.304,0.448h0.096
			c0.128-0.016,0.24-0.064,0.336-0.128c0.8-0.368,1.553-0.768,2.273-1.216c0.4-0.256,0.704-0.48,0.896-0.688
			C7.379,5.442,7.427,5.314,7.427,5.186z M5.634,5.794c-0.256,0.16-0.528,0.304-0.8,0.448c0-0.928-0.064-1.777-0.192-2.545
			C4.53,3.233,4.418,2.801,4.306,2.417l0.272-0.032c0.16,0,0.384-0.016,0.64-0.016c1.056,0,1.793,0.016,2.209,0.016
			c0.32,0,0.48,0.048,0.48,0.112c0,0.128-0.192,0.496-0.576,1.073C6.739,4.498,6.179,5.234,5.634,5.794z M9.94,8.836
			c-0.768,0-1.297,0.032-1.585,0.096C8.323,8.964,8.291,8.98,8.259,8.996c-0.032-0.16-0.064-0.304-0.096-0.432
			C8.115,8.435,8.019,8.339,7.891,8.275c-0.064,0-0.144-0.016-0.24-0.016c-0.128,0-0.208,0.064-0.272,0.176
			c-0.08,0.096-0.128,0.176-0.128,0.24c0.192,0.912,0.416,2.033,0.704,3.345c0.16,0.928,0.256,1.713,0.288,2.353
			c0,0.192,0.112,0.288,0.336,0.288c0.176-0.016,0.288-0.112,0.336-0.304c0.064,0,0.16-0.032,0.32-0.096
			c0.576-0.192,1.233-0.496,1.953-0.928c0.544-0.288,1.008-0.624,1.361-1.024c0.128-0.144,0.208-0.256,0.208-0.352
			c0-0.048-0.016-0.096-0.016-0.16c-0.032-0.064-0.096-0.096-0.16-0.112c0.16-0.224,0.32-0.48,0.48-0.784
			c0.128-0.272,0.192-0.544,0.192-0.832c0-0.224-0.144-0.448-0.416-0.656C12.261,9.06,11.301,8.868,9.94,8.836z M11.573,11.301
			c-0.496,0.624-0.992,1.168-1.473,1.617c-0.096,0.048-0.192,0.096-0.288,0.144C9.604,13.157,9.3,13.301,8.9,13.493
			c-0.048-0.56-0.128-1.345-0.256-2.337c-0.096-0.512-0.16-0.96-0.224-1.361c0.016,0.032,0.048,0.032,0.096,0.032
			c0.432-0.032,0.944-0.064,1.521-0.064c1.04,0,1.825,0.144,2.353,0.432C12.213,10.468,11.941,10.836,11.573,11.301z M26.516,13.974
			c-0.4-0.352-0.704-0.592-0.912-0.752c-0.096-0.096-0.192-0.144-0.32-0.144c-0.256,0.048-0.4,0.16-0.4,0.336
			c0,0.064,0.016,0.16,0.048,0.256c0.08,0.128,0.224,0.288,0.416,0.48c1.297,1.216,2.209,1.953,2.753,2.193
			c0.08,0.064,0.192,0.096,0.336,0.096c0.128-0.032,0.208-0.128,0.224-0.272c0-0.128-0.032-0.224-0.096-0.288
			C27.797,15.174,27.124,14.55,26.516,13.974z M24.131,8.884c-0.288,0.064-0.432,0.24-0.432,0.512
			c0.192,0.512,0.288,0.976,0.288,1.393c0,1.04-0.272,1.969-0.8,2.801c-0.384,0.544-0.784,1.008-1.185,1.377
			c-0.352,0.352-0.752,0.656-1.201,0.944c-0.112,0.096-0.16,0.16-0.16,0.224c0,0.192,0.08,0.288,0.24,0.304
			c0.096,0,0.192-0.048,0.288-0.112c0.448-0.256,0.864-0.528,1.232-0.832c0.576-0.464,1.057-1.024,1.473-1.697
			c0.608-1.008,0.912-2.097,0.912-3.249c0-0.384-0.08-0.784-0.208-1.232C24.515,9.028,24.355,8.884,24.131,8.884z M28.597,3.185
			c-0.928,0.288-2.177,0.608-3.762,0.96c0-0.032,0-0.064,0.016-0.112c0.048-0.4,0.08-0.672,0.08-0.816
			c0-0.256-0.096-0.4-0.288-0.448h-0.144c-0.176,0.016-0.288,0.096-0.352,0.24c-0.032,0.224-0.048,0.496-0.08,0.784
			c-0.032,0.176-0.048,0.368-0.08,0.56c-1.345,0.336-2.721,0.624-4.13,0.848c-0.192,0.064-0.352,0.112-0.48,0.16l-0.016,0.016
			c0.064-0.672,0.096-1.393,0.096-2.193V3.073h0.08c0.144-0.016,0.368-0.048,0.688-0.096c1.008-0.208,2.097-0.448,3.249-0.704
			c2.081-0.496,3.377-0.912,3.873-1.265c0.112-0.128,0.176-0.256,0.176-0.368c0-0.064-0.016-0.112-0.016-0.144
			c-0.064-0.096-0.16-0.144-0.288-0.144c-0.944,0.32-2.273,0.704-4.002,1.12c-1.201,0.32-2.433,0.592-3.682,0.816
			c-0.064,0.016-0.112,0.032-0.16,0.048c-0.048-0.16-0.096-0.304-0.16-0.432c-0.08-0.128-0.192-0.208-0.32-0.224
			c-0.112,0-0.208,0.016-0.272,0.016c-0.192,0.064-0.304,0.224-0.304,0.448c0,0.128,0.016,0.224,0.048,0.256
			c0.128,0.384,0.192,0.864,0.192,1.441c0,0.832-0.064,1.617-0.16,2.369c-0.144,0.992-0.32,1.937-0.544,2.801
			c-0.544,2.241-1.217,4.322-2.049,6.227c-0.112,0.128-0.16,0.24-0.16,0.32s0.016,0.144,0.064,0.192
			c0.064,0.048,0.144,0.08,0.24,0.08c0.064,0,0.16-0.048,0.256-0.112c0.256-0.416,0.608-1.12,1.04-2.113
			c0.576-1.36,1.057-2.833,1.457-4.418c0.192-0.8,0.352-1.665,0.512-2.609c0.016-0.128,0.032-0.288,0.064-0.48
			c0.032,0.048,0.096,0.064,0.16,0.064c0.128,0,0.256,0,0.416-0.016c0.16-0.032,0.4-0.064,0.752-0.128
			c1.008-0.224,2.081-0.464,3.217-0.72c-0.032,0.224-0.08,0.48-0.128,0.736c-0.08,0.384-0.144,0.736-0.208,1.072
			c-0.016,0.064-0.016,0.144-0.016,0.208c-0.128,0.016-0.24,0.032-0.336,0.048c-0.4,0.096-0.752,0.208-1.04,0.32
			c-0.016-0.096-0.048-0.208-0.08-0.304c-0.096-0.144-0.224-0.224-0.368-0.224c-0.128,0-0.24,0.048-0.336,0.128
			c-0.096,0.064-0.144,0.144-0.144,0.224c0,0.064,0,0.128,0.016,0.192c0,0.08,0.016,0.16,0.048,0.24c0,0.32-0.016,0.608-0.032,0.864
			c-0.032,0.576-0.048,1.088-0.048,1.569c-0.016,0.48-0.016,0.992-0.016,1.569c0,0.544,0,0.944,0.032,1.232
			c0,0.16,0.048,0.272,0.144,0.352c0.064,0.064,0.144,0.096,0.24,0.096c0.096,0,0.176-0.048,0.272-0.128
			c0.048-0.08,0.08-0.176,0.08-0.288c0-0.416-0.016-0.832-0.016-1.249c0-0.8,0.016-1.281,0.016-1.441
			c0.032-0.336,0.064-0.8,0.112-1.409c0.016-0.192,0.032-0.368,0.048-0.528c0.16-0.032,0.432-0.112,0.832-0.272
			c0.528-0.176,1.168-0.32,1.905-0.416c0.736-0.128,1.216-0.192,1.457-0.192c0.208,0,0.336,0.032,0.384,0.096
			c0.032,0.08,0.064,0.192,0.064,0.352c-0.016,0.16-0.048,0.72-0.096,1.697c-0.064,0.976-0.096,2.017-0.096,3.121
			c0,0.224,0.048,0.368,0.128,0.432c0.096,0.096,0.208,0.16,0.336,0.16c0.192,0,0.304-0.176,0.304-0.528
			c0.016-0.736,0.032-1.505,0.032-2.273c0-0.272,0.016-0.816,0.064-1.617c0.048-0.736,0.08-1.201,0.08-1.376
			c0-0.544-0.352-0.832-1.056-0.848c-0.576,0.016-1.12,0.064-1.633,0.16c-0.192,0.032-0.384,0.064-0.576,0.096l0.016-0.032
			c0.128-0.48,0.256-1.024,0.384-1.601c0.032-0.144,0.048-0.288,0.08-0.432c2.145-0.528,3.489-0.992,4.018-1.409
			c0.08-0.08,0.128-0.176,0.128-0.272c0-0.048-0.016-0.096-0.016-0.128C28.741,3.233,28.677,3.185,28.597,3.185z M45.189,13.846
			c-0.832-0.128-2.017-0.176-3.537-0.176c-0.608,0-1.265,0.016-1.969,0.064c0.16-1.232,0.272-2.641,0.352-4.21
			c0.224-0.048,0.464-0.112,0.72-0.192c1.201-0.368,2.113-0.848,2.753-1.441c0.144-0.096,0.224-0.224,0.224-0.368
			c0-0.192-0.08-0.32-0.224-0.384c-0.048,0-0.128,0.032-0.224,0.096c-1.024,0.64-2.097,1.121-3.217,1.409
			c0.016-0.704,0.032-1.441,0.048-2.209c0-0.496-0.032-0.992-0.064-1.473c0.08-0.032,0.176-0.064,0.272-0.112
			c1.169-0.48,2.113-1.008,2.833-1.585c0.128-0.08,0.192-0.192,0.192-0.352c-0.016-0.192-0.144-0.32-0.4-0.368
			c-0.976,0.56-1.985,1.008-3.009,1.36c0-0.016-0.016-0.048-0.016-0.112c-0.192-1.008-0.432-1.793-0.72-2.337
			c-0.128-0.224-0.24-0.336-0.336-0.336c-0.112,0-0.208,0.064-0.288,0.16c-0.096,0.096-0.144,0.192-0.144,0.304
			c0,0.096,0.032,0.24,0.112,0.432c0.288,0.608,0.512,1.329,0.64,2.161c-1.345,0.48-2.241,0.704-2.673,0.704
			c-0.112,0-0.16-0.032-0.16-0.096c0-0.16,0-0.768,0.016-1.841c0-0.24-0.128-0.384-0.368-0.416h-0.08
			c-0.176,0.016-0.288,0.096-0.336,0.24c-0.032,0.32-0.064,0.656-0.096,1.024c-0.016,0.464-0.016,0.864-0.016,1.2
			c0,0.256,0.064,0.432,0.224,0.56c0.096,0.112,0.24,0.16,0.4,0.16h0.816c0.8-0.064,1.601-0.224,2.385-0.48
			c0.048,0.512,0.08,1.041,0.08,1.569c0,0.656-0.016,1.328-0.048,2.017c-0.544,0.112-1.104,0.176-1.681,0.192h-1.489
			c-0.192,0-0.304-0.048-0.304-0.144c-0.336,0.064-0.512,0.24-0.512,0.496c0,0.32,0.192,0.464,0.592,0.464h1.665
			c0.576-0.032,1.152-0.096,1.697-0.176c-0.064,1.345-0.176,2.721-0.336,4.13c-0.144,0-0.288,0.016-0.432,0.032
			c-0.768,0.032-1.601,0.112-2.497,0.272c-0.96,0.128-1.825,0.304-2.561,0.512c-0.288,0.064-0.416,0.208-0.416,0.432
			c0,0.08,0.048,0.176,0.144,0.288c0.096,0.096,0.176,0.144,0.272,0.144c0.048,0,0.144-0.032,0.288-0.064
			c1.04-0.24,2.225-0.464,3.537-0.656c1.537-0.208,2.945-0.304,4.226-0.304c0.992,0,1.761,0.016,2.337,0.048
			c0.624,0.064,1.072,0.112,1.361,0.144c0.24-0.064,0.368-0.208,0.368-0.4C45.589,14.038,45.445,13.91,45.189,13.846z M56.307,1.921
			c1.553,0.112,2.929,0.32,4.146,0.624c0.128-0.064,0.208-0.176,0.224-0.336c0-0.128-0.048-0.24-0.144-0.32
			c-0.336-0.224-0.992-0.416-1.969-0.576c-0.704-0.112-1.441-0.192-2.225-0.224c-0.176,0.016-0.288,0.144-0.32,0.368
			C56.019,1.761,56.115,1.921,56.307,1.921z M50.496,3.858c0.96,0.192,1.697,0.272,2.241,0.272c0.528,0,0.816-0.128,0.848-0.4
			c0-0.096-0.096-0.16-0.256-0.208l-2.689-0.512c-0.256,0.032-0.384,0.16-0.384,0.384C50.256,3.649,50.336,3.81,50.496,3.858z
			 M49.2,8.099c0.064,0,0.176-0.032,0.32-0.096c0.512-0.128,1.104-0.352,1.761-0.704c0.496-0.224,0.896-0.48,1.201-0.784
			c0.128-0.128,0.208-0.24,0.208-0.304c0-0.064-0.016-0.112-0.016-0.16c-0.048-0.064-0.128-0.096-0.224-0.096
			c-0.064,0-0.128,0.016-0.192,0.016c-0.128,0.048-0.32,0.128-0.576,0.24c-0.672,0.32-1.233,0.56-1.681,0.72
			c-0.192,0.096-0.48,0.192-0.848,0.32c-0.192,0.08-0.304,0.192-0.304,0.336c0,0.16,0.032,0.288,0.096,0.352
			C49.008,8.051,49.104,8.099,49.2,8.099z M62.405,4.018c-0.032,0-0.08,0.016-0.144,0.016c-1.024,0.672-2.145,1.248-3.377,1.745
			c-0.016-0.144-0.032-0.288-0.032-0.448c-0.144-0.96-0.352-1.633-0.608-2.017c-0.048-0.032-0.128-0.064-0.256-0.08
			c-0.16,0-0.272,0.064-0.352,0.16c-0.08,0.064-0.128,0.144-0.128,0.24c0,0.128,0.016,0.224,0.08,0.272
			c0.224,0.608,0.384,1.328,0.48,2.177c-0.464,0.16-0.944,0.32-1.441,0.448c-1.088,0.288-2.081,0.48-2.961,0.608
			C53.49,7.171,53.41,7.283,53.41,7.475c0,0.128,0.048,0.24,0.144,0.336c0.096,0.096,0.208,0.144,0.352,0.144
			c0.864-0.032,1.793-0.192,2.801-0.48c0.48-0.16,0.944-0.32,1.409-0.496c0,0.192-0.016,0.368-0.048,0.56
			c-0.08,0.256-0.16,0.496-0.224,0.704c-0.192,0.496-0.448,1.008-0.784,1.537c-0.096,0.128-0.176,0.224-0.208,0.272
			c-0.048,0.096-0.064,0.192-0.064,0.272c0,0.16,0.032,0.256,0.112,0.288c-0.128,0.064-0.24,0.128-0.336,0.176
			c-0.096-0.4-0.208-0.768-0.336-1.104c-0.064-0.224-0.192-0.336-0.368-0.336c-0.128,0-0.224,0.032-0.304,0.08
			c-0.128,0.096-0.176,0.208-0.176,0.336c0,0.08,0.016,0.192,0.08,0.352c0.096,0.352,0.176,0.736,0.272,1.136
			c0.256,1.056,0.4,1.905,0.4,2.561c0,0.272-0.016,0.624-0.048,1.056c-0.128,0.24-0.192,0.432-0.224,0.592
			c0,0.208,0.096,0.32,0.288,0.32c0.192,0,0.32-0.128,0.384-0.384c0.032-0.064,0.064-0.128,0.096-0.224
			c0.032,0.048,0.112,0.08,0.224,0.08c0.512-0.032,1.04-0.096,1.617-0.208c1.585-0.416,2.705-0.816,3.377-1.201
			c0.112-0.112,0.176-0.224,0.176-0.336c-0.016-0.064-0.032-0.112-0.064-0.176c-0.08-0.096-0.176-0.16-0.288-0.16
			c-0.048,0-0.096,0.016-0.128,0.016c-0.256,0.128-0.544,0.256-0.864,0.384c0.064-0.08,0.144-0.144,0.208-0.24
			c0.48-0.672,0.736-1.377,0.784-2.113c0-0.48-0.176-0.832-0.528-1.041c-0.224-0.128-0.576-0.208-1.073-0.208
			c-0.928,0-1.761,0.128-2.513,0.368c0,0,0.016-0.032,0.048-0.064c0.432-0.576,0.768-1.153,1.008-1.729
			c0.112-0.32,0.192-0.64,0.256-0.944c0.032-0.24,0.064-0.496,0.064-0.768v-0.16c1.633-0.624,2.865-1.248,3.698-1.873
			c0.128-0.096,0.192-0.24,0.192-0.416c-0.016-0.032-0.032-0.096-0.064-0.176C62.677,4.082,62.565,4.018,62.405,4.018z
			 M57.779,11.253c0.416-0.176,0.832-0.272,1.232-0.304c0.416-0.112,0.784-0.176,1.104-0.176c0.544,0,0.832,0.16,0.864,0.48
			c0,0.56-0.496,1.409-1.489,2.561c-0.08,0.08-0.128,0.144-0.16,0.208c-0.32,0.096-0.656,0.176-1.008,0.256
			c-0.56,0.096-1.072,0.16-1.553,0.224c0.048-0.336,0.08-0.688,0.08-1.04c0-0.368-0.048-0.912-0.112-1.633
			c-0.016-0.064-0.032-0.144-0.032-0.224C56.803,11.589,57.171,11.477,57.779,11.253z M52.801,8.628
			c-0.08,0.016-0.192,0.096-0.352,0.24c-0.752,1.088-1.409,1.921-1.953,2.465c-0.24,0.224-0.528,0.464-0.864,0.736
			c-0.304,0.256-0.496,0.464-0.576,0.656c-0.032,0.064-0.048,0.144-0.048,0.24c0.032,0.256,0.144,0.384,0.368,0.384
			c0.08,0,0.176,0,0.304-0.032c0.32-0.16,0.736-0.512,1.216-1.024c0.752-0.832,1.393-1.825,1.937-2.977
			c0.128-0.176,0.192-0.336,0.192-0.464C53.009,8.723,52.929,8.643,52.801,8.628z M75.716,10.164h0.064
			c0.112-0.032,0.176-0.128,0.176-0.304c0-0.128-0.064-0.272-0.176-0.4c-0.256-0.16-0.512-0.336-0.784-0.496
			c-0.464-0.256-0.912-0.544-1.344-0.864c-0.16-0.096-0.288-0.192-0.384-0.256c-0.064-0.032-0.128-0.064-0.224-0.08
			c-0.064,0-0.128,0.016-0.192,0.016c-0.08,0.032-0.144,0.08-0.192,0.16c-0.064,0.064-0.096,0.144-0.096,0.224
			c0,0.064,0.016,0.128,0.048,0.192c0.032,0.032,0.112,0.112,0.24,0.24c0.576,0.432,1.201,0.8,1.873,1.12
			c0.272,0.16,0.512,0.272,0.704,0.368C75.556,10.148,75.652,10.164,75.716,10.164z M69.762,5.394
			c-0.32-0.192-0.736-0.304-1.232-0.304c-0.48,0.016-1.089,0.176-1.825,0.464c0.016-0.448,0.032-0.816,0.032-1.073
			c0-0.176-0.032-0.336-0.08-0.48c-0.016-0.032-0.032-0.048-0.048-0.064c0.256-0.08,0.544-0.176,0.848-0.304
			c0.88-0.32,1.425-0.608,1.649-0.848c0.08-0.096,0.128-0.192,0.128-0.288c0-0.064-0.016-0.096-0.016-0.128
			c-0.048-0.064-0.128-0.112-0.224-0.112c-0.4,0.192-0.96,0.384-1.665,0.608c-0.496,0.176-1.008,0.32-1.521,0.448
			c-0.192,0.064-0.352,0.112-0.464,0.16c-0.192,0.096-0.288,0.208-0.288,0.32c0.016,0.288,0.128,0.432,0.352,0.432
			c0.112,0,0.24,0,0.4-0.016c0.016,0,0.032,0,0.048-0.032c0,0.032,0,0.08,0.016,0.112c0,0.064,0.016,0.144,0.032,0.208
			c0,0.592-0.016,1.152-0.016,1.665c-0.032,1.056-0.048,2.033-0.048,2.929c-0.016,0.896-0.016,1.873-0.016,2.961
			c0,1.008,0,1.793,0.032,2.369c0,0.128,0.048,0.24,0.128,0.32c0.048,0.064,0.128,0.096,0.224,0.096
			c0.096,0,0.176-0.048,0.272-0.144c0.032-0.048,0.048-0.112,0.064-0.192c0.256-0.016,0.528-0.048,0.832-0.096
			c0.448-0.128,0.848-0.24,1.201-0.352c0.576,0.224,1.104,0.336,1.569,0.336c0.384-0.016,0.576-0.144,0.576-0.384L70.53,7.235
			C70.45,6.307,70.194,5.682,69.762,5.394z M66.544,9.364c0.016-0.624,0.048-1.505,0.112-2.641c0-0.096,0-0.192,0.016-0.288
			c0.288-0.144,0.592-0.288,0.88-0.416c0.384-0.128,0.64-0.192,0.8-0.192c0.848,0,1.329,0.48,1.441,1.409
			c0.016,0.528,0.032,1.104,0.048,1.745c-0.096,0.032-0.208,0.064-0.352,0.112c-0.816,0.32-1.793,0.64-2.945,0.944V9.364z
			 M69.345,13.718c0.048-0.064,0.08-0.144,0.08-0.256c-0.016-0.032-0.032-0.08-0.048-0.144c-0.064-0.096-0.144-0.144-0.24-0.144
			h-0.144c-0.512,0.224-1.12,0.384-1.809,0.512c-0.224,0.032-0.432,0.064-0.64,0.08c0-0.544-0.016-1.12-0.016-1.697
			c0-0.512,0.016-0.96,0.016-1.344c0.032,0,0.08,0,0.128-0.032c0.896-0.24,1.745-0.512,2.577-0.8c0.224-0.08,0.432-0.16,0.608-0.24
			c0.016,1.169,0.032,2.481,0.032,3.954C69.73,13.621,69.553,13.654,69.345,13.718z M78.277,1.681c-0.096,0-0.24,0.032-0.432,0.08
			c-0.72,0.304-1.424,0.56-2.113,0.784c-1.345,0.448-2.401,0.656-3.169,0.656c0.064-0.176,0.32-0.832,0.768-1.953
			c0.16-0.352,0.256-0.608,0.256-0.8c0-0.144-0.048-0.256-0.128-0.32c-0.08-0.048-0.144-0.08-0.192-0.08
			c-0.176,0-0.32,0.064-0.416,0.176c-0.32,1.216-0.72,2.273-1.232,3.169c0,0.192,0.032,0.336,0.112,0.432
			c0.096,0.16,0.272,0.256,0.512,0.256h0.256c0.464,0,1.024-0.08,1.697-0.272c0.704-0.192,1.409-0.416,2.113-0.672
			c0.976-0.384,1.521-0.576,1.649-0.576c0.048,0,0.08,0.176,0.08,0.496c-0.064,1.969-0.096,3.601-0.112,4.914
			c-0.016,0.832-0.016,1.537-0.016,2.113c0,2.337,0.048,4.194,0.112,5.602c-0.256-0.08-1.088-0.704-2.497-1.857
			c-0.128-0.096-0.24-0.144-0.336-0.144c-0.16,0-0.224,0.08-0.224,0.24c0,0.096,0.016,0.192,0.064,0.288
			c0.496,0.704,0.976,1.232,1.425,1.585c0.576,0.448,1.136,0.672,1.681,0.688c0.08-0.016,0.176-0.032,0.304-0.064
			c0.176-0.128,0.272-0.272,0.272-0.416c-0.032-2.049-0.048-3.954-0.048-5.714c0-1.345,0.032-2.945,0.096-4.834
			c0.032-1.056,0.048-1.857,0.048-2.369c0-0.384-0.048-0.688-0.128-0.912C78.549,1.857,78.405,1.681,78.277,1.681z M90.067,2.065
			c1.313,0.048,2.481,0.144,3.538,0.272c0.144-0.048,0.224-0.16,0.24-0.32c0-0.144-0.064-0.256-0.16-0.336
			c-0.288-0.128-0.848-0.24-1.697-0.336c-0.592-0.048-1.217-0.08-1.889-0.112c-0.192,0.016-0.304,0.128-0.336,0.352
			C89.763,1.905,89.859,2.065,90.067,2.065z M82.784,6.531c0.064,0,0.144,0,0.224-0.032c0.048-0.032,0.112-0.064,0.176-0.112
			c0.448-0.272,0.88-0.592,1.281-0.976c0.464-0.416,0.864-0.848,1.184-1.264c0.672-0.864,1.008-1.569,1.024-2.081
			c-0.016-0.24-0.144-0.368-0.384-0.384c-0.192,0-0.304,0.112-0.368,0.304c-0.16,0.416-0.352,0.8-0.592,1.184
			c-0.288,0.496-0.64,0.96-1.056,1.393c-0.496,0.544-1.024,1.024-1.585,1.409c-0.096,0.096-0.144,0.192-0.144,0.304
			C82.544,6.435,82.624,6.531,82.784,6.531z M94.869,3.697c-0.064,0-0.128,0.016-0.192,0.016C93.492,4.61,92.1,5.298,90.515,5.778
			c-0.832,0.224-1.569,0.4-2.209,0.496c-0.192,0.048-0.288,0.16-0.288,0.352c0,0.128,0.064,0.256,0.16,0.384
			c0.096,0.096,0.224,0.144,0.368,0.144c0.656-0.032,1.361-0.176,2.097-0.416c0.448-0.16,0.88-0.32,1.297-0.512
			c0,0.096,0.016,0.208,0.048,0.304c0.32,2.145,0.496,3.793,0.544,4.93c0.032,0.704,0.048,1.505,0.048,2.401
			c0,0.736-0.096,1.153-0.256,1.249c-0.272,0-0.688-0.256-1.264-0.736c-0.48-0.464-0.768-0.688-0.88-0.688
			c-0.16,0-0.256,0.08-0.32,0.256c0,0.096,0.016,0.176,0.08,0.24c0.224,0.464,0.624,0.896,1.201,1.297
			c0.48,0.304,0.96,0.464,1.424,0.464c0.256,0,0.464-0.208,0.608-0.592c0.128-0.352,0.192-0.848,0.192-1.505
			c0-1.056-0.032-2.001-0.08-2.801c-0.144-1.905-0.32-3.634-0.528-5.17c0.992-0.448,1.761-0.896,2.321-1.344
			c0.128-0.112,0.208-0.256,0.208-0.416c-0.016-0.064-0.048-0.128-0.08-0.224C95.141,3.761,95.029,3.697,94.869,3.697z M87.154,4.77
			c-0.032,0-0.08-0.016-0.128-0.016c-0.176,0-0.288,0.064-0.352,0.192c-0.176,0.272-0.368,0.608-0.592,0.992
			c-0.288,0.448-0.592,0.912-0.944,1.393c-0.544,0.736-1.088,1.425-1.617,2.033c-0.4,0.464-0.72,0.816-0.944,1.04
			c-0.176,0.208-0.304,0.368-0.368,0.464c-0.064,0.08-0.08,0.16-0.08,0.256c0.016,0.16,0.08,0.24,0.176,0.24
			c0.064,0,0.128,0,0.16-0.016c0.048-0.032,0.096-0.08,0.128-0.144c0.16-0.128,0.368-0.288,0.592-0.512
			c0.384-0.336,0.784-0.704,1.201-1.088c0.224-0.224,0.448-0.448,0.672-0.704l0.032,2.737c0.032,1.569,0.048,2.513,0.048,2.865
			c0,0.416,0.096,0.64,0.288,0.64h0.16c0.176,0,0.272-0.144,0.272-0.432c0.016-1.617,0.032-3.073,0.032-4.386
			c0-0.864,0-1.617,0.016-2.257c-0.016-0.048-0.032-0.112-0.064-0.176c0.432-0.64,0.784-1.201,1.072-1.697
			c0.304-0.544,0.464-0.912,0.464-1.12C87.378,4.946,87.298,4.834,87.154,4.77z M103.106,0.864c0.896,0.224,1.761,0.336,2.561,0.336
			c0.128,0,0.24-0.032,0.336-0.112c0.128-0.08,0.192-0.192,0.192-0.336c0-0.096-0.048-0.144-0.128-0.16
			c-1.152-0.208-1.921-0.368-2.337-0.464c-0.192,0-0.272-0.048-0.272-0.128c-0.208,0.016-0.368,0.096-0.496,0.224
			c-0.08,0.096-0.112,0.16-0.112,0.208C102.85,0.672,102.93,0.816,103.106,0.864z M100.545,6.115c0.16,0,0.272-0.048,0.352-0.144
			c0.064-0.08,0.144-0.176,0.208-0.304c0.112-0.208,0.208-0.432,0.272-0.656c0.096-0.352,0.144-0.656,0.144-0.928
			c0-0.096-0.016-0.176-0.016-0.256c0.16,0,0.368-0.032,0.624-0.128c3.489-0.928,5.682-1.473,6.547-1.601
			c-0.464,0.704-0.992,1.393-1.585,2.049c-0.096,0.096-0.128,0.16-0.128,0.224c0,0.064,0.016,0.112,0.048,0.144
			c0.032,0.096,0.096,0.128,0.176,0.128c0.064,0,0.16-0.032,0.272-0.128c0.144-0.112,0.288-0.224,0.448-0.336
			c1.248-1.056,1.889-1.905,1.889-2.529c0-0.16-0.08-0.288-0.24-0.384c-0.08,0-0.16-0.016-0.24-0.016
			c-0.448,0-1.2,0.128-2.289,0.368c-2.321,0.48-4.066,0.88-5.218,1.232c-0.144,0.048-0.272,0.096-0.368,0.144
			c-0.048-0.16-0.096-0.336-0.144-0.496c-0.064-0.128-0.144-0.24-0.208-0.304c-0.08-0.048-0.176-0.08-0.288-0.08
			c-0.096,0.016-0.176,0.048-0.24,0.08c-0.096,0.096-0.128,0.224-0.128,0.384c0,0.096,0.032,0.224,0.128,0.384
			c0.112,0.336,0.176,0.784,0.176,1.329c0,0.16-0.032,0.336-0.064,0.528c-0.064,0.256-0.144,0.496-0.24,0.72
			c-0.064,0.144-0.112,0.24-0.128,0.304C100.305,6.018,100.385,6.115,100.545,6.115z M112.085,15.11
			c-0.768-0.272-1.457-0.608-2.081-0.992c-0.576-0.384-1.104-0.8-1.617-1.265c-0.384-0.352-0.752-0.736-1.12-1.136
			c-0.224-0.24-0.464-0.512-0.688-0.8c-0.048-0.048-0.096-0.096-0.144-0.16c0.256-0.224,0.496-0.448,0.704-0.672
			c0.416-0.48,0.72-0.928,0.944-1.329c0.064-0.112,0.096-0.224,0.096-0.336c-0.016-0.128-0.096-0.256-0.24-0.352
			c-0.064-0.048-0.16-0.08-0.256-0.08c-0.096,0-0.16,0.048-0.224,0.144c-0.224,0.352-0.432,0.704-0.64,1.04
			c-0.24,0.352-0.48,0.672-0.736,0.976c-0.048-0.144-0.096-0.288-0.144-0.448c-0.192-0.448-0.48-0.896-0.832-1.312
			c-0.336-0.384-0.672-0.672-1.008-0.864c0.096-0.128,0.176-0.256,0.24-0.384c0.048-0.112,0.08-0.224,0.112-0.336
			c0.48-0.112,0.96-0.24,1.457-0.4c1.008-0.288,1.889-0.608,2.641-0.96c0.112-0.032,0.208-0.096,0.288-0.192
			c0.032-0.08,0.064-0.144,0.064-0.208c0-0.064-0.064-0.128-0.16-0.224c-0.112-0.032-0.208-0.064-0.304-0.064
			c-0.128,0.048-0.272,0.112-0.464,0.192c-1.281,0.464-2.465,0.816-3.553,1.04c-1.024,0.256-1.985,0.384-2.849,0.384
			c-0.096,0-0.176,0-0.256-0.032c-0.208,0.112-0.32,0.24-0.352,0.368v0.176c0,0.224,0.096,0.336,0.304,0.368h0.384
			c0.416,0,0.832-0.048,1.248-0.112c0.224-0.032,0.448-0.064,0.672-0.128c-0.096,0.128-0.192,0.272-0.288,0.432
			c-1.201,1.633-2.337,2.881-3.393,3.745c-0.112,0.096-0.16,0.208-0.16,0.32c0,0.144,0.096,0.224,0.272,0.224
			c0.064,0,0.16-0.032,0.256-0.128c0.224-0.16,0.464-0.352,0.752-0.608c1.04-0.96,1.889-1.889,2.561-2.785
			c0,0,0.032-0.032,0.08-0.08c0.512,0.384,0.928,0.768,1.249,1.169c0.208,0.304,0.384,0.64,0.512,1.024l-0.016,0.032
			c-0.176,0.272-0.368,0.56-0.56,0.848c-1.377,1.873-2.673,3.297-3.874,4.322c-0.128,0.096-0.176,0.224-0.176,0.352
			c0,0.16,0.096,0.24,0.288,0.256c0.08,0,0.176-0.064,0.304-0.16c0.224-0.192,0.496-0.416,0.8-0.704
			c0.464-0.464,0.912-0.928,1.345-1.409c0,0.16,0,0.352,0.032,0.56c0.064,0.48,0.208,0.848,0.4,1.136
			c0.256,0.368,0.592,0.56,0.976,0.56c0.448,0,0.784-0.416,1.024-1.232c0.224-0.768,0.336-1.777,0.352-3.057
			c0.144,0.176,0.288,0.352,0.448,0.512c0.544,0.64,1.153,1.216,1.841,1.761c0.608,0.48,1.169,0.848,1.697,1.089
			c0.256,0.144,0.56,0.272,0.896,0.368c0.256,0.064,0.48,0.096,0.704,0.096c0.112,0,0.192-0.032,0.224-0.096
			c0.064-0.064,0.112-0.144,0.112-0.24C112.229,15.19,112.181,15.126,112.085,15.11z M105.315,14.422
			c-0.176,0.608-0.32,0.912-0.416,0.912c-0.32,0-0.688-0.528-1.073-1.585c-0.016-0.064-0.032-0.096-0.064-0.128
			c0.464-0.528,0.896-1.056,1.281-1.601c0.192-0.256,0.368-0.512,0.528-0.768c0,0.128,0.016,0.256,0.016,0.384
			C105.587,12.677,105.491,13.589,105.315,14.422z M103.554,10.852c0.272-0.352,0.496-0.688,0.688-1.008
			c0.048-0.128,0.08-0.24,0.08-0.336c0-0.096-0.032-0.16-0.096-0.224c-0.08-0.048-0.16-0.08-0.224-0.08
			c-0.096,0-0.192,0.096-0.256,0.256c-0.128,0.224-0.288,0.448-0.448,0.688c-1.088,1.537-2.113,2.705-3.073,3.521
			c-0.096,0.096-0.144,0.208-0.144,0.336c0,0.144,0.096,0.224,0.256,0.24c0.08,0,0.176-0.064,0.288-0.16
			c0.192-0.16,0.4-0.352,0.656-0.576C102.209,12.613,102.962,11.717,103.554,10.852z"/>
	</g>
</g>
</svg>
