<?xml version="1.0" encoding="utf-8"?>
<!-- Generator: Adobe Illustrator 17.0.0, SVG Export Plug-In . SVG Version: 6.00 Build 0)  -->
<!DOCTYPE svg PUBLIC "-//W3C//DTD SVG 1.1//EN" "http://www.w3.org/Graphics/SVG/1.1/DTD/svg11.dtd">
<svg version="1.1" id="Layer_1" xmlns="http://www.w3.org/2000/svg" xmlns:xlink="http://www.w3.org/1999/xlink" x="0px" y="0px"
	 width="16px" height="16px" viewBox="0 0 16 16" enable-background="new 0 0 16 16" xml:space="preserve">
<g>
	<path fill="#231F20" d="M8,1C4.134,1,1,4.134,1,8c0,3.867,3.134,7,7,7c3.867,0,7-3.133,7-7C15,4.134,11.867,1,8,1z M8,14
		c-3.314,0-6-2.686-6-6s2.686-6,6-6c3.314,0,6,2.686,6,6S11.314,14,8,14z"/>
	<polygon fill="#231F20" points="8,5 7,5 7,9 8,9 11,9 11,8 8,8 	"/>
</g>
</svg>
