<?xml version="1.0" encoding="utf-8"?>
<!-- Generator: Adobe Illustrator 16.0.0, SVG Export Plug-In . SVG Version: 6.00 Build 0)  -->
<!DOCTYPE svg PUBLIC "-//W3C//DTD SVG 1.1//EN" "http://www.w3.org/Graphics/SVG/1.1/DTD/svg11.dtd">
<svg version="1.1" id="Layer_1" xmlns="http://www.w3.org/2000/svg" xmlns:xlink="http://www.w3.org/1999/xlink" x="0px" y="0px"
	 width="16px" height="16px" viewBox="0.5 0.5 16 16" enable-background="new 0.5 0.5 16 16" xml:space="preserve">
<path fill-rule="evenodd" clip-rule="evenodd" fill="#231F20" d="M13.5,3.5h-10c-0.552,0-1,0.448-1,1v7c0,0.553,0.448,1,1,1h1v2l2-2
	h7c0.553,0,1-0.447,1-1v-7C14.5,3.948,14.053,3.5,13.5,3.5z M5.5,8.5c-0.552,0-1-0.448-1-1s0.448-1,1-1s1,0.448,1,1
	S6.052,8.5,5.5,8.5z M8.5,8.5c-0.552,0-1-0.448-1-1s0.448-1,1-1c0.553,0,1,0.448,1,1S9.053,8.5,8.5,8.5z M11.5,8.5
	c-0.553,0-1-0.448-1-1s0.447-1,1-1s1,0.448,1,1S12.053,8.5,11.5,8.5z"/>
</svg>
