<?xml version="1.0" encoding="utf-8"?>
<!-- Generator: Adobe Illustrator 17.0.0, SVG Export Plug-In . SVG Version: 6.00 Build 0)  -->
<!DOCTYPE svg PUBLIC "-//W3C//DTD SVG 1.1//EN" "http://www.w3.org/Graphics/SVG/1.1/DTD/svg11.dtd">
<svg version="1.1" id="图层_1" xmlns="http://www.w3.org/2000/svg" xmlns:xlink="http://www.w3.org/1999/xlink" x="0px" y="0px"
	 width="18px" height="18px" viewBox="0 0 18 18" enable-background="new 0 0 18 18" xml:space="preserve">
<g>
	<g>
		<path fill="#252434" d="M15.994,3.151c0.552,0,0.999,0.447,0.999,0.999v2.681c-1.162,0.413-1.999,1.511-1.999,2.814
			s0.837,2.401,1.999,2.814v2.681c0,0.552-0.447,0.999-0.999,0.999H2.006c-0.552,0-0.999-0.447-0.999-0.999v-2.681
			c1.162-0.413,1.998-1.511,1.998-2.814S2.168,7.244,1.007,6.831V4.15c0-0.552,0.447-0.999,0.999-0.999H15.994 M15.994,2.151H2.006
			c-1.102,0-1.999,0.897-1.999,1.999v2.681v0.706l0.665,0.236C1.469,8.057,2.005,8.81,2.005,9.646c0,0.836-0.536,1.588-1.333,1.872
			l-0.665,0.236v0.706v2.681c0,1.102,0.897,1.999,1.999,1.999h13.988c1.102,0,1.999-0.897,1.999-1.999V12.46v-0.706l-0.665-0.236
			c-0.798-0.283-1.333-1.036-1.333-1.872c0-0.836,0.536-1.588,1.333-1.872l0.665-0.236V6.832V4.15
			C17.993,3.048,17.097,2.151,15.994,2.151L15.994,2.151z"/>
	</g>
</g>
<path fill="#252434" d="M13.033,10.062c-0.808-0.161-1.485-0.461-2.021-0.895h2.043V8.305h-4.33C8.822,8.12,8.914,7.921,9.001,7.711
	h3.624V6.882h-1.477c0.251-0.293,0.513-0.611,0.781-0.947l0.105-0.132l-0.791-0.495l-0.082,0.114
	c-0.283,0.391-0.612,0.774-0.979,1.14l-0.119,0.12l0.255,0.2H9.263C9.413,6.33,9.52,5.82,9.579,5.364L9.6,5.203L8.665,5.154
	L8.652,5.298c-0.042,0.468-0.151,1-0.326,1.584H7.473L7.855,6.55l-0.1-0.113C7.599,6.257,7.372,6.031,7.087,5.767L6.629,5.31
	L5.946,5.846l0.088,0.118C6.105,6.06,6.219,6.184,6.375,6.34C6.576,6.558,6.733,6.73,6.87,6.882h-1.56v0.829h2.702
	c-0.1,0.214-0.215,0.413-0.345,0.594H4.978v0.862h1.859c-0.499,0.391-1.136,0.75-1.899,1.069l-0.183,0.077l0.124,0.155
	c0.087,0.109,0.23,0.295,0.427,0.559l0.075,0.101l0.112-0.057c0.305-0.152,0.587-0.307,0.842-0.46v0.179h1.111
	c-0.115,0.857-0.864,1.421-2.283,1.721l-0.216,0.045l0.122,0.185c0.085,0.129,0.181,0.268,0.288,0.417
	c0.027,0.078,0.058,0.133,0.096,0.17l0.06,0.059l0.081-0.021c1.7-0.419,2.635-1.285,2.782-2.575h2.089
	c-0.008,0.12-0.024,0.306-0.059,0.594c-0.022,0.2-0.034,0.35-0.034,0.446c0,0.113,0,0.414-0.71,0.414l-0.1-0.002
	c-0.566,0-0.951-0.01-1.143-0.031l-0.225-0.024l0.065,0.217c0.062,0.207,0.117,0.426,0.163,0.648l0.024,0.12h1.229
	c1.283,0,1.592-0.688,1.624-1.259c0.069-0.628,0.117-1.088,0.146-1.394c0.334,0.177,0.708,0.332,1.115,0.461l0.085,0.027
	l0.064-0.062c0.041-0.039,0.072-0.097,0.091-0.164c0.136-0.223,0.24-0.38,0.32-0.479l0.155-0.192L13.033,10.062z M7.364,9.927
	c0.244-0.195,0.503-0.449,0.777-0.76h1.679c0.225,0.291,0.471,0.545,0.734,0.76H7.364z"/>
</svg>
