<?xml version="1.0" encoding="utf-8"?>
<!-- Generator: Adobe Illustrator 17.0.0, SVG Export Plug-In . SVG Version: 6.00 Build 0)  -->
<!DOCTYPE svg PUBLIC "-//W3C//DTD SVG 1.1//EN" "http://www.w3.org/Graphics/SVG/1.1/DTD/svg11.dtd">
<svg version="1.1" id="图层_1" xmlns="http://www.w3.org/2000/svg" xmlns:xlink="http://www.w3.org/1999/xlink" x="0px" y="0px"
	 width="18px" height="18px" viewBox="0 0 18 18" enable-background="new 0 0 18 18" xml:space="preserve">
<path fill="#272635" d="M0,6.047C0,5.671,0.061,5.403,0.176,5.24c0.117-0.16,0.376-0.239,0.781-0.239h2.492v10.452h-1.07
	c-0.287,0-0.568-0.002-0.847-0.01c-0.281-0.005-0.471-0.009-0.575-0.009c-0.351,0.014-0.598-0.049-0.741-0.19
	c-0.143-0.139-0.216-0.406-0.216-0.795v-3.009c0-0.153,0.025-0.27,0.069-0.343c0.044-0.076,0.139-0.129,0.282-0.158
	c0.053,0,0.122-0.021,0.215-0.063c0.089-0.044,0.181-0.112,0.271-0.202c0.09-0.09,0.169-0.207,0.234-0.355
	C1.136,10.175,1.17,9.999,1.17,9.787c0-0.32-0.08-0.57-0.242-0.751c-0.163-0.18-0.337-0.287-0.519-0.312
	c-0.141-0.027-0.246-0.075-0.31-0.136C0.033,8.522,0,8.415,0,8.262V6.047L0,6.047L0,6.047z M1.618,4.061V3.81V3.788V3.767V3.517
	c0-0.277,0.103-0.537,0.302-0.773c0.2-0.236,0.419-0.356,0.652-0.356h2.691v1.674H1.618L1.618,4.061L1.618,4.061z M17.499,8.597
	c-0.101,0.029-0.178,0.088-0.224,0.18c-0.042,0.088-0.069,0.19-0.069,0.299c0,0.114,0.026,0.221,0.069,0.324
	c0.046,0.107,0.123,0.18,0.224,0.221c0.104,0.044,0.188,0.127,0.245,0.251c0.06,0.127,0.093,0.258,0.097,0.399
	c0.007,0.139-0.011,0.273-0.049,0.396c-0.039,0.125-0.097,0.216-0.173,0.273c-0.26,0.167-0.388,0.355-0.388,0.564
	c0,0.209,0.128,0.42,0.388,0.625c0.053,0.044,0.099,0.121,0.145,0.229c0.044,0.114,0.067,0.224,0.067,0.338
	c0,0.111-0.024,0.206-0.077,0.289c-0.053,0.086-0.143,0.127-0.273,0.127H16.43c-0.074,0-0.119-0.007-0.123-0.024
	c-0.007-0.014,0.002-0.037,0.026-0.07c0.026-0.037,0.058-0.075,0.097-0.119c0.039-0.042,0.071-0.09,0.099-0.146
	c0.064-0.195,0.064-0.362,0-0.501c-0.066-0.141-0.173-0.258-0.333-0.355c-0.103-0.056-0.18-0.144-0.222-0.265
	c-0.046-0.116-0.064-0.238-0.058-0.364c0.004-0.127,0.026-0.236,0.067-0.333c0.039-0.1,0.099-0.17,0.173-0.211
	c0.106-0.042,0.183-0.119,0.234-0.229c0.053-0.109,0.079-0.229,0.079-0.355c0-0.126-0.023-0.241-0.058-0.345
	c-0.039-0.105-0.097-0.178-0.178-0.218c-0.101-0.058-0.183-0.139-0.243-0.253c-0.059-0.107-0.087-0.231-0.087-0.372
	c0-0.141,0.024-0.275,0.077-0.408c0.053-0.133,0.134-0.241,0.252-0.324c0.081-0.056,0.146-0.132,0.196-0.229
	c0.055-0.1,0.079-0.202,0.09-0.313c0.007-0.113-0.018-0.22-0.06-0.324c-0.046-0.106-0.128-0.191-0.245-0.261
	c-0.128-0.069-0.225-0.172-0.282-0.302c-0.058-0.133-0.088-0.271-0.088-0.408c0-0.141,0.03-0.272,0.088-0.399
	c0.058-0.123,0.139-0.223,0.243-0.294c0.22-0.123,0.344-0.296,0.361-0.51c0.021-0.216,0.004-0.417-0.048-0.595
	c-0.042-0.141-0.118-0.266-0.231-0.377c-0.118-0.113-0.268-0.167-0.449-0.167H6.453V2.388h10.972c0.091,0,0.165,0.035,0.229,0.104
	c0.067,0.07,0.111,0.153,0.13,0.252c0.02,0.097,0.014,0.198-0.021,0.303c-0.03,0.103-0.092,0.193-0.185,0.263
	c-0.079,0.07-0.148,0.158-0.206,0.271c-0.06,0.112-0.088,0.225-0.099,0.345c-0.005,0.12,0.013,0.236,0.051,0.356
	c0.037,0.117,0.108,0.205,0.213,0.261c0.145,0.083,0.252,0.198,0.322,0.343c0.072,0.146,0.11,0.292,0.11,0.437
	c0,0.148-0.037,0.284-0.108,0.408c-0.071,0.127-0.169,0.218-0.3,0.272c-0.143,0.058-0.25,0.136-0.313,0.241
	c-0.066,0.106-0.099,0.221-0.108,0.344c-0.007,0.126,0.018,0.248,0.074,0.366c0.06,0.12,0.155,0.223,0.285,0.306
	c0.13,0.081,0.227,0.192,0.284,0.334c0.058,0.138,0.081,0.277,0.077,0.418c-0.007,0.139-0.039,0.267-0.097,0.387
	C17.703,8.515,17.618,8.582,17.499,8.597L17.499,8.597L17.499,8.597z M14.967,8.283c-0.155,0.042-0.275,0.124-0.361,0.239
	c-0.083,0.121-0.127,0.241-0.136,0.369c-0.004,0.125,0.028,0.251,0.097,0.377c0.074,0.124,0.178,0.214,0.324,0.27
	c0.128,0.058,0.227,0.141,0.291,0.251c0.066,0.114,0.102,0.231,0.108,0.357c0.007,0.126-0.018,0.246-0.069,0.355
	c-0.051,0.112-0.13,0.197-0.234,0.25c-0.324,0.17-0.494,0.372-0.504,0.608c-0.016,0.236,0.108,0.424,0.368,0.566
	c0.117,0.056,0.212,0.141,0.282,0.26c0.072,0.119,0.111,0.243,0.119,0.377c0.007,0.129-0.018,0.251-0.071,0.353
	c-0.051,0.109-0.136,0.178-0.252,0.223c-0.157,0.042-0.275,0.116-0.363,0.229c-0.081,0.109-0.126,0.229-0.132,0.353
	c-0.009,0.129,0.024,0.253,0.097,0.378c0.071,0.127,0.185,0.231,0.34,0.316c0.106,0.056,0.178,0.144,0.225,0.26
	c0.046,0.121,0.062,0.234,0.051,0.345c-0.016,0.112-0.051,0.214-0.11,0.301c-0.058,0.093-0.139,0.136-0.245,0.136H4.599V5.001
	h10.308c0.104,0,0.187,0.043,0.247,0.136c0.058,0.09,0.088,0.19,0.097,0.303c0.007,0.113-0.018,0.223-0.071,0.333
	c-0.051,0.11-0.136,0.189-0.252,0.229c-0.117,0.042-0.212,0.113-0.284,0.21c-0.072,0.096-0.113,0.207-0.128,0.323
	c-0.011,0.12,0.016,0.233,0.079,0.346c0.067,0.113,0.176,0.196,0.333,0.25c0.115,0.056,0.212,0.139,0.282,0.252
	c0.07,0.113,0.113,0.226,0.118,0.343c0.006,0.122-0.021,0.231-0.077,0.338C15.194,8.167,15.099,8.242,14.967,8.283L14.967,8.283
	L14.967,8.283z M10.27,9.686c-0.062,0-0.132-0.007-0.206-0.021c-0.07-0.017-0.083-0.058-0.048-0.127
	c0.016-0.025,0.077-0.125,0.187-0.292c0.111-0.17,0.231-0.345,0.37-0.533c0.136-0.19,0.259-0.367,0.381-0.533
	c0.115-0.167,0.188-0.272,0.212-0.316c0.067-0.109,0.026-0.241-0.117-0.395c-0.024-0.029-0.077-0.071-0.157-0.128
	c-0.074-0.055-0.147-0.096-0.211-0.123c-0.106-0.04-0.181-0.049-0.227-0.02c-0.041,0.027-0.099,0.089-0.163,0.187
	c-0.026,0.04-0.09,0.142-0.197,0.302C9.992,7.85,9.882,8.019,9.764,8.2C9.648,8.383,9.54,8.546,9.443,8.689
	C9.343,8.838,9.289,8.923,9.278,8.953C9.253,9.006,9.202,9.03,9.13,9.016C9.059,9.001,9.012,8.967,8.987,8.911
	C8.971,8.884,8.915,8.802,8.81,8.668C8.705,8.539,8.593,8.39,8.478,8.22c-0.115-0.17-0.229-0.321-0.34-0.47
	C8.026,7.603,7.953,7.503,7.912,7.445c-0.117-0.236-0.24-0.312-0.369-0.228C7.452,7.272,7.37,7.331,7.297,7.393
	c-0.071,0.065-0.139,0.118-0.203,0.16c-0.13,0.095-0.149,0.222-0.059,0.375c0.22,0.278,0.416,0.536,0.586,0.774
	c0.142,0.195,0.277,0.38,0.41,0.566c0.128,0.178,0.206,0.283,0.231,0.314c0.027,0.053,0,0.083-0.078,0.083H7.953
	c-0.064,0-0.16,0.002-0.282,0.009C7.546,9.682,7.432,9.679,7.327,9.665c-0.103,0-0.188,0.025-0.254,0.083
	C7.009,9.801,6.989,9.871,7.016,9.954c0.012,0.058,0.019,0.141,0.019,0.25v0.255c0,0.067,0.018,0.107,0.059,0.114
	c0.039,0.006,0.083,0.008,0.136,0.008h1.131c0.153,0,0.231,0.034,0.231,0.104v0.396c0,0.073-0.011,0.107-0.039,0.107H8.457H8.261
	H7.873h-0.39H7.249c-0.077-0.014-0.128,0.007-0.155,0.061c-0.025,0.058-0.044,0.121-0.059,0.19c-0.014,0.072-0.014,0.136,0,0.197
	c0.015,0.065,0.018,0.119,0.018,0.158c0,0.183,0.085,0.273,0.254,0.273h1.17c0.068,0,0.105,0.01,0.116,0.03
	c0.012,0.021,0.021,0.068,0.021,0.137c0.014,0.07,0.018,0.195,0.009,0.375c-0.006,0.183-0.01,0.3-0.01,0.359
	c0,0.153,0.085,0.229,0.253,0.229h0.625c0.104,0,0.157-0.034,0.157-0.107v-0.144v-0.691c0-0.141,0.06-0.211,0.174-0.211h0.176
	c0.09,0,0.194-0.002,0.302-0.012c0.113-0.005,0.218-0.01,0.32-0.01h0.254c0.181,0,0.275-0.07,0.275-0.207v-0.462
	c0-0.127-0.064-0.19-0.194-0.19H9.822c-0.128,0.029-0.196,0-0.196-0.083c0-0.039-0.002-0.093-0.009-0.155
	c-0.006-0.063-0.008-0.119-0.008-0.177c0-0.053,0.02-0.097,0.066-0.123c0.047-0.03,0.096-0.044,0.147-0.044h1.151
	c0.128,0,0.194-0.046,0.194-0.146V9.935c0-0.056-0.023-0.109-0.069-0.165c-0.046-0.058-0.101-0.083-0.165-0.083H10.27L10.27,9.686
	L10.27,9.686z M10.27,9.686"/>
</svg>
