<?xml version="1.0" encoding="utf-8"?>
<!-- Generator: Adobe Illustrator 17.0.0, SVG Export Plug-In . SVG Version: 6.00 Build 0)  -->
<!DOCTYPE svg PUBLIC "-//W3C//DTD SVG 1.1//EN" "http://www.w3.org/Graphics/SVG/1.1/DTD/svg11.dtd">
<svg version="1.1" id="图层_1" xmlns="http://www.w3.org/2000/svg" xmlns:xlink="http://www.w3.org/1999/xlink" x="0px" y="0px"
	 width="18px" height="18px" viewBox="0 0 18 18" enable-background="new 0 0 18 18" xml:space="preserve">
<path fill="#201D1D" d="M16.189,16.2C16.347,16.2,16.189,16.359,16.189,16.2v-4.497c0-0.16,0.068,0.003-0.091,0.003l-4.406-0.003
	c-0.16,0,0.004,0.131,0.004,0.291L11.692,16.2c0,0.159-0.16,0,0,0H16.189l-0.091,0.197L16.189,16.2z M6.296,16.2
	c0.159,0-0.002,0.068-0.002-0.091l0.002-4.406c0-0.16,0.159,0,0,0L1.89,11.706c-0.158,0-0.091-0.163-0.091-0.003V16.2
	c0,0.159-0.157,0,0,0H6.296L6.296,16.2L6.296,16.2z M7.195,17.999H0.991C0.445,17.999,0,17.552,0,17.008v-6.205
	c0-0.546,0.353-0.899,0.899-0.899h6.296c0.572-0.041,0.853-0.09,0.883,0.916c0,0,0.016,5.362,0.016,6.279
	C8.094,17.954,7.772,18.012,7.195,17.999L7.195,17.999L7.195,17.999z M16.097,6.305c0.159,0,0.091,0.159,0.091,0.002V1.81
	c0-0.16,0.159,0,0,0h-4.497c-0.16,0,0-0.16,0,0v4.497c0,0.158-0.16,0,0,0L16.097,6.305L16.097,6.305L16.097,6.305z M17.088,8.106
	h-6.295c-0.546,0-0.899-0.353-0.899-0.899V0.911c-0.001-0.547,0.353-0.899,0.899-0.899h6.204c0.545,0,0.99,0.446,0.99,0.993v5.914
	C17.987,7.462,17.633,8.106,17.088,8.106L17.088,8.106L17.088,8.106z M7.195,8.106H0.899C0.353,8.106,0,7.752,0,7.206V0.911
	c0-0.546,0.353-0.899,0.899-0.899h6.296c0.545,0,0.899,0.352,0.899,0.899v6.295C8.094,7.751,7.741,8.106,7.195,8.106L7.195,8.106
	L7.195,8.106z M17.088,17.999h-6.295c-0.546,0-0.899-0.356-0.899-0.899v-6.296c0-0.546,0.353-0.899,0.899-0.899h6.295
	c0.545,0,0.899,0.353,0.899,0.899v6.296C17.987,17.643,17.633,17.999,17.088,17.999h-0.091H17.088z M17.088,17.999"/>
</svg>
