<?xml version="1.0" encoding="utf-8"?>
<!-- Generator: Adobe Illustrator 17.0.0, SVG Export Plug-In . SVG Version: 6.00 Build 0)  -->
<!DOCTYPE svg PUBLIC "-//W3C//DTD SVG 1.1//EN" "http://www.w3.org/Graphics/SVG/1.1/DTD/svg11.dtd">
<svg version="1.1" id="图层_1" xmlns="http://www.w3.org/2000/svg" xmlns:xlink="http://www.w3.org/1999/xlink" x="0px" y="0px"
	 width="20px" height="20px" viewBox="0 0 20 20" enable-background="new 0 0 20 20" xml:space="preserve">
<path fill="#1E1A1A" d="M19.061,8.991c-0.538-4.5-4.389-7.99-9.059-7.99c-4.675,0-8.524,3.492-9.061,7.99C0.389,9.28,0,9.837,0,10.5
	v2.592c0,0.953,0.778,1.728,1.739,1.728c0.961,0,1.739,0.089,1.739-0.866V10.5c0-0.59-0.318-1.085-0.772-1.398
	C3.187,5.511,6.252,2.729,10,2.729s6.812,2.781,7.292,6.375c-0.454,0.311-0.772,0.806-0.772,1.398v2.592
	c0,0.149,0.07,0.279,0.086,0.421c-1.271,2.011-2.767,2.814-4.105,3.68c-0.319-0.387-0.783-0.646-1.327-0.646
	c-0.959,0-1.74,0.772-1.74,1.725c0,0.953,0.779,1.728,1.74,1.728c0.961,0,1.739-0.775,1.739-1.728c0-0.006-0.005-0.013-0.005-0.02
	c1.621-0.768,3.417-1.415,4.899-3.523c0.146,0.05,0.293,0.091,0.454,0.091c0.961,0,1.739-0.775,1.739-1.728V10.5
	C20,9.837,19.612,9.28,19.061,8.991L19.061,8.991L19.061,8.991z"/>
</svg>
