<?xml version="1.0" encoding="utf-8"?>
<!-- Generator: Adobe Illustrator 17.0.0, SVG Export Plug-In . SVG Version: 6.00 Build 0)  -->
<!DOCTYPE svg PUBLIC "-//W3C//DTD SVG 1.1//EN" "http://www.w3.org/Graphics/SVG/1.1/DTD/svg11.dtd">
<svg version="1.1" id="图层_1" xmlns="http://www.w3.org/2000/svg" xmlns:xlink="http://www.w3.org/1999/xlink" x="0px" y="0px"
	 width="20px" height="18.4px" viewBox="0 0 20 18.4" enable-background="new 0 0 20 18.4" xml:space="preserve">
<g>
	<path fill="#14222A" d="M3.851,14.593l-0.007-1.53h3.074l-0.017,1.53H3.851L3.851,14.593z"/>
	<path fill="#14222A" d="M3.844,11.526V9.989h3.074v1.537H3.844L3.844,11.526z"/>
	<path fill="#14222A" d="M3.844,8.452l0.007-1.527h3.05l0.017,1.527H3.844L3.844,8.452z"/>
	<path fill="#14222A" d="M16.987,3.683"/>
	<path fill="#14222A" d="M18.883,18.44H1.102c-0.611,0-1.108-0.495-1.108-1.104V2.668c0-0.609,0.497-1.104,1.108-1.104
		c0,0,17.781,0,17.997,0.006c0.751,0.004,0.919,0.49,0.892,1.098v14.668C19.991,17.945,19.494,18.44,18.883,18.44z M1.87,3.054
		c-0.212,0-0.384,0.171-0.384,0.383v13.131c0,0.211,0.172,0.383,0.384,0.383h16.245c0.212,0,0.384-0.171,0.384-0.383V3.436
		c0-0.211-0.172-0.383-0.384-0.383H1.87z"/>
	<path fill="#14222A" d="M6.137,5.384H4.596V0.001h1.541V5.384z"/>
	<path fill="#14222A" d="M10.759,5.379H9.223V0h1.537V5.379z"/>
	<path fill="#14222A" d="M15.389,5.384h-1.541V0.001h1.541V5.384z"/>
	<path fill="#14222A" d="M8.454,8.452l0.007-1.527h3.05l0.017,1.527H8.454L8.454,8.452z"/>
	<path fill="#14222A" d="M8.454,11.526l0.007-1.527h3.05l0.017,1.527H8.454L8.454,11.526z"/>
	<path fill="#14222A" d="M8.454,14.6l0.007-1.527h3.05l0.017,1.527H8.454L8.454,14.6z"/>
	<path fill="#14222A" d="M13.065,14.6l0.007-1.527h3.05l0.017,1.527H13.065L13.065,14.6z"/>
	<path fill="#14222A" d="M13.065,11.526l0.007-1.527h3.05l0.017,1.527H13.065L13.065,11.526z"/>
	<path fill="#14222A" d="M13.065,8.452l0.007-1.527h3.05l0.017,1.527H13.065L13.065,8.452z"/>
</g>
</svg>
