<?xml version="1.0" encoding="utf-8"?>
<!-- Generator: Adobe Illustrator 17.0.0, SVG Export Plug-In . SVG Version: 6.00 Build 0)  -->
<!DOCTYPE svg PUBLIC "-//W3C//DTD SVG 1.1//EN" "http://www.w3.org/Graphics/SVG/1.1/DTD/svg11.dtd">
<svg version="1.1" id="图层_1" xmlns="http://www.w3.org/2000/svg" xmlns:xlink="http://www.w3.org/1999/xlink" x="0px" y="0px"
	 width="10px" height="10px" viewBox="0 0 10 10" enable-background="new 0 0 10 10" xml:space="preserve">
<g>
	<g>
		<path d="M9.055,3.188l-0.658,0.46v-3.22H8.395V0H1.652v3.681L0.945,3.187H0V10h10V3.188H9.055z M2.474,0.856h5.101V4.22L5,6.018
			L2.474,4.255C2.474,4.255,2.474,0.856,2.474,0.856z M9.178,9.144H0.822V4.133L5,7.049l4.178-2.916V9.144L9.178,9.144z M6.59,1.69
			H3.458v0.856H6.59V1.69L6.59,1.69z M6.59,3.188H3.458v0.856H6.59V3.188L6.59,3.188z"/>
	</g>
</g>
</svg>
