<?xml version="1.0" encoding="utf-8"?>
<!-- Generator: Adobe Illustrator 17.0.0, SVG Export Plug-In . SVG Version: 6.00 Build 0)  -->
<!DOCTYPE svg PUBLIC "-//W3C//DTD SVG 1.1//EN" "http://www.w3.org/Graphics/SVG/1.1/DTD/svg11.dtd">
<svg version="1.1" id="图层_1" xmlns="http://www.w3.org/2000/svg" xmlns:xlink="http://www.w3.org/1999/xlink" x="0px" y="0px"
	 width="15px" height="15px" viewBox="0 0 15 15" enable-background="new 0 0 15 15" xml:space="preserve">
<g>
	<path fill="#1D1414" d="M10.338,3.512H4.663c-0.112,0-0.203,0.083-0.203,0.186c0,0.103,0.09,0.186,0.203,0.186h5.675
		c0.112,0,0.203-0.083,0.203-0.186C10.541,3.595,10.45,3.512,10.338,3.512L10.338,3.512z M10.338,4.626H4.663
		c-0.112,0-0.203,0.083-0.203,0.186c0,0.103,0.09,0.186,0.203,0.186h5.675c0.112,0,0.203-0.083,0.203-0.186
		C10.541,4.709,10.45,4.626,10.338,4.626L10.338,4.626z M10.338,5.74H4.663c-0.112,0-0.203,0.083-0.203,0.186
		c0,0.103,0.09,0.186,0.203,0.186h5.675c0.112,0,0.203-0.083,0.203-0.186C10.541,5.823,10.45,5.74,10.338,5.74L10.338,5.74z
		 M10.338,6.854H4.663c-0.112,0-0.203,0.083-0.203,0.186c0,0.103,0.09,0.186,0.203,0.186h5.675c0.112,0,0.203-0.083,0.203-0.186
		C10.541,6.937,10.45,6.854,10.338,6.854L10.338,6.854z M10.338,7.968H4.663c-0.112,0-0.203,0.083-0.203,0.186
		c0,0.102,0.09,0.186,0.203,0.186h5.675c0.112,0,0.203-0.083,0.203-0.186C10.541,8.051,10.45,7.968,10.338,7.968L10.338,7.968z
		 M10.338,9.082H4.663c-0.112,0-0.203,0.083-0.203,0.186c0,0.103,0.09,0.186,0.203,0.186h5.675c0.112,0,0.203-0.083,0.203-0.186
		C10.541,9.166,10.45,9.082,10.338,9.082L10.338,9.082z M14.595,10.941h-1.622V2.165c0-0.691-0.614-1.253-1.368-1.253H2.632H1.47
		H1.42H1.326C0.588,0.929,0,1.493,0,2.173v1.346c0,0.099,0.043,0.193,0.119,0.263c0.076,0.07,0.179,0.109,0.287,0.109h0l1.622-0.001
		v8.769c0,0.691,0.614,1.253,1.368,1.253c0.017,0,0.034-0.003,0.05-0.005c0.017,0.002,0.033,0.005,0.05,0.005h10.136
		c0.754,0,1.368-0.562,1.368-1.253v-1.346C15,11.107,14.819,10.941,14.595,10.941L14.595,10.941z M0.811,3.148V2.173
		c0-0.56,0.641-0.518,0.641-0.518H1.47c0.308,0,0.558,0.229,0.558,0.511v0.981L0.811,3.148L0.811,3.148z M4.054,11.312v1.346
		c0,0.282-0.25,0.511-0.558,0.511c-0.017,0-0.033,0.003-0.05,0.004c-0.016-0.002-0.033-0.004-0.05-0.004
		c-0.308,0-0.557-0.229-0.557-0.511V2.165c0-0.182-0.042-0.354-0.119-0.511h8.885c0.308,0,0.558,0.229,0.558,0.511v8.776H4.459
		C4.235,10.941,4.054,11.107,4.054,11.312L4.054,11.312z M14.189,12.659c0,0.282-0.25,0.511-0.557,0.511H4.746
		c0.076-0.156,0.119-0.329,0.119-0.511v-0.975h9.325V12.659L14.189,12.659z M14.189,12.659"/>
</g>
</svg>
