<?xml version="1.0" encoding="utf-8"?>
<!-- Generator: Adobe Illustrator 17.0.0, SVG Export Plug-In . SVG Version: 6.00 Build 0)  -->
<!DOCTYPE svg PUBLIC "-//W3C//DTD SVG 1.1//EN" "http://www.w3.org/Graphics/SVG/1.1/DTD/svg11.dtd">
<svg version="1.1" id="图层_1" xmlns="http://www.w3.org/2000/svg" xmlns:xlink="http://www.w3.org/1999/xlink" x="0px" y="0px"
	 width="10px" height="10px" viewBox="0 0 10 10" enable-background="new 0 0 10 10" xml:space="preserve">
<path d="M3.481,5.273c0-0.128-0.101-0.232-0.224-0.232h-2.59c-0.123,0-0.224-0.104-0.224-0.232V4.013
	c0-0.128,0.101-0.232,0.224-0.232h2.59c0.123,0,0.224-0.104,0.224-0.232V2.753c0-0.128,0.071-0.158,0.158-0.068l1.506,1.562
	c0.087,0.09,0.087,0.238,0,0.328L3.639,6.137c-0.087,0.09-0.158,0.06-0.158-0.068V5.273z M9.333,0c0.123,0,0.224,0.104,0.224,0.232
	v7.727c0,0.128-0.09,0.279-0.2,0.336L6.111,9.978c-0.11,0.057-0.2-0.001-0.2-0.128V8.423c0-0.128-0.101-0.232-0.224-0.232H2.49
	c-0.123,0-0.224-0.104-0.224-0.232V5.903c0-0.128,0.101-0.232,0.224-0.232h0.16c0.123,0,0.224,0.104,0.224,0.232v1.426
	c0,0.128,0.101,0.232,0.224,0.232h2.59c0.123,0,0.224-0.104,0.224-0.232V2.122c0-0.128,0.09-0.279,0.2-0.336l2.03-1.053
	C8.251,0.677,8.241,0.63,8.118,0.63H3.097c-0.123,0-0.224,0.104-0.224,0.232v2.056c0,0.128-0.101,0.232-0.224,0.232H2.49
	c-0.123,0-0.224-0.104-0.224-0.232V0.232C2.266,0.104,2.367,0,2.49,0H9.333z M9.557,0"/>
</svg>
