<?xml version="1.0" encoding="utf-8"?>
<!-- Generator: Adobe Illustrator 18.0.0, SVG Export Plug-In . SVG Version: 6.00 Build 0)  -->
<!DOCTYPE svg PUBLIC "-//W3C//DTD SVG 1.1//EN" "http://www.w3.org/Graphics/SVG/1.1/DTD/svg11.dtd">
<svg version="1.1" id="图层_1" xmlns="http://www.w3.org/2000/svg" xmlns:xlink="http://www.w3.org/1999/xlink" x="0px" y="0px"
	 viewBox="0 0 128 128" enable-background="new 0 0 128 128" xml:space="preserve">
<g>
	<g>
		<path fill-rule="evenodd" clip-rule="evenodd" fill="#F26627" d="M64,0C28.7,0,0,28.7,0,64s28.7,64,64,64s64-28.7,64-64
			S99.3,0,64,0z M64,126C29.8,126,2,98.2,2,64C2,29.8,29.8,2,64,2s62,27.8,62,62C126,98.2,98.2,126,64,126z M97.7,39L51.8,84.7
			L29.5,62.5c-0.7-0.7-1.9-0.7-2.6,0c-0.7,0.7-0.7,1.9,0,2.6l23.5,23.5c0,0,0,0.1,0.1,0.1c0.7,0.7,1.9,0.7,2.6,0l47.2-47
			c0.7-0.7,0.7-1.9,0-2.6C99.6,38.3,98.4,38.3,97.7,39z"/>
	</g>
</g>
</svg>
