<?xml version="1.0" encoding="utf-8"?>
<!-- Generator: Adobe Illustrator 17.0.0, SVG Export Plug-In . SVG Version: 6.00 Build 0)  -->
<!DOCTYPE svg PUBLIC "-//W3C//DTD SVG 1.1//EN" "http://www.w3.org/Graphics/SVG/1.1/DTD/svg11.dtd">
<svg version="1.1" id="图层_1" xmlns="http://www.w3.org/2000/svg" xmlns:xlink="http://www.w3.org/1999/xlink" x="0px" y="0px"
	 width="24px" height="24px" viewBox="0 0 24 24" enable-background="new 0 0 24 24" xml:space="preserve">
<path d="M12.007,0C5.375,0,0,5.375,0,12.007c0,6.631,5.375,12.007,12.007,12.007c6.631,0,12.007-5.375,12.007-12.007
	C24.013,5.375,18.638,0,12.007,0z M12.007,22.298c-5.685,0-10.291-4.607-10.291-10.291c0-5.684,4.606-10.291,10.291-10.291
	c5.685,0,10.291,4.607,10.291,10.291C22.298,17.691,17.692,22.298,12.007,22.298z"/>
<g>
	<circle cx="6.861" cy="12.007" r="1.715"/>
	<circle cx="12.007" cy="12.007" r="1.715"/>
	<circle cx="17.152" cy="12.007" r="1.715"/>
</g>
</svg>
