<?xml version="1.0" encoding="utf-8"?>
<!-- Generator: Adobe Illustrator 17.0.0, SVG Export Plug-In . SVG Version: 6.00 Build 0)  -->
<!DOCTYPE svg PUBLIC "-//W3C//DTD SVG 1.1//EN" "http://www.w3.org/Graphics/SVG/1.1/DTD/svg11.dtd">
<svg version="1.1" id="图层_1" xmlns="http://www.w3.org/2000/svg" xmlns:xlink="http://www.w3.org/1999/xlink" x="0px" y="0px"
	 width="10px" height="10px" viewBox="0 0 10 10" enable-background="new 0 0 10 10" xml:space="preserve">
<path d="M5,10c2.761,0,5-2.239,5-5c0-2.761-2.239-5-5-5C2.239,0,0,2.239,0,5C0,7.761,2.239,10,5,10z M5,0.938
	c2.244,0,4.062,1.819,4.062,4.062c0,2.244-1.819,4.063-4.062,4.063C2.756,9.062,0.938,7.244,0.938,5
	C0.938,2.756,2.756,0.938,5,0.938z M5,5.847c1.132,0,2.21-0.301,3.125-0.829C7.983,6.761,6.629,8.125,5,8.125
	c-1.629,0-2.983-1.366-3.125-3.108C2.791,5.545,3.868,5.847,5,5.847z M2.5,3.438c0,0.518,0.28,0.937,0.625,0.937
	c0.345,0,0.625-0.42,0.625-0.937C3.75,2.92,3.47,2.5,3.125,2.5C2.78,2.5,2.5,2.92,2.5,3.438z M6.25,3.438
	c0,0.518,0.28,0.937,0.625,0.937c0.345,0,0.625-0.42,0.625-0.937C7.5,2.92,7.22,2.5,6.875,2.5C6.53,2.5,6.25,2.92,6.25,3.438z"/>
</svg>
