<?xml version="1.0" encoding="utf-8"?>
<!-- Generator: Adobe Illustrator 16.0.0, SVG Export Plug-In . SVG Version: 6.00 Build 0)  -->
<!DOCTYPE svg PUBLIC "-//W3C//DTD SVG 1.1//EN" "http://www.w3.org/Graphics/SVG/1.1/DTD/svg11.dtd">
<svg version="1.1" id="Layer_1" xmlns="http://www.w3.org/2000/svg" xmlns:xlink="http://www.w3.org/1999/xlink" x="0px" y="0px"
	 width="16px" height="16px" viewBox="0 0 16 16" enable-background="new 0 0 16 16" xml:space="preserve">
<g>
	<g>
		<path fill-rule="evenodd" clip-rule="evenodd" fill="#231F20" d="M8,2.667C2.438,2.667,0,8,0,8s3.531,5.333,8,5.333S16,8,16,8
			S13.562,2.667,8,2.667z M8,10.672c-1.473,0-2.667-1.197-2.667-2.672S6.527,5.328,8,5.328S10.667,6.525,10.667,8
			S9.473,10.672,8,10.672z M8,7.113C7.512,7.113,7.115,7.511,7.115,8S7.512,8.887,8,8.887S8.885,8.489,8.885,8S8.488,7.113,8,7.113z
			"/>
	</g>
</g>
</svg>
