<?xml version="1.0" encoding="utf-8"?>
<!-- Generator: Adobe Illustrator 17.0.0, SVG Export Plug-In . SVG Version: 6.00 Build 0)  -->
<!DOCTYPE svg PUBLIC "-//W3C//DTD SVG 1.1//EN" "http://www.w3.org/Graphics/SVG/1.1/DTD/svg11.dtd">
<svg version="1.1" id="图层_1" xmlns="http://www.w3.org/2000/svg" xmlns:xlink="http://www.w3.org/1999/xlink" x="0px" y="0px"
	 width="24px" height="24px" viewBox="20 20 24 24" enable-background="new 20 20 24 24" xml:space="preserve">
<path d="M39.5,23h-14c-0.275,0-0.5,0.225-0.5,0.5v17c0,0.275,0.225,0.5,0.5,0.5h14c0.275,0,0.5-0.225,0.5-0.5v-17
	C40,23.225,39.775,23,39.5,23z M39,40H26V24h13V40z M28.5,27h7c0.275,0,0.5-0.225,0.5-0.5c0-0.275-0.225-0.5-0.5-0.5h-7
	c-0.275,0-0.5,0.225-0.5,0.5C28,26.775,28.225,27,28.5,27z M28.5,30h7c0.275,0,0.5-0.225,0.5-0.5c0-0.275-0.225-0.5-0.5-0.5h-7
	c-0.275,0-0.5,0.225-0.5,0.5C28,29.775,28.225,30,28.5,30z M28.5,33h5c0.275,0,0.5-0.225,0.5-0.5c0-0.275-0.225-0.5-0.5-0.5h-5
	c-0.275,0-0.5,0.225-0.5,0.5C28,32.775,28.225,33,28.5,33z"/>
</svg>
