<?xml version="1.0" encoding="utf-8"?>
<!-- Generator: Adobe Illustrator 17.0.0, SVG Export Plug-In . SVG Version: 6.00 Build 0)  -->
<!DOCTYPE svg PUBLIC "-//W3C//DTD SVG 1.1//EN" "http://www.w3.org/Graphics/SVG/1.1/DTD/svg11.dtd">
<svg version="1.1" id="图层_1" xmlns="http://www.w3.org/2000/svg" xmlns:xlink="http://www.w3.org/1999/xlink" x="0px" y="0px"
	 width="18px" height="18px" viewBox="0 0 18 18" enable-background="new 0 0 18 18" xml:space="preserve">
<path fill="#1C0E0F" d="M5.504,18.001c-1.228-2.497-0.575-3.927,0.369-5.274C6.908,11.251,7.174,9.79,7.174,9.79
	s0.812,1.032,0.487,2.646c1.435-1.56,1.706-4.048,1.49-5c3.245,2.215,4.631,7.011,2.762,10.566
	c9.942-5.494,2.474-13.714,1.173-14.64c0.434,0.926,0.517,2.492-0.36,3.254C11.245,1.125,7.58,0,7.58,0
	c0.434,2.831-1.571,5.927-3.504,8.24c-0.067-1.13-0.139-1.908-0.748-2.989c-0.136,2.051-1.74,3.723-2.175,5.777
	C0.565,13.81,1.595,15.848,5.505,18L5.504,18.001L5.504,18.001z"/>
</svg>
