<?xml version="1.0" encoding="utf-8"?>
<!-- Generator: Adobe Illustrator 17.0.0, SVG Export Plug-In . SVG Version: 6.00 Build 0)  -->
<!DOCTYPE svg PUBLIC "-//W3C//DTD SVG 1.1//EN" "http://www.w3.org/Graphics/SVG/1.1/DTD/svg11.dtd">
<svg version="1.1" id="图层_1" xmlns="http://www.w3.org/2000/svg" xmlns:xlink="http://www.w3.org/1999/xlink" x="0px" y="0px"
	 width="24px" height="24px" viewBox="0 0 24 24" enable-background="new 0 0 24 24" xml:space="preserve">
<g>
	<path fill="#231F20" d="M12.002,0C5.373,0,0,5.373,0,12.002c0,6.629,5.373,12.002,12.002,12.002s12.002-5.373,12.002-12.002
		C24.005,5.373,18.631,0,12.002,0z M12.002,22.29c-5.683,0-10.288-4.605-10.288-10.288c0-5.682,4.605-10.288,10.288-10.288
		S22.29,6.32,22.29,12.002C22.29,17.685,17.685,22.29,12.002,22.29z"/>
	<path fill="#231F20" d="M5.734,5.778v6.593v6.501h1.723v-4.626h10.814l-4.234-4.234l4.234-4.234H5.734z M12.824,11.224l1.307,1.307
		H7.456V12.37H7.449V7.493h6.683L12.824,8.8l-1.212,1.212L12.824,11.224z"/>
</g>
</svg>
