<?xml version="1.0" encoding="utf-8"?>
<!-- Generator: Adobe Illustrator 16.0.0, SVG Export Plug-In . SVG Version: 6.00 Build 0)  -->
<!DOCTYPE svg PUBLIC "-//W3C//DTD SVG 1.1//EN" "http://www.w3.org/Graphics/SVG/1.1/DTD/svg11.dtd">
<svg version="1.1" id="Layer_1" xmlns="http://www.w3.org/2000/svg" xmlns:xlink="http://www.w3.org/1999/xlink" x="0px" y="0px"
	 width="16px" height="16px" viewBox="0.542 -0.458 16 16" enable-background="new 0.542 -0.458 16 16" xml:space="preserve">
<g>
	<path fill="#231F20" d="M8.542,8.458C8.542,8.458,8.542,8.458,8.542,8.458c-1.681,0-3.094,0.82-3.781,2.193
		c-0.124,0.247-0.023,0.547,0.224,0.671c0.072,0.036,0.148,0.053,0.223,0.053c0.184,0,0.36-0.102,0.448-0.276
		c0.74-1.48,2.264-1.641,2.885-1.641c0.001,0,0.001,0,0.001,0c0.621,0,2.146,0.16,2.886,1.641c0.088,0.175,0.264,0.276,0.447,0.276
		c0.075,0,0.151-0.017,0.224-0.053c0.247-0.123,0.347-0.424,0.224-0.671C11.637,9.278,10.224,8.458,8.542,8.458z"/>
	<circle fill="#231F20" cx="5.542" cy="5.541" r="1"/>
	<circle fill="#231F20" cx="11.542" cy="5.541" r="1"/>
	<path fill="#231F20" d="M8.542,0.042c-4.136,0-7.5,3.364-7.5,7.5c0,4.136,3.364,7.5,7.5,7.5s7.5-3.364,7.5-7.5
		C16.042,3.406,12.678,0.042,8.542,0.042z M8.542,14.041c-3.584,0-6.5-2.916-6.5-6.5s2.916-6.5,6.5-6.5s6.5,2.916,6.5,6.5
		S12.126,14.041,8.542,14.041z"/>
</g>
</svg>
