<?xml version="1.0" encoding="utf-8"?>
<!-- Generator: Adobe Illustrator 17.0.0, SVG Export Plug-In . SVG Version: 6.00 Build 0)  -->
<!DOCTYPE svg PUBLIC "-//W3C//DTD SVG 1.1//EN" "http://www.w3.org/Graphics/SVG/1.1/DTD/svg11.dtd">
<svg version="1.1" id="Layer_1" xmlns="http://www.w3.org/2000/svg" xmlns:xlink="http://www.w3.org/1999/xlink" x="0px" y="0px"
	 width="16px" height="16px" viewBox="0 0 16 16" enable-background="new 0 0 16 16" xml:space="preserve">
<path d="M14,4.532h-2.107c1.101-0.749,1.636-1.9,1.201-2.724C12.813,1.277,12.193,1,11.457,1c-0.537,0-1.136,0.147-1.711,0.451
	C9.225,1.726,8.801,2.09,8.5,2.485C8.199,2.09,7.775,1.726,7.255,1.451C6.679,1.147,6.08,1,5.543,1C4.807,1,4.187,1.277,3.906,1.808
	c-0.435,0.824,0.1,1.975,1.201,2.724H3c-0.55,0-1,0.45-1,1V9v1v4c0,0.55,0.45,1,1,1h11c0.55,0,1-0.45,1-1V5.532
	C15,4.982,14.55,4.532,14,4.532z M10.212,2.335C10.622,2.119,11.064,2,11.457,2c0.369,0,0.664,0.108,0.753,0.275
	c0.163,0.31-0.222,1.112-1.176,1.615c-0.409,0.216-0.851,0.335-1.244,0.335c-0.369,0-0.664-0.108-0.753-0.275
	C8.873,3.641,9.258,2.839,10.212,2.335z M4.791,2.275C4.879,2.108,5.174,2,5.544,2c0.393,0,0.835,0.119,1.244,0.335
	c0.954,0.504,1.339,1.306,1.176,1.615C7.876,4.118,7.58,4.226,7.211,4.226c-0.393,0-0.835-0.119-1.244-0.335
	C5.013,3.387,4.627,2.585,4.791,2.275z M3,5.532h5V9H3V5.532z M3,14v-4h5v4H3z M14,14H9v-4h5V14z M14,9H9V5.532h5V9z"/>
</svg>
