<?xml version="1.0" encoding="utf-8"?>
<!-- Generator: Adobe Illustrator 18.0.0, SVG Export Plug-In . SVG Version: 6.00 Build 0)  -->
<!DOCTYPE svg PUBLIC "-//W3C//DTD SVG 1.1//EN" "http://www.w3.org/Graphics/SVG/1.1/DTD/svg11.dtd">
<svg version="1.1" id="图层_1" xmlns="http://www.w3.org/2000/svg" xmlns:xlink="http://www.w3.org/1999/xlink" x="0px" y="0px"
	 viewBox="0 0 12 12" enable-background="new 0 0 12 12" xml:space="preserve">
<g>
	<g>
		<path d="M6.9,6.5c0.7-0.3,1.2-1,1.2-1.9c0-1.1-0.9-2.1-2.1-2.1S4,3.4,4,4.6c0,0.8,0.5,1.6,1.2,1.9C3.8,6.8,2.8,8.1,2.8,9.6h6.6
			C9.3,8.1,8.3,6.8,6.9,6.5z M3.7,6.1C3.4,5.7,3.2,5.2,3.2,4.7C3.2,4,3.3,3.4,3.8,3C3.5,2.6,3.2,2.4,2.7,2.4C1.8,2.4,1,3.2,1,4.1
			c0,0.7,0.4,1.3,1,1.5C0.8,5.9,0,6.9,0,8.2h2.2C2.4,7.3,3,6.6,3.7,6.1z M10,5.6c0.6-0.3,1-0.8,1-1.5c0-0.9-0.8-1.7-1.7-1.7
			C8.8,2.4,8.5,2.6,8.2,3c0.5,0.4,0.7,1,0.7,1.7c0,0.5-0.2,1-0.5,1.4C9,6.6,9.6,7.3,9.8,8.2H12C12,6.9,11.2,5.9,10,5.6z"/>
	</g>
</g>
</svg>
