<?xml version="1.0" encoding="utf-8"?>
<!-- Generator: Adobe Illustrator 17.0.0, SVG Export Plug-In . SVG Version: 6.00 Build 0)  -->
<!DOCTYPE svg PUBLIC "-//W3C//DTD SVG 1.1//EN" "http://www.w3.org/Graphics/SVG/1.1/DTD/svg11.dtd">
<svg version="1.1" id="Layer_1" xmlns="http://www.w3.org/2000/svg" xmlns:xlink="http://www.w3.org/1999/xlink" x="0px" y="0px"
	 width="16px" height="16px" viewBox="0.5 0.5 16 16" enable-background="new 0.5 0.5 16 16" xml:space="preserve">
<g>
	<path d="M12.136,10.477C12.617,9.97,13.25,9.163,13.25,7.75c0-1.944-1.306-3.25-3.25-3.25c-1.944,0-3.25,1.306-3.25,3.25
		c0,1.413,0.633,2.22,1.114,2.727C6.665,10.957,4.5,11.854,4.5,14.5c0,0.552,0.448,1,1,1h9c0.552,0,1-0.448,1-1
		C15.5,11.854,13.335,10.957,12.136,10.477z M5.5,14.5c0-3,3.75-3,3.75-3.75s-1.5-1.071-1.5-3C7.75,6.464,8.5,5.5,10,5.5
		s2.25,0.964,2.25,2.25c0,1.929-1.5,2.25-1.5,3s3.75,0.75,3.75,3.75C13.75,14.5,6.25,14.5,5.5,14.5z"/>
	<path d="M6.25,7.75c0-0.75-1.5-1.071-1.5-3C4.75,3.464,5.5,2.5,7,2.5c0,0,0.793,0,1.486,0.357C8.859,2.677,9.5,2.5,9.5,2.5
		c-1-1-2-1-2.5-1c-1.944,0-3.25,1.306-3.25,3.25c0,1.413,0.633,2.22,1.114,2.727C3.665,7.957,1.5,8.854,1.5,11.5
		c0,0.552,0.448,1,1,1h1v-1h-1C2.5,8.5,6.25,8.5,6.25,7.75z"/>
</g>
</svg>
