<?xml version="1.0" encoding="utf-8"?>
<!-- Generator: Adobe Illustrator 17.0.0, SVG Export Plug-In . SVG Version: 6.00 Build 0)  -->
<!DOCTYPE svg PUBLIC "-//W3C//DTD SVG 1.1//EN" "http://www.w3.org/Graphics/SVG/1.1/DTD/svg11.dtd">
<svg version="1.1" id="图层_1" xmlns="http://www.w3.org/2000/svg" xmlns:xlink="http://www.w3.org/1999/xlink" x="0px" y="0px"
	 width="16px" height="16px" viewBox="0 0 16 16" enable-background="new 0 0 16 16" xml:space="preserve">
<path fill="#231F20" d="M11.128,3c0.669,0,2.852,0.216,2.852,3c0,2.266-2.377,4.052-5.667,6.524l-0.316,0.238L7.739,12.57
	C4.396,10.08,1.98,8.28,1.98,6c0-0.97,0.289-1.756,0.836-2.274C3.31,3.258,4.026,3,4.832,3C5.7,3,6.621,3.296,7.425,3.832
	l0.555,0.37l0.555-0.37C9.34,3.295,10.261,3,11.128,3 M11.128,2C10.091,2,8.98,2.333,7.98,3c-1-0.667-2.111-1-3.148-1
	C2.758,2,0.98,3.333,0.98,6c0,3,3,5,7.02,8.013C11.98,11,14.98,9,14.98,6C14.98,3.333,13.202,2,11.128,2L11.128,2z"/>
</svg>
