<?xml version="1.0" encoding="utf-8"?>
<!-- Generator: Adobe Illustrator 17.0.0, SVG Export Plug-In . SVG Version: 6.00 Build 0)  -->
<!DOCTYPE svg PUBLIC "-//W3C//DTD SVG 1.1//EN" "http://www.w3.org/Graphics/SVG/1.1/DTD/svg11.dtd">
<svg version="1.1" id="图层_1" xmlns="http://www.w3.org/2000/svg" xmlns:xlink="http://www.w3.org/1999/xlink" x="0px" y="0px"
	 width="24px" height="24px" viewBox="20 20 24 24" enable-background="new 20 20 24 24" xml:space="preserve">
<path d="M32.057,24.973c-1.641-0.111-3.101,0.27-4.156,1.643C27.182,27.552,27.009,28.826,27,30c0.611,0,0.681-0.19,1.282-0.19
	C28.316,29.5,28.464,26,32,26c1.446,0,2.436,1.414,2.448,2.862c0.007,0.824-0.359,1.486-0.915,2.067
	c-0.638,0.667-1.309,1.403-1.898,2.11c-0.769,0.922-0.854,2.057-0.866,3.214c0.614,0,1.434,0,1.434,0s-0.251-1.739,1.147-3.095
	c0.164-0.159,0.325-0.321,0.482-0.487c0.446-0.466,0.916-0.913,1.324-1.411c0.272-0.331,0.543-0.71,0.66-1.113
	c0.365-1.256,0.202-2.465-0.583-3.538C34.451,25.543,33.346,25.06,32.057,24.973z M30.74,39h1.453v-1.53H30.74V39z M32,22
	c-5.523,0-10,4.477-10,10s4.477,10,10,10c5.523,0,10-4.477,10-10S37.523,22,32,22z M32,41c-4.963,0-9-4.038-9-9s4.037-9,9-9
	c4.963,0,9,4.037,9,9S36.963,41,32,41z"/>
</svg>
