<?xml version="1.0" encoding="utf-8"?>
<!-- Generator: Adobe Illustrator 17.0.0, SVG Export Plug-In . SVG Version: 6.00 Build 0)  -->
<!DOCTYPE svg PUBLIC "-//W3C//DTD SVG 1.1//EN" "http://www.w3.org/Graphics/SVG/1.1/DTD/svg11.dtd">
<svg version="1.1" id="Layer_1" xmlns="http://www.w3.org/2000/svg" xmlns:xlink="http://www.w3.org/1999/xlink" x="0px" y="0px"
	 width="16px" height="16px" viewBox="0.5 0.5 16 16" enable-background="new 0.5 0.5 16 16" xml:space="preserve">
<path fill="#231F20" d="M15.207,7.793l-6-6C9.012,1.598,8.756,1.5,8.5,1.5S7.988,1.598,7.793,1.793l-6,6
	c-0.286,0.286-0.372,0.716-0.217,1.09C1.731,9.256,2.096,9.5,2.5,9.5h1v5c0,0.552,0.448,1,1,1h2h1h2h1h2c0.552,0,1-0.448,1-1v-5h1
	c0.404,0,0.769-0.244,0.924-0.617C15.579,8.509,15.493,8.079,15.207,7.793z M7.5,14.5v-4h2v4H7.5z M12.5,8.5v6h-2v-4v-1h-1h-2h-1v1
	v4h-2v-6h-2l6-6l6,6H12.5z"/>
</svg>
