<?xml version="1.0" encoding="utf-8"?>
<!-- Generator: Adobe Illustrator 17.0.0, SVG Export Plug-In . SVG Version: 6.00 Build 0)  -->
<!DOCTYPE svg PUBLIC "-//W3C//DTD SVG 1.1//EN" "http://www.w3.org/Graphics/SVG/1.1/DTD/svg11.dtd">
<svg version="1.1" id="图层_1" xmlns="http://www.w3.org/2000/svg" xmlns:xlink="http://www.w3.org/1999/xlink" x="0px" y="0px"
	 width="10px" height="10px" viewBox="0 0 10 10" enable-background="new 0 0 10 10" xml:space="preserve">
<path d="M5,0C2.239,0,0,2.239,0,5c0,2.761,2.239,5,5,5c2.761,0,5-2.239,5-5C10,2.239,7.761,0,5,0z M8.038,5.091H7.435v2.223
	c0,0.161-0.006,0.291-0.228,0.291H5.734v-2.23H4.266v2.23H2.862c-0.29,0-0.297-0.131-0.297-0.291V5.091H1.962
	c-0.216,0-0.271-0.125-0.122-0.279l2.892-2.895c0.148-0.154,0.39-0.154,0.537,0l2.892,2.895C8.309,4.966,8.253,5.091,8.038,5.091z"
	/>
</svg>
