<?xml version="1.0" encoding="utf-8"?>
<!-- Generator: Adobe Illustrator 16.0.0, SVG Export Plug-In . SVG Version: 6.00 Build 0)  -->
<!DOCTYPE svg PUBLIC "-//W3C//DTD SVG 1.1//EN" "http://www.w3.org/Graphics/SVG/1.1/DTD/svg11.dtd">
<svg version="1.1" id="图层_1" xmlns="http://www.w3.org/2000/svg" xmlns:xlink="http://www.w3.org/1999/xlink" x="0px" y="0px"
	 width="36px" height="36px" viewBox="0 0 36 36" enable-background="new 0 0 36 36" xml:space="preserve">
<g>
	<path fill="transparent" d="M18,35.5C8.351,35.5,0.5,27.65,0.5,18C0.5,8.351,8.351,0.5,18,0.5c9.65,0,17.5,7.851,17.5,17.5
		C35.5,27.65,27.65,35.5,18,35.5z"/>
	<path fill="#555" d="M18,1c9.375,0,17,7.626,17,17c0,9.375-7.626,17-17,17C8.626,35,1,27.375,1,18C1,8.626,8.626,1,18,1 M18,0
		C8.059,0,0,8.059,0,18c0,9.942,8.059,18,18,18c9.942,0,18-8.059,18-18C36,8.059,27.942,0,18,0L18,0z"/>
</g>
<g>
	<path fill="#555" d="M28,8.931V20.05c0,0.667-0.167,1.33-0.501,1.99c-0.333,0.66-0.77,1.3-1.31,1.919
		c-0.54,0.62-1.157,1.207-1.85,1.761c-0.693,0.554-1.396,1.047-2.11,1.479c-0.714,0.434-1.406,0.794-2.08,1.08
		c-0.673,0.287-1.263,0.483-1.77,0.591l-0.24,0.039l-0.22-0.039c-0.521-0.107-1.124-0.304-1.81-0.591
		c-0.687-0.286-1.4-0.646-2.14-1.08c-0.74-0.433-1.467-0.926-2.18-1.479c-0.714-0.554-1.35-1.141-1.91-1.761
		c-0.56-0.619-1.013-1.259-1.36-1.919S8,20.717,8,20.05V8.931L8.82,8.81l9.2-1.72l9.38,1.72L28,8.931L28,8.931z M18.022,8.701
		l-0.11-0.022l-7.896,1.342v7.017h8.006V8.701L18.022,8.701z M25.984,17.037h-7.961v9.985c0.513-0.117,1.07-0.297,1.671-0.539
		c0.602-0.241,1.195-0.527,1.781-0.857c0.587-0.33,1.151-0.696,1.693-1.1c0.543-0.403,1.023-0.836,1.441-1.298
		s0.751-0.942,1.001-1.44c0.249-0.499,0.373-1.005,0.373-1.518V17.037L25.984,17.037z M25.984,17.037"/>
</g>
</svg>
