<?xml version="1.0" encoding="UTF-8" standalone="no"?>
<svg width="14px" height="17px" viewBox="0 0 14 17" version="1.1" xmlns="http://www.w3.org/2000/svg" xmlns:xlink="http://www.w3.org/1999/xlink" xmlns:sketch="http://www.bohemiancoding.com/sketch/ns">
    <!-- Generator: Sketch 3.4.2 (15857) - http://www.bohemiancoding.com/sketch -->
    <title>ic_applelogo</title>
    <desc>Created with Sketch.</desc>
    <defs></defs>
    <g id="Page-1" stroke="none" stroke-width="1" fill="none" fill-rule="evenodd" sketch:type="MSPage">
        <g id="学币支付2" sketch:type="MSArtboardGroup" transform="translate(-738.000000, -1135.000000)" fill="#6D6D6D">
            <path d="M749.693266,1144.03347 C749.6716,1141.88006 751.469182,1140.84724 751.549556,1140.79506 C750.53929,1139.33446 748.965357,1139.13405 748.405186,1139.11124 C747.066784,1138.97683 745.792332,1139.89078 745.113346,1139.89078 C744.435758,1139.89078 743.386703,1139.13094 742.276843,1139.15029 C740.816832,1139.17171 739.471091,1139.98995 738.719769,1141.28227 C737.203496,1143.88316 738.331877,1147.73766 739.809361,1149.84857 C740.531679,1150.88035 741.393078,1152.04137 742.523207,1151.99887 C743.612449,1151.95637 744.023405,1151.30226 745.340141,1151.30226 C746.656876,1151.30226 747.026597,1151.99887 748.178741,1151.9771 C749.350104,1151.95602 750.09269,1150.92562 750.809067,1149.88969 C751.638317,1148.69101 751.979732,1147.53034 752,1147.47159 C751.97449,1147.45985 749.71668,1146.60463 749.693266,1144.03347 Z M747.52841,1137.71422 C748.12772,1136.99481 748.533784,1135.99516 748.423357,1135 C747.558463,1135.03455 746.511504,1135.56841 745.890528,1136.28714 C745.3342,1136.92501 744.847762,1137.94055 744.978108,1138.91774 C745.942946,1138.99168 746.927003,1138.43225 747.52841,1137.71422 Z" id="ic_applelogo" sketch:type="MSShapeGroup"></path>
        </g>
    </g>
</svg>