<?xml version="1.0" encoding="utf-8"?>
<!-- Generator: Adobe Illustrator 17.0.0, SVG Export Plug-In . SVG Version: 6.00 Build 0)  -->
<!DOCTYPE svg PUBLIC "-//W3C//DTD SVG 1.1//EN" "http://www.w3.org/Graphics/SVG/1.1/DTD/svg11.dtd">
<svg version="1.1" id="图层_1" xmlns="http://www.w3.org/2000/svg" xmlns:xlink="http://www.w3.org/1999/xlink" x="0px" y="0px"
	 width="24px" height="24px" viewBox="0 0 24 24" enable-background="new 0 0 24 24" xml:space="preserve">
<g>
	<g>
		<path fill="#272536" d="M21.47,1.955H2.526C1.131,1.955,0,3.085,0,4.48v14.63c0,1.394,1.131,2.525,2.526,2.525H21.47
			c1.395,0,2.526-1.13,2.526-2.525V4.48C23.996,3.086,22.866,1.955,21.47,1.955L21.47,1.955z M1.263,4.48
			c0-0.697,0.566-1.262,1.263-1.262H21.47c0.697,0,1.263,0.565,1.263,1.262v12.738l-6.247-5.927c-0.196-0.277-0.577-0.35-0.861-0.16
			l-3.239,3.381L6.383,8.766c-0.196-0.277-0.577-0.35-0.862-0.161l-4.259,3.351V4.48L1.263,4.48z M2.526,20.373
			c-0.697,0-1.263-0.565-1.263-1.262v-5.554l4.525-3.56l10.843,10.377H2.526L2.526,20.373L2.526,20.373z M22.734,19.11
			c0,0.697-0.566,1.262-1.263,1.262h-3.069c-0.025-0.081-0.066-0.156-0.122-0.222l-5.004-4.788l2.673-2.79l6.717,6.373
			c0.021,0.025,0.044,0.048,0.068,0.068V19.11L22.734,19.11L22.734,19.11z M22.734,19.11"/>
	</g>
</g>
<g>
	<path fill="#272536" d="M12.808,9.562c-1.519,0-2.756-1.237-2.756-2.756c0-1.52,1.237-2.758,2.756-2.758
		c1.52,0,2.758,1.237,2.758,2.758C15.565,8.324,14.328,9.562,12.808,9.562z M12.808,5.179c-0.897,0-1.625,0.73-1.625,1.626
		s0.728,1.625,1.625,1.625c0.897,0,1.626-0.728,1.626-1.625S13.704,5.179,12.808,5.179z"/>
</g>
</svg>
