<?xml version="1.0" encoding="utf-8"?>
<!-- Generator: Adobe Illustrator 18.0.0, SVG Export Plug-In . SVG Version: 6.00 Build 0)  -->
<!DOCTYPE svg PUBLIC "-//W3C//DTD SVG 1.1//EN" "http://www.w3.org/Graphics/SVG/1.1/DTD/svg11.dtd">
<svg version="1.1" id="图层_1" xmlns="http://www.w3.org/2000/svg" xmlns:xlink="http://www.w3.org/1999/xlink" x="0px" y="0px"
	 viewBox="0 0 12 12" enable-background="new 0 0 12 12" xml:space="preserve">
<path d="M11.9,3c-0.1-0.1-0.2-0.1-0.3-0.2l-1.1-0.2l-0.2-1.1c0-0.2-0.3-0.4-0.5-0.3L5.8,2L2.7,1.6c-0.2,0-0.4,0.1-0.5,0.4L2.1,2.7
	L0.3,3c-0.1,0-0.2,0.1-0.3,0.2C0,3.3,0,3.4,0,3.5l1.3,6.9c0,0.1,0.1,0.2,0.2,0.3c0.1,0,0.2,0.1,0.2,0.1c0,0,0.1,0,0.1,0l5.6-1
	l3.3,0.5c0,0,0,0,0.1,0c0.2,0,0.4-0.2,0.4-0.4L11.2,9l0.1,0c0.2,0,0.4-0.3,0.3-0.5l-0.2-1L12,3.3C12,3.2,12,3.1,11.9,3L11.9,3z
	 M10.9,4.9l-0.4,2.6l-0.1,0.8l-0.1,0.9l0,0.2L9.9,9.2L7.3,8.9L2.2,8.1l0.7-4.7l0.1-0.9l0-0.1l0.3,0l2.6,0.4l4,0.6l0.9,0.1l0.4,0.1
	L10.9,4.9L10.9,4.9z M9.6,2.2l0.1,0.4L8.4,2.4L9.6,2.2L9.6,2.2z M0.9,3.8L2,3.6L1.5,7L0.9,3.8L0.9,3.8z M2,9.8L1.8,8.9l2.9,0.4
	L2,9.8L2,9.8z M4.7,5.4c0.4,0.1,0.8-0.2,0.9-0.7c0.1-0.4-0.2-0.8-0.7-0.9C4.5,3.7,4.1,4,4,4.5C3.9,4.9,4.2,5.3,4.7,5.4L4.7,5.4z
	 M9.3,5.9L8.6,6.7l-1-1.9L5.8,6.9c0,0-2.4-1-3,0.7l6.1,0.9l0.9,0.1L9.8,8.4L9.3,5.9L9.3,5.9z M9.3,5.9"/>
</svg>
