<?xml version="1.0" encoding="utf-8"?>
<!-- Generator: Adobe Illustrator 18.1.1, SVG Export Plug-In . SVG Version: 6.00 Build 0)  -->
<!DOCTYPE svg PUBLIC "-//W3C//DTD SVG 1.1//EN" "http://www.w3.org/Graphics/SVG/1.1/DTD/svg11.dtd">
<svg version="1.1" id="图层_1" xmlns="http://www.w3.org/2000/svg" xmlns:xlink="http://www.w3.org/1999/xlink" x="0px" y="0px"
	 viewBox="9 -9 32 32" enable-background="new 9 -9 32 32" xml:space="preserve">
<path fill="#040000" d="M33,1.7H17c-0.7,0-1.3,0.6-1.3,1.3c0,0.7,0.6,1.3,1.3,1.3h16c0.7,0,1.3-0.6,1.3-1.3
	C34.3,2.3,33.7,1.7,33,1.7L33,1.7z M33-3.7H17c-0.7,0-1.3,0.6-1.3,1.3C15.7-1.6,16.3-1,17-1h16c0.7,0,1.3-0.6,1.3-1.3
	C34.3-3.1,33.7-3.7,33-3.7L33-3.7z M39.7,12.1V-6.3C39.7-7.8,38.5-9,37-9H13c-1.5,0-2.7,1.2-2.7,2.7v26.6c0,1.5,1.2,2.7,2.7,2.7
	h15.7c0.4,0.1,0.9,0,1.2-0.4l9.3-9.3C39.6,13,39.7,12.5,39.7,12.1L39.7,12.1z M30.3,18.4v-4.8h4.8L30.3,18.4L30.3,18.4z M37,11h-8
	c-0.7,0-1.3,0.6-1.3,1.3c0,0,0,0,0,0c0,0,0,0,0,0v8H14.3c-0.7,0-1.3-0.6-1.3-1.3V-5c0-0.7,0.6-1.3,1.3-1.3h21.3
	C36.4-6.3,37-5.7,37-5V11L37,11z"/>
</svg>
