<?xml version="1.0" encoding="utf-8"?>
<!-- Generator: Adobe Illustrator 17.0.0, SVG Export Plug-In . SVG Version: 6.00 Build 0)  -->
<!DOCTYPE svg PUBLIC "-//W3C//DTD SVG 1.1//EN" "http://www.w3.org/Graphics/SVG/1.1/DTD/svg11.dtd">
<svg version="1.1" id="图层_1" xmlns="http://www.w3.org/2000/svg" xmlns:xlink="http://www.w3.org/1999/xlink" x="0px" y="0px"
	 width="32px" height="32px" viewBox="0 0 32 32" enable-background="new 0 0 32 32" xml:space="preserve">
<g>
	<path fill="#323333" d="M17.687,13.494c-0.001-0.009-0.092-1.055,0.143-2.612c0.113-0.75-0.001-1.384-0.321-1.785
		c-0.249-0.311-0.626-0.487-1.123-0.523c-0.063-0.004-0.13-0.007-0.197-0.007c-1.379,0-3.274,0.932-4.224,2.078
		c-0.094,0.114-0.183,0.227-0.266,0.338l2.784,1.805l1.155-0.798c0.133-0.092,0.314-0.105,0.46-0.036
		c0.148,0.072,0.247,0.219,0.257,0.383l0.099,1.55c0.326,0.259,1.288,1.008,2.18,1.555c0.458,0.28,0.83,0.422,1.105,0.422
		c0.186,0,0.399-0.057,0.585-0.477c-0.001-0.001-0.002-0.012-0.011-0.032c-0.167-0.408-1.343-1.082-2.337-1.473
		C17.813,13.818,17.7,13.666,17.687,13.494z"/>
	<circle fill="#323333" cx="20.834" cy="8.024" r="1.611"/>
	<path fill="#323333" d="M13.39,13.779c0.001-0.15,0.075-0.29,0.198-0.374l0.08-0.055l-2.464-1.597
		c-0.49,0.913-0.556,1.709-0.197,2.368c0.24,0.439,0.958,0.9,1.593,1.307c0.479,0.307,0.928,0.595,1.261,0.909
		c0.47,0.442,0.638,0.895,0.499,1.344c-0.283,0.914-1.797,2.716-2.522,3.544l1.106,0.657c1.263-1.387,2.808-3.131,3.089-3.575
		l0.067-0.106c0.528-0.826,0.786-1.382-0.09-2.134c-1.265-1.084-2.415-1.904-2.427-1.912C13.461,14.069,13.389,13.929,13.39,13.779z
		"/>
	<path fill="#323333" d="M16,0C7.163,0,0,7.163,0,16s7.163,16,16,16s16-7.163,16-16S24.837,0,16,0z M18.734,11.017
		c-0.146,0.973-0.157,1.73-0.147,2.129c0.239,0.104,0.579,0.26,0.938,0.454c0.911,0.491,1.444,0.951,1.632,1.406
		c0.105,0.256,0.105,0.515,0.002,0.75c-0.372,0.845-0.979,1.023-1.422,1.023c-0.454,0-0.972-0.182-1.583-0.557
		c-0.165-0.101-0.331-0.208-0.494-0.316c-0.053-0.012-0.103-0.033-0.148-0.062l-1.529-0.992c0.2,0.164,0.409,0.338,0.622,0.521
		c0.666,0.57,0.961,1.209,0.879,1.9c-0.067,0.566-0.37,1.04-0.613,1.42l-0.066,0.104c-0.363,0.574-2.184,2.599-3.044,3.545
		l4.927,2.702c0.065,0.035,0.665,0.343,1.369,0.43c0.895,0.109,1.559-0.189,1.965-0.891c0.122-0.212,0.414-0.288,0.625-0.167
		c0.105,0.061,0.182,0.159,0.214,0.277c0.031,0.118,0.015,0.242-0.046,0.348c-0.52,0.896-1.349,1.37-2.397,1.37
		c-0.156,0-0.322-0.011-0.493-0.032c-0.912-0.118-1.645-0.516-1.676-0.532l-5.411-2.968c-0.012-0.006-0.028-0.013-0.043-0.022
		l-0.032-0.019L3.23,17.611c-0.107-0.06-0.185-0.156-0.219-0.273S2.99,17.097,3.049,16.99c0.117-0.213,0.405-0.3,0.621-0.182
		l7.307,4.007c0.854-0.962,2.288-2.699,2.508-3.405c0.084-0.273-0.829-0.859-1.375-1.209c-0.767-0.492-1.556-0.998-1.907-1.641
		c-0.376-0.689-0.44-1.468-0.191-2.314c0.095-0.322,0.236-0.655,0.421-0.991L6.705,8.836C6.602,8.77,6.531,8.667,6.506,8.547
		S6.503,8.306,6.569,8.204C6.703,8,6.996,7.936,7.202,8.069l3.727,2.416c0.107-0.146,0.218-0.289,0.331-0.424
		c1.119-1.351,3.284-2.41,4.928-2.41c0.09,0,0.178,0.003,0.264,0.009c0.75,0.055,1.362,0.354,1.771,0.865
		c0.093,0.116,0.174,0.243,0.244,0.378c-0.103-0.274-0.158-0.57-0.158-0.88c0-1.393,1.133-2.525,2.525-2.525
		s2.525,1.133,2.525,2.525s-1.133,2.525-2.525,2.525c-0.977,0-1.825-0.557-2.245-1.37C18.785,9.702,18.837,10.332,18.734,11.017z"/>
</g>
</svg>
