<?xml version="1.0" encoding="utf-8"?>
<!-- Generator: Adobe Illustrator 17.0.0, SVG Export Plug-In . SVG Version: 6.00 Build 0)  -->
<!DOCTYPE svg PUBLIC "-//W3C//DTD SVG 1.1//EN" "http://www.w3.org/Graphics/SVG/1.1/DTD/svg11.dtd">
<svg version="1.1" id="图层_1" xmlns="http://www.w3.org/2000/svg" xmlns:xlink="http://www.w3.org/1999/xlink" x="0px" y="0px"
	 width="20px" height="20px" viewBox="0 0 20 20" enable-background="new 0 0 20 20" xml:space="preserve">
<g>
	<path fill="#201313" d="M16.433,13.084c-0.548-0.792-0.823-1.692-0.823-2.676c0-0.912,0.263-1.741,0.776-2.485
		c0.286-0.419,0.74-0.888,1.363-1.416c-0.406-0.505-0.826-0.913-1.243-1.201c-0.741-0.516-1.588-0.78-2.545-0.78
		c-0.586,0-1.278,0.145-2.067,0.408c-0.789,0.276-1.363,0.409-1.709,0.409c-0.276,0-0.826-0.12-1.65-0.361
		c-0.836-0.24-1.53-0.359-2.114-0.359c-1.375,0-2.498,0.577-3.393,1.728c-0.896,1.164-1.35,2.653-1.35,4.489
		c0,1.968,0.598,3.972,1.756,6.037c1.182,2.064,2.366,3.108,3.596,3.108c0.394,0,0.92-0.131,1.578-0.409
		c0.647-0.263,1.219-0.396,1.697-0.396c0.49,0,1.098,0.12,1.803,0.384c0.718,0.251,1.267,0.384,1.674,0.384
		c1.015,0,2.043-0.781,3.071-2.353c0.692-1.044,1.171-2.052,1.469-3C17.618,14.381,16.984,13.877,16.433,13.084L16.433,13.084z
		 M15.874,16.952c-0.768,1.175-1.512,1.823-2.093,1.823c-0.172,0-0.537-0.055-1.264-0.31c-0.811-0.304-1.555-0.458-2.213-0.458
		c-0.633,0-1.351,0.162-2.15,0.488c-0.678,0.285-1.012,0.316-1.124,0.316c-0.734,0-1.651-0.895-2.578-2.51
		c-1.079-1.926-1.605-3.711-1.605-5.461c0-1.57,0.363-2.804,1.102-3.766c0.677-0.871,1.463-1.276,2.471-1.276
		c0.469,0,1.055,0.103,1.788,0.314c1.229,0.358,1.689,0.406,1.975,0.406c0.497,0,1.181-0.155,2.078-0.469
		c0.689-0.23,1.26-0.348,1.696-0.348c0.712,0,1.327,0.187,1.883,0.575c0.077,0.054,0.158,0.115,0.239,0.182
		C15.813,6.735,15.596,7,15.422,7.253c-0.655,0.947-0.986,2.008-0.986,3.156c0,1.231,0.347,2.357,1.034,3.348
		c0.414,0.593,0.875,1.067,1.382,1.417C16.599,15.76,16.27,16.356,15.874,16.952L15.874,16.952z M11.08,4.671
		c-0.275,0.085-0.681,0.156-1.242,0.204c0.025-1.188,0.334-2.22,0.932-3.084c0.598-0.866,1.6-1.453,2.988-1.777
		c0.023,0.108,0.047,0.193,0.058,0.264c0,0.083,0.013,0.155,0.013,0.24c0,0.492-0.119,1.044-0.346,1.633
		c-0.239,0.6-0.609,1.152-1.112,1.657C11.941,4.239,11.51,4.527,11.08,4.671L11.08,4.671z M11.08,4.671"/>
</g>
</svg>
