<?xml version="1.0" encoding="utf-8"?>
<!-- Generator: Adobe Illustrator 17.0.0, SVG Export Plug-In . SVG Version: 6.00 Build 0)  -->
<!DOCTYPE svg PUBLIC "-//W3C//DTD SVG 1.1//EN" "http://www.w3.org/Graphics/SVG/1.1/DTD/svg11.dtd">
<svg version="1.1" id="图层_1" xmlns="http://www.w3.org/2000/svg" xmlns:xlink="http://www.w3.org/1999/xlink" x="0px" y="0px"
	 width="32px" height="32px" viewBox="0 0 32 32" enable-background="new 0 0 32 32" xml:space="preserve">
<path fill="#1A1A18" d="M16,0C7.163,0,0,7.163,0,16s7.163,16,16,16s16-7.163,16-16S24.837,0,16,0z M9.98,21.414
	c0,0.312-0.253,0.564-0.565,0.564s-0.565-0.253-0.565-0.564V10.052c0-0.312,0.253-0.565,0.565-0.565S9.98,9.74,9.98,10.052V21.414z
	 M23.118,10.714h-4.22v10.672c0,0.312-0.253,0.564-0.564,0.564s-0.564-0.253-0.564-0.564V10.714h-4.22
	c-0.312,0-0.565-0.253-0.565-0.565s0.253-0.565,0.565-0.565h9.569c0.312,0,0.564,0.253,0.564,0.565S23.43,10.714,23.118,10.714z"/>
</svg>
