<?xml version="1.0" encoding="utf-8"?>
<!-- Generator: Adobe Illustrator 17.0.0, SVG Export Plug-In . SVG Version: 6.00 Build 0)  -->
<!DOCTYPE svg PUBLIC "-//W3C//DTD SVG 1.1//EN" "http://www.w3.org/Graphics/SVG/1.1/DTD/svg11.dtd">
<svg version="1.1" id="图层_1" xmlns="http://www.w3.org/2000/svg" xmlns:xlink="http://www.w3.org/1999/xlink" x="0px" y="0px"
	 width="32px" height="32px" viewBox="0 0 32 32" enable-background="new 0 0 32 32" xml:space="preserve">
<path fill="#333333" d="M16,0C7.163,0,0,7.163,0,16s7.163,16,16,16s16-7.163,16-16S24.837,0,16,0z M16.312,21.836H7.237
	c-1.163,0-2.108-0.928-2.108-2.071V9.776c0-1.142,0.946-2.071,2.108-2.071h15.61c1.163,0,2.109,0.928,2.109,2.071v9.989
	c0,0.312-0.253,0.564-0.565,0.564s-0.565-0.253-0.565-0.564V9.776c0-0.519-0.439-0.942-0.979-0.942H7.237
	c-0.54,0-0.979,0.423-0.979,0.942v9.989c0,0.519,0.439,0.942,0.979,0.942h9.076c0.312,0,0.565,0.253,0.565,0.564
	S16.625,21.836,16.312,21.836z M14.625,19.098c0,0.312-0.253,0.564-0.565,0.564H8.544c-0.312,0-0.565-0.253-0.565-0.564
	s0.253-0.564,0.565-0.564h5.517C14.373,18.534,14.625,18.787,14.625,19.098z M24.909,25.468c-0.11,0.11-0.255,0.165-0.399,0.165
	c-0.144,0-0.289-0.055-0.399-0.165l-8.476-8.476c-0.221-0.22-0.221-0.578,0-0.798c0.221-0.221,0.578-0.221,0.799,0l8.476,8.476
	C25.13,24.89,25.13,25.248,24.909,25.468z"/>
</svg>
