<?xml version="1.0" encoding="utf-8"?>
<!-- Generator: Adobe Illustrator 17.0.0, SVG Export Plug-In . SVG Version: 6.00 Build 0)  -->
<!DOCTYPE svg PUBLIC "-//W3C//DTD SVG 1.1//EN" "http://www.w3.org/Graphics/SVG/1.1/DTD/svg11.dtd">
<svg version="1.1" id="图层_1" xmlns="http://www.w3.org/2000/svg" xmlns:xlink="http://www.w3.org/1999/xlink" x="0px" y="0px"
	 width="32px" height="32px" viewBox="0 0 32 32" enable-background="new 0 0 32 32" xml:space="preserve">
<g>
	<polygon fill="#323333" points="14.672,15.517 17.026,15.517 15.853,12.848 	"/>
	<path fill="#323333" d="M16,0C7.163,0,0,7.163,0,16s7.163,16,16,16s16-7.163,16-16S24.837,0,16,0z M25.492,22.409
		c0,1.069-0.816,1.955-1.898,2.061c-0.071,0.006-0.141,0.01-0.21,0.01h-1.252c-0.312,0-0.564-0.253-0.564-0.564
		s0.253-0.564,0.564-0.564l1.354-0.006c0.499-0.049,0.877-0.451,0.877-0.936V10.018c0-0.519-0.439-0.941-0.979-0.941H8.307
		c-0.54,0-0.979,0.422-0.979,0.941v12.391c0,0.519,0.439,0.941,0.979,0.941h7.742c0.119-0.007,0.819-0.011,1.628,0.132
		c1.312,0.23,2.232,0.733,2.736,1.495c0.172,0.261,0.1,0.611-0.16,0.783c-0.096,0.062-0.204,0.093-0.311,0.093
		c-0.184,0-0.363-0.089-0.473-0.253c-0.325-0.493-0.994-0.831-1.989-1.006c-0.717-0.128-1.347-0.115-1.418-0.115H8.307
		c-1.163,0-2.109-0.929-2.109-2.07V10.018c0-1.142,0.946-2.071,2.109-2.071h15.077c1.163,0,2.108,0.929,2.108,2.071
		C25.492,10.018,25.492,22.409,25.492,22.409z M20.062,21.022c-0.074,0.033-0.151,0.048-0.228,0.048
		c-0.217,0-0.424-0.126-0.517-0.337l-1.796-4.087H14.17l-1.81,4.088c-0.093,0.211-0.3,0.336-0.517,0.336
		c-0.076,0-0.154-0.016-0.228-0.048c-0.285-0.127-0.414-0.46-0.288-0.745l3.973-8.971c0.099-0.224,0.325-0.347,0.556-0.33
		c0.229-0.014,0.454,0.108,0.552,0.332l1.958,4.456c0.041,0.059,0.07,0.123,0.086,0.196l1.898,4.319
		C20.478,20.564,20.348,20.897,20.062,21.022z"/>
</g>
</svg>
