<?xml version="1.0" encoding="utf-8"?>
<!-- Generator: Adobe Illustrator 17.0.0, SVG Export Plug-In . SVG Version: 6.00 Build 0)  -->
<!DOCTYPE svg PUBLIC "-//W3C//DTD SVG 1.1//EN" "http://www.w3.org/Graphics/SVG/1.1/DTD/svg11.dtd">
<svg version="1.1" id="图层_1" xmlns="http://www.w3.org/2000/svg" xmlns:xlink="http://www.w3.org/1999/xlink" x="0px" y="0px"
	 width="54px" height="24px" viewBox="0 0 54 24" enable-background="new 0 0 54 24" xml:space="preserve">
<g>
	<path fill="#182125" d="M43.209,11.809c-1.35,0.073-2.061,0.839-2.133,2.297c0.072,1.714,0.802,2.607,2.188,2.68
		c1.239-0.072,1.896-0.911,1.969-2.516C45.159,12.702,44.484,11.882,43.209,11.809z"/>
	<path fill="#182125" d="M52-0.011H2c-1.105,0-2,0.895-2,2v20c0,1.105,0.895,2,2,2h50c1.105,0,2-0.895,2-2v-20
		C54,0.884,53.105-0.011,52-0.011z M16.873,18h-9V6h2v10h7V18z M22.555,18h-2.591L14.782,6h2.591l3.823,10.51L24.282,6h2.591
		L22.555,18z M29.749,17.797h-2.352v-2.242h2.352V17.797z M36.701,17.934h-2.242V9.293c-0.875,0.729-2.115,1.258-3.719,1.586V9.621
		c1.822-0.838,3.062-2.005,3.719-3.5h2.242V17.934z M43.373,18.098c-3.172,0.109-4.722-1.859-4.648-5.906
		c0.072-4.083,1.604-6.18,4.594-6.289c2.188,0,3.536,1.039,4.047,3.117h-2.023c-0.328-1.094-0.984-1.641-1.969-1.641
		c-1.604,0.109-2.406,1.422-2.406,3.938c0.692-0.656,1.531-0.966,2.516-0.93c2.552,0.109,3.883,1.367,3.992,3.773
		C47.401,16.713,46.034,18.024,43.373,18.098z"/>
</g>
</svg>
