<?xml version="1.0" encoding="utf-8"?>
<!-- Generator: Adobe Illustrator 17.0.0, SVG Export Plug-In . SVG Version: 6.00 Build 0)  -->
<!DOCTYPE svg PUBLIC "-//W3C//DTD SVG 1.1//EN" "http://www.w3.org/Graphics/SVG/1.1/DTD/svg11.dtd">
<svg version="1.1" id="图层_1" xmlns="http://www.w3.org/2000/svg" xmlns:xlink="http://www.w3.org/1999/xlink" x="0px" y="0px"
	 width="44px" height="24px" viewBox="0 0 44 24" enable-background="new 0 0 44 24" xml:space="preserve">
<g>
	<polygon fill="#182125" points="34.756,13.941 34.756,9.129 31.256,13.941 	"/>
	<path fill="#182125" d="M42-0.011H2c-1.105,0-2,0.895-2,2v20c0,1.105,0.895,2,2,2h40c1.105,0,2-0.895,2-2v-20
		C44,0.884,43.105-0.011,42-0.011z M15.202,18h-9V6h2v10h7V18z M20.884,18h-2.591L13.111,6h2.591l3.823,10.51L22.611,6h2.591
		L20.884,18z M28.078,17.797h-2.352v-2.242h2.352V17.797z M38.365,15.418h-1.422v2.516h-2.188v-2.516h-5.633v-1.422l5.688-7.875
		h2.133v7.82h1.422V15.418z"/>
</g>
</svg>
