<?xml version="1.0" encoding="utf-8"?>
<!-- Generator: Adobe Illustrator 17.0.0, SVG Export Plug-In . SVG Version: 6.00 Build 0)  -->
<!DOCTYPE svg PUBLIC "-//W3C//DTD SVG 1.1//EN" "http://www.w3.org/Graphics/SVG/1.1/DTD/svg11.dtd">
<svg version="1.1" id="图层_1" xmlns="http://www.w3.org/2000/svg" xmlns:xlink="http://www.w3.org/1999/xlink" x="0px" y="0px"
	 width="44px" height="24px" viewBox="0 0 44 24" enable-background="new 0 0 44 24" xml:space="preserve">
<path fill="#182125" d="M42-0.011H2c-1.105,0-2,0.895-2,2v20c0,1.105,0.895,2,2,2h40c1.105,0,2-0.895,2-2v-20
	C44,0.884,43.105-0.011,42-0.011z M15.301,18h-9V6h2v10h7V18z M20.983,18h-2.591L13.21,6h2.591l3.823,10.51L22.71,6h2.591L20.983,18
	z M28.177,17.797h-2.352v-2.242h2.352V17.797z M37.699,7.762c-2.552,3.464-3.974,6.836-4.266,10.117h-2.242
	c0.292-3.281,1.695-6.653,4.211-10.117h-6.18V6.285h8.477V7.762z"/>
</svg>
