<?xml version="1.0" encoding="utf-8"?>
<!-- Generator: Adobe Illustrator 17.0.0, SVG Export Plug-In . SVG Version: 6.00 Build 0)  -->
<!DOCTYPE svg PUBLIC "-//W3C//DTD SVG 1.1//EN" "http://www.w3.org/Graphics/SVG/1.1/DTD/svg11.dtd">
<svg version="1.1" id="图层_1" xmlns="http://www.w3.org/2000/svg" xmlns:xlink="http://www.w3.org/1999/xlink" x="0px" y="0px"
	 width="54px" height="24px" viewBox="0 0 54 24" enable-background="new 0 0 54 24" xml:space="preserve">
<g>
	<path fill="#182125" d="M43.209,11.043c1.275-0.328,1.914-0.966,1.914-1.914c-0.073-1.057-0.729-1.622-1.969-1.695
		c-1.167,0.073-1.787,0.639-1.859,1.695C41.295,10.077,41.933,10.715,43.209,11.043z"/>
	<path fill="#182125" d="M43.1,12.738c-1.386,0.328-2.078,1.039-2.078,2.133c0.072,1.276,0.783,1.933,2.133,1.969
		c1.385-0.036,2.096-0.674,2.133-1.914C45.323,13.76,44.594,13.03,43.1,12.738z"/>
	<path fill="#182125" d="M52-0.011H2c-1.105,0-2,0.895-2,2v20c0,1.105,0.895,2,2,2h50c1.105,0,2-0.895,2-2v-20
		C54,0.884,53.105-0.011,52-0.011z M16.873,18h-9V6h2v10h7V18z M22.555,18h-2.591L14.782,6h2.591l3.823,10.51L24.282,6h2.591
		L22.555,18z M29.749,17.797h-2.352v-2.242h2.352V17.797z M36.701,17.934h-2.242V9.293c-0.875,0.729-2.115,1.258-3.719,1.586V9.621
		c1.822-0.838,3.062-2.005,3.719-3.5h2.242V17.934z M43.154,18.152c-2.917-0.037-4.394-1.131-4.43-3.281
		c0.072-1.567,0.911-2.57,2.516-3.008c-1.459-0.547-2.206-1.458-2.242-2.734c0.219-2.005,1.622-3.062,4.211-3.172
		c2.588,0.109,3.992,1.167,4.211,3.172c0,1.312-0.839,2.225-2.516,2.734c1.786,0.401,2.697,1.386,2.734,2.953
		C47.602,17.004,46.107,18.115,43.154,18.152z"/>
</g>
</svg>
