<?xml version="1.0" encoding="utf-8"?>
<!-- Generator: Adobe Illustrator 17.0.0, SVG Export Plug-In . SVG Version: 6.00 Build 0)  -->
<!DOCTYPE svg PUBLIC "-//W3C//DTD SVG 1.1//EN" "http://www.w3.org/Graphics/SVG/1.1/DTD/svg11.dtd">
<svg version="1.1" id="图层_1" xmlns="http://www.w3.org/2000/svg" xmlns:xlink="http://www.w3.org/1999/xlink" x="0px" y="0px"
	 width="44px" height="24px" viewBox="0 0 44 24" enable-background="new 0 0 44 24" xml:space="preserve">
<path fill="#182125" d="M42-0.011H2c-1.105,0-2,0.895-2,2v20c0,1.105,0.895,2,2,2h40c1.105,0,2-0.895,2-2v-20
	C44,0.884,43.105-0.011,42-0.011z M15.165,18h-9V6h2v10h7V18z M20.847,18h-2.591L13.074,6h2.591l3.823,10.51L22.574,6h2.591
	L20.847,18z M28.041,17.797h-2.352v-2.242h2.352V17.797z M33.406,18.152c-1.714,0-3.062-0.62-4.047-1.859v-1.805
	c1.021,1.604,2.333,2.37,3.938,2.297c1.604,0.073,2.369-0.619,2.297-2.078c0-1.422-0.93-2.133-2.789-2.133h-0.711v-1.422h0.547
	c1.75,0,2.606-0.711,2.57-2.133c0.036-1.094-0.584-1.641-1.859-1.641c-1.094-0.073-1.769,0.565-2.023,1.914H29.36
	c0.438-2.224,1.768-3.336,3.992-3.336c2.625,0.109,3.992,1.148,4.102,3.117c0,1.203-0.602,2.097-1.805,2.68
	c1.422,0.511,2.15,1.514,2.188,3.008C37.835,17.021,36.359,18.152,33.406,18.152z"/>
</svg>
