<?xml version="1.0" encoding="utf-8"?>
<!-- Generator: Adobe Illustrator 17.0.0, SVG Export Plug-In . SVG Version: 6.00 Build 0)  -->
<!DOCTYPE svg PUBLIC "-//W3C//DTD SVG 1.1//EN" "http://www.w3.org/Graphics/SVG/1.1/DTD/svg11.dtd">
<svg version="1.1" id="图层_1" xmlns="http://www.w3.org/2000/svg" xmlns:xlink="http://www.w3.org/1999/xlink" x="0px" y="0px"
	 width="44px" height="24px" viewBox="0 0 44 24" enable-background="new 0 0 44 24" xml:space="preserve">
<g>
	<path fill="#182125" d="M33.459,7.316c-1.312,0.073-2.005,0.894-2.078,2.461c0.036,1.568,0.729,2.389,2.078,2.461
		c1.349-0.072,2.06-0.838,2.133-2.297C35.519,8.264,34.808,7.389,33.459,7.316z"/>
	<path fill="#182125" d="M42-0.011H2c-1.105,0-2,0.895-2,2v20c0,1.105,0.895,2,2,2h40c1.105,0,2-0.895,2-2v-20
		C44,0.884,43.105-0.011,42-0.011z M15.054,17.937h-9v-12h2v10h7V17.937z M20.736,17.937h-2.591l-5.182-12h2.591l3.823,10.51
		l3.086-10.51h2.591L20.736,17.937z M27.93,17.734h-2.352v-2.242h2.352V17.734z M33.404,18.089c-1.75,0.036-3.081-0.492-3.992-1.586
		v-1.641c0.911,1.203,2.078,1.823,3.5,1.859c1.896-0.036,2.825-1.349,2.789-3.938c-0.656,0.62-1.495,0.93-2.516,0.93
		c-2.589-0.109-3.938-1.349-4.047-3.719c0.146-2.625,1.55-3.992,4.211-4.102c3.136-0.146,4.667,1.859,4.594,6.016
		C37.98,16.066,36.467,18.126,33.404,18.089z"/>
</g>
</svg>
