<?xml version="1.0" encoding="utf-8"?>
<!-- Generator: Adobe Illustrator 17.0.0, SVG Export Plug-In . SVG Version: 6.00 Build 0)  -->
<!DOCTYPE svg PUBLIC "-//W3C//DTD SVG 1.1//EN" "http://www.w3.org/Graphics/SVG/1.1/DTD/svg11.dtd">
<svg version="1.1" id="图层_1" xmlns="http://www.w3.org/2000/svg" xmlns:xlink="http://www.w3.org/1999/xlink" x="0px" y="0px"
	 width="54px" height="24px" viewBox="0 0 54 24" enable-background="new 0 0 54 24" xml:space="preserve">
<path fill="#182125" d="M52-0.011H2c-1.105,0-2,0.895-2,2v20c0,1.105,0.895,2,2,2h50c1.105,0,2-0.895,2-2v-20
	C54,0.884,53.105-0.011,52-0.011z M16.873,18h-9V6h2v10h7V18z M22.555,18h-2.591L14.782,6h2.591l3.823,10.51L24.282,6h2.591
	L22.555,18z M29.749,17.797h-2.352v-2.242h2.352V17.797z M36.701,17.934h-2.242V9.293c-0.875,0.729-2.115,1.258-3.719,1.586V9.621
	c1.822-0.838,3.062-2.005,3.719-3.5h2.242V17.934z M46.982,7.762c-2.553,3.464-3.975,6.836-4.266,10.117h-2.242
	c0.291-3.281,1.695-6.653,4.211-10.117h-6.18V6.285h8.477V7.762z"/>
</svg>
