<?xml version="1.0" encoding="utf-8"?>
<!-- Generator: Adobe Illustrator 17.0.0, SVG Export Plug-In . SVG Version: 6.00 Build 0)  -->
<!DOCTYPE svg PUBLIC "-//W3C//DTD SVG 1.1//EN" "http://www.w3.org/Graphics/SVG/1.1/DTD/svg11.dtd">
<svg version="1.1" id="图层_1" xmlns="http://www.w3.org/2000/svg" xmlns:xlink="http://www.w3.org/1999/xlink" x="0px" y="0px"
	 width="44px" height="24px" viewBox="0 0 44 24" enable-background="new 0 0 44 24" xml:space="preserve">
<path fill="#182125" d="M42-0.011H2c-1.105,0-2,0.895-2,2v20c0,1.105,0.895,2,2,2h40c1.105,0,2-0.895,2-2v-20
	C44,0.884,43.105-0.011,42-0.011z M15.243,18.011h-9v-12h2v10h7V18.011z M20.925,18.011h-2.591l-5.182-12h2.591l3.823,10.51
	l3.086-10.51h2.591L20.925,18.011z M28.119,17.808h-2.352v-2.242h2.352V17.808z M37.476,16.632v1.312h-8.148v-1.312
	c0.729-1.239,1.932-2.516,3.609-3.828c1.859-1.349,2.716-2.57,2.57-3.664c0-1.167-0.62-1.75-1.859-1.75
	c-1.24-0.073-2.042,0.62-2.406,2.078h-1.969c0.583-2.333,2.023-3.5,4.32-3.5c2.625,0.109,4.01,1.167,4.156,3.172
	c0.109,1.531-0.93,3.062-3.117,4.594c-1.495,1.058-2.516,2.023-3.062,2.898H37.476z"/>
</svg>
