<?xml version="1.0" encoding="utf-8"?>
<!-- Generator: Adobe Illustrator 17.0.0, SVG Export Plug-In . SVG Version: 6.00 Build 0)  -->
<!DOCTYPE svg PUBLIC "-//W3C//DTD SVG 1.1//EN" "http://www.w3.org/Graphics/SVG/1.1/DTD/svg11.dtd">
<svg version="1.1" id="图层_1" xmlns="http://www.w3.org/2000/svg" xmlns:xlink="http://www.w3.org/1999/xlink" x="0px" y="0px"
	 width="54px" height="24px" viewBox="0 0 54 24" enable-background="new 0 0 54 24" xml:space="preserve">
<g>
	<path fill="#182125" d="M42.87,7.379c-1.422-0.036-2.133,1.55-2.133,4.758c0,3.136,0.711,4.686,2.133,4.648
		c1.386,0.037,2.078-1.513,2.078-4.648C44.984,8.855,44.292,7.27,42.87,7.379z"/>
	<path fill="#182125" d="M51.966-0.011H2.034C0.91-0.011,0,0.884,0,1.989v20c0,1.105,0.91,2,2.034,2h49.931
		c1.124,0,2.034-0.895,2.034-2v-20C54,0.884,53.09-0.011,51.966-0.011z M16.59,18h-9V6h2v10h7V18z M22.272,18h-2.591L14.499,6h2.591
		l3.823,10.51L23.999,6h2.591L22.272,18z M29.466,17.797h-2.352v-2.242h2.352V17.797z M36.417,17.934h-2.242V9.293
		c-0.875,0.729-2.114,1.258-3.719,1.586V9.621c1.823-0.838,3.062-2.005,3.719-3.5h2.242V17.934z M42.87,18.152
		c-2.953-0.037-4.448-2.06-4.484-6.07c0.073-4.01,1.567-6.07,4.484-6.18c2.88,0.037,4.339,2.097,4.375,6.18
		C47.281,16.166,45.823,18.188,42.87,18.152z"/>
</g>
</svg>
