<?xml version="1.0" encoding="utf-8"?>
<!-- Generator: Adobe Illustrator 17.0.0, SVG Export Plug-In . SVG Version: 6.00 Build 0)  -->
<!DOCTYPE svg PUBLIC "-//W3C//DTD SVG 1.1//EN" "http://www.w3.org/Graphics/SVG/1.1/DTD/svg11.dtd">
<svg version="1.1" id="图层_1" xmlns="http://www.w3.org/2000/svg" xmlns:xlink="http://www.w3.org/1999/xlink" x="0px" y="0px"
	 width="44px" height="24px" viewBox="0 0 44 24" enable-background="new 0 0 44 24" xml:space="preserve">
<g>
	<path fill="#182125" d="M42-0.011H2c-1.105,0-2,0.895-2,2v20c0,1.105,0.895,2,2,2h40c1.105,0,2-0.895,2-2v-20
		C44,0.884,43.105-0.011,42-0.011z M14.889,18h-9V6h2v10h7V18z M20.571,18H17.98L12.798,6h2.591l3.823,10.51L22.298,6h2.591
		L20.571,18z M27.765,17.797h-2.352v-2.242h2.352V17.797z M33.677,18.098c-3.172,0.109-4.722-1.859-4.648-5.906
		c0.073-4.083,1.604-6.18,4.594-6.289c2.188,0,3.536,1.039,4.047,3.117h-2.023c-0.328-1.094-0.984-1.641-1.969-1.641
		c-1.604,0.109-2.406,1.422-2.406,3.938c0.692-0.656,1.531-0.966,2.516-0.93c2.552,0.109,3.883,1.367,3.992,3.773
		C37.705,16.713,36.338,18.024,33.677,18.098z"/>
	<path fill="#182125" d="M33.513,11.809c-1.349,0.073-2.06,0.839-2.133,2.297c0.073,1.714,0.802,2.607,2.188,2.68
		c1.239-0.072,1.896-0.911,1.969-2.516C35.463,12.702,34.789,11.882,33.513,11.809z"/>
</g>
</svg>
