<?xml version="1.0" encoding="utf-8"?>
<!-- Generator: Adobe Illustrator 17.0.0, SVG Export Plug-In . SVG Version: 6.00 Build 0)  -->
<!DOCTYPE svg PUBLIC "-//W3C//DTD SVG 1.1//EN" "http://www.w3.org/Graphics/SVG/1.1/DTD/svg11.dtd">
<svg version="1.1" id="图层_1" xmlns="http://www.w3.org/2000/svg" xmlns:xlink="http://www.w3.org/1999/xlink" x="0px" y="0px"
	 width="44px" height="24px" viewBox="0 0 44 24" enable-background="new 0 0 44 24" xml:space="preserve">
<g>
	<path fill="#182125" d="M33.488,12.738c-1.386,0.328-2.078,1.039-2.078,2.133c0.073,1.276,0.784,1.933,2.133,1.969
		c1.386-0.036,2.097-0.674,2.133-1.914C35.711,13.76,34.983,13.03,33.488,12.738z"/>
	<path fill="#182125" d="M33.597,11.043c1.276-0.328,1.914-0.966,1.914-1.914c-0.073-1.057-0.729-1.622-1.969-1.695
		c-1.167,0.073-1.786,0.639-1.859,1.695C31.683,10.077,32.321,10.715,33.597,11.043z"/>
	<path fill="#182125" d="M42-0.011H2c-1.105,0-2,0.895-2,2v20c0,1.105,0.895,2,2,2h40c1.105,0,2-0.895,2-2v-20
		C44,0.884,43.105-0.011,42-0.011z M14.973,18h-9V6h2v10h7V18z M20.655,18h-2.591L12.882,6h2.591l3.823,10.51L22.382,6h2.591
		L20.655,18z M27.849,17.797h-2.352v-2.242h2.352V17.797z M33.542,18.152c-2.917-0.037-4.394-1.131-4.43-3.281
		c0.073-1.567,0.911-2.57,2.516-3.008c-1.458-0.547-2.206-1.458-2.242-2.734c0.219-2.005,1.622-3.062,4.211-3.172
		c2.589,0.109,3.992,1.167,4.211,3.172c0,1.312-0.839,2.225-2.516,2.734c1.786,0.401,2.698,1.386,2.734,2.953
		C37.991,17.004,36.496,18.115,33.542,18.152z"/>
</g>
</svg>
