<?xml version="1.0" encoding="utf-8"?>
<!-- Generator: Adobe Illustrator 17.0.0, SVG Export Plug-In . SVG Version: 6.00 Build 0)  -->
<!DOCTYPE svg PUBLIC "-//W3C//DTD SVG 1.1//EN" "http://www.w3.org/Graphics/SVG/1.1/DTD/svg11.dtd">
<svg version="1.1" id="图层_1" xmlns="http://www.w3.org/2000/svg" xmlns:xlink="http://www.w3.org/1999/xlink" x="0px" y="0px"
	 width="44px" height="24px" viewBox="0 0 44 24" enable-background="new 0 0 44 24" xml:space="preserve">
<path fill="#182125" d="M42,0H2C0.895,0,0,0.895,0,2v20c0,1.105,0.895,2,2,2h40c1.105,0,2-0.895,2-2V2C44,0.895,43.105,0,42,0z
	 M16.59,18h-9V6h2v10h7V18z M22.272,18h-2.591L14.499,6h2.591l3.823,10.51L23.999,6h2.591L22.272,18z M29.466,17.797h-2.352v-2.242
	h2.352V17.797z M36.41,17.907h-2.242V9.266c-0.875,0.73-2.115,1.258-3.719,1.586V9.594c1.823-0.838,3.063-2.005,3.719-3.5h2.242
	V17.907z"/>
</svg>
