<?xml version="1.0" encoding="utf-8"?>
<!-- Generator: Adobe Illustrator 17.0.0, SVG Export Plug-In . SVG Version: 6.00 Build 0)  -->
<!DOCTYPE svg PUBLIC "-//W3C//DTD SVG 1.1//EN" "http://www.w3.org/Graphics/SVG/1.1/DTD/svg11.dtd">
<svg version="1.1" id="图层_1" xmlns="http://www.w3.org/2000/svg" xmlns:xlink="http://www.w3.org/1999/xlink" x="0px" y="0px"
	 width="44px" height="24px" viewBox="0 0 44 24" enable-background="new 0 0 44 24" xml:space="preserve">
<path fill="#182125" d="M42-0.011H2c-1.105,0-2,0.895-2,2v20c0,1.105,0.895,2,2,2h40c1.105,0,2-0.895,2-2v-20
	C44,0.884,43.105-0.011,42-0.011z M15.219,18h-9V6h2v10h7V18z M20.901,18H18.31L13.128,6h2.591l3.823,10.51L22.628,6h2.591
	L20.901,18z M28.095,17.797h-2.352v-2.242h2.352V17.797z M33.515,18.152c-1.896,0.036-3.336-0.529-4.32-1.695v-1.695
	c1.057,1.312,2.297,1.987,3.719,2.023c1.641,0,2.497-0.82,2.57-2.461c0-1.494-0.875-2.242-2.625-2.242h-3.227V6.23h7.82v1.477H31.82
	v2.898h1.695c2.807,0.037,4.229,1.24,4.266,3.609C37.708,16.768,36.286,18.079,33.515,18.152z"/>
</svg>
