<?xml version="1.0" encoding="utf-8"?>
<!-- Generator: Adobe Illustrator 17.0.0, SVG Export Plug-In . SVG Version: 6.00 Build 0)  -->
<!DOCTYPE svg PUBLIC "-//W3C//DTD SVG 1.1//EN" "http://www.w3.org/Graphics/SVG/1.1/DTD/svg11.dtd">
<svg version="1.1" id="图层_1" xmlns="http://www.w3.org/2000/svg" xmlns:xlink="http://www.w3.org/1999/xlink" x="0px" y="0px"
	 width="86.653px" height="59.044px" viewBox="0 0 86.653 59.044" enable-background="new 0 0 86.653 59.044" xml:space="preserve">
<g>
	<g>
		<path fill-rule="evenodd" clip-rule="evenodd" fill="#110F0F" d="M13.968,30.903L14.362,9.43l0.263-0.795V8.237l-2.367-0.928
			c-0.088-0.087-0.177-0.133-0.263-0.133c-0.088,0.089-0.132,0.222-0.132,0.398l0.132,4.242L11.6,29.18l-0.263,10.074
			c0,0.265,0.086,0.398,0.263,0.398c0.086,0.087,0.218,0.043,0.395-0.133c1.052-0.973,1.71-1.988,1.973-3.049V30.903z
			 M15.146,53.043h-1.398v5.61h1.441c1.61,0,2.554-1.006,2.554-2.828C17.744,53.996,16.8,53.043,15.146,53.043z M15.088,57.929
			h-0.49v-4.17h0.49c1.156,0,1.778,0.663,1.778,2.066C16.866,57.22,16.244,57.929,15.088,57.929z M77.904,55.665v0.724h1.068v1.319
			c-0.19,0.175-0.52,0.274-0.849,0.274c-1.112,0-1.705-0.816-1.705-2.15c0-1.319,0.666-2.127,1.668-2.127
			c0.52,0,0.849,0.221,1.112,0.503l0.461-0.564c-0.329-0.358-0.841-0.709-1.602-0.709c-1.427,0-2.51,1.098-2.51,2.927
			c0,1.837,1.046,2.889,2.488,2.889c0.739,0,1.346-0.282,1.705-0.655v-2.432H77.904z M26.351,49.811l-0.523-0.545l-1.307,1.362
			l-1.307-1.362l-0.523,0.545l1.83,1.906L26.351,49.811z M24.573,52.936c-1.383,0-2.342,1.082-2.342,2.889
			c0,1.807,0.958,2.927,2.342,2.927c1.383,0,2.349-1.121,2.349-2.927C26.921,54.019,25.956,52.936,24.573,52.936z M24.573,57.983
			c-0.893,0-1.471-0.839-1.471-2.157c0-1.319,0.578-2.119,1.471-2.119c0.893,0,1.478,0.8,1.478,2.119
			C26.051,57.144,25.465,57.983,24.573,57.983z M16.993,12.611c0.875-0.176,2.059-0.309,3.551-0.398h1.841l0.263,2.386l1.184-0.133
			l0.526-2.386h3.683v2.253l1.052-0.133l0.658-2.253l7.629-0.133c0.263,0,0.306-0.133,0.131-0.398L35.275,9.43l-1.578,1.723h-3.683
			L30.54,9.43l0.526-0.795c0.175-0.265,0.175-0.398,0-0.398l-3.025-1.193v4.242H24.49l0.395-1.988l0.526-0.663
			c0.086-0.265,0.043-0.398-0.132-0.398l-3.288-1.06l0.395,4.242l-6.445,0.133L16.993,12.611z M16.599,18.841
			c0.701-0.53,1.052-1.06,1.052-1.591c-0.177-0.706-1.009-1.458-2.499-2.253c-0.177-0.087-0.263,0-0.263,0.265
			c0.175,0.973,0.526,2.121,1.052,3.446C16.027,19.063,16.247,19.106,16.599,18.841z M10.285,14.467
			c-0.44,3.359-1.492,5.613-3.157,6.76c-0.703,0.619-0.703,1.282,0,1.988c1.138,0.178,2.059-0.397,2.762-1.723
			c0.876-1.943,1.139-4.285,0.789-7.025C10.503,14.291,10.371,14.291,10.285,14.467z M61.377,49.811l-0.524-0.546l-1.834,1.902
			l0.528,0.55L61.377,49.811z M42.796,56.389h1.068v1.319c-0.19,0.175-0.52,0.274-0.849,0.274c-1.112,0-1.705-0.816-1.705-2.15
			c0-1.319,0.666-2.127,1.668-2.127c0.52,0,0.849,0.221,1.112,0.503l0.461-0.564c-0.329-0.358-0.841-0.709-1.602-0.709
			c-1.427,0-2.51,1.098-2.51,2.927c0,1.837,1.046,2.889,2.488,2.889c0.739,0,1.346-0.282,1.705-0.655v-2.432h-1.837V56.389z
			 M35.67,35.41l-1.578,1.326l-6.971,0.133v-2.916l6.576-0.133c0.175-0.176,0.175-0.309,0-0.398l-1.841-1.591l-1.315,1.325
			l-3.42,0.133v-2.784c2.454-0.087,4.735-0.044,6.839,0.132c0.263,0,0.349-0.176,0.263-0.53l-0.132-0.398l-0.132-5.434l0.789-0.928
			c0-0.176-0.045-0.265-0.132-0.265l-2.631-1.458l-0.789,1.193l-4.077,0.133v-2.519l9.075-0.133c0.175-0.176,0.175-0.309,0-0.398
			l-1.973-1.856l-1.578,1.591l-5.524,0.133l0.131-2.651c2.717-0.176,4.603-0.309,5.656-0.398c0.263,0,0.349-0.133,0.263-0.398
			l-1.973-2.651c-2.193,1.325-6.27,2.518-12.232,3.579c-0.177,0.089-0.22,0.178-0.132,0.265c0,0.089,0.086,0.133,0.263,0.133
			c2.016-0.176,3.858-0.308,5.524-0.397v2.518l-7.892,0.133l0.921,1.061c0.349-0.176,1.138-0.265,2.367-0.265
			c0.526-0.087,0.921-0.133,1.184-0.133h3.42v2.386l-4.209,0.133l-1.578-1.06c-0.263-0.087-0.351-0.044-0.263,0.133
			c0,0.619,0,1.415,0,2.386l-0.131,7.423c0.086,0.354,0.306,0.398,0.657,0.133c0.701-0.441,1.139-0.971,1.315-1.591
			c1.49,0,2.849,0,4.077,0v2.784l-6.576,0.133l1.052,1.06c0.349-0.176,1.052-0.265,2.104-0.265c0.438-0.087,0.789-0.133,1.052-0.133
			l2.367-0.132v3.049l-9.47,0.133l1.052,1.06c0.789-0.265,1.973-0.398,3.551-0.398l18.019-0.397c0.175,0,0.175-0.133,0-0.398
			L35.67,35.41z M27.121,26.662l3.157-0.133c0.175,0,0.306-0.087,0.395-0.265c0-0.176-0.132-0.265-0.395-0.265h-3.157V23.48h4.077
			v6.23h-4.077V26.662z M24.49,29.843l-4.077,0.133v-3.181l4.077-0.133V29.843z M24.49,26.131l-4.077,0.133v-2.651h4.209
			L24.49,26.131z M52.676,55.33h-2.305v-2.287h-0.849v5.61h0.849V56.1h2.305v2.554h0.849v-5.61h-0.849V55.33z M69.956,55.658
			c0,0.61,0.066,1.288,0.11,1.867h-0.037l-0.563-1.189l-1.786-3.293h-0.871v5.61h0.805v-2.645c0-0.61-0.066-1.258-0.11-1.837h0.036
			l0.563,1.174l1.785,3.308h0.871v-5.61h-0.805V55.658z M59.673,53.043l-1.785,5.61h0.863l0.461-1.601h1.873l0.454,1.601h0.9
			l-1.786-5.61H59.673z M60.881,56.359H59.41l0.22-0.755c0.176-0.61,0.344-1.227,0.498-1.868h0.029
			c0.168,0.633,0.329,1.258,0.512,1.868L60.881,56.359z M34.848,55.658c0,0.61,0.066,1.288,0.11,1.867h-0.037l-0.563-1.189
			l-1.786-3.293h-0.871v5.61h0.805v-2.645c0-0.61-0.066-1.258-0.11-1.837h0.037l0.563,1.174l1.785,3.308h0.871v-5.61h-0.805V55.658z
			 M59.568,10.577c0.263-0.087,0.395-0.22,0.395-0.398c0-0.087-0.088-0.219-0.263-0.398l-2.105-1.856
			c-1.841,3.181-4.603,6.01-8.286,8.483c-0.177,0.178-0.131,0.265,0.132,0.265C53.999,14.377,57.375,12.345,59.568,10.577z
			 M67.328,11.637l8.812-0.397c0.263,0,0.306-0.087,0.132-0.265l-2.104-2.121l-1.841,1.856l-9.733,0.265l1.184,0.928
			C64.915,11.726,66.099,11.637,67.328,11.637z M70.353,20.916l8.155-0.265c0.175-0.087,0.175-0.219,0-0.397l-2.236-2.121
			l-1.71,1.856l-14.468,0.53l1.184,1.06c0.875-0.176,2.059-0.309,3.551-0.398l4.077-0.133c0,0.178,0,0.487,0,0.928
			c0.086,1.06,0.086,1.988,0,2.784v10.737c0.175,0.882-0.615,1.28-2.367,1.193c-0.088,0-0.132,0.043-0.132,0.133
			c0,0.087,0.043,0.176,0.132,0.265c0.789,0.176,1.227,0.928,1.315,2.253c0,0.265,0.086,0.398,0.263,0.398
			c2.717-1.326,4.077-3.138,4.077-5.435l-0.132-3.446v-7.82c0.086-0.53,0.263-0.928,0.526-1.193
			c0.175-0.176,0.132-0.265-0.132-0.265L70.353,20.916z M59.7,18.132l0.395-0.398c0.263-0.265,0.306-0.441,0.131-0.53l-2.762-2.121
			c-2.894,6.362-6.665,11.399-11.312,15.111c-0.088,0.178-0.088,0.311,0,0.398c0,0.089,0.086,0.089,0.263,0
			c3.769-2.651,6.708-5.081,8.812-7.29l-0.132,7.688l-0.131,8.881c0,0.265,0.086,0.398,0.263,0.398c0.175,0,0.349-0.089,0.526-0.265
			c0.964-1.239,1.578-2.564,1.841-3.977l-0.263-14.978C58.121,20.166,58.91,19.192,59.7,18.132z"/>
	</g>
</g>
<g>
	<path fill="#110F0F" d="M42.422,13.622c-1.332,2.936-2.08,6.194-2.08,9.628s0.748,6.692,2.08,9.628
		c0.305-0.621,0.582-1.258,0.828-1.91c-0.907-2.4-1.408-5-1.408-7.717s0.501-5.317,1.408-7.717
		C43.004,14.88,42.728,14.243,42.422,13.622z"/>
	<path fill="#110F0F" d="M63.421,0C54.757,0,47.196,4.837,43.25,11.969c0.298,0.538,0.573,1.09,0.828,1.653
		C47.609,6.447,54.951,1.5,63.421,1.5C75.32,1.5,85,11.257,85,23.25S75.32,45,63.421,45c-8.47,0-15.813-4.947-19.343-12.122
		c-0.255,0.563-0.53,1.115-0.828,1.653C47.196,41.663,54.757,46.5,63.421,46.5C76.147,46.5,86.5,36.07,86.5,23.25S76.147,0,63.421,0
		z"/>
</g>
<g>
	<path fill="#110F0F" d="M23.079,46.5C10.353,46.5,0,36.07,0,23.25S10.353,0,23.079,0s23.08,10.43,23.08,23.25
		S35.805,46.5,23.079,46.5z M23.079,1.5C11.18,1.5,1.5,11.257,1.5,23.25S11.18,45,23.079,45s21.58-9.757,21.58-21.75
		S34.978,1.5,23.079,1.5z"/>
</g>
</svg>
