<?xml version="1.0" encoding="UTF-8" standalone="no"?>
<svg width="74px" height="19px" viewBox="0 0 74 19" version="1.1" xmlns="http://www.w3.org/2000/svg" xmlns:xlink="http://www.w3.org/1999/xlink">
    <!-- Generator: Sketch 3.8.3 (29802) - http://www.bohemiancoding.com/sketch -->
    <title>限时退班</title>
    <desc>Created with Sketch.</desc>
    <defs></defs>
    <g id="Page-1" stroke="none" stroke-width="1" fill="none" fill-rule="evenodd">
        <g id="Artboard-1" transform="translate(-175.000000, -71.000000)" fill="#000000">
            <g id="限时退班" transform="translate(175.000000, 71.000000)">
                <path d="M1,0.994771168 L1,0.994771168 L1,18.0052288 C1,18.0006063 0.999398863,18 0.990129262,18 L73.0098707,18 C72.9983449,18 73,17.9983487 73,18.0052288 L73,0.994771168 C73,0.999393717 73.0006011,1 73.0098707,1 L0.990129262,1 C1.00165514,1 1,1.0016513 1,0.994771168 L1,0.994771168 Z M0,0.994771168 C0,0.445374222 0.453369457,0 0.990129262,0 L73.0098707,0 C73.556704,0 74,0.450925395 74,0.994771168 L74,18.0052288 C74,18.5546258 73.5466305,19 73.0098707,19 L0.990129262,19 C0.44329597,19 0,18.5490746 0,18.0052288 L0,0.994771168 L0,0.994771168 Z" id="Rectangle-1-Copy-8"></path>
                <path d="M1.13686838e-13,0.994771168 C1.13686838e-13,0.445374222 0.450925395,0 0.994771168,0 L19,0 L19,19 L0.994771168,19 C0.445374222,19 1.13686838e-13,18.5490746 1.13686838e-13,18.0052288 L1.13686838e-13,0.994771168 Z M4.512,4.388 C5.33600412,5.03600324 6.01999728,5.66399696 6.564,6.272 L5.94,6.896 C5.4599976,6.295997 4.78800432,5.64800348 3.924,4.952 L4.512,4.388 Z M11.328,14.984 C10.935998,14.984 10.244005,14.9760001 9.252,14.96 C8.49999624,14.9439999 7.88800236,14.8720006 7.416,14.744 C6.95999772,14.5999993 6.54800184,14.3080022 6.18,13.868 C6.02799924,13.667999 5.88000072,13.568 5.736,13.568 C5.44799856,13.568 4.97200332,14.1199945 4.308,15.224 L3.66,14.636 C4.3000032,13.627995 4.86399756,13.0160011 5.352,12.8 L5.352,9.152 L3.648,9.152 L3.648,8.36 L6.156,8.36 L6.156,12.86 C6.2360004,12.9240003 6.32799948,13.0119994 6.432,13.124 C6.72000144,13.4680017 7.01999844,13.7199992 7.332,13.88 C7.6920018,14.0480008 8.21599656,14.1439999 8.904,14.168 C9.73600416,14.1840001 10.5039965,14.192 11.208,14.192 C11.600002,14.192 12.2119958,14.1840001 13.044,14.168 C13.7480035,14.1519999 14.2279987,14.1360001 14.484,14.12 L14.268,14.984 L11.328,14.984 Z M10.164,9.548 C10.8840036,9.97200212 11.4959975,10.3639982 12,10.724 C12.4880024,10.2919978 12.8919984,9.88000196 13.212,9.488 L13.836,9.98 C13.4119979,10.4680024 13.0120019,10.8719984 12.636,11.192 C13.2920033,11.7040026 13.8479977,12.1879977 14.304,12.644 L13.764,13.28 C12.7079947,12.1679944 11.3440084,11.1200049 9.672,10.136 L10.164,9.548 Z M8.556,7.256 L8.556,8.36 L12.636,8.36 L12.636,7.256 L8.556,7.256 Z M12.636,6.536 L12.636,5.42 L8.556,5.42 L8.556,6.536 L12.636,6.536 Z M8.556,9.128 L8.556,12.38 C9.3160038,12.2439993 10.1159958,12.0560012 10.956,11.816 L11.148,12.596 C10.2039953,12.8600013 9.01600716,13.1119988 7.584,13.352 L7.392,12.62 C7.60800108,12.5479996 7.716,12.4280008 7.716,12.26 L7.716,4.652 L13.476,4.652 L13.476,9.128 L8.556,9.128 Z" id="Combined-Shape"></path>
                <path d="M23,4.54 L26.684,4.54 L26.684,5.236 C26.3399983,6.2760052 25.9080026,7.39999396 25.388,8.608 C26.1640039,9.67200532 26.5759998,10.6319957 26.624,11.488 C26.624,12.0000026 26.5000012,12.3719988 26.252,12.604 C25.9159983,12.8760014 25.3160043,13.0199999 24.452,13.036 L24.164,12.16 C24.4200013,12.1920002 24.5759997,12.208 24.632,12.208 C25.0800022,12.1839999 25.3799992,12.1240005 25.532,12.028 C25.6840008,11.9159994 25.76,11.7360012 25.76,11.488 C25.76,10.6639959 25.3400042,9.74800504 24.5,8.74 C25.0760029,7.47599368 25.5159985,6.35200492 25.82,5.368 L23.84,5.368 L23.84,15.076 L23,15.076 L23,4.54 Z M28.1,7.54 L28.1,8.896 L31.64,8.896 L31.64,7.54 L28.1,7.54 Z M31.64,6.748 L31.64,5.368 L28.1,5.368 L28.1,6.748 L31.64,6.748 Z M28.1,9.688 L28.1,13.792 C28.8040035,13.583999 29.5199964,13.3120017 30.248,12.976 L30.44,13.78 C29.5679956,14.1560019 28.4840065,14.5159983 27.188,14.86 L26.984,14.116 C27.1600009,14.0519997 27.248,13.9600006 27.248,13.84 L27.248,4.552 L32.48,4.552 L32.48,9.688 L30.26,9.688 C30.4040007,10.4160036 30.6479983,11.0719971 30.992,11.656 C31.584003,11.3279984 32.1439974,10.8440032 32.672,10.204 L33.236,10.768 C32.6759972,11.4240033 32.0600034,11.9239983 31.388,12.268 C31.9480028,13.0360038 32.6759955,13.6839974 33.572,14.212 L33.092,14.968 C31.09199,13.6879936 29.888002,11.9280112 29.48,9.688 L28.1,9.688 Z M38.432,4.96 L38.432,13.804 L37.592,13.804 L37.592,13 L35.816,13 L35.816,14.092 L34.976,14.092 L34.976,4.96 L38.432,4.96 Z M35.816,12.196 L37.592,12.196 L37.592,9.304 L35.816,9.304 L35.816,12.196 Z M35.816,8.5 L37.592,8.5 L37.592,5.752 L35.816,5.752 L35.816,8.5 Z M40.16,8.536 C40.9200038,9.68800576 41.4919981,10.6719959 41.876,11.488 L41.156,11.992 C40.7159978,11.0559953 40.1480035,10.0520054 39.452,8.98 L40.16,8.536 Z M40.796,14.944 L40.616,14.104 C41.5440046,14.1360002 42.207998,14.152 42.608,14.152 C42.9600018,14.152 43.136,13.9640019 43.136,13.588 L43.136,7.096 L38.984,7.096 L38.984,6.268 L43.136,6.268 L43.136,4.156 L44.012,4.156 L44.012,6.268 L45.488,6.268 L45.488,7.096 L44.012,7.096 L44.012,13.804 C44.012,14.5640038 43.6400037,14.944 42.896,14.944 L40.796,14.944 Z M47.504,4.252 C48.3280041,4.90000324 49.0119973,5.52799696 49.556,6.136 L48.932,6.76 C48.4519976,6.159997 47.7800043,5.51200348 46.916,4.816 L47.504,4.252 Z M54.32,14.848 C53.927998,14.848 53.236005,14.8400001 52.244,14.824 C51.4919962,14.8079999 50.8800024,14.7360006 50.408,14.608 C49.9519977,14.4639993 49.5400018,14.1720022 49.172,13.732 C49.0199992,13.531999 48.8720007,13.432 48.728,13.432 C48.4399986,13.432 47.9640033,13.9839945 47.3,15.088 L46.652,14.5 C47.2920032,13.491995 47.8559976,12.8800011 48.344,12.664 L48.344,9.016 L46.64,9.016 L46.64,8.224 L49.148,8.224 L49.148,12.724 C49.2280004,12.7880003 49.3199995,12.8759994 49.424,12.988 C49.7120014,13.3320017 50.0119984,13.5839992 50.324,13.744 C50.6840018,13.9120008 51.2079966,14.0079999 51.896,14.032 C52.7280042,14.0480001 53.4959965,14.056 54.2,14.056 C54.592002,14.056 55.2039958,14.0480001 56.036,14.032 C56.7400035,14.0159999 57.2199987,14.0000001 57.476,13.984 L57.26,14.848 L54.32,14.848 Z M53.156,9.412 C53.8760036,9.83600212 54.4879975,10.2279982 54.992,10.588 C55.4800024,10.1559978 55.8839984,9.74400196 56.204,9.352 L56.828,9.844 C56.4039979,10.3320024 56.0040019,10.7359984 55.628,11.056 C56.2840033,11.5680026 56.8399977,12.0519977 57.296,12.508 L56.756,13.144 C55.6999947,12.0319944 54.3360084,10.9840049 52.664,10 L53.156,9.412 Z M51.548,7.12 L51.548,8.224 L55.628,8.224 L55.628,7.12 L51.548,7.12 Z M55.628,6.4 L55.628,5.284 L51.548,5.284 L51.548,6.4 L55.628,6.4 Z M51.548,8.992 L51.548,12.244 C52.3080038,12.1079993 53.1079958,11.9200012 53.948,11.68 L54.14,12.46 C53.1959953,12.7240013 52.0080072,12.9759988 50.576,13.216 L50.384,12.484 C50.6000011,12.4119996 50.708,12.2920008 50.708,12.124 L50.708,4.516 L56.468,4.516 L56.468,8.992 L51.548,8.992 Z M66.992,5.656 L65.804,5.656 L65.804,4.864 L69.308,4.864 L69.308,5.656 L67.832,5.656 L67.832,9.004 L69.128,9.004 L69.128,9.796 L67.832,9.796 L67.832,13.756 L69.476,13.756 L69.476,14.56 L65.288,14.56 L65.288,13.756 L66.992,13.756 L66.992,9.796 L65.804,9.796 L65.804,9.004 L66.992,9.004 L66.992,5.656 Z M64.316,4 L65.144,4 L65.144,9.412 C65.1119998,11.9800128 64.2720082,13.8519941 62.624,15.028 L61.988,14.464 C63.5160076,13.4159948 64.2919999,11.7320116 64.316,9.412 L64.316,4 Z M60.044,5.764 L58.676,5.764 L58.676,4.96 L62.204,4.96 L62.204,5.764 L60.884,5.764 L60.884,8.8 L62.048,8.8 L62.048,9.592 L60.884,9.592 L60.884,12.712 C61.3240022,12.5439992 61.7959975,12.3320013 62.3,12.076 L62.3,12.94 C61.2439947,13.4440025 60.0480067,13.8839981 58.712,14.26 L58.508,13.444 C58.9560022,13.3399995 59.4679971,13.2000009 60.044,13.024 L60.044,9.592 L58.784,9.592 L58.784,8.8 L60.044,8.8 L60.044,5.764 Z M62.708,6.04 L63.5,6.04 L63.5,7.192 C63.492,8.92800868 63.2440024,10.2079959 62.756,11.032 L62.144,10.492 C62.5120018,9.80399656 62.7,8.70400756 62.708,7.192 L62.708,6.04 Z" id="限时退班-copy-2"></path>
            </g>
        </g>
    </g>
</svg>