<?xml version="1.0" encoding="utf-8"?>
<!-- Generator: Adobe Illustrator 17.0.0, SVG Export Plug-In . SVG Version: 6.00 Build 0)  -->
<!DOCTYPE svg PUBLIC "-//W3C//DTD SVG 1.1//EN" "http://www.w3.org/Graphics/SVG/1.1/DTD/svg11.dtd">
<svg version="1.1" id="Layer_1" xmlns="http://www.w3.org/2000/svg" xmlns:xlink="http://www.w3.org/1999/xlink" x="0px" y="0px"
	 width="16px" height="16px" viewBox="0.5 0.5 16 16" enable-background="new 0.5 0.5 16 16" xml:space="preserve">
<g>
	<path fill="#231F20" d="M14.5,1.5h-12c-0.552,0-1,0.448-1,1v12c0,0.552,0.448,1,1,1h12c0.552,0,1-0.448,1-1v-12
		C15.5,1.948,15.052,1.5,14.5,1.5z M14.5,14.5h-12v-12h12V14.5z"/>
	<rect x="6.5" y="4.5" fill="#231F20" width="6" height="1"/>
	<rect x="6.5" y="7.5" fill="#231F20" width="6" height="1"/>
	<rect x="6.5" y="10.5" fill="#231F20" width="6" height="1"/>
	<rect x="4.5" y="4.5" fill="#231F20" width="1" height="1"/>
	<rect x="4.5" y="7.5" fill="#231F20" width="1" height="1"/>
	<rect x="4.5" y="10.5" fill="#231F20" width="1" height="1"/>
</g>
</svg>
