<?xml version="1.0" encoding="utf-8"?>
<!-- Generator: Adobe Illustrator 17.0.0, SVG Export Plug-In . SVG Version: 6.00 Build 0)  -->
<!DOCTYPE svg PUBLIC "-//W3C//DTD SVG 1.1//EN" "http://www.w3.org/Graphics/SVG/1.1/DTD/svg11.dtd">
<svg version="1.1" id="图层_1" xmlns="http://www.w3.org/2000/svg" xmlns:xlink="http://www.w3.org/1999/xlink" x="0px" y="0px"
	 width="10px" height="10px" viewBox="0 0 10 10" enable-background="new 0 0 10 10" xml:space="preserve">
<g>
	<path fill="#272636" d="M7.712,8.838H5.775V8.306c1.944-0.363,3.414-2.067,3.414-4.118c0-1.72-1.035-3.194-2.516-3.84
		c0,0-0.001,0.001-0.001,0.001C6.159,0.126,5.595,0,5,0C4.405,0,3.841,0.126,3.329,0.35L3.328,0.349
		c-1.481,0.645-2.517,2.12-2.517,3.84c0,2.05,1.47,3.754,3.414,4.118v0.532H2.288c-0.371,0-0.388,0.387-0.388,0.387V10h6.199V9.225
		C8.099,9.012,7.926,8.838,7.712,8.838L7.712,8.838z M6.4,0.659C6.033,1.002,5.542,1.213,5,1.213c-0.542,0-1.033-0.211-1.4-0.554
		C4.034,0.485,4.505,0.387,5,0.387C5.495,0.387,5.966,0.485,6.4,0.659L6.4,0.659z M2.942,4.189c0-1.137,0.921-2.058,2.058-2.058
		c1.137,0,2.058,0.921,2.058,2.058c0,1.137-0.921,2.058-2.058,2.058C3.862,6.247,2.942,5.326,2.942,4.189L2.942,4.189z M6.09,4.189
		c0-0.602-0.488-1.089-1.09-1.089c-0.207,0-0.399,0.061-0.564,0.161c0.051-0.016,0.105-0.027,0.161-0.027
		c0.305,0,0.552,0.247,0.552,0.553c0,0.305-0.247,0.552-0.552,0.552c-0.305,0-0.552-0.247-0.552-0.552
		c0-0.057,0.011-0.11,0.027-0.162C3.971,3.79,3.91,3.981,3.91,4.189c0,0.602,0.487,1.09,1.09,1.09
		C5.602,5.278,6.09,4.791,6.09,4.189L6.09,4.189z M6.09,4.189"/>
</g>
</svg>
