<?xml version="1.0" encoding="utf-8"?>
<!-- Generator: Adobe Illustrator 17.0.0, SVG Export Plug-In . SVG Version: 6.00 Build 0)  -->
<!DOCTYPE svg PUBLIC "-//W3C//DTD SVG 1.1//EN" "http://www.w3.org/Graphics/SVG/1.1/DTD/svg11.dtd">
<svg version="1.1" id="图层_1" xmlns="http://www.w3.org/2000/svg" xmlns:xlink="http://www.w3.org/1999/xlink" x="0px" y="0px"
	 width="64px" height="64px" viewBox="0 0 64 64" enable-background="new 0 0 64 64" xml:space="preserve">
<path d="M12.374,30.747c0-1.786,0.009-3.6-0.002-5.414c-0.019-3.182-0.127-6.392,1.096-9.407C16.561,8.306,22.1,3.613,30.382,2.931
	c8.551-0.704,14.847,3.233,19.071,10.556c1.673,2.901,2.184,6.131,2.162,9.456c-0.017,2.609-0.003,5.218-0.003,7.873
	c0.533,0.03,0.901,0.056,1.269,0.071c2.66,0.104,4.249,1.652,4.329,4.329c0.059,2.009,0.015,4.021,0.016,6.032
	c0,6.079,0.006,9.52-0.003,15.599c-0.005,3.539-1.12,4.302-4.627,4.302c-13.468,0.001-26.936,0.002-40.404,0
	c-3.513-0.001-5.425-0.764-5.428-4.296C6.756,49.09,6.76,43.966,6.761,36.203c0.001-3.838,1.207-5.11,5.039-5.329
	C11.936,30.866,12.07,30.815,12.374,30.747z M43.123,30.825c0-3.157,0.145-6.283-0.033-9.39c-0.278-4.848-3.951-8.943-8.647-9.946
	c-4.931-1.053-9.907,1.172-12.268,5.536c-2.376,4.392-1.075,9.135-1.478,13.799C28.299,30.825,35.675,30.825,43.123,30.825z"/>
</svg>
