<?xml version="1.0" encoding="utf-8"?>
<!-- Generator: Adobe Illustrator 17.0.0, SVG Export Plug-In . SVG Version: 6.00 Build 0)  -->
<!DOCTYPE svg PUBLIC "-//W3C//DTD SVG 1.1//EN" "http://www.w3.org/Graphics/SVG/1.1/DTD/svg11.dtd">
<svg version="1.1" id="图层_1" xmlns="http://www.w3.org/2000/svg" xmlns:xlink="http://www.w3.org/1999/xlink" x="0px" y="0px"
	 width="20px" height="20px" viewBox="0 0 20 20" enable-background="new 0 0 20 20" xml:space="preserve">
<g>
	<g>
		<path d="M9.963,0.006c-3.888-0.011-6.284,1.6-7.086,3.971C1.97,6.659,3.344,8.182,5.173,7.795C7.488,7.306,8.175,5.34,8.271,4.297
			c0.06-0.641-0.148-1.684-0.377-2.177C7.848,2.025,7.92,1.933,8,1.902c0.428-0.172,1.436-0.124,1.828,0.69
			c0.296,0.612,0.468,1.37,0.318,2.483c0.987-0.33,1.77-0.5,2.043-0.483c0.725,0.05,1.323,1.125,1.502,2.544
			c0.14,1.136,0.051,2.661-1.295,3.345c-1.222,0.621-3.952,0.971-5.41,0.971c-0.064,0.968-0.265,3.585-0.265,3.585h3.396
			l0.368-2.425c3.58-0.406,6.41-1.931,6.864-5.718C17.971,1.724,13.765,0.016,9.963,0.006z M8.239,15.609
			c-1.195,0-2.164,0.982-2.164,2.194c0,1.209,0.97,2.191,2.164,2.191c1.194,0,2.164-0.982,2.164-2.191
			C10.403,16.592,9.433,15.609,8.239,15.609z"/>
	</g>
</g>
</svg>
