<?xml version="1.0" encoding="utf-8"?>
<!-- Generator: Adobe Illustrator 16.0.0, SVG Export Plug-In . SVG Version: 6.00 Build 0)  -->
<!DOCTYPE svg PUBLIC "-//W3C//DTD SVG 1.1//EN" "http://www.w3.org/Graphics/SVG/1.1/DTD/svg11.dtd">
<svg version="1.1" id="Layer_1" xmlns="http://www.w3.org/2000/svg" xmlns:xlink="http://www.w3.org/1999/xlink" x="0px" y="0px"
	 width="16px" height="16px" viewBox="0.488 0.488 16 16" enable-background="new 0.488 0.488 16 16" xml:space="preserve">
<path d="M8.488,1.489c-3.866,0-7,3.134-7,7c0,3.867,3.134,7,7,7s7-3.133,7-7C15.488,4.623,12.354,1.489,8.488,1.489z M12.488,10.488
	c0,1,0,1-1,1h-6c-1,0-1,0-1-1v-3c0,0,3.344,2.021,3.994,2.021c0.713,0,4.006-2.021,4.006-2.021V10.488z M12.488,6.489
	c0,0-3.318,2-4,2c-0.65,0-4-2-4-2L4.482,6.116c0-0.627,0.006-0.623,0.667-0.623l6.339-0.004c0.668-0.004,1,0,1,0.627
	C12.488,6.26,12.488,6.489,12.488,6.489z"/>
</svg>
