<?xml version="1.0" encoding="UTF-8" standalone="no"?>
<svg width="13px" height="13px" viewBox="0 0 13 13" version="1.1" xmlns="http://www.w3.org/2000/svg" xmlns:xlink="http://www.w3.org/1999/xlink" xmlns:sketch="http://www.bohemiancoding.com/sketch/ns">
    <!-- Generator: Sketch 3.5.1 (25234) - http://www.bohemiancoding.com/sketch -->
    <title>iconfont-guanli</title>
    <desc>Created with Sketch.</desc>
    <defs></defs>
    <g id="Page-1" stroke="none" stroke-width="1" fill="none" fill-rule="evenodd" sketch:type="MSPage">
        <g id="iconfont-guanli" sketch:type="MSLayerGroup" fill="#9D9E9E">
            <path d="M4.30353423,0.00110672464 L1.84039172,0.00110672464 C0.846613101,0.00110672464 0.0143388841,0.825565246 0.0143388841,1.81935871 L0.0143388841,4.28248639 C0.0143388841,5.27626501 0.846613101,6.0667913 1.84039172,6.0667913 L6.08002346,6.0667913 L6.08002345,1.81935871 C6.08002345,0.825580087 5.29731286,0.00110672464 4.30353423,0.00110672464 L4.30353423,0.00110672464 Z M5.19019197,5.17695981 L1.84039172,5.17695981 C1.343495,5.17695981 0.919000899,4.7793831 0.919000899,4.28248638 L0.919000884,1.81935871 C0.919000884,1.32246199 1.34349499,0.905768739 1.84039171,0.905768739 L4.30351939,0.905768739 C4.80041612,0.905768739 5.19019197,1.32246199 5.19019197,1.81935871 L5.19019197,5.17695981 L5.19019197,5.17695981 Z" id="Shape" sketch:type="MSShapeGroup"></path>
            <path d="M11.2123193,0.00110672464 L8.74917678,0.00110672464 C7.75539816,0.00110672464 6.92536336,0.825565246 6.92536336,1.81935871 L6.92536336,6.0667913 L11.2123193,6.0667913 C12.2060979,6.0667913 12.9910479,5.27626501 12.9910479,4.28248639 L12.9910479,1.81935871 C12.9910479,0.825580087 12.2060979,0.00110672464 11.2123193,0.00110672464 L11.2123193,0.00110672464 Z M12.0863859,4.28248639 C12.0863859,4.77938312 11.7092012,5.17695983 11.2123193,5.17695983 L7.81519484,5.17695981 L7.81519484,1.81935871 C7.81519484,1.32246199 8.2522949,0.905768739 8.74917678,0.905768739 L11.2123045,0.905768739 C11.7092012,0.905768739 12.0863711,1.32246199 12.0863711,1.81935871 L12.0863711,4.28248639 L12.0863859,4.28248639 Z" id="Shape" sketch:type="MSShapeGroup"></path>
            <path d="M0.0143388841,8.72814377 L0.0143388841,11.1912714 C0.0143388841,12.1850501 0.846613101,12.9778158 1.84039172,12.9778158 L4.30351941,12.9778158 C5.29729803,12.9778158 6.08002346,12.1850649 6.08002346,11.1912714 L6.08002345,6.9121312 L1.84039172,6.9121312 C0.846613101,6.9121312 0.0143388841,7.73436514 0.0143388841,8.72814377 L0.0143388841,8.72814377 Z M5.19019197,11.1912863 C5.19019197,11.688183 4.80041612,12.0731686 4.30351939,12.0731686 L1.84039172,12.0731686 C1.343495,12.0731686 0.919000899,11.688183 0.919000899,11.1912863 L0.919000884,8.72814377 C0.919000884,8.23124704 1.34349499,7.80196268 1.84039171,7.80196268 L5.19019197,7.80196268 L5.19019197,11.1912863 L5.19019197,11.1912863 Z" id="Shape" sketch:type="MSShapeGroup"></path>
            <path d="M11.2123193,6.9121312 L6.92536336,6.9121312 L6.92536336,11.1912714 C6.92536336,12.1850501 7.75539816,12.9778158 8.74917678,12.9778158 L11.2123045,12.9778158 C12.2060831,12.9778158 12.9910331,12.1850649 12.9910331,11.1912714 L12.9910331,8.72814377 C12.9910479,7.73436514 12.2060979,6.9121312 11.2123193,6.9121312 L11.2123193,6.9121312 Z M12.0863859,11.1912863 C12.0863859,11.688183 11.7092012,12.0731686 11.2123193,12.0731686 L8.74917678,12.0731686 C8.25228006,12.0731686 7.81519484,11.688183 7.81519484,11.1912863 L7.81519484,7.80196268 L11.2123193,7.80196268 C11.709216,7.80196268 12.0863859,8.23124704 12.0863859,8.72814377 L12.0863859,11.1912863 L12.0863859,11.1912863 Z" id="Shape" sketch:type="MSShapeGroup"></path>
        </g>
    </g>
</svg>