<?xml version="1.0" encoding="utf-8"?>
<!-- Generator: Adobe Illustrator 17.0.0, SVG Export Plug-In . SVG Version: 6.00 Build 0)  -->
<!DOCTYPE svg PUBLIC "-//W3C//DTD SVG 1.1//EN" "http://www.w3.org/Graphics/SVG/1.1/DTD/svg11.dtd">
<svg version="1.1" id="图层_1" xmlns="http://www.w3.org/2000/svg" xmlns:xlink="http://www.w3.org/1999/xlink" x="0px" y="0px"
	 width="13px" height="14px" viewBox="0 0 13 14" enable-background="new 0 0 13 14" xml:space="preserve">
<path fill="#040000" d="M12,3.532H9.891c1.101-0.749,1.637-1.901,1.203-2.725C10.813,0.277,10.194,0,9.457,0
	C8.92,0,8.321,0.147,7.745,0.451C7.224,0.726,6.801,1.09,6.5,1.485C6.199,1.09,5.776,0.726,5.255,0.451C4.679,0.147,4.08,0,3.543,0
	C2.806,0,2.187,0.277,1.906,0.808C1.472,1.632,2.007,2.783,3.107,3.532H1c-0.55,0-1,0.45-1,1V8v1v4c0,0.55,0.45,1,1,1h11
	c0.55,0,1-0.45,1-1V4.532C13,3.982,12.55,3.532,12,3.532z M7.136,2.334c0.205-0.381,0.597-0.745,1.076-0.998
	C8.622,1.119,9.064,1,9.457,1c0.369,0,0.664,0.108,0.753,0.275c0.163,0.31-0.222,1.112-1.176,1.615
	c-0.41,0.217-0.852,0.336-1.245,0.336c-0.369,0-0.664-0.108-0.753-0.275C6.964,2.815,7.001,2.584,7.136,2.334z M2.791,1.276
	C2.879,1.108,3.174,1,3.543,1c0.393,0,0.835,0.119,1.244,0.335c0.479,0.253,0.871,0.617,1.076,0.998
	c0.134,0.25,0.172,0.481,0.1,0.617C5.876,3.118,5.58,3.226,5.211,3.226c-0.393,0-0.835-0.119-1.244-0.335
	C3.013,2.387,2.627,1.585,2.791,1.276z M1,4.532h5V8H1V4.532z M1,13V9h5v4H1z M12,13H7V9h5V13z M12,8H7V4.532h5V8z"/>
</svg>
