<?xml version="1.0" encoding="utf-8"?>
<!-- Generator: Adobe Illustrator 17.0.0, SVG Export Plug-In . SVG Version: 6.00 Build 0)  -->
<!DOCTYPE svg PUBLIC "-//W3C//DTD SVG 1.1//EN" "http://www.w3.org/Graphics/SVG/1.1/DTD/svg11.dtd">
<svg version="1.1" id="Layer_1" xmlns="http://www.w3.org/2000/svg" xmlns:xlink="http://www.w3.org/1999/xlink" x="0px" y="0px"
	 width="16px" height="16px" viewBox="0.5 0.5 16 16" enable-background="new 0.5 0.5 16 16" xml:space="preserve">
<path fill="#231F20" d="M14.5,1.5h-2h-4h-6c-0.552,0-1,0.448-1,1v12c0,0.552,0.448,1,1,1h12c0.552,0,1-0.448,1-1v-12
	C15.5,1.948,15.052,1.5,14.5,1.5z M11.5,2.5v4.382l-0.553-0.276C10.806,6.535,10.653,6.5,10.5,6.5c-0.153,0-0.306,0.035-0.447,0.106
	L9.5,6.882V2.5H11.5z M14.5,14.5h-12v-12h6v6l2-1l2,1v-6h2V14.5z"/>
</svg>
