<?xml version="1.0" encoding="utf-8"?>
<!-- Generator: Adobe Illustrator 17.0.0, SVG Export Plug-In . SVG Version: 6.00 Build 0)  -->
<!DOCTYPE svg PUBLIC "-//W3C//DTD SVG 1.1//EN" "http://www.w3.org/Graphics/SVG/1.1/DTD/svg11.dtd">
<svg version="1.1" id="图层_1" xmlns="http://www.w3.org/2000/svg" xmlns:xlink="http://www.w3.org/1999/xlink" x="0px" y="0px"
	 width="10px" height="10px" viewBox="0 0 10 10" enable-background="new 0 0 10 10" xml:space="preserve">
<g>
	<path d="M5.039,7.533C3.015,7.531,1.375,5.88,1.39,3.859c0.015-1.976,1.638-3.606,3.618-3.634C6.998,0.196,8.7,1.874,8.709,3.872
		C8.719,5.881,7.06,7.536,5.039,7.533z M7.349,3.865c-0.01-1.294-1.053-2.314-2.344-2.293C3.718,1.593,2.716,2.646,2.743,3.949
		c0.026,1.256,1.04,2.245,2.302,2.245C6.342,6.195,7.359,5.167,7.349,3.865z"/>
	<path d="M1.756,8.066c-0.672,0-1.241,0-1.756,0c0.59-0.578,1.176-1.153,1.724-1.691c0.525,0.42,1.207,0.965,1.854,1.482
		c-0.563,0.563-1.17,1.17-1.822,1.821C1.756,9.179,1.756,8.653,1.756,8.066z"/>
	<path d="M10,8.06c-0.575,0-1.143,0-1.774,0c0,0.577,0,1.087,0,1.716C7.529,9.014,6.919,8.347,6.411,7.792
		C6.972,7.4,7.685,6.902,8.372,6.423C8.851,6.905,9.395,7.452,10,8.06z"/>
	<path d="M6.998,3.887C7,4.971,6.168,5.822,5.088,5.843c-1.126,0.021-1.993-0.83-1.992-1.957c0-1.083,0.833-1.939,1.907-1.961
		C6.114,1.903,6.997,2.771,6.998,3.887z"/>
</g>
</svg>
