<?xml version="1.0" encoding="utf-8"?>
<!-- Generator: Adobe Illustrator 17.0.0, SVG Export Plug-In . SVG Version: 6.00 Build 0)  -->
<!DOCTYPE svg PUBLIC "-//W3C//DTD SVG 1.1//EN" "http://www.w3.org/Graphics/SVG/1.1/DTD/svg11.dtd">
<svg version="1.1" id="图层_1" xmlns="http://www.w3.org/2000/svg" xmlns:xlink="http://www.w3.org/1999/xlink" x="0px" y="0px"
	 width="16px" height="16px" viewBox="0 0 16 16" enable-background="new 0 0 16 16" xml:space="preserve">
<g>
	<path fill-rule="evenodd" clip-rule="evenodd" d="M8,1C4.14,1,1,3.756,1,7.143c0,1.633,0.943,3.181,1.896,4.181l-0.474,2.002
		c-0.092,0.391,0.058,0.799,0.382,1.037c0.175,0.128,0.383,0.193,0.591,0.193c0.177,0,0.354-0.047,0.513-0.142l2.189-1.307
		c0.542,0.153,1.141,0.179,1.684,0.179l0.122,0l0.097,0c3.86,0,7-2.756,7-6.143C15,3.756,11.86,1,8,1z M8,12.286
		c-0.067,0-0.14,0-0.219,0C7.257,12.286,6.498,12.269,6,12l-2.605,1.556L4,11c-1.059-0.928-2-2.457-2-3.857C2,4.303,4.686,2,8,2
		s6,2.303,6,5.143S11.314,12.286,8,12.286z"/>
	<rect x="4" y="6" fill-rule="evenodd" clip-rule="evenodd" width="2" height="2"/>
	<rect x="7" y="6" fill-rule="evenodd" clip-rule="evenodd" width="2" height="2"/>
	<rect x="10" y="6" fill-rule="evenodd" clip-rule="evenodd" width="2" height="2"/>
</g>
</svg>
