<?xml version="1.0" encoding="utf-8"?>
<!-- Generator: Adobe Illustrator 17.0.0, SVG Export Plug-In . SVG Version: 6.00 Build 0)  -->
<!DOCTYPE svg PUBLIC "-//W3C//DTD SVG 1.1//EN" "http://www.w3.org/Graphics/SVG/1.1/DTD/svg11.dtd">
<svg version="1.1" id="Layer_1" xmlns="http://www.w3.org/2000/svg" xmlns:xlink="http://www.w3.org/1999/xlink" x="0px" y="0px"
	 width="16px" height="16px" viewBox="0 0 16 16" enable-background="new 0 0 16 16" xml:space="preserve">
<g>
	<path fill="#231F20" d="M8,11h1c1.1,0,2-0.9,2-2V2c0-1.1-0.9-2-2-2H8C6.9,0,6,0.9,6,2v7C6,10.1,6.9,11,8,11z"/>
	<path fill="#231F20" d="M13,6h-1v3c0,1.65-1.575,3-3.5,3S5,10.65,5,9V6H4v3h0.007C4.004,9.165,4,9.329,4,9.5
		c0,1.792,1.761,3.263,4,3.461V15H5.07C5.031,15,5,15.031,5,15.07v0.86C5,15.969,5.031,16,5.07,16H8h1h2.93
		c0.039,0,0.07-0.031,0.07-0.07v-0.86c0-0.039-0.031-0.07-0.07-0.07H9v-2.039c2.239-0.197,4-1.669,4-3.461
		c0-0.171-0.004-0.335-0.007-0.5H13V6z"/>
</g>
</svg>
