<?xml version="1.0" encoding="utf-8"?>
<!-- Generator: Adobe Illustrator 17.0.0, SVG Export Plug-In . SVG Version: 6.00 Build 0)  -->
<!DOCTYPE svg PUBLIC "-//W3C//DTD SVG 1.1//EN" "http://www.w3.org/Graphics/SVG/1.1/DTD/svg11.dtd">
<svg version="1.1" id="图层_1" xmlns="http://www.w3.org/2000/svg" xmlns:xlink="http://www.w3.org/1999/xlink" x="0px" y="0px"
	 width="24px" height="24px" viewBox="20 20 24 24" enable-background="new 20 20 24 24" xml:space="preserve">
<path fill-rule="evenodd" clip-rule="evenodd" d="M38.125,22h-12.25C25.394,22,25,22.398,25,22.885v18.231
	C25,41.602,25.394,42,25.875,42h12.25C38.606,42,39,41.602,39,41.115V22.885C39,22.398,38.606,22,38.125,22z M38,41H26v-4h12V41z
	 M38,36H26V23h12V36z M32,39.996c0.552,0,1-0.449,1-1.002c0-0.553-0.448-1.002-1-1.002c-0.552,0-1,0.449-1,1.002
	C31,39.547,31.448,39.996,32,39.996z M34,24h-4v1h4V24z"/>
</svg>
