<?xml version="1.0" encoding="utf-8"?>
<!-- Generator: Adobe Illustrator 17.0.0, SVG Export Plug-In . SVG Version: 6.00 Build 0)  -->
<!DOCTYPE svg PUBLIC "-//W3C//DTD SVG 1.1//EN" "http://www.w3.org/Graphics/SVG/1.1/DTD/svg11.dtd">
<svg version="1.1" id="Layer_1" xmlns="http://www.w3.org/2000/svg" xmlns:xlink="http://www.w3.org/1999/xlink" x="0px" y="0px"
	 width="16px" height="16px" viewBox="0.5 0.5 16 16" enable-background="new 0.5 0.5 16 16" xml:space="preserve">
<g>
	<path d="M8.5,1.5c-3.866,0-7,3.134-7,7c0,3.866,3.134,7,7,7c3.866,0,7-3.134,7-7C15.5,4.634,12.366,1.5,8.5,1.5z M8.5,14.5
		c-3.308,0-6-2.692-6-6s2.692-6,6-6s6,2.692,6,6S11.808,14.5,8.5,14.5z"/>
	<polygon points="11.854,4.854 11.146,4.146 8.5,6.793 5.854,4.146 5.146,4.854 7.793,7.5 4.5,7.5 4.5,8.5 8,8.5 8,10.5 4.5,10.5 
		4.5,11.5 8,11.5 8,13.5 9,13.5 9,11.5 12.5,11.5 12.5,10.5 9,10.5 9,8.5 12.5,8.5 12.5,7.5 9.207,7.5 	"/>
</g>
</svg>
