<?xml version="1.0" encoding="utf-8"?>
<!-- Generator: Adobe Illustrator 17.0.0, SVG Export Plug-In . SVG Version: 6.00 Build 0)  -->
<!DOCTYPE svg PUBLIC "-//W3C//DTD SVG 1.1//EN" "http://www.w3.org/Graphics/SVG/1.1/DTD/svg11.dtd">
<svg version="1.1" id="图层_1" xmlns="http://www.w3.org/2000/svg" xmlns:xlink="http://www.w3.org/1999/xlink" x="0px" y="0px"
	 width="64px" height="64px" viewBox="0 0 64 64" enable-background="new 0 0 64 64" xml:space="preserve">
<g>
	<path d="M32,2.25C15.596,2.25,2.25,15.596,2.25,32S15.596,61.75,32,61.75S61.75,48.404,61.75,32S48.404,2.25,32,2.25z M32,60.25
		C16.423,60.25,3.75,47.577,3.75,32S16.423,3.75,32,3.75S60.25,16.423,60.25,32S47.577,60.25,32,60.25z"/>
	<path d="M44,30.781c0.69,0,1.25-0.56,1.25-1.25s-0.56-1.25-1.25-1.25h-8.718l8.928-8.929c0.488-0.488,0.488-1.28,0-1.768
		c-0.488-0.488-1.279-0.488-1.768,0L32.306,27.722L22.168,17.585c-0.488-0.488-1.279-0.488-1.768,0s-0.488,1.279,0,1.768
		l8.929,8.929H20c-0.69,0-1.25,0.56-1.25,1.25s0.56,1.25,1.25,1.25h11.056v5.5H20c-0.69,0-1.25,0.56-1.25,1.25s0.56,1.25,1.25,1.25
		h11.056v6.75c0,0.69,0.56,1.25,1.25,1.25s1.25-0.56,1.25-1.25v-6.75H44c0.69,0,1.25-0.56,1.25-1.25s-0.56-1.25-1.25-1.25H33.556
		v-5.5H44z"/>
</g>
</svg>
