<?xml version="1.0" encoding="utf-8"?>
<!-- Generator: Adobe Illustrator 17.0.0, SVG Export Plug-In . SVG Version: 6.00 Build 0)  -->
<!DOCTYPE svg PUBLIC "-//W3C//DTD SVG 1.1//EN" "http://www.w3.org/Graphics/SVG/1.1/DTD/svg11.dtd">
<svg version="1.1" id="图层_1" xmlns="http://www.w3.org/2000/svg" xmlns:xlink="http://www.w3.org/1999/xlink" x="0px" y="0px"
	 width="24px" height="24px" viewBox="0 0 24 24" enable-background="new 0 0 24 24" xml:space="preserve">
<g>
	<path d="M12.348,2.602l10.137,2.106V5.04L12.348,7.036L2.246,5.047L2.21,5.04V4.708L12.348,2.602 M12.348,1.063L0.703,3.482v2.303
		V6.28v7.187L0,18.71h2.658l-0.703-5.243V6.526l10.393,2.046L23.992,6.28V3.482L12.348,1.063L12.348,1.063z"/>
	<path d="M19.129,10.095v9.906l-6.781,1.397l-6.781-1.397v-9.906l6.477,1.335l0.304,0.063l0.304-0.063L19.129,10.095 M20.636,8.246
		l-8.288,1.708L4.059,8.246V21.23l8.288,1.708l8.288-1.708V8.246L20.636,8.246z"/>
</g>
</svg>
