<?xml version="1.0" encoding="utf-8"?>
<!-- Generator: Adobe Illustrator 18.1.1, SVG Export Plug-In . SVG Version: 6.00 Build 0)  -->
<!DOCTYPE svg PUBLIC "-//W3C//DTD SVG 1.1//EN" "http://www.w3.org/Graphics/SVG/1.1/DTD/svg11.dtd">
<svg version="1.1" id="图层_1" xmlns="http://www.w3.org/2000/svg" xmlns:xlink="http://www.w3.org/1999/xlink" x="0px" y="0px"
	 viewBox="0 0 18 18" enable-background="new 0 0 18 18" xml:space="preserve">
<path fill="#070707" d="M15.8,5.6V4.5c0-0.7-0.5-1.1-1.1-1.1h-3.4V2.3c0-0.7-0.5-1.1-1.1-1.1H2.3c-0.7,0-1.1,0.5-1.1,1.1v4.5v9
	c0,0.7,0.5,1.1,1.1,1.1h3.4h1.1h3.4h2.3h3.4c0.7,0,1.1-0.5,1.1-1.1v-9C16.9,6.1,16.4,5.6,15.8,5.6z M2.3,15.8v-9V2.3h7.9v2.3h4.5
	v1.1h-9C5,5.6,4.5,6.1,4.5,6.8v9H2.3z M15.8,15.8h-3.4h-2.3H6.8H5.6v-9h9h1.1V15.8z"/>
</svg>
