<?xml version="1.0" standalone="no"?><!DOCTYPE svg PUBLIC "-//W3C//DTD SVG 1.1//EN" "http://www.w3.org/Graphics/SVG/1.1/DTD/svg11.dtd"><svg width="200" height="200" viewBox="0 0 200 200" version="1.1" xmlns="http://www.w3.org/2000/svg" xmlns:xlink="http://www.w3.org/1999/xlink"><defs><style type="text/css"><![CDATA[
@font-face { font-family: ifont; src: url("http://at.alicdn.com/t/font_1442373896_4754455.eot?#iefix") format("embedded-opentype"), url("http://at.alicdn.com/t/font_1442373896_4754455.woff") format("woff"), url("http://at.alicdn.com/t/font_1442373896_4754455.ttf") format("truetype"), url("http://at.alicdn.com/t/font_1442373896_4754455.svg#ifont") format("svg"); }

]]></style></defs><g class="transform-group"><g transform="scale(0.1953125, 0.1953125)"><path d="M736 812.8c-19.2 0-19.2-51.2-19.2-51.2s57.6-51.2 70.4-121.6c32 0 51.2-76.8 19.2-102.4C806.4 512 844.8 320 640 320 614.4 320 595.2 320 576 326.4L576 192 320 192 320 64 0 64l0 960 256 0 64 0 256 0 448 0C1024 921.6 793.6 825.6 736 812.8zM256 960 64 960 64 128l192 0L256 960zM544 812.8c-6.4 0-19.2 6.4-32 6.4-51.2 19.2-134.4 51.2-192 102.4L320 256l192 0 0 108.8C454.4 422.4 473.6 518.4 473.6 537.6 441.6 563.2 460.8 640 499.2 640c0 19.2 6.4 32 12.8 51.2 19.2 44.8 51.2 76.8 51.2 76.8S563.2 812.8 544 812.8zM128 192l64 0 0 64-64 0 0-64ZM128 320l64 0 0 64-64 0 0-64ZM384 448l64 0 0 64-64 0 0-64ZM384 576l64 0 0 64-64 0 0-64ZM384 704l64 0 0 64-64 0 0-64ZM384 320l64 0 0 64-64 0 0-64ZM128 448l64 0 0 64-64 0 0-64ZM128 576l64 0 0 64-64 0 0-64ZM128 704l64 0 0 64-64 0 0-64ZM128 832l64 0 0 64-64 0 0-64Z" fill="#272636"></path></g></g></svg>