<?xml version="1.0" encoding="utf-8"?>
<!-- Generator: Adobe Illustrator 17.0.0, SVG Export Plug-In . SVG Version: 6.00 Build 0)  -->
<!DOCTYPE svg PUBLIC "-//W3C//DTD SVG 1.1//EN" "http://www.w3.org/Graphics/SVG/1.1/DTD/svg11.dtd">
<svg version="1.1" id="图层_1" xmlns="http://www.w3.org/2000/svg" xmlns:xlink="http://www.w3.org/1999/xlink" x="0px" y="0px"
	 width="12px" height="12px" viewBox="0 0 12 12" enable-background="new 0 0 12 12" xml:space="preserve">
<path fill="#0F0C0C" d="M7.938,6.647c0.913-0.654,1.514-1.758,1.514-3.01C9.452,1.628,7.906,0,6,0C4.094,0,2.549,1.628,2.549,3.638
	c0,1.252,0.6,2.355,1.514,3.01C1.703,7.41,0,9.518,0,12h0.986c0-2.57,2.249-4.662,5.014-4.662S11.014,9.43,11.014,12H12
	C12,9.518,10.297,7.41,7.938,6.647z M3.534,3.638C3.534,2.183,4.641,1,6,1c1.36,0,2.466,1.183,2.466,2.638
	C8.466,5.092,7.36,6.275,6,6.275C4.641,6.275,3.534,5.092,3.534,3.638z"/>
</svg>
