<?xml version="1.0" encoding="utf-8"?>
<!-- Generator: Adobe Illustrator 16.0.0, SVG Export Plug-In . SVG Version: 6.00 Build 0)  -->
<!DOCTYPE svg PUBLIC "-//W3C//DTD SVG 1.1//EN" "http://www.w3.org/Graphics/SVG/1.1/DTD/svg11.dtd">
<svg version="1.1" id="Layer_1" xmlns="http://www.w3.org/2000/svg" xmlns:xlink="http://www.w3.org/1999/xlink" x="0px" y="0px"
	 width="16px" height="16px" viewBox="0.488 0.488 16 16" enable-background="new 0.488 0.488 16 16" xml:space="preserve">
<path d="M8.488,1.489c-3.866,0-7,3.134-7,7c0,3.867,3.134,7,7,7s7-3.133,7-7C15.488,4.623,12.354,1.489,8.488,1.489z M10.076,10.078
	c-2.023,2.025-4.07,2.545-4.618,1.996c-0.476-0.477-1.308-1.057-0.225-1.928c1.083-0.873,1.386-0.443,1.876,0.049
	C7.453,10.537,8.32,9.82,9.07,9.07c0.748-0.75,1.465-1.619,1.122-1.962c-0.491-0.492-0.919-0.795-0.048-1.879
	c0.869-1.084,1.449-0.252,1.925,0.225C12.619,6.004,12.099,8.053,10.076,10.078z"/>
</svg>
