<?xml version="1.0" encoding="utf-8"?>
<!-- Generator: Adobe Illustrator 17.0.0, SVG Export Plug-In . SVG Version: 6.00 Build 0)  -->
<!DOCTYPE svg PUBLIC "-//W3C//DTD SVG 1.1//EN" "http://www.w3.org/Graphics/SVG/1.1/DTD/svg11.dtd">
<svg version="1.1" id="图层_1" xmlns="http://www.w3.org/2000/svg" xmlns:xlink="http://www.w3.org/1999/xlink" x="0px" y="0px"
	 width="24px" height="17px" viewBox="0 0 24 17" enable-background="new 0 0 24 17" xml:space="preserve">
<g>
	<path fill="#D9D9D9" d="M3,3v14h21V3H3L3,3z M23,15l-4-5l-2.9,2.593L13,9l-9,7V4h19V15L23,15z M6,7.792
		c0-1.174,1.007-2.125,2.25-2.125c1.243,0,2.25,0.951,2.25,2.125c0,1.174-1.007,2.125-2.25,2.125C7.007,9.917,6,8.965,6,7.792
		L6,7.792z M21,0H0v14h1V1h20V0z M21,0"/>
</g>
</svg>
