<?xml version="1.0" encoding="utf-8"?>
<!-- Generator: Adobe Illustrator 17.0.0, SVG Export Plug-In . SVG Version: 6.00 Build 0)  -->
<!DOCTYPE svg PUBLIC "-//W3C//DTD SVG 1.1//EN" "http://www.w3.org/Graphics/SVG/1.1/DTD/svg11.dtd">
<svg version="1.1" id="图层_1" xmlns="http://www.w3.org/2000/svg" xmlns:xlink="http://www.w3.org/1999/xlink" x="0px" y="0px"
	 width="18px" height="14.2px" viewBox="0 0 18 14.2" enable-background="new 0 0 18 14.2" xml:space="preserve">
<path fill="#444344" d="M17.876,2.658c-0.099-0.133-0.246-0.221-0.409-0.245l-1.656-0.241l-0.302-1.653
	c-0.062-0.341-0.388-0.565-0.724-0.503L8.721,1.142L4.004,0.455C3.663,0.407,3.348,0.644,3.299,0.987l-0.17,1.191L0.51,2.664
	c-0.163,0.03-0.307,0.124-0.4,0.261C0.016,3.062-0.02,3.231,0.01,3.394L1.89,13.681c0.03,0.163,0.124,0.309,0.259,0.403
	c0.105,0.073,0.228,0.11,0.353,0.11c0.038,0,0.075-0.004,0.113-0.011l8.343-1.547l4.943,0.719c0.03,0.003,0.061,0.006,0.09,0.006
	c0.304,0,0.57-0.225,0.615-0.537l0.182-1.269l0.104-0.019c0.338-0.063,0.561-0.389,0.499-0.73l-0.278-1.52l0.882-6.163
	C18.017,2.958,17.975,2.791,17.876,2.658L17.876,2.658z M16.407,5.43l-0.556,3.881l-0.168,1.175l-0.187,1.309l-0.033,0.231
	l-0.678-0.098l-3.852-0.56L3.23,10.247l1.002-6.999L4.42,1.939l0.022-0.153l0.452,0.065l3.851,0.56l6.005,0.873l1.299,0.188
	l0.624,0.091L16.407,5.43L16.407,5.43z M14.399,1.362l0.113,0.621l-1.94-0.282L14.399,1.362L14.399,1.362z M1.346,3.784l1.595-0.296
	L2.217,8.547L1.346,3.784L1.346,3.784z M3.001,12.838l-0.255-1.395l4.359,0.633L3.001,12.838L3.001,12.838z M7.016,6.177
	C7.669,6.272,8.275,5.815,8.37,5.158c0.094-0.659-0.358-1.269-1.013-1.364C6.704,3.699,6.098,4.156,6.004,4.814
	C5.909,5.472,6.363,6.082,7.016,6.177L7.016,6.177z M14.014,7.017L12.88,8.202l-1.429-2.839L8.734,8.507
	c0,0-3.571-1.448-4.554,1.063l9.218,1.34l1.363,0.198l-0.079-0.436L14.014,7.017L14.014,7.017z M14.014,7.017"/>
</svg>
