<?xml version="1.0" encoding="utf-8"?>
<!-- Generator: Adobe Illustrator 17.0.0, SVG Export Plug-In . SVG Version: 6.00 Build 0)  -->
<!DOCTYPE svg PUBLIC "-//W3C//DTD SVG 1.1//EN" "http://www.w3.org/Graphics/SVG/1.1/DTD/svg11.dtd">
<svg version="1.1" id="图层_1" xmlns="http://www.w3.org/2000/svg" xmlns:xlink="http://www.w3.org/1999/xlink" x="0px" y="0px"
	 width="32px" height="32px" viewBox="0 0 32 32" enable-background="new 0 0 32 32" xml:space="preserve">
<g>
	<path fill="#323333" d="M23.76,7.813c-0.315-0.314-0.938-0.313-1.252,0l-4.733,4.734c-0.164,0.167-0.398,0.265-0.639,0.265
		c-0.03,0-0.143-0.011-0.172-0.017l-9.645-1.83L7.234,11.05l6.839,3.341c0.262,0.126,0.448,0.375,0.496,0.665
		c0.047,0.287-0.047,0.582-0.253,0.788l-3.749,3.75c-0.165,0.167-0.397,0.265-0.636,0.265l-3.226-0.241l-0.08,0.08l3.364,1.324
		c0.231,0.093,0.409,0.268,0.503,0.493l1.49,3.582l0.216-0.216l-0.263-2.999c-0.023-0.267,0.072-0.529,0.262-0.719l3.659-3.658
		c0.169-0.169,0.402-0.265,0.64-0.265c0.025,0,0.116,0.007,0.14,0.011c0.284,0.045,0.532,0.225,0.664,0.48l3.423,6.664l0.129-0.129
		l-1.924-9.562c-0.062-0.296,0.031-0.603,0.246-0.818l4.704-4.704c0.345-0.344,0.346-0.906,0.001-1.251L23.76,7.813z"/>
	<path fill="#323333" d="M16,0C7.163,0,0,7.163,0,16s7.163,16,16,16s16-7.163,16-16S24.837,0,16,0z M24.544,9.849l-4.704,4.703
		l1.983,9.776c0.031,0.154-0.017,0.314-0.128,0.426l-0.764,0.764c-0.106,0.106-0.256,0.155-0.406,0.132
		c-0.148-0.023-0.276-0.116-0.346-0.25l-3.717-7.238l-3.601,3.668l0.293,3.188c0.012,0.139-0.038,0.275-0.136,0.374L12.15,26.26
		c-0.089,0.089-0.209,0.138-0.333,0.138c-0.03,0-0.061-0.003-0.091-0.009c-0.154-0.031-0.283-0.136-0.343-0.281l-1.76-4.23
		L5.611,20.31c-0.147-0.058-0.256-0.187-0.289-0.342c-0.032-0.155,0.016-0.316,0.128-0.429l0.74-0.74
		c0.097-0.097,0.228-0.137,0.368-0.137l3.37,0.255l3.72-3.738l-7.422-3.572c-0.137-0.067-0.232-0.195-0.258-0.345
		c-0.025-0.15,0.024-0.303,0.132-0.411l0.728-0.727c0.11-0.111,0.267-0.157,0.42-0.13l9.892,1.876l4.701-4.724
		c0.664-0.662,1.917-0.663,2.581,0l0.12,0.119C25.256,7.98,25.255,9.138,24.544,9.849z"/>
</g>
</svg>
