<?xml version="1.0" encoding="utf-8"?>
<!-- Generator: Adobe Illustrator 17.0.0, SVG Export Plug-In . SVG Version: 6.00 Build 0)  -->
<!DOCTYPE svg PUBLIC "-//W3C//DTD SVG 1.1//EN" "http://www.w3.org/Graphics/SVG/1.1/DTD/svg11.dtd">
<svg version="1.1" id="Layer_1" xmlns="http://www.w3.org/2000/svg" xmlns:xlink="http://www.w3.org/1999/xlink" x="0px" y="0px"
	 width="18px" height="18px" viewBox="-1 -1 18 18" enable-background="new -1 -1 18 18" xml:space="preserve">
<g>
	<path fill="#231F20" d="M8-1C3.029-1-1,3.029-1,8s4.029,9,9,9c4.971,0,9-4.029,9-9S12.971-1,8-1z M8,16c-4.411,0-8-3.589-8-8
		s3.589-8,8-8c4.411,0,8,3.589,8,8S12.411,16,8,16z"/>
	<path fill="#231F20" d="M11.713,7.212l-0.889-0.517c-1.492-0.867-4.3-2.499-4.481-2.603C5.76,3.755,5,4.207,5,4.862v6.251
		C5,11.61,5.388,12,5.883,12c0.154,0,0.307-0.04,0.442-0.115c0.365-0.205,5.147-2.988,5.392-3.134
		c0.277-0.165,0.442-0.455,0.44-0.774C12.157,7.66,11.991,7.374,11.713,7.212z M6,10.919v-5.87c0.641,0.372,2.999,1.742,4.321,2.511
		l0.729,0.423C10.253,8.449,6.834,10.438,6,10.919z"/>
</g>
</svg>
