<?xml version="1.0" encoding="utf-8"?>
<!-- Generator: Adobe Illustrator 17.0.0, SVG Export Plug-In . SVG Version: 6.00 Build 0)  -->
<!DOCTYPE svg PUBLIC "-//W3C//DTD SVG 1.1//EN" "http://www.w3.org/Graphics/SVG/1.1/DTD/svg11.dtd">
<svg version="1.1" id="图层_1" xmlns="http://www.w3.org/2000/svg" xmlns:xlink="http://www.w3.org/1999/xlink" x="0px" y="0px"
	 width="10px" height="10px" viewBox="0 0 10 10" enable-background="new 0 0 10 10" xml:space="preserve">
<g>
	<polygon points="5.208,2.5 4.792,2.5 4.792,4.792 2.5,4.792 2.5,5.208 4.792,5.208 4.792,7.5 5.208,7.5 5.208,5.208 7.5,5.208 
		7.5,4.792 5.208,4.792 	"/>
	<path d="M5,0C2.239,0,0,2.239,0,5c0,2.761,2.239,5,5,5c2.761,0,5-2.239,5-5C10,2.239,7.761,0,5,0z M5,9.583
		C2.473,9.583,0.417,7.527,0.417,5S2.473,0.417,5,0.417S9.583,2.473,9.583,5S7.527,9.583,5,9.583z"/>
</g>
</svg>
