<?xml version="1.0" encoding="utf-8"?>
<!-- Generator: Adobe Illustrator 18.1.1, SVG Export Plug-In . SVG Version: 6.00 Build 0)  -->
<!DOCTYPE svg PUBLIC "-//W3C//DTD SVG 1.1//EN" "http://www.w3.org/Graphics/SVG/1.1/DTD/svg11.dtd">
<svg version="1.1" id="图层_1" xmlns="http://www.w3.org/2000/svg" xmlns:xlink="http://www.w3.org/1999/xlink" x="0px" y="0px"
	 viewBox="9 -9 32 32" enable-background="new 9 -9 32 32" xml:space="preserve">
<path fill="#040000" d="M25,23c8.8,0,16-7.2,16-16c0-8.8-7.2-16-16-16C16.2-9,9-1.8,9,7C9,15.8,16.2,23,25,23L25,23z M25-7
	c7.7,0,14,6.3,14,14s-6.3,14-14,14S11,14.7,11,7S17.3-7,25-7L25-7z M25-2.7c3.2,0,5.8,2.6,5.8,5.7S28.2,8.7,25,8.7S19.2,6.1,19.2,3
	C19.2-0.2,21.8-2.7,25-2.7L25-2.7z M25,7.1c2.3,0,4.1-1.8,4.1-4.1c0-2.3-1.8-4.1-4.1-4.1c-2.3,0-4.1,1.8-4.1,4.1
	C20.9,5.2,22.7,7.1,25,7.1L25,7.1z M25,7.1c4.6,0,8.3,3.7,8.3,8.2h-1.7c0-3.6-3-6.5-6.6-6.5s-6.6,2.9-6.6,6.5h-1.7
	C16.7,10.7,20.4,7.1,25,7.1L25,7.1z"/>
</svg>
