<?xml version="1.0" encoding="utf-8"?>
<!-- Generator: Adobe Illustrator 17.0.0, SVG Export Plug-In . SVG Version: 6.00 Build 0)  -->
<!DOCTYPE svg PUBLIC "-//W3C//DTD SVG 1.1//EN" "http://www.w3.org/Graphics/SVG/1.1/DTD/svg11.dtd">
<svg version="1.1" id="图层_1" xmlns="http://www.w3.org/2000/svg" xmlns:xlink="http://www.w3.org/1999/xlink" x="0px" y="0px"
	 width="16px" height="16px" viewBox="0 0 16 16" enable-background="new 0 0 16 16" xml:space="preserve">
<path d="M0,0v16h16V0H0z M9.415,2.319l0.639,0.188C9.804,2.94,9.536,3.341,9.251,3.708h3.779v0.574
	c-1.027,2.047-2.947,3.408-5.76,4.084c-0.09-0.191-0.201-0.385-0.334-0.58c2.672-0.625,4.475-1.797,5.408-3.516H8.817
	c-0.055,0.074-0.145,0.184-0.27,0.328C8.497,4.657,8.46,4.7,8.437,4.727c0.414,0.316,0.908,0.717,1.482,1.201L9.415,6.374
	C9.118,6.073,8.663,5.661,8.05,5.137C7.69,5.501,7.407,5.772,7.2,5.952C7.099,5.843,6.935,5.694,6.708,5.507
	C7.88,4.569,8.782,3.507,9.415,2.319z M3.251,3.385c0.781,0.738,1.365,1.311,1.752,1.717L4.499,5.53
	C4.062,5.046,3.493,4.458,2.794,3.766L3.251,3.385z M5.437,5.723V2.366h0.633v6.445H5.437V6.374c-0.84,0.391-1.77,0.854-2.789,1.389
	l-0.24-0.656C3.528,6.634,4.538,6.173,5.437,5.723z M13.212,13.54c-2.695-0.48-4.416-1.521-5.162-3.123
	c-0.422,1.535-2.182,2.623-5.279,3.264c-0.098-0.195-0.219-0.398-0.363-0.609c3.078-0.594,4.779-1.59,5.104-2.988H2.589v-0.58h5.063
	c0.059-0.243,0.1-0.538,0.123-0.885h0.645C8.38,8.997,8.337,9.292,8.29,9.503h5.256v0.58H8.53c0.805,1.547,2.492,2.49,5.063,2.83
	C13.452,13.085,13.325,13.294,13.212,13.54z"/>
</svg>
