<?xml version="1.0" encoding="utf-8"?>
<!DOCTYPE svg PUBLIC "-//W3C//DTD SVG 1.1//EN" "http://www.w3.org/Graphics/SVG/1.1/DTD/svg11.dtd">
<svg version="1.1" id="图形" xmlns="http://www.w3.org/2000/svg" xmlns:xlink="http://www.w3.org/1999/xlink" x="0px" y="0px" width="1024px" height="1024px" viewBox="0 0 1024 1024" enable-background="new 0 0 1024 1024" xml:space="preserve">
  <path fill="#272636" d="M511.999998 812C229.232866 812 0.021487 582.779412 0.021487 300s229.211379-512 511.978511-512 511.978511 229.220588 511.978511 512S794.76713 812 511.999998 812zM793.886063 140.426655c-13.223163-12.342096-35.924187 1.102101-57.744145 31.296797-9.476839-25.566282-21.818935-49.149397-36.144198-70.309322 30.854728-11.019984 50.691519-28.211529 50.691519-47.608298 0-33.500998-59.287291-60.611449-132.457778-60.611449-43.417859 0-81.767282 9.476839-106.010429 24.24417-24.023136-14.767332-62.59257-24.24417-106.010429-24.24417-73.17151 0-132.457778 27.109428-132.457778 60.611449 0 19.174712 19.835767 36.586267 50.691519 47.608298-14.546298 21.158902-26.66736 44.742017-36.144198 70.309322-21.818935-29.974685-44.518936-43.639916-57.744145-31.296797-18.072611 16.97051-11.239995 76.921927 15.647375 133.785006 6.170536 13.004175 12.783141 24.685215 19.614733 34.82311 3.746324 165.30386 112.62201 297.986765 246.180865 297.986765l0.441045 0c133.558855 0 242.434541-132.462894 246.180865-297.986765 6.832615-10.138918 13.444197-21.819958 19.614733-34.82311C804.906048 217.347558 811.958674 157.397165 793.886063 140.426655z" transform="translate(0, 812) scale(1, -1)"/>
</svg>
