<?xml version="1.0" encoding="utf-8"?>
<!-- Generator: Adobe Illustrator 16.0.0, SVG Export Plug-In . SVG Version: 6.00 Build 0)  -->
<!DOCTYPE svg PUBLIC "-//W3C//DTD SVG 1.1//EN" "http://www.w3.org/Graphics/SVG/1.1/DTD/svg11.dtd">
<svg version="1.1" id="图层_1" xmlns="http://www.w3.org/2000/svg" xmlns:xlink="http://www.w3.org/1999/xlink" x="0px" y="0px"
	 width="32px" height="32px" viewBox="0 0 32 32" enable-background="new 0 0 32 32" xml:space="preserve">
<g>
	<g>
		<path fill-rule="evenodd" clip-rule="evenodd" fill="#040000" d="M6.308,10.615h4.308V6.308H6.308V10.615z M17.077,2v12.923H30V2
			H17.077z M27.846,12.77H19.23V4.154h8.615V12.77z M2,30h12.923V17.077H2V30z M4.154,19.23h8.616v8.615H4.154V19.23z
			 M21.385,25.692h4.308v-4.308h-4.308V25.692z M25.692,6.308h-4.308v4.308h4.308V6.308z M2,14.923h12.923V2H2V14.923z M4.154,4.154
			h8.616v8.616H4.154V4.154z M17.077,30H30V17.077H17.077V30z M19.23,19.23h8.615v8.615H19.23V19.23z M6.308,25.692h4.308v-4.308
			H6.308V25.692z"/>
	</g>
</g>
</svg>
