<?xml version="1.0" encoding="utf-8"?>
<!-- Generator: Adobe Illustrator 17.0.0, SVG Export Plug-In . SVG Version: 6.00 Build 0)  -->
<!DOCTYPE svg PUBLIC "-//W3C//DTD SVG 1.1//EN" "http://www.w3.org/Graphics/SVG/1.1/DTD/svg11.dtd">
<svg version="1.1" id="Layer_1" xmlns="http://www.w3.org/2000/svg" xmlns:xlink="http://www.w3.org/1999/xlink" x="0px" y="0px"
	 width="10px" height="10px" viewBox="0 0 10 10" enable-background="new 0 0 10 10" xml:space="preserve">
<path d="M4.934,0C2.172,0.038-0.036,2.306,0,5.067c0.038,2.76,2.306,4.969,5.067,4.932c2.76-0.038,4.97-2.306,4.932-5.067
	C9.962,2.172,7.695-0.036,4.934,0z M4.919,8.043H4.891C4.466,8.03,4.166,7.718,4.177,7.298c0.013-0.412,0.32-0.712,0.732-0.712
	l0.025,0.001C5.37,6.6,5.667,6.911,5.655,7.342C5.642,7.753,5.34,8.043,4.919,8.043z M6.708,4.494
	C6.607,4.636,6.387,4.812,6.111,5.028L5.805,5.239c-0.167,0.13-0.268,0.253-0.306,0.372c-0.03,0.096-0.044,0.12-0.047,0.314
	L5.451,5.973H4.286L4.29,5.875c0.014-0.405,0.024-0.644,0.191-0.84c0.264-0.309,0.846-0.684,0.87-0.699
	c0.083-0.064,0.154-0.135,0.206-0.21c0.122-0.169,0.176-0.302,0.176-0.433c0-0.18-0.054-0.347-0.161-0.496
	C5.471,3.052,5.277,2.98,4.997,2.98c-0.279,0-0.469,0.089-0.583,0.269C4.296,3.437,4.238,3.631,4.238,3.832v0.05H3.037l0.002-0.053
	C3.07,3.093,3.333,2.564,3.82,2.255c0.305-0.197,0.686-0.297,1.129-0.297c0.581,0,1.073,0.141,1.459,0.419
	c0.391,0.282,0.589,0.705,0.589,1.256C6.996,3.942,6.898,4.231,6.708,4.494L6.708,4.494z"/>
</svg>
