<?xml version="1.0" encoding="utf-8"?>
<!-- Generator: Adobe Illustrator 17.0.0, SVG Export Plug-In . SVG Version: 6.00 Build 0)  -->
<!DOCTYPE svg PUBLIC "-//W3C//DTD SVG 1.1//EN" "http://www.w3.org/Graphics/SVG/1.1/DTD/svg11.dtd">
<svg version="1.1" id="图层_1" xmlns="http://www.w3.org/2000/svg" xmlns:xlink="http://www.w3.org/1999/xlink" x="0px" y="0px"
	 width="20px" height="20px" viewBox="0 0 20 20" enable-background="new 0 0 20 20" xml:space="preserve">
<path fill="#1E1A1A" d="M11.562,19.363C11.155,19.787,10.648,20,10.042,20s-1.113-0.213-1.52-0.637
	c-0.408-0.424-0.612-0.941-0.612-1.546c0-0.631,0.203-1.158,0.612-1.584c0.407-0.424,0.914-0.637,1.52-0.637s1.113,0.213,1.52,0.637
	c0.409,0.426,0.612,0.953,0.612,1.584C12.174,18.422,11.97,18.939,11.562,19.363L11.562,19.363z M15.054,7.814
	c-0.443,0.576-0.927,1.094-1.449,1.556c-0.523,0.46-0.995,0.88-1.42,1.257c-0.423,0.377-0.623,0.734-0.603,1.069v0.756
	c0.02,0.377-0.106,0.712-0.379,1.005c-0.271,0.294-0.639,0.451-1.102,0.473c-0.462-0.022-0.834-0.174-1.116-0.455
	c-0.282-0.283-0.423-0.582-0.423-0.897l-0.031-1.196c0.02-0.418,0.136-0.806,0.347-1.163c0.211-0.355,0.473-0.686,0.786-0.989
	c0.311-0.305,0.643-0.598,0.995-0.881c0.352-0.283,0.686-0.567,0.997-0.848c0.311-0.283,0.568-0.578,0.77-0.881
	c0.2-0.304,0.302-0.634,0.302-0.991c0.039-0.712-0.211-1.304-0.756-1.776C11.43,3.38,10.706,3.143,9.801,3.143
	c-0.463,0-0.881,0.116-1.254,0.346c-0.373,0.23-0.689,0.513-0.952,0.85C7.334,4.674,7.128,5.025,6.978,5.392
	C6.826,5.759,6.751,6.069,6.751,6.319c0,0.419-0.15,0.739-0.452,0.959C5.996,7.499,5.664,7.602,5.301,7.593
	C4.94,7.582,4.602,7.451,4.29,7.2C3.979,6.948,3.813,6.549,3.793,6.004c-0.02-0.46,0.07-1.031,0.271-1.714
	c0.202-0.681,0.554-1.341,1.058-1.98c0.502-0.639,1.161-1.185,1.977-1.636c0.815-0.451,1.836-0.676,3.065-0.676
	c0.986,0,1.847,0.152,2.581,0.457c0.736,0.304,1.326,0.747,1.789,1.26c0.463,0.513,0.803,1.092,1.005,1.805
	c0.2,0.714,0.282,1.478,0.241,2.296C15.738,6.571,15.497,7.236,15.054,7.814L15.054,7.814z"/>
</svg>
