<?xml version="1.0" encoding="UTF-8" standalone="no"?>
<svg width="56px" height="58px" viewBox="0 0 56 58" version="1.1" xmlns="http://www.w3.org/2000/svg" xmlns:xlink="http://www.w3.org/1999/xlink">
    <!-- Generator: Sketch 3.8.3 (29802) - http://www.bohemiancoding.com/sketch -->
    <title>Artboard 8</title>
    <desc>Created with Sketch.</desc>
    <defs></defs>
    <g id="Page-1" stroke="none" stroke-width="1" fill="none" fill-rule="evenodd">
        <g id="Artboard-8" transform="translate(-223.000000, -45.000000)" fill="#000000">
            <g id="Group-7-Copy" transform="translate(223.000000, 45.000000)">
                <path d="M20.7586207,18.154484 L20.7586207,30.6975734 C20.7586207,32.0396462 21.8303001,33.1134754 23.1687474,33.1134754 L34.7586206,33.1134752 C35.5584813,33.1134752 36.2068965,33.7580581 36.2068965,34.5531915 C36.2068965,35.3483248 35.5584814,35.9929078 34.7586207,35.9929078 L23.1687474,35.992908 C20.2254134,35.992908 17.8620689,33.6248229 17.8620689,30.6975734 C17.8620689,30.6975734 17.8620689,25.6120818 17.8620689,23.0693359 L17.862069,11.5177305 C17.862069,10.7225971 18.5104842,10.0780142 19.3103448,10.0780142 L38.9012773,10.0780142 C40.71002,10.0780142 42.1755484,11.5246432 42.1755484,13.3173759 L42.1755484,21.2358156 C42.1755484,23.0386292 40.7100535,24.4751773 38.9012773,24.4751773 L20.7586208,24.4751776 C20.7586208,24.4751776 20.7641602,24.4481201 20.7586208,21.5957449 L38.9012773,21.5957447 C39.1193532,21.5957447 39.2789967,21.4392546 39.2789967,21.2358156 L39.2789967,18.2364066 L21.2413793,18.2364066 C21.0721071,18.2364066 20.9096175,18.2075383 20.7586207,18.154484 Z M20.7586208,15.4388966 L20.7586208,12.9574469 L38.9012773,12.9574468 C39.1148534,12.9574468 39.2789967,13.1194733 39.2789967,13.3173759 L39.2789967,15.356974 L21.2413793,15.356974 C21.0721071,15.356974 20.9096175,15.3858423 20.7586208,15.4388966 Z M1.04409485,-2.98015656e-18 C0.467457185,-1.33426154e-18 -3.84040526e-15,0.458213659 -2.81354801e-15,1.04154477 C-2.81354801e-15,1.04154477 3.85469434e-14,23.6113475 3.48165941e-14,37.4326241 C3.26405569e-14,51.2539007 28,57.5886525 28,57.5886525 C28,57.5886525 56,53.5574468 56,37.4326241 L56,1.03527352 C56,0.463507745 55.532697,-1.58506798e-16 54.9559052,-1.56860463e-16 L1.04409485,-2.98015656e-18 Z M40.0738895,31.2264463 L43.4575409,27.8980936 C44.0261034,27.3388231 44.0309405,26.4272578 43.4683449,25.8620556 C42.9057494,25.2968534 41.9887646,25.2920448 41.4202021,25.8513154 L37.6134539,29.5958503 L31.6999106,25.6767881 C31.0343863,25.2357275 30.1351962,25.4145026 29.6915133,26.0760935 C29.2478304,26.7376845 29.4276685,27.6315602 30.0931928,28.0726208 L41.6793997,35.7511078 C42.344924,36.1921685 43.2441141,36.0133933 43.6877969,35.3518024 C44.1314798,34.6902114 43.9516418,33.7963357 43.2861175,33.3552751 L40.0738895,31.2264463 Z M10.137931,24.9550827 L10.137931,37.2345712 C10.137931,40.7918242 13.0355453,43.6713948 16.6190356,43.6713948 L42.4827586,43.6713948 C43.2826193,43.6713948 43.9310345,43.0268119 43.9310345,42.2316785 C43.9310345,41.4365451 43.2826193,40.7919622 42.4827586,40.7919622 L16.6190356,40.7919622 C14.63506,40.7919622 13.0344828,39.2013519 13.0344828,37.2345712 L13.0344828,24.9550827 C13.0344828,24.1599494 12.3860676,23.5153664 11.5862069,23.5153664 C10.7863462,23.5153664 10.137931,24.1599494 10.137931,24.9550827 Z M9.65517241,17.2765957 L9.65517241,19.7804502 C9.65517241,20.5755836 10.3035876,21.2201665 11.1034483,21.2201665 C11.9033089,21.2201665 12.5517241,20.5755836 12.5517241,19.7804502 L12.5517241,17.2765957 C12.5517241,16.4814624 11.9033089,15.8368794 11.1034483,15.8368794 C10.3035876,15.8368794 9.65517241,16.4814624 9.65517241,17.2765957 Z" id="Combined-Shape"></path>
            </g>
        </g>
    </g>
</svg>