<?xml version="1.0" encoding="utf-8"?>
<!-- Generator: Adobe Illustrator 16.0.0, SVG Export Plug-In . SVG Version: 6.00 Build 0)  -->
<!DOCTYPE svg PUBLIC "-//W3C//DTD SVG 1.1//EN" "http://www.w3.org/Graphics/SVG/1.1/DTD/svg11.dtd">
<svg version="1.1" id="图层_1" xmlns="http://www.w3.org/2000/svg" xmlns:xlink="http://www.w3.org/1999/xlink" x="0px" y="0px"
	 width="16px" height="16px" viewBox="0 0 16 16" enable-background="new 0 0 16 16" xml:space="preserve">
<g>
	<path fill="#221F20" d="M4.754,8.664H1.5c-0.276,0-0.5,0.224-0.5,0.5v4.648c0,0.276,0.224,0.5,0.5,0.5h3.254
		c0.276,0,0.5-0.224,0.5-0.5V9.164C5.254,8.888,5.03,8.664,4.754,8.664z M4.254,13.312H2V9.664h2.254V13.312z"/>
	<path fill="#221F20" d="M9.617,1.688H6.363c-0.276,0-0.5,0.224-0.5,0.5v11.625c0,0.276,0.224,0.5,0.5,0.5h3.254
		c0.276,0,0.5-0.224,0.5-0.5V2.188C10.117,1.912,9.894,1.688,9.617,1.688z M9.117,13.312H6.863V2.688h2.254V13.312z"/>
	<path fill="#221F20" d="M14.5,5.874h-3.254c-0.276,0-0.5,0.224-0.5,0.5v7.438c0,0.276,0.224,0.5,0.5,0.5H14.5
		c0.276,0,0.5-0.224,0.5-0.5V6.374C15,6.098,14.776,5.874,14.5,5.874z M14,13.312h-2.254V6.874H14V13.312z"/>
</g>
</svg>
