<?xml version="1.0" encoding="utf-8"?>
<!-- Generator: Adobe Illustrator 18.0.0, SVG Export Plug-In . SVG Version: 6.00 Build 0)  -->
<!DOCTYPE svg PUBLIC "-//W3C//DTD SVG 1.1//EN" "http://www.w3.org/Graphics/SVG/1.1/DTD/svg11.dtd">
<svg version="1.1" id="图层_1" xmlns="http://www.w3.org/2000/svg" xmlns:xlink="http://www.w3.org/1999/xlink" x="0px" y="0px"
	 viewBox="0 0 12 12" enable-background="new 0 0 12 12" xml:space="preserve">
<g>
	<path fill="#272636" d="M8.2,9.1C7.5,9.6,6.7,9.8,6,9.8c-0.1,0-0.2,0-0.3,0c0,0-0.1,0-0.1,0c-0.1,0-0.2,0-0.2,0c0,0-0.1,0-0.1,0
		c-0.1,0-0.2,0-0.2-0.1c0,0-0.1,0-0.1,0c-0.1,0-0.2-0.1-0.3-0.1c0,0,0,0-0.1,0c-0.1,0-0.2-0.1-0.3-0.1c0,0,0,0,0,0
		C3.9,9.2,3.6,8.9,3.3,8.7c0,0,0,0,0,0C3.2,8.6,3.1,8.5,3.1,8.4c0,0,0,0,0-0.1C2.5,7.7,2.2,6.9,2.2,6h1L1.6,3.6L0,6h1
		C1,7,1.3,8,1.9,8.8c0,0,0,0,0,0C2,9,2,9,2.1,9.1c0,0,0,0.1,0.1,0.1c0.1,0.1,0.2,0.2,0.3,0.3c0,0,0,0,0,0c0.3,0.3,0.7,0.6,1.1,0.8
		c0,0,0,0,0,0c0.1,0.1,0.2,0.1,0.4,0.2c0,0,0.1,0,0.1,0c0.1,0,0.2,0.1,0.3,0.1c0.1,0,0.1,0,0.2,0.1c0.1,0,0.2,0.1,0.3,0.1
		c0.1,0,0.1,0,0.2,0c0,0,0.1,0,0.1,0c0.1,0,0.2,0,0.3,0c0,0,0.1,0,0.1,0c0.2,0,0.3,0,0.5,0c1,0,2-0.3,2.9-0.9C9.1,9.9,9.2,9.5,9,9.3
		C8.8,9,8.5,8.9,8.2,9.1 M11,6c0-1-0.3-2-0.9-2.8c0,0,0,0,0,0C10,3,10,2.9,9.9,2.8c0,0,0,0,0,0C9.3,2.2,8.7,1.7,8,1.4c0,0,0,0-0.1,0
		c-0.1,0-0.2-0.1-0.4-0.1c0,0-0.1,0-0.1,0c-0.1,0-0.2-0.1-0.3-0.1c-0.1,0-0.1,0-0.2,0c0,0-0.1,0-0.1,0c-0.1,0-0.2,0-0.2,0
		C6.6,1,6.5,1,6.5,1C6.3,1,6.2,1,6.1,1C6,1,6,1,6,1c0,0,0,0,0,0C5,1,4,1.3,3.1,1.9C2.9,2.1,2.8,2.5,3,2.7C3.2,3,3.5,3.1,3.8,2.9
		C4.5,2.4,5.2,2.2,6,2.2c0.1,0,0.2,0,0.3,0c0,0,0.1,0,0.1,0c0.1,0,0.2,0,0.3,0c0,0,0.1,0,0.1,0c0.1,0,0.2,0,0.3,0.1c0,0,0.1,0,0.1,0
		c0.1,0,0.2,0.1,0.3,0.1c0,0,0,0,0,0c0.6,0.2,1.1,0.6,1.4,1.1c0,0,0,0,0,0C9.5,4.2,9.8,5.1,9.8,6h-1l1.6,2.4L12,6H11L11,6z M11,6"/>
</g>
</svg>
