<?xml version="1.0" encoding="utf-8"?>
<!-- Generator: Adobe Illustrator 17.0.0, SVG Export Plug-In . SVG Version: 6.00 Build 0)  -->
<!DOCTYPE svg PUBLIC "-//W3C//DTD SVG 1.1//EN" "http://www.w3.org/Graphics/SVG/1.1/DTD/svg11.dtd">
<svg version="1.1" id="图层_1" xmlns="http://www.w3.org/2000/svg" xmlns:xlink="http://www.w3.org/1999/xlink" x="0px" y="0px"
	 width="18px" height="18px" viewBox="0 0 18 18" enable-background="new 0 0 18 18" xml:space="preserve">
<g>
	<path fill="#323333" d="M18,6.747h-6.752l2.523-2.522C12.496,2.951,10.802,2.25,9,2.25c-1.802,0-3.498,0.701-4.772,1.976
		S2.25,7.196,2.25,8.998c0,1.801,0.701,3.497,1.977,4.772C5.502,15.042,7.196,15.745,9,15.745c1.804,0,3.497-0.702,4.773-1.977
		c0.108-0.105,0.21-0.215,0.309-0.327l1.691,1.481c-1.648,1.884-4.07,3.074-6.772,3.074c-4.972,0-9-4.028-9-8.998
		C0,4.028,4.028,0,9,0c2.485,0,4.735,1.006,6.364,2.637L18,0V6.747L18,6.747L18,6.747L18,6.747z"/>
</g>
</svg>
