<?xml version="1.0" encoding="utf-8"?>
<!DOCTYPE svg PUBLIC "-//W3C//DTD SVG 1.1//EN" "http://www.w3.org/Graphics/SVG/1.1/DTD/svg11.dtd">
<svg version="1.1" id="图形" xmlns="http://www.w3.org/2000/svg" xmlns:xlink="http://www.w3.org/1999/xlink" x="0px" y="0px" width="1037px" height="1024px" viewBox="0 0 1037 1024" enable-background="new 0 0 1037 1024" xml:space="preserve">
  <path fill="#272636" d="M518.467368 812C231.747368 812 0 582.408421 0 300 0 17.591579 231.747368-212 518.467368-212s518.467368 229.591579 518.467368 512C1036.934737 582.408421 805.187368 812 518.467368 812zM50.661053 290.298947c0 128.269474 87.309474 234.981053 206.955789 257.616842l0-109.945263c0-125.035789-57.128421-218.812632-172.463158-280.252632C62.517895 196.522105 50.661053 241.793684 50.661053 290.298947zM305.044211 29.448421c-66.829474 0-126.113684 26.947368-171.385263 68.985263 79.764211 48.505263 140.126316 115.334737 173.541053 198.332632 36.648421-87.309474 89.465263-156.294737 165.995789-201.566316C429.002105 54.24 369.717895 29.448421 305.044211 29.448421zM527.090526 165.263158c20.48 36.648421 32.336842 79.764211 32.336842 126.113684 0 52.816842-15.090526 101.322105-42.037895 141.204211-26.947368-39.882105-40.96-89.465263-40.96-141.204211 0-40.96 9.701053-79.764211 25.869474-113.178947-95.932632 50.661053-145.515789 140.126316-165.995789 264.084211l0 11.856842c0 5.389474 3.233684 78.686316 4.311579 95.932632 73.296842-10.778947 133.658947-53.894737 172.463158-115.334737 40.96 63.595789 102.4 107.789474 182.164211 116.412632l0-108.867368c-20.48-123.957895-59.284211-215.578947-169.229474-278.096842C526.012632 164.185263 528.168421 164.185263 527.090526 165.263158zM728.656842 29.448421c-64.673684 0-123.957895 25.869474-169.229474 66.829474 85.153684 51.738947 143.36 120.724211 181.086316 206.955789 33.414737-86.231579 88.387368-154.138947 161.684211-202.644211C856.926316 56.395789 796.564211 29.448421 728.656842 29.448421zM796.564211 444.437895l0 103.477895c100.244211-23.713684 200.488421-129.347368 200.488421-256.538947 0-42.037895-15.090526-81.92-32.336842-117.490526C856.926316 224.547368 796.564211 312.934737 796.564211 444.437895z" transform="translate(0, 812) scale(1, -1)"/>
</svg>
