<?xml version="1.0" encoding="utf-8"?>
<!-- Generator: Adobe Illustrator 17.0.0, SVG Export Plug-In . SVG Version: 6.00 Build 0)  -->
<!DOCTYPE svg PUBLIC "-//W3C//DTD SVG 1.1//EN" "http://www.w3.org/Graphics/SVG/1.1/DTD/svg11.dtd">
<svg version="1.1" id="图层_1" xmlns="http://www.w3.org/2000/svg" xmlns:xlink="http://www.w3.org/1999/xlink" x="0px" y="0px"
	 width="10px" height="10px" viewBox="0 0 10 10" enable-background="new 0 0 10 10" xml:space="preserve">
<g>
	<path d="M5,0C2.239,0,0,2.239,0,5c0,2.762,2.239,5,5,5s5-2.239,5-5C10,2.239,7.761,0,5,0z M5,9.286
		C2.637,9.286,0.714,7.363,0.714,5c0-2.363,1.923-4.286,4.286-4.286S9.286,2.637,9.286,5C9.286,7.363,7.363,9.286,5,9.286z M6.841,2
		L5,3.955L3.159,2L2.667,2.522l1.706,1.811H3V5h1.667v1H3v0.667h1.667v1.667h0.667V6.667H7V6H5.333V5H7V4.333H5.628l1.706-1.811
		L6.841,2z"/>
</g>
</svg>
