<?xml version="1.0" encoding="utf-8"?>
<!-- Generator: Adobe Illustrator 17.0.0, SVG Export Plug-In . SVG Version: 6.00 Build 0)  -->
<!DOCTYPE svg PUBLIC "-//W3C//DTD SVG 1.1//EN" "http://www.w3.org/Graphics/SVG/1.1/DTD/svg11.dtd">
<svg version="1.1" id="图层_1" xmlns="http://www.w3.org/2000/svg" xmlns:xlink="http://www.w3.org/1999/xlink" x="0px" y="0px"
	 width="10px" height="10px" viewBox="0 0 10 10" enable-background="new 0 0 10 10" xml:space="preserve">
<path d="M8.613,6.366H5.579V4.594h3.033c0.289,0,0.523-0.234,0.523-0.523c0-0.289-0.234-0.523-0.523-0.523H6.144l2.73-2.648
	c0.207-0.201,0.212-0.533,0.011-0.74c-0.201-0.207-0.532-0.212-0.74-0.011l-3.13,3.037L2.133,0.163
	c-0.2-0.209-0.531-0.217-0.74-0.017c-0.209,0.2-0.217,0.531-0.018,0.74l2.539,2.662H1.387c-0.289,0-0.523,0.234-0.523,0.523
	c0,0.289,0.234,0.523,0.523,0.523h3.145v1.772H1.404c-0.289,0-0.523,0.234-0.523,0.523c0,0.289,0.234,0.523,0.523,0.523h3.128v2.063
	C4.533,9.766,4.767,10,5.056,10c0.289,0,0.523-0.234,0.523-0.523V7.413h3.033c0.289,0,0.523-0.234,0.523-0.523
	C9.136,6.601,8.902,6.366,8.613,6.366z"/>
</svg>
