<?xml version="1.0" encoding="UTF-8" standalone="no"?>
<svg width="56px" height="59px" viewBox="0 0 56 59" version="1.1" xmlns="http://www.w3.org/2000/svg" xmlns:xlink="http://www.w3.org/1999/xlink">
    <!-- Generator: Sketch 3.8.3 (29802) - http://www.bohemiancoding.com/sketch -->
    <title>Combined Shape</title>
    <desc>Created with Sketch.</desc>
    <defs></defs>
    <g id="Page-1" stroke="none" stroke-width="1" fill="none" fill-rule="evenodd">
        <g id="Artboard-8" transform="translate(-41.000000, -45.000000)" fill="#000000">
            <path d="M65.4985142,66.8392435 L57.5454545,66.8392435 C56.7455939,66.8392435 56.0971787,67.4838264 56.0971787,68.2789598 C56.0971787,69.0740932 56.7455939,69.7186761 57.5454545,69.7186761 L67.5517241,69.7186761 L67.5517241,74.5177305 L57.5454545,74.5177305 C56.7455939,74.5177305 56.0971787,75.1623134 56.0971787,75.9574468 C56.0971787,76.7525802 56.7455939,77.3971631 57.5454545,77.3971631 L67.5517241,77.3971631 L67.5517241,86.9952719 C67.5517241,87.7904052 68.2001393,88.4349882 69,88.4349882 C69.7998607,88.4349882 70.4482759,87.7904052 70.4482759,86.9952719 L70.4482759,77.3971631 L80.4545455,77.3971631 C81.2544061,77.3971631 81.9028213,76.7525802 81.9028213,75.9574468 C81.9028213,75.1623134 81.2544061,74.5177305 80.4545455,74.5177305 L70.4482759,74.5177305 L70.4482759,69.7186761 L80.4545455,69.7186761 C81.2544061,69.7186761 81.9028213,69.0740932 81.9028213,68.2789598 C81.9028213,67.4838264 81.2544061,66.8392435 80.4545455,66.8392435 L72.5014858,66.8392435 L78.9277603,60.5179929 C79.4963228,59.9587223 79.50116,59.0471571 78.9385644,58.4819549 C78.3759688,57.9167527 77.458984,57.9119441 76.8904215,58.4712147 C76.8904215,58.4712147 69.3493358,66.5763105 69.014669,66.2471131 C66.3796388,63.6551469 61.1095785,58.4712147 61.1095785,58.4712147 C60.541016,57.9119441 59.6240312,57.9167527 59.0614356,58.4819549 C58.49884,59.0471571 58.5036772,59.9587223 59.0722397,60.5179929 L65.4985142,66.8392435 Z M42.0440948,45.7234043 L95.9559052,45.7234043 C96.532697,45.7234043 97,46.186912 97,46.7586778 L97,83.1560284 C97,99.2808511 69,103.312057 69,103.312057 C69,103.312057 41,96.977305 41,83.1560284 C41,69.3347518 41,46.764949 41,46.764949 C41,46.1816179 41.4674572,45.7234043 42.0440948,45.7234043 Z" id="Combined-Shape"></path>
        </g>
    </g>
</svg>