<?xml version="1.0" encoding="UTF-8" standalone="no"?>
<svg width="74px" height="19px" viewBox="0 0 74 19" version="1.1" xmlns="http://www.w3.org/2000/svg" xmlns:xlink="http://www.w3.org/1999/xlink">
    <!-- Generator: Sketch 3.8.3 (29802) - http://www.bohemiancoding.com/sketch -->
    <title>资金安全</title>
    <desc>Created with Sketch.</desc>
    <defs></defs>
    <g id="Page-1" stroke="none" stroke-width="1" fill="none" fill-rule="evenodd">
        <g id="Artboard-1" transform="translate(-92.000000, -71.000000)" fill="#000000">
            <g id="资金安全" transform="translate(92.000000, 71.000000)">
                <path d="M1,0.994771168 L1,0.994771168 L1,18.0052288 C1,18.0006063 0.999398863,18 0.990129262,18 L73.0098707,18 C72.9983449,18 73,17.9983487 73,18.0052288 L73,0.994771168 C73,0.999393717 73.0006011,1 73.0098707,1 L0.990129262,1 C1.00165514,1 1,1.0016513 1,0.994771168 L1,0.994771168 Z M0,0.994771168 C0,0.445374222 0.453369457,0 0.990129262,0 L73.0098707,0 C73.556704,0 74,0.450925395 74,0.994771168 L74,18.0052288 C74,18.5546258 73.5466305,19 73.0098707,19 L0.990129262,19 C0.44329597,19 0,18.5490746 0,18.0052288 L0,0.994771168 L0,0.994771168 Z" id="Rectangle-1-Copy-7"></path>
                <path d="M0,0.994771168 C0,0.445374222 0.450925395,0 0.994771168,0 L19,0 L19,19 L0.994771168,19 C0.445374222,19 0,18.5490746 0,18.0052288 L0,0.994771168 Z M4.416,4.448 C5.16800376,4.6880012 5.83199712,4.9679984 6.408,5.288 L5.952,5.984 C5.32799688,5.61599816 4.6760034,5.32000112 3.996,5.096 L4.416,4.448 Z M9.132,4.268 C9.00399936,4.62000176 8.9000004,4.8759992 8.82,5.036 L13.656,5.036 L13.656,5.552 C13.5119993,6.152003 13.3200012,6.73599716 13.08,7.304 L12.252,7.052 C12.444001,6.69999824 12.6159992,6.28000244 12.768,5.792 L10.728,5.792 C10.6799998,6.08000144 10.6080005,6.3439988 10.512,6.584 C11.1360031,7.5040046 12.3719908,8.13999824 14.22,8.492 L13.908,9.26 C12.1479912,8.8999982 10.9000037,8.24400476 10.164,7.292 C10.0119992,7.52400116 9.85200084,7.72799912 9.684,7.904 C9.083997,8.4640028 8.12000664,8.89999844 6.792,9.212 L6.468,8.444 C7.65200592,8.18799872 8.5039974,7.83600224 9.024,7.388 C9.4640022,6.97999796 9.75599928,6.44800328 9.9,5.792 L8.364,5.792 C8.02799832,6.22400216 7.63200228,6.6199982 7.176,6.98 L6.672,6.308 C7.44800388,5.73999716 7.98399852,5.02400432 8.28,4.16 L9.132,4.268 Z M12.84,9.536 L12.84,13.1 L11.976,13.1 L11.976,10.34 L5.988,10.34 L5.988,13.196 L5.124,13.196 L5.124,9.536 L12.84,9.536 Z M9.504,10.868 C9.33599916,12.3880076 8.9720028,13.4119974 8.412,13.94 C7.77999684,14.5960033 6.38801076,15.0079992 4.236,15.176 L3.9,14.408 C5.81200956,14.2959994 7.07199696,13.9680027 7.68,13.424 C8.22400272,12.9039974 8.54399952,12.0280062 8.64,10.796 L9.504,10.868 Z M6.588,7.292 C5.987997,7.91600312 5.24400444,8.50399724 4.356,9.056 L3.78,8.384 C4.68400452,7.87199744 5.45199684,7.31200304 6.084,6.704 L6.588,7.292 Z M9.78,13.064 C11.3320078,13.472002 12.7519936,13.9639971 14.04,14.54 L13.572,15.26 C12.1879931,14.6039967 10.7760072,14.0920018 9.336,13.724 L9.78,13.064 Z" id="Combined-Shape"></path>
                <path d="M23.636,4.348 C24.3880038,4.5880012 25.0519971,4.8679984 25.628,5.188 L25.172,5.884 C24.5479969,5.51599816 23.8960034,5.22000112 23.216,4.996 L23.636,4.348 Z M28.352,4.168 C28.2239994,4.52000176 28.1200004,4.7759992 28.04,4.936 L32.876,4.936 L32.876,5.452 C32.7319993,6.052003 32.5400012,6.63599716 32.3,7.204 L31.472,6.952 C31.664001,6.59999824 31.8359992,6.18000244 31.988,5.692 L29.948,5.692 C29.8999998,5.98000144 29.8280005,6.2439988 29.732,6.484 C30.3560031,7.4040046 31.5919908,8.03999824 33.44,8.392 L33.128,9.16 C31.3679912,8.7999982 30.1200037,8.14400476 29.384,7.192 C29.2319992,7.42400116 29.0720008,7.62799912 28.904,7.804 C28.303997,8.3640028 27.3400066,8.79999844 26.012,9.112 L25.688,8.344 C26.8720059,8.08799872 27.7239974,7.73600224 28.244,7.288 C28.6840022,6.87999796 28.9759993,6.34800328 29.12,5.692 L27.584,5.692 C27.2479983,6.12400216 26.8520023,6.5199982 26.396,6.88 L25.892,6.208 C26.6680039,5.63999716 27.2039985,4.92400432 27.5,4.06 L28.352,4.168 Z M32.06,9.436 L32.06,13 L31.196,13 L31.196,10.24 L25.208,10.24 L25.208,13.096 L24.344,13.096 L24.344,9.436 L32.06,9.436 Z M28.724,10.768 C28.5559992,12.2880076 28.1920028,13.3119974 27.632,13.84 C26.9999968,14.4960033 25.6080108,14.9079992 23.456,15.076 L23.12,14.308 C25.0320096,14.1959994 26.291997,13.8680027 26.9,13.324 C27.4440027,12.8039974 27.7639995,11.9280062 27.86,10.696 L28.724,10.768 Z M25.808,7.192 C25.207997,7.81600312 24.4640044,8.40399724 23.576,8.956 L23,8.284 C23.9040045,7.77199744 24.6719968,7.21200304 25.304,6.604 L25.808,7.192 Z M29,12.964 C30.5520078,13.372002 31.9719936,13.8639971 33.26,14.44 L32.792,15.16 C31.4079931,14.5039967 29.9960072,13.9920018 28.556,13.624 L29,12.964 Z M37.076,7.528 C36.467997,7.89600184 35.868003,8.21599864 35.276,8.488 L34.772,7.768 C36.8680105,6.83199532 38.5719934,5.64000724 39.884,4.192 L40.58,4.192 C41.7240057,5.61600712 43.4159888,6.79599532 45.656,7.732 L45.164,8.452 C44.563997,8.20399876 43.9720029,7.90800172 43.388,7.564 L43.388,8.224 L40.664,8.224 L40.664,9.952 L44.936,9.952 L44.936,10.756 L40.664,10.756 L40.664,13.96 L41.996,13.96 C42.404002,13.1759961 42.7639984,12.3360045 43.076,11.44 L43.868,11.716 C43.5639985,12.5560042 43.2320018,13.3039967 42.872,13.96 L45.356,13.96 L45.356,14.788 L35.096,14.788 L35.096,13.96 L37.58,13.96 C37.3399988,13.2239963 37.020002,12.5080035 36.62,11.812 L37.4,11.524 C37.7600018,12.1720032 38.0999984,12.9839951 38.42,13.96 L39.8,13.96 L39.8,10.756 L35.516,10.756 L35.516,9.952 L39.8,9.952 L39.8,8.224 L37.076,8.224 L37.076,7.528 Z M43.184,7.444 C42.0159942,6.75599656 41.032004,5.94400468 40.232,5.008 C39.3199954,5.95200472 38.3120055,6.7639966 37.208,7.444 L43.184,7.444 Z M57.2,5.272 L57.2,7.852 L56.312,7.852 L56.312,6.112 L48.116,6.112 L48.116,7.84 L47.228,7.84 L47.228,5.272 L51.788,5.272 C51.6199992,4.871998 51.436001,4.50400168 51.236,4.168 L52.196,4 C52.396001,4.39200196 52.5759992,4.81599772 52.736,5.272 L57.2,5.272 Z M46.94,8.608 L50.3,8.608 C50.7320022,7.81599604 51.0759987,7.16400256 51.332,6.652 L52.22,6.916 C51.9079984,7.516003 51.6080014,8.07999736 51.32,8.608 L57.524,8.608 L57.524,9.448 L55.16,9.448 C54.6719976,10.7040063 54.1080032,11.7079962 53.468,12.46 C54.7240063,12.9960027 55.9799937,13.6199964 57.236,14.332 L56.66,15.088 C55.3239933,14.3119961 54.052006,13.6480028 52.844,13.096 C51.5079933,14.288006 49.7240112,14.9199996 47.492,14.992 L46.988,14.188 C49.0360102,14.1719999 50.6959936,13.6800048 51.968,12.712 C50.8239943,12.2239976 49.7040055,11.8040018 48.608,11.452 C49.016002,10.8199968 49.423998,10.1520035 49.832,9.448 L46.94,9.448 L46.94,8.608 Z M50.852,9.448 C50.4919982,10.0720031 50.1560016,10.6239976 49.844,11.104 C50.7080043,11.3520012 51.635995,11.6839979 52.628,12.1 C53.2760032,11.3959965 53.803998,10.5120053 54.212,9.448 L50.852,9.448 Z M64.532,4.132 C66.0280075,5.70000784 67.7679901,6.9439954 69.752,7.864 L69.32,8.632 C67.3359901,7.6719952 65.6360071,6.4320076 64.22,4.912 C62.9159935,6.36000724 61.2000106,7.61999464 59.072,8.692 L58.652,7.936 C60.7560105,6.91999492 62.507993,5.6520076 63.908,4.132 L64.532,4.132 Z M60.872,7.924 L67.568,7.924 L67.568,8.752 L64.664,8.752 L64.664,10.84 L68.132,10.84 L68.132,11.668 L64.664,11.668 L64.664,13.888 L69.224,13.888 L69.224,14.74 L59.228,14.74 L59.228,13.888 L63.776,13.888 L63.776,11.668 L60.296,11.668 L60.296,10.84 L63.776,10.84 L63.776,8.752 L60.872,8.752 L60.872,7.924 Z" id="资金安全-copy"></path>
            </g>
        </g>
    </g>
</svg>