<?xml version="1.0" encoding="utf-8"?>
<!-- Generator: Adobe Illustrator 17.0.0, SVG Export Plug-In . SVG Version: 6.00 Build 0)  -->
<!DOCTYPE svg PUBLIC "-//W3C//DTD SVG 1.1//EN" "http://www.w3.org/Graphics/SVG/1.1/DTD/svg11.dtd">
<svg version="1.1" id="图层_1" xmlns="http://www.w3.org/2000/svg" xmlns:xlink="http://www.w3.org/1999/xlink" x="0px" y="0px"
	 width="64px" height="64px" viewBox="0 0 64 64" enable-background="new 0 0 64 64" xml:space="preserve">
<g>
	<path fill="#231F20" d="M39.898,37.277c1.493-2.029,2.387-4.525,2.387-7.231c0-6.75-5.491-12.241-12.24-12.241
		c-6.749,0-12.24,5.492-12.24,12.241c0,6.749,5.491,12.241,12.24,12.241c2.706,0,5.202-0.894,7.231-2.387l5.753,5.754
		c0.362,0.362,0.836,0.543,1.311,0.543c0.475,0,0.949-0.181,1.311-0.543c0.724-0.724,0.724-1.898,0-2.622L39.898,37.277z
		 M20.818,30.045c0-5.088,4.139-9.228,9.227-9.228c5.088,0,9.227,4.139,9.227,9.228c0,5.088-4.139,9.227-9.227,9.227
		C24.958,39.273,20.818,35.133,20.818,30.045z"/>
	<path fill="#231F20" d="M32,2.25C15.596,2.25,2.25,15.596,2.25,32S15.596,61.75,32,61.75S61.75,48.404,61.75,32
		S48.404,2.25,32,2.25z M32,60.25C16.423,60.25,3.75,47.577,3.75,32S16.423,3.75,32,3.75S60.25,16.423,60.25,32
		S47.577,60.25,32,60.25z"/>
</g>
</svg>
