<?xml version="1.0" encoding="utf-8"?>
<!-- Generator: Adobe Illustrator 18.1.1, SVG Export Plug-In . SVG Version: 6.00 Build 0)  -->
<!DOCTYPE svg PUBLIC "-//W3C//DTD SVG 1.1//EN" "http://www.w3.org/Graphics/SVG/1.1/DTD/svg11.dtd">
<svg version="1.1" id="图层_1" xmlns="http://www.w3.org/2000/svg" xmlns:xlink="http://www.w3.org/1999/xlink" x="0px" y="0px"
	 viewBox="0 0 14 14" enable-background="new 0 0 14 14" xml:space="preserve">
<g>
	<path fill="#272636" d="M6.8,2.6H5.6v2.6H2.9v1.3h2.6v2.6h1.2V6.5h2.7V5.2H6.8V2.6z M13.4,12.4l-2.7-2.7c0.9-1,1.4-2.4,1.4-3.9
		C12.1,2.6,9.5,0,6.2,0S0.3,2.6,0.3,5.9s2.6,5.9,5.9,5.9c1.1,0,2.2-0.3,3.1-0.9l2.8,2.8c0,0,0.7,0.7,1.3,0
		C14,13.1,13.4,12.4,13.4,12.4L13.4,12.4z M1.6,5.9c0-2.5,2.1-4.6,4.6-4.6s4.6,2.1,4.6,4.6s-2.1,4.6-4.6,4.6S1.6,8.5,1.6,5.9
		L1.6,5.9z M1.6,5.9"/>
</g>
</svg>
