<?xml version="1.0" encoding="utf-8"?>
<!-- Generator: Adobe Illustrator 17.0.0, SVG Export Plug-In . SVG Version: 6.00 Build 0)  -->
<!DOCTYPE svg PUBLIC "-//W3C//DTD SVG 1.1//EN" "http://www.w3.org/Graphics/SVG/1.1/DTD/svg11.dtd">
<svg version="1.1" id="图层_1" xmlns="http://www.w3.org/2000/svg" xmlns:xlink="http://www.w3.org/1999/xlink" x="0px" y="0px"
	 width="12px" height="12px" viewBox="0 0 12 12" enable-background="new 0 0 12 12" xml:space="preserve">
<image overflow="visible" width="12" height="12" xlink:href="892301070FF9B642.jpg"  transform="matrix(1 0 0 1 0 0.0049)">
</image>
<path fill="#232323" d="M12.009,4.498H7.502l1.684-1.681C8.335,1.967,7.204,1.5,6.001,1.5S3.666,1.967,2.815,2.817
	c-0.851,0.85-1.32,1.98-1.32,3.181s0.468,2.331,1.32,3.181c0.851,0.848,1.982,1.317,3.186,1.317s2.334-0.468,3.186-1.318
	c0.072-0.07,0.14-0.143,0.206-0.218l1.129,0.987c-1.1,1.256-2.717,2.049-4.521,2.049c-3.319,0-6.008-2.685-6.008-5.998
	S2.682,0,6.001,0c1.659,0,3.161,0.671,4.248,1.758L12.009,0V4.498L12.009,4.498L12.009,4.498L12.009,4.498z"/>
</svg>
