<?xml version="1.0" encoding="utf-8"?>
<!-- Generator: Adobe Illustrator 17.0.0, SVG Export Plug-In . SVG Version: 6.00 Build 0)  -->
<!DOCTYPE svg PUBLIC "-//W3C//DTD SVG 1.1//EN" "http://www.w3.org/Graphics/SVG/1.1/DTD/svg11.dtd">
<svg version="1.1" id="图层_1" xmlns="http://www.w3.org/2000/svg" xmlns:xlink="http://www.w3.org/1999/xlink" x="0px" y="0px"
	 width="16px" height="16px" viewBox="0 0 16 16" enable-background="new 0 0 16 16" xml:space="preserve">
<path d="M15.25,6.4h-1.882c-0.111-0.372-0.259-0.729-0.441-1.064l1.331-1.331c0.293-0.293,0.293-0.768,0-1.061l-1.202-1.202
	c-0.293-0.293-0.768-0.293-1.061,0l-1.331,1.331C10.329,2.891,9.972,2.743,9.6,2.632V0.75C9.6,0.336,9.264,0,8.85,0h-1.7
	C6.736,0,6.4,0.336,6.4,0.75v1.882C6.028,2.743,5.671,2.891,5.336,3.073L4.005,1.742c-0.293-0.293-0.768-0.293-1.06,0L1.742,2.944
	c-0.293,0.293-0.293,0.768,0,1.061l1.331,1.331C2.891,5.671,2.743,6.028,2.632,6.4H0.75C0.336,6.4,0,6.736,0,7.15v1.7
	C0,9.264,0.336,9.6,0.75,9.6h1.882c0.111,0.372,0.259,0.729,0.441,1.064l-1.331,1.331c-0.293,0.293-0.293,0.768,0,1.061l1.202,1.202
	c0.293,0.293,0.767,0.293,1.06,0l1.331-1.331c0.336,0.182,0.692,0.33,1.064,0.441v1.882C6.4,15.664,6.736,16,7.15,16h1.7
	c0.414,0,0.75-0.336,0.75-0.75v-1.882c0.372-0.111,0.729-0.259,1.064-0.441l1.331,1.331c0.293,0.293,0.768,0.293,1.061,0
	l1.202-1.202c0.293-0.293,0.293-0.768,0-1.061l-1.331-1.331c0.182-0.335,0.33-0.692,0.441-1.064h1.882C15.664,9.6,16,9.264,16,8.85
	v-1.7C16,6.736,15.664,6.4,15.25,6.4L15.25,6.4z M8,11.2c-1.768,0-3.2-1.433-3.2-3.2c0-1.767,1.432-3.2,3.2-3.2
	c1.767,0,3.2,1.433,3.2,3.2C11.2,9.767,9.767,11.2,8,11.2L8,11.2z M8,11.2"/>
</svg>
