<?xml version="1.0" encoding="utf-8"?>
<!-- Generator: Adobe Illustrator 17.0.0, SVG Export Plug-In . SVG Version: 6.00 Build 0)  -->
<!DOCTYPE svg PUBLIC "-//W3C//DTD SVG 1.1//EN" "http://www.w3.org/Graphics/SVG/1.1/DTD/svg11.dtd">
<svg version="1.1" id="图层_1" xmlns="http://www.w3.org/2000/svg" xmlns:xlink="http://www.w3.org/1999/xlink" x="0px" y="0px"
	 width="16px" height="16px" viewBox="0 0 16 16" enable-background="new 0 0 16 16" xml:space="preserve">
<g>
	<path d="M14.125,6.417h-0.993c-0.098-0.319-0.227-0.629-0.384-0.926l0.703-0.703c0.188-0.189,0.293-0.44,0.293-0.707
		s-0.104-0.518-0.293-0.707L12.625,2.55c-0.362-0.362-1.052-0.362-1.414,0l-0.702,0.703c-0.296-0.156-0.606-0.285-0.926-0.383V1.876
		c0-0.551-0.448-1-1-1H7.417c-0.551,0-1,0.449-1,1v0.993C6.098,2.967,5.788,3.096,5.491,3.252L4.789,2.55
		c-0.362-0.362-1.052-0.361-1.414,0L2.55,3.375c-0.39,0.39-0.39,1.024,0,1.414l0.702,0.703C3.095,5.787,2.966,6.098,2.868,6.417
		H1.875c-0.267,0-0.518,0.104-0.708,0.293C0.979,6.899,0.875,7.15,0.875,7.417v1.167c0,0.552,0.449,1,1,1h0.993
		c0.098,0.318,0.227,0.629,0.384,0.926l-0.703,0.702C2.36,11.4,2.256,11.652,2.256,11.92s0.104,0.519,0.293,0.707l0.825,0.825
		c0.361,0.359,1.053,0.359,1.414,0l0.703-0.703c0.294,0.156,0.604,0.284,0.926,0.384v0.993c0,0.552,0.449,1,1,1h1.167
		c0.55,0,1-0.448,1-1v-0.993c0.322-0.1,0.633-0.229,0.925-0.384l0.703,0.703c0.36,0.359,1.05,0.36,1.414,0l0.825-0.825
		c0.389-0.39,0.389-1.024,0-1.415l-0.703-0.702c0.155-0.293,0.284-0.604,0.384-0.926h0.993c0.268,0,0.519-0.104,0.708-0.293
		c0.188-0.189,0.292-0.44,0.292-0.707V7.417C15.125,6.866,14.677,6.417,14.125,6.417z M12.41,9.069
		c-0.11,0.455-0.291,0.891-0.536,1.293c-0.101,0.164-0.076,0.374,0.061,0.513l0.927,0.926c0.064,0.065,0.065,0.171,0,0.235
		l-0.825,0.826c-0.057,0.057-0.179,0.058-0.235-0.001l-0.927-0.927c-0.133-0.132-0.352-0.159-0.513-0.061
		c-0.401,0.246-0.837,0.427-1.293,0.537c-0.188,0.045-0.318,0.211-0.318,0.404v1.311c0,0.092-0.075,0.167-0.167,0.167H7.417
		c-0.092,0-0.167-0.075-0.167-0.167v-1.311c0-0.193-0.131-0.36-0.319-0.404c-0.457-0.11-0.892-0.291-1.294-0.538
		c-0.066-0.039-0.141-0.061-0.216-0.061c-0.111,0-0.216,0.044-0.294,0.123L4.2,12.862c-0.059,0.059-0.179,0.059-0.236,0
		l-0.826-0.825c-0.03-0.03-0.048-0.074-0.048-0.117s0.018-0.087,0.049-0.118l0.927-0.928c0.136-0.137,0.161-0.347,0.061-0.512
		C3.882,9.963,3.701,9.528,3.59,9.07C3.546,8.882,3.379,8.75,3.186,8.75H1.875c-0.092,0-0.167-0.075-0.167-0.167V7.417
		c0-0.045,0.017-0.086,0.048-0.118C1.789,7.269,1.83,7.251,1.875,7.251h1.311c0.194,0,0.36-0.131,0.405-0.319
		c0.11-0.457,0.291-0.892,0.536-1.292c0.101-0.166,0.076-0.376-0.061-0.512L3.139,4.2c-0.065-0.065-0.065-0.171,0-0.236L3.963,3.14
		c0.059-0.057,0.177-0.058,0.236,0l0.927,0.927C5.259,4.2,5.478,4.226,5.638,4.127c0.402-0.246,0.837-0.426,1.293-0.536
		C7.119,3.546,7.25,3.379,7.25,3.187V1.876c0-0.092,0.075-0.167,0.167-0.167h1.167c0.092,0,0.167,0.075,0.167,0.167v1.311
		c0,0.193,0.131,0.359,0.318,0.404c0.457,0.111,0.892,0.291,1.293,0.536c0.161,0.1,0.38,0.072,0.513-0.061L11.8,3.139
		c0.061-0.058,0.177-0.059,0.237,0l0.824,0.824c0.03,0.031,0.049,0.075,0.049,0.118s-0.019,0.087-0.048,0.118l-0.929,0.928
		c-0.136,0.137-0.16,0.348-0.06,0.511c0.245,0.403,0.426,0.838,0.535,1.293c0.045,0.188,0.212,0.319,0.405,0.319h1.311
		c0.092,0,0.167,0.075,0.167,0.167v1.167c0,0.044-0.018,0.086-0.05,0.118C14.211,8.733,14.17,8.75,14.125,8.75h-1.311
		C12.621,8.75,12.455,8.881,12.41,9.069z"/>
	<path d="M8,4.959c-1.677,0-3.042,1.364-3.042,3.042c0,1.678,1.364,3.042,3.042,3.042c1.678,0,3.042-1.364,3.042-3.042
		C11.042,6.324,9.678,4.959,8,4.959z M8,10.209c-1.218,0-2.208-0.99-2.208-2.208S6.782,5.792,8,5.792s2.208,0.991,2.208,2.208
		S9.218,10.209,8,10.209z"/>
</g>
</svg>
