<?xml version="1.0" encoding="utf-8"?>
<!-- Generator: Adobe Illustrator 18.1.1, SVG Export Plug-In . SVG Version: 6.00 Build 0)  -->
<!DOCTYPE svg PUBLIC "-//W3C//DTD SVG 1.1//EN" "http://www.w3.org/Graphics/SVG/1.1/DTD/svg11.dtd">
<svg version="1.1" id="图层_1" xmlns="http://www.w3.org/2000/svg" xmlns:xlink="http://www.w3.org/1999/xlink" x="0px" y="0px"
	 viewBox="0 0 16 16" enable-background="new 0 0 16 16" xml:space="preserve">
<g>
	<g>
		<path fill-rule="evenodd" clip-rule="evenodd" fill="#1A1D1E" d="M13,9.5c-1,0-1.9,0.5-2.4,1.2L6.9,8.6C7,8.4,7,8.2,7,8
			c0-0.3,0-0.6-0.1-0.8l3.6-2.1C11,5.9,11.9,6.5,13,6.5c1.7,0,3-1.3,3-3s-1.3-3-3-3c-1.5,0-2.7,1.1-3,2.5L5.9,5.4
			C5.3,4.9,4.4,4.5,3.5,4.5C1.6,4.5,0,6.1,0,8s1.6,3.5,3.5,3.5c1,0,1.9-0.4,2.5-1.1l4,2.3c0.1,1.6,1.4,2.8,3,2.8c1.7,0,3-1.3,3-3
			S14.7,9.5,13,9.5z M13,2.5c0.6,0,1,0.4,1,1s-0.4,1-1,1s-1-0.4-1-1S12.4,2.5,13,2.5z M3.5,9.5C2.7,9.5,2,8.8,2,8s0.7-1.5,1.5-1.5
			C4.3,6.5,5,7.2,5,8S4.3,9.5,3.5,9.5z M13,13.5c-0.6,0-1-0.4-1-1s0.4-1,1-1s1,0.4,1,1S13.6,13.5,13,13.5z"/>
	</g>
</g>
</svg>
