<?xml version="1.0" encoding="utf-8"?>
<!-- Generator: Adobe Illustrator 17.0.0, SVG Export Plug-In . SVG Version: 6.00 Build 0)  -->
<!DOCTYPE svg PUBLIC "-//W3C//DTD SVG 1.1//EN" "http://www.w3.org/Graphics/SVG/1.1/DTD/svg11.dtd">
<svg version="1.1" id="图层_1" xmlns="http://www.w3.org/2000/svg" xmlns:xlink="http://www.w3.org/1999/xlink" x="0px" y="0px"
	 width="48px" height="48px" viewBox="0 0 48 48" enable-background="new 0 0 48 48" xml:space="preserve">
<g>
	<path fill="#231F20" d="M24,1L4,5.534c0,0,0,17.466,0,20.869S6.207,41.998,24,47c17.793-5.002,20-17,20-20.597s0-20.869,0-20.869
		L24,1z M42,26.403c0,1.364-0.511,13.359-18,18.516C6.207,39.665,6,26.947,6,26.403V7.131l18-4.081l18,4.081V26.403z"/>
	<polygon fill="#231F20" points="18.004,20.662 15.996,22.89 22.847,29.068 34.062,17.835 31.938,15.716 22.739,24.931 	"/>
</g>
</svg>
