<?xml version="1.0" encoding="utf-8"?>
<!-- Generator: Adobe Illustrator 17.0.0, SVG Export Plug-In . SVG Version: 6.00 Build 0)  -->
<!DOCTYPE svg PUBLIC "-//W3C//DTD SVG 1.1//EN" "http://www.w3.org/Graphics/SVG/1.1/DTD/svg11.dtd">
<svg version="1.1" id="Layer_1" xmlns="http://www.w3.org/2000/svg" xmlns:xlink="http://www.w3.org/1999/xlink" x="0px" y="0px"
	 width="16px" height="16px" viewBox="0.5 0.5 16 16" enable-background="new 0.5 0.5 16 16" xml:space="preserve">
<g>
	<path fill="#231F20" d="M8.5,1.5l-7,2c0,0,1.944,9.083,2.333,9.667C4.222,13.75,6.75,15.111,8.5,15.5
		c1.75-0.389,4.278-1.75,4.667-2.333C13.556,12.583,15.5,3.5,15.5,3.5L8.5,1.5z M12.317,12.624
		c-0.389,0.375-2.282,1.447-3.817,1.847c-1.553-0.405-3.473-1.497-3.813-1.836c-0.271-0.7-1.188-4.628-2.012-8.431L8.5,2.54
		l5.825,1.664C13.505,7.988,12.593,11.896,12.317,12.624z"/>
	<polygon fill="#231F20" points="8.446,8.739 6.854,7.146 6.146,7.854 8.554,10.261 11.9,5.8 11.1,5.2 	"/>
</g>
</svg>
