<?xml version="1.0" encoding="utf-8"?>
<!-- Generator: Adobe Illustrator 17.0.0, SVG Export Plug-In . SVG Version: 6.00 Build 0)  -->
<!DOCTYPE svg PUBLIC "-//W3C//DTD SVG 1.1//EN" "http://www.w3.org/Graphics/SVG/1.1/DTD/svg11.dtd">
<svg version="1.1" id="图层_1" xmlns="http://www.w3.org/2000/svg" xmlns:xlink="http://www.w3.org/1999/xlink" x="0px" y="0px"
	 width="10px" height="10px" viewBox="0 0 10 10" enable-background="new 0 0 10 10" xml:space="preserve">
<path d="M9.932,2.671C9.847,2.54,9.699,2.465,9.525,2.465H2.857L2.392,1.743H0.655C0.294,1.743,0,2.03,0,2.384v0.122
	c0,0.353,0.294,0.64,0.655,0.64h0.758L3.169,6.01C3.267,6.173,3.456,6.3,3.653,6.344C3.426,6.513,3.279,6.78,3.279,7.08
	c0,0.511,0.425,0.927,0.947,0.927c0.522,0,0.947-0.416,0.947-0.927c0-0.29-0.138-0.549-0.353-0.719h2.083
	C6.688,6.53,6.55,6.79,6.55,7.08c0,0.511,0.425,0.927,0.947,0.927S8.444,7.591,8.444,7.08c0-0.296-0.143-0.56-0.366-0.73
	c0.217-0.04,0.42-0.187,0.508-0.378l1.364-2.855C10.022,2.964,10.016,2.801,9.932,2.671z M8.008,5.704
	C8,5.715,7.973,5.731,7.965,5.733H3.801C3.779,5.731,3.734,5.706,3.721,5.689L2.013,2.894l0.183-0.275l0.305,0.474h6.752
	L8.008,5.704z M0.642,2.384c0-0.007,0.006-0.013,0.013-0.013l1.382,0.001l0.094,0.146L0.642,2.505V2.384z M4.226,6.783
	c0.168,0,0.305,0.133,0.305,0.297c0,0.165-0.137,0.299-0.305,0.299c-0.168,0-0.305-0.134-0.305-0.299
	C3.921,6.916,4.058,6.783,4.226,6.783z M7.498,6.783c0.168,0,0.305,0.133,0.305,0.297c0,0.165-0.137,0.299-0.305,0.299
	c-0.168,0-0.305-0.134-0.305-0.299C7.192,6.916,7.329,6.783,7.498,6.783z"/>
</svg>
