<?xml version="1.0" encoding="utf-8"?>
<!-- Generator: Adobe Illustrator 18.0.0, SVG Export Plug-In . SVG Version: 6.00 Build 0)  -->
<!DOCTYPE svg PUBLIC "-//W3C//DTD SVG 1.1//EN" "http://www.w3.org/Graphics/SVG/1.1/DTD/svg11.dtd">
<svg version="1.1" id="图层_1" xmlns="http://www.w3.org/2000/svg" xmlns:xlink="http://www.w3.org/1999/xlink" x="0px" y="0px"
	 viewBox="0 0 12 12" enable-background="new 0 0 12 12" xml:space="preserve">
<g>
	<path fill="#272636" d="M6,12L6,12c-3,0-5.4-2.4-5.4-5.4c0-2.3,1.4-4.2,3.4-5v0c0.1,0,0.1,0,0.2,0c0.3,0,0.6,0.3,0.6,0.6
		c0,0.2-0.2,0.5-0.4,0.5v0c-1.5,0.7-2.6,2.2-2.6,4c0,2.4,1.9,4.3,4.3,4.3c2.4,0,4.3-1.9,4.3-4.3c0-1.8-1.1-3.3-2.6-4l0,0
		C7.5,2.5,7.3,2.3,7.3,2.1c0-0.3,0.3-0.6,0.6-0.6c0.1,0,0.1,0,0.2,0v0c2,0.8,3.4,2.8,3.4,5C11.4,9.6,9,12,6,12 M6,6.2
		c-0.3,0-0.6-0.3-0.6-0.6V2.3V1.2V0.6C5.4,0.3,5.7,0,6,0c0.3,0,0.6,0.3,0.6,0.6v1.7v1.1v2.2C6.6,5.9,6.3,6.2,6,6.2"/>
</g>
</svg>
