<?xml version="1.0" encoding="utf-8"?>
<!-- Generator: Adobe Illustrator 18.1.1, SVG Export Plug-In . SVG Version: 6.00 Build 0)  -->
<!DOCTYPE svg PUBLIC "-//W3C//DTD SVG 1.1//EN" "http://www.w3.org/Graphics/SVG/1.1/DTD/svg11.dtd">
<svg version="1.1" id="图层_1" xmlns="http://www.w3.org/2000/svg" xmlns:xlink="http://www.w3.org/1999/xlink" x="0px" y="0px"
	 viewBox="0 0 12 12" enable-background="new 0 0 12 12" xml:space="preserve">
<path fill="#111010" d="M8.6,3.6c0-0.1-0.1-0.2-0.3-0.3C8.3,3.3,8.1,3.2,8,3.3c-0.3,0-0.5,0.3-0.4,0.6c0,0.2,0.1,0.3,0.2,0.4
	c0.5,0.5,0.8,1.2,0.8,1.9c0,0.8-0.4,1.6-0.9,2.1C7.6,8.3,7.5,8.4,7.5,8.6c0,0.3,0.2,0.5,0.5,0.5c0.1,0,0.3-0.1,0.4-0.1
	c0.1-0.1,0.2-0.1,0.2-0.2c0.6-0.7,1-1.6,1-2.6C9.6,5.1,9.2,4.3,8.6,3.6L8.6,3.6L8.6,3.6z M10.4,1.8c-0.1-0.2-0.3-0.3-0.5-0.3
	C9.6,1.5,9.4,1.7,9.4,2c0,0.2,0.1,0.3,0.2,0.4C10.5,3.3,11,4.5,11,5.8c0,1.5-0.7,2.8-1.7,3.7l0,0C9.1,9.6,9,9.8,9,10
	c0,0.3,0.2,0.5,0.5,0.5c0.2,0,0.3-0.1,0.4-0.2c0,0,0,0,0,0l0,0C11.2,9.2,12,7.6,12,5.8C12,4.3,11.4,2.8,10.4,1.8L10.4,1.8L10.4,1.8z
	 M5,0.9L2.5,3.5H1c-0.7,0-1,0.3-1,1v3.2c0,0.6,0.3,1,1,1h1.5L5,11c0.7,0.7,1.8,0.4,1.8-0.7V1.7C6.8,0.6,5.7,0.3,5,0.9L5,0.9L5,0.9z
	 M5.8,9.8c0,0.7-0.3,0.3-0.7,0C4.6,9.3,3.7,8.3,3,7.6H1.6C1.1,7.6,1,7.4,1,7V5c0-0.5,0.2-0.6,0.6-0.6H3c0.7-0.8,1.6-1.7,2.2-2.2
	c0.3-0.3,0.7-0.7,0.7,0V9.8L5.8,9.8L5.8,9.8z M5.8,9.8"/>
</svg>
