<?xml version="1.0" encoding="utf-8"?>
<!-- Generator: Adobe Illustrator 17.0.0, SVG Export Plug-In . SVG Version: 6.00 Build 0)  -->
<!DOCTYPE svg PUBLIC "-//W3C//DTD SVG 1.1//EN" "http://www.w3.org/Graphics/SVG/1.1/DTD/svg11.dtd">
<svg version="1.1" id="Layer_1" xmlns="http://www.w3.org/2000/svg" xmlns:xlink="http://www.w3.org/1999/xlink" x="0px" y="0px"
	 width="16px" height="16px" viewBox="0.5 0.5 16 16" enable-background="new 0.5 0.5 16 16" xml:space="preserve">
<path fill="#231F20" d="M15.433,6.336c-0.149-0.386-0.52-0.64-0.933-0.64h-3.863L9.395,2.161C9.254,1.76,8.875,1.492,8.451,1.492
	c-0.003,0-0.007,0-0.01,0C8.013,1.497,7.635,1.773,7.501,2.18L6.347,5.696H2.5c-0.414,0-0.785,0.255-0.934,0.642
	C1.418,6.724,1.523,7.162,1.832,7.439l3.176,2.855L3.95,14.24c-0.11,0.411,0.052,0.847,0.404,1.086
	c0.17,0.115,0.366,0.172,0.561,0.172c0.21,0,0.421-0.066,0.597-0.198l3.082-2.296l3.143,2.203c0.172,0.121,0.373,0.181,0.574,0.181
	c0.205,0,0.41-0.063,0.585-0.189c0.345-0.249,0.495-0.689,0.374-1.097l-1.159-3.896l3.06-2.77
	C15.478,7.159,15.582,6.722,15.433,6.336z M10.973,9.888l1.339,4.5l-3.734-2.617l-3.661,2.728L6.132,9.96L2.5,6.696h4.571
	l1.38-4.203l1.477,4.203H14.5L10.973,9.888z"/>
</svg>
