<?xml version="1.0" encoding="UTF-8" standalone="no"?>
<svg width="1024px" height="1024px" viewBox="0 0 1024 1024" version="1.1" xmlns="http://www.w3.org/2000/svg" xmlns:xlink="http://www.w3.org/1999/xlink" xmlns:sketch="http://www.bohemiancoding.com/sketch/ns">
    <!-- Generator: Sketch 3.5.1 (25234) - http://www.bohemiancoding.com/sketch -->
    <title>iconfont-tianjiatupian</title>
    <desc>Created with Sketch.</desc>
    <defs></defs>
    <g id="Page-1" stroke="none" stroke-width="1" fill="none" fill-rule="evenodd" sketch:type="MSPage">
        <g id="iconfont-tianjiatupian" sketch:type="MSLayerGroup" fill="#272636">
            <path d="M512,0 C229.674667,0 0,229.696 0,512 C0,794.282667 229.674667,1024 512,1024 C794.282667,1024 1024,794.282667 1024,512 C1024,229.696 794.325333,0 512,0 L512,0 Z M511.978667,981.290667 C253.205333,981.290667 42.688,770.773333 42.688,512 C42.688,253.205333 253.205333,42.688 512,42.688 C770.773333,42.688 981.290667,253.205333 981.290667,512 C981.290667,770.773333 770.773333,981.290667 511.978667,981.290667 L511.978667,981.290667 Z" id="Shape" sketch:type="MSShapeGroup"></path>
            <path d="M270.72,490.666667 C258.944,490.666667 249.386667,500.224 249.386667,512 C249.386667,523.797333 258.944,533.354667 270.72,533.354667 L753.301334,533.354667 C765.056001,533.354667 774.634667,523.797334 774.634667,512 C774.634667,500.224 765.077333,490.666667 753.301333,490.666667 L270.72,490.666667 Z" id="Shape" sketch:type="MSShapeGroup"></path>
        </g>
    </g>
</svg>