<?xml version="1.0" encoding="utf-8"?>
<!-- Generator: Adobe Illustrator 17.0.0, SVG Export Plug-In . SVG Version: 6.00 Build 0)  -->
<!DOCTYPE svg PUBLIC "-//W3C//DTD SVG 1.1//EN" "http://www.w3.org/Graphics/SVG/1.1/DTD/svg11.dtd">
<svg version="1.1" id="图层_1" xmlns="http://www.w3.org/2000/svg" xmlns:xlink="http://www.w3.org/1999/xlink" x="0px" y="0px"
	 width="24px" height="24px" viewBox="0 0 24 24" enable-background="new 0 0 24 24" xml:space="preserve">
<g>
	<path fill="#272636" d="M19.181,17.874c-0.364-0.361-0.946-0.361-1.304,0c-0.361,0.361-0.364,0.945,0,1.307l1.304,1.304
		c0.359,0.361,0.945,0.361,1.304,0c0.361-0.359,0.361-0.943,0-1.304L19.181,17.874L19.181,17.874z M4.819,6.126
		c0.359,0.361,0.943,0.361,1.304,0c0.361-0.361,0.361-0.945,0-1.307L4.819,3.516c-0.361-0.361-0.945-0.361-1.307,0
		s-0.361,0.945,0,1.304L4.819,6.126L4.819,6.126z M23.078,11.079H21.23c-0.51,0-0.922,0.413-0.922,0.922s0.412,0.922,0.922,0.922
		h1.847c0.51,0,0.922-0.412,0.922-0.922C24,11.491,23.587,11.079,23.078,11.079L23.078,11.079z M3.692,12.001
		c0-0.51-0.413-0.922-0.923-0.922H0.922C0.412,11.079,0,11.492,0,12.001s0.412,0.922,0.922,0.922H2.77
		C3.279,12.924,3.692,12.511,3.692,12.001L3.692,12.001z M4.822,17.876l-1.307,1.307c-0.361,0.359-0.361,0.943,0,1.301
		c0.361,0.364,0.946,0.364,1.307,0l1.304-1.301c0.361-0.364,0.361-0.946,0-1.307C5.765,17.515,5.181,17.512,4.822,17.876
		L4.822,17.876z M19.178,6.124l1.307-1.304c0.359-0.361,0.359-0.945,0-1.304c-0.361-0.361-0.945-0.361-1.307,0L17.874,4.82
		c-0.361,0.361-0.361,0.945,0,1.304C18.233,6.485,18.817,6.485,19.178,6.124L19.178,6.124z M11.999,20.308
		c-0.51,0-0.922,0.412-0.922,0.922v1.847c0,0.513,0.413,0.922,0.922,0.922c0.51,0,0.925-0.41,0.925-0.922V21.23
		C12.924,20.72,12.509,20.308,11.999,20.308L11.999,20.308z M11.999,3.692c0.51,0,0.925-0.41,0.925-0.922V0.923
		c0-0.51-0.415-0.922-0.925-0.922c-0.51,0-0.922,0.412-0.922,0.922V2.77C11.076,3.282,11.489,3.692,11.999,3.692L11.999,3.692z
		 M11.999,16.616c-2.549,0-4.614-2.068-4.614-4.614c0-2.552,2.065-4.615,4.614-4.615c2.55,0,4.615,2.063,4.615,4.615
		C16.614,14.548,14.548,16.616,11.999,16.616L11.999,16.616z M11.999,5.54c-3.561,0-6.462,2.898-6.462,6.462
		c0,3.561,2.9,6.459,6.462,6.459c3.564,0,6.462-2.898,6.462-6.459C18.46,8.437,15.563,5.54,11.999,5.54L11.999,5.54z M11.999,5.54"
		/>
</g>
</svg>
