<?xml version="1.0" encoding="utf-8"?>
<!-- Generator: Adobe Illustrator 17.0.0, SVG Export Plug-In . SVG Version: 6.00 Build 0)  -->
<!DOCTYPE svg PUBLIC "-//W3C//DTD SVG 1.1//EN" "http://www.w3.org/Graphics/SVG/1.1/DTD/svg11.dtd">
<svg version="1.1" id="Layer_1" xmlns="http://www.w3.org/2000/svg" xmlns:xlink="http://www.w3.org/1999/xlink" x="0px" y="0px"
	 width="68px" height="68px" viewBox="-26 -26 68 68" enable-background="new -26 -26 68 68" xml:space="preserve">
<path fill="#161616" d="M21.262,2.707L24.2,2.132C21.797-4.499,15.461-9.246,8-9.246C-1.525-9.246-9.246-1.525-9.246,8
	S-1.525,25.246,8,25.246c9.092,0,16.523-7.04,17.182-15.963L22.201,9.56C21.421,16.707,15.352,22.29,8,22.29
	C0.121,22.29-6.29,15.879-6.29,8S0.121-6.29,8-6.29C14.009-6.29,19.153-2.557,21.262,2.707z M6.689,5.557l7.567-1.48
	C12.949,1.996,10.639,0.609,8,0.609C3.918,0.609,0.609,3.918,0.609,8S3.918,15.391,8,15.391c3.308,0,6.107-2.173,7.05-5.17
	l-7.729,0.716C7.23,10.95,7.12,10.957,7.012,10.957c-1.476,0-2.461-0.986-2.44-2.63c0.009-0.658,0.085-1.3,0.485-1.823
	C5.457,5.981,6.037,5.645,6.689,5.557z M8,31.159C-4.77,31.159-15.159,20.77-15.159,8S-4.77-15.159,8-15.159
	c10.325,0,19.091,6.793,22.07,16.143l2.922-0.572C29.741-10.31,19.784-18.116,8-18.116C-6.423-18.116-18.116-6.423-18.116,8
	S-6.423,34.116,8,34.116c14.27,0,25.859-11.447,26.104-25.659l-2.964,0.274C30.752,21.164,20.525,31.159,8,31.159z M8-26
	c-18.778,0-34,15.222-34,34s15.222,34,34,34c18.778,0,34-15.222,34-34S26.778-26,8-26z M8,39.043
	C-9.117,39.043-23.043,25.117-23.043,8S-9.117-23.043,8-23.043C25.117-23.043,39.044-9.117,39.044,8S25.117,39.043,8,39.043z
	 M7.145,6.281C6.13,6.415,5.417,7.348,5.553,8.363c0.124,0.931,0.92,1.608,1.835,1.608c0.081,0,0.164-0.005,0.247-0.016L36.58,7.191
	l-1.853-2.78l0.927-3.707L7.145,6.281z"/>
</svg>
