<?xml version="1.0" encoding="utf-8"?>
<!-- Generator: Adobe Illustrator 17.0.0, SVG Export Plug-In . SVG Version: 6.00 Build 0)  -->
<!DOCTYPE svg PUBLIC "-//W3C//DTD SVG 1.1//EN" "http://www.w3.org/Graphics/SVG/1.1/DTD/svg11.dtd">
<svg version="1.1" id="图层_1" xmlns="http://www.w3.org/2000/svg" xmlns:xlink="http://www.w3.org/1999/xlink" x="0px" y="0px"
	 width="32px" height="32px" viewBox="0 0 32 32" enable-background="new 0 0 32 32" xml:space="preserve">
<path fill="#26231E" d="M29.627,10.346h-2.423V4.402c0-1.311-1.063-2.373-2.373-2.373H2.373C1.063,2.028,0,3.091,0,4.402v14.879
	c0,1.311,1.063,2.373,2.373,2.373h4.666v5.944c0,1.311,1.063,2.373,2.373,2.373h20.214c1.311,0,2.373-1.063,2.373-2.373V12.719
	C32,11.408,30.937,10.346,29.627,10.346z M7.039,12.719v6.562H2.373V4.402H24.83v5.944H9.413
	C8.102,10.346,7.039,11.408,7.039,12.719z M29.627,27.598H9.413V12.719h20.214V27.598z"/>
</svg>
