<?xml version="1.0" encoding="utf-8"?>
<!-- Generator: Adobe Illustrator 16.0.0, SVG Export Plug-In . SVG Version: 6.00 Build 0)  -->
<!DOCTYPE svg PUBLIC "-//W3C//DTD SVG 1.1//EN" "http://www.w3.org/Graphics/SVG/1.1/DTD/svg11.dtd">
<svg version="1.1" id="Layer_1" xmlns="http://www.w3.org/2000/svg" xmlns:xlink="http://www.w3.org/1999/xlink" x="0px" y="0px"
	 width="16px" height="16px" viewBox="0 0 16 16" enable-background="new 0 0 16 16" xml:space="preserve">
<g>
	<path fill="#231F20" d="M13.334,6.223c-0.889,0-3.557,0-3.557,0s0.891-3.556-0.889-4.445c-0.795-0.397-2.666,0-1.777,0.89
		c0.628,0.628,0,2.666-0.889,3.556C5.439,7.005,4.444,7.111,3.556,7.111c0,0.936,0,6.222,0,6.222s3.065,0.89,6.222,0.89
		c2.667,0,4.445-0.89,4.445-6.223C14.223,6.223,13.82,6.223,13.334,6.223z"/>
	<rect x="0.889" y="7.111" fill="#231F20" width="1.778" height="6.222"/>
</g>
</svg>
