<?xml version="1.0" encoding="utf-8"?>
<!-- Generator: Adobe Illustrator 17.0.0, SVG Export Plug-In . SVG Version: 6.00 Build 0)  -->
<!DOCTYPE svg PUBLIC "-//W3C//DTD SVG 1.1//EN" "http://www.w3.org/Graphics/SVG/1.1/DTD/svg11.dtd">
<svg version="1.1" id="图层_1" xmlns="http://www.w3.org/2000/svg" xmlns:xlink="http://www.w3.org/1999/xlink" x="0px" y="0px"
	 width="12px" height="12px" viewBox="0 0 12 12" enable-background="new 0 0 12 12" xml:space="preserve">
<g>
	<path fill="#040000" d="M5.99,1c2.751,0,4.99,2.238,4.99,4.99s-2.238,4.99-4.99,4.99S1,8.741,1,5.99S3.238,1,5.99,1 M5.99,0
		C2.681,0,0,2.681,0,5.99c0,3.309,2.681,5.99,5.99,5.99c3.309,0,5.99-2.681,5.99-5.99C11.979,2.681,9.298,0,5.99,0L5.99,0z"/>
</g>
<g>
	<polygon fill="#040000" points="8.914,7.23 4.991,7.23 4.991,3.308 5.991,3.308 5.991,6.23 8.914,6.23 	"/>
</g>
</svg>
