<?xml version="1.0" encoding="utf-8"?>
<!-- Generator: Adobe Illustrator 17.0.0, SVG Export Plug-In . SVG Version: 6.00 Build 0)  -->
<!DOCTYPE svg PUBLIC "-//W3C//DTD SVG 1.1//EN" "http://www.w3.org/Graphics/SVG/1.1/DTD/svg11.dtd">
<svg version="1.1" id="图层_1" xmlns="http://www.w3.org/2000/svg" xmlns:xlink="http://www.w3.org/1999/xlink" x="0px" y="0px"
	 width="32px" height="32px" viewBox="0 0 32 32" enable-background="new 0 0 32 32" xml:space="preserve">
<g>
	<path fill="#26231E" d="M28.215,8.59c-0.654-0.219-3.637-0.424-7.214-0.529l4.298-6.236c0.364-0.529,0.232-1.252-0.294-1.619
		s-1.249-0.23-1.613,0.295l-5.169,7.5C17.483,7.991,16.739,7.986,16,7.986s-1.483,0.006-2.223,0.016l-5.169-7.5
		C8.243-0.024,7.523-0.16,6.995,0.206c-0.527,0.366-0.658,1.09-0.294,1.619l4.298,6.235C7.427,8.165,4.456,8.367,3.822,8.579
		c-2.112,0.659-3.14,4.392-3.14,11.413c0,7.019,1.021,10.751,3.099,11.399C4.814,31.74,11.084,32,16,32
		c5.451,0,11.268-0.288,12.178-0.595c2.112-0.662,3.14-4.395,3.14-11.413C31.318,12.971,30.296,9.24,28.215,8.59z M27.491,29.183
		c-0.658,0.168-5.645,0.491-11.491,0.491c-5.862,0-10.851-0.326-11.478-0.486C4.507,29.18,3,28.258,3,19.992
		c0-8.294,1.515-9.191,1.506-9.191c0.659-0.168,5.649-0.489,11.494-0.489c5.859,0,10.851,0.324,11.478,0.482
		C27.493,10.803,29,11.726,29,19.992C29,28.296,27.484,29.183,27.491,29.183z"/>
	<path fill="#26231E" d="M13.609,14.153c-0.356-0.221-0.806-0.235-1.175-0.029c-0.368,0.204-0.596,0.594-0.596,1.016v9.706
		c0,0.423,0.228,0.812,0.596,1.016c0.175,0.098,0.37,0.147,0.563,0.147c0.213,0,0.425-0.059,0.613-0.176l7.76-4.854
		c0.339-0.212,0.546-0.586,0.546-0.987c0-0.401-0.207-0.775-0.546-0.987L13.609,14.153z M14.155,22.75v-5.516l4.41,2.758
		L14.155,22.75z"/>
</g>
</svg>
