<?xml version="1.0" encoding="UTF-8" standalone="no"?>
<svg width="74px" height="20px" viewBox="0 0 74 20" version="1.1" xmlns="http://www.w3.org/2000/svg" xmlns:xlink="http://www.w3.org/1999/xlink">
    <!-- Generator: Sketch 39.1 (31720) - http://www.bohemiancoding.com/sketch -->
    <title>Group 8 Copy</title>
    <desc>Created with Sketch.</desc>
    <defs></defs>
    <g id="pc课程详情页" stroke="none" stroke-width="1" fill="none" fill-rule="evenodd">
        <g id="Artboard" transform="translate(-273.000000, -424.000000)" fill="#000000">
            <g id="Group-8-Copy" transform="translate(273.000000, 424.000000)">
                <path d="M0,0.99180311 C0,0.444045377 0.453369457,0 0.990129262,0 L73.0098707,0 C73.556704,0 74,0.455305576 74,0.99180311 L74,19.0081969 C74,19.5559546 73.5466305,20 73.0098707,20 L0.990129262,20 C0.44329597,20 0,19.5446944 0,19.0081969 L0,0.99180311 Z M1,1.99339768 C1,1.44475929 1.44111623,1 1.9904144,1 L72.0095856,1 C72.5565764,1 73,1.44494629 73,1.99339768 L73,18.0066023 C73,18.5552407 72.5588838,19 72.0095856,19 L1.9904144,19 C1.44342363,19 1,18.5550537 1,18.0066023 L1,1.99339768 Z" id="Combined-Shape"></path>
                <path d="M1,1.99339768 C1,1.44475929 1.45092539,1 1.99477117,1 L20,1 L20,19 L1.99477117,19 C1.44537422,19 1,18.5550537 1,18.0066023 L1,1.99339768 Z M5.14,6.072 L9.712,6.072 L9.82,5.16 L10.696,5.28 C10.6799999,5.45600088 10.6480002,5.71999824 10.6,6.072 L14.86,6.072 L14.86,6.828 L10.468,6.828 C10.4359998,7.00400088 10.3800004,7.26799824 10.3,7.62 L13.72,7.62 L13.72,13.272 L15.304,13.272 L15.304,14.052 L11.728,14.052 C12.9840063,14.4760021 14.1199949,14.9799971 15.136,15.564 L14.692,16.248 C13.5799944,15.5519965 12.4480058,15.0120019 11.296,14.628 L11.68,14.052 L8.248,14.052 L8.752,14.628 C7.82399536,15.2840033 6.68800672,15.8199979 5.344,16.236 L4.984,15.504 C6.31200664,15.1279981 7.39199584,14.644003 8.224,14.052 L4.696,14.052 L4.696,13.272 L6.472,13.272 L6.472,7.62 L9.424,7.62 C9.5040004,7.26799824 9.55999984,7.00400088 9.592,6.828 L5.14,6.828 L5.14,6.072 Z M7.3,13.272 L12.892,13.272 L12.892,12.504 L7.3,12.504 L7.3,13.272 Z M7.3,11.844 L12.892,11.844 L12.892,11.112 L7.3,11.112 L7.3,11.844 Z M7.3,10.464 L12.892,10.464 L12.892,9.732 L7.3,9.732 L7.3,10.464 Z M7.3,9.072 L12.892,9.072 L12.892,8.316 L7.3,8.316 L7.3,9.072 Z" id="Combined-Shape"></path>
                <path d="M24.14,6.072 L28.712,6.072 L28.82,5.16 L29.696,5.28 C29.6799999,5.45600088 29.6480002,5.71999824 29.6,6.072 L33.86,6.072 L33.86,6.828 L29.468,6.828 C29.4359998,7.00400088 29.3800004,7.26799824 29.3,7.62 L32.72,7.62 L32.72,13.272 L34.304,13.272 L34.304,14.052 L30.728,14.052 C31.9840063,14.4760021 33.1199949,14.9799971 34.136,15.564 L33.692,16.248 C32.5799944,15.5519965 31.4480058,15.0120019 30.296,14.628 L30.68,14.052 L27.248,14.052 L27.752,14.628 C26.8239954,15.2840033 25.6880067,15.8199979 24.344,16.236 L23.984,15.504 C25.3120066,15.1279981 26.3919958,14.644003 27.224,14.052 L23.696,14.052 L23.696,13.272 L25.472,13.272 L25.472,7.62 L28.424,7.62 C28.5040004,7.26799824 28.5599998,7.00400088 28.592,6.828 L24.14,6.828 L24.14,6.072 Z M26.3,13.272 L31.892,13.272 L31.892,12.504 L26.3,12.504 L26.3,13.272 Z M26.3,11.844 L31.892,11.844 L31.892,11.112 L26.3,11.112 L26.3,11.844 Z M26.3,10.464 L31.892,10.464 L31.892,9.732 L26.3,9.732 L26.3,10.464 Z M26.3,9.072 L31.892,9.072 L31.892,8.316 L26.3,8.316 L26.3,9.072 Z M45.896,6.444 L45.896,8.844 L45.02,8.844 L45.02,7.248 L36.98,7.248 L36.98,8.904 L36.104,8.904 L36.104,6.444 L40.664,6.444 C40.4959992,5.97199764 40.3240009,5.56400172 40.148,5.22 L41.06,5.076 C41.2040007,5.42000172 41.3559992,5.87599716 41.516,6.444 L45.896,6.444 Z M37.58,9.552 C38.5000046,9.9120018 39.3199964,10.3359976 40.04,10.824 L39.596,11.508 C38.795996,10.9319971 37.9800042,10.4920015 37.148,10.188 L37.58,9.552 Z M38.3,7.728 C39.1400042,8.0480016 39.9399962,8.45999748 40.7,8.964 L40.268,9.648 C39.459996,9.07199712 38.6640039,8.63600148 37.88,8.34 L38.3,7.728 Z M41.936,7.86 L42.812,7.86 L42.812,9.192 C42.7719998,10.2400052 42.6000015,11.159996 42.296,11.952 L46.208,11.952 L46.208,12.756 L41.924,12.756 C41.8279995,12.9320009 41.7000008,13.1279989 41.54,13.344 C43.1880082,13.936003 44.7239929,14.6639957 46.148,15.528 L45.668,16.272 C44.1399924,15.3039952 42.5920078,14.5280029 41.024,13.944 C40.0559952,14.8880047 38.5400103,15.6399972 36.476,16.2 L36.008,15.468 C38.2240111,14.875997 39.7639957,14.1000048 40.628,13.14 L40.904,12.756 L35.756,12.756 L35.756,11.952 L41.348,11.952 C41.7000018,11.1679961 41.8959998,10.2480053 41.936,9.192 L41.936,7.86 Z M51.668,5.748 L58.172,5.748 L58.172,6.564 L55.328,6.564 L55.328,11.088 L58.532,11.088 L58.532,11.916 L55.328,11.916 L55.328,16.2 L54.488,16.2 L54.488,11.916 L51.332,11.916 L51.332,11.088 L54.488,11.088 L54.488,6.564 L51.668,6.564 L51.668,5.748 Z M57.836,7.368 C57.5879988,8.51200572 57.268002,9.53199552 56.876,10.428 L56.144,10.176 C56.5040018,9.38399604 56.8159987,8.38000608 57.08,7.164 L57.836,7.368 Z M52.592,7.236 C52.9280017,8.06000412 53.2479985,9.06799404 53.552,10.26 L52.808,10.452 C52.5679988,9.43599492 52.248002,8.44400484 51.848,7.476 L52.592,7.236 Z M48.944,5.316 C49.7680041,5.93200308 50.4519973,6.54799692 50.996,7.164 L50.408,7.764 C49.9119975,7.17999708 49.2240044,6.56000328 48.344,5.904 L48.944,5.316 Z M47.504,8.868 L50.096,8.868 L50.096,14.184 C50.4800019,13.8479983 50.8919978,13.4600022 51.332,13.02 L51.572,13.932 C50.8679965,14.6200034 50.120004,15.2359973 49.328,15.78 L48.992,15.012 C49.1760009,14.8439992 49.268,14.6680009 49.268,14.484 L49.268,9.696 L47.504,9.696 L47.504,8.868 Z M61.004,9.36 C60.6359982,9.90400272 60.2120024,10.4399974 59.732,10.968 L59.444,10.056 C60.636006,8.62399284 61.4919974,7.00400904 62.012,5.196 L62.828,5.568 C62.5799988,6.368004 62.2680019,7.13599632 61.892,7.872 L61.892,16.164 L61.004,16.164 L61.004,9.36 Z M67.496,9.396 L68.336,9.396 L68.336,16.092 L67.496,16.092 L67.496,9.396 Z M64.412,9.432 L65.24,9.432 L65.24,11.244 C65.2159999,13.5080113 64.6280058,15.1679947 63.476,16.224 L62.828,15.66 C63.8600052,14.7479954 64.3879999,13.2760102 64.412,11.244 L64.412,9.432 Z M66.716,5.256 C67.4520037,6.84800796 68.7399908,8.25599388 70.58,9.48 L70.088,10.212 C68.4079916,9.0919944 67.1520042,7.71600816 66.32,6.084 C65.3599952,7.91600916 64.1560072,9.33599496 62.708,10.344 L62.228,9.612 C63.836008,8.4919944 65.0719957,7.04000892 65.936,5.256 L66.716,5.256 Z" id="真实评价"></path>
            </g>
        </g>
    </g>
</svg>