<?xml version="1.0" encoding="utf-8"?>
<!-- Generator: Adobe Illustrator 17.0.0, SVG Export Plug-In . SVG Version: 6.00 Build 0)  -->
<!DOCTYPE svg PUBLIC "-//W3C//DTD SVG 1.1//EN" "http://www.w3.org/Graphics/SVG/1.1/DTD/svg11.dtd">
<svg version="1.1" id="图层_1" xmlns="http://www.w3.org/2000/svg" xmlns:xlink="http://www.w3.org/1999/xlink" x="0px" y="0px"
	 width="18px" height="18px" viewBox="0 0 18 18" enable-background="new 0 0 18 18" xml:space="preserve">
<path fill="#1B1B1B" d="M17.052,1.393H0.947C0.367,1.393,0,1.756,0,2.344v10.459c0,0.588,0.367,0.951,0.947,0.951h16.106
	c0.58,0,0.948-0.362,0.948-0.951V2.344C18,1.756,17.633,1.393,17.052,1.393L17.052,1.393L17.052,1.393z M17.052,12.803H0.947V2.344
	h16.106V12.803L17.052,12.803L17.052,12.803z M6.513,4.484v6.258l5.211-3.13L6.513,4.484L6.513,4.484z M11.34,15.216L6.631,15.18
	c-0.284,0-0.641,0.414-0.641,0.702c0,0.288,0.358,0.724,0.641,0.724l4.749-0.057c0.284,0,0.628-0.379,0.628-0.667
	C12.009,15.595,11.624,15.216,11.34,15.216L11.34,15.216L11.34,15.216z"/>
</svg>
