<?xml version="1.0" encoding="utf-8"?>
<!-- Generator: Adobe Illustrator 17.0.0, SVG Export Plug-In . SVG Version: 6.00 Build 0)  -->
<!DOCTYPE svg PUBLIC "-//W3C//DTD SVG 1.1//EN" "http://www.w3.org/Graphics/SVG/1.1/DTD/svg11.dtd">
<svg version="1.1" id="Layer_1" xmlns="http://www.w3.org/2000/svg" xmlns:xlink="http://www.w3.org/1999/xlink" x="0px" y="0px"
	 width="16px" height="16px" viewBox="0.5 0.5 16 16" enable-background="new 0.5 0.5 16 16" xml:space="preserve">
<path d="M8.5,2.5c2,0,3,1.286,3,3c0,2.571-2,3-2,4s5,1,5,5c-1,0-11,0-12,0c0-4,5-4,5-5s-2-1.429-2-4C5.5,3.786,6.5,2.5,8.5,2.5
	 M8.5,1.5c-2.43,0-4,1.57-4,4c0,1.993,1.02,3.029,1.629,3.648C6.163,9.183,6.2,9.22,6.237,9.259
	C6.102,9.315,5.958,9.373,5.832,9.423C4.318,10.029,1.5,11.156,1.5,14.5c0,0.552,0.448,1,1,1h12c0.552,0,1-0.448,1-1
	c0-3.344-2.818-4.471-4.332-5.077c-0.126-0.05-0.27-0.108-0.405-0.165c0.037-0.038,0.074-0.076,0.108-0.11
	C11.48,8.529,12.5,7.493,12.5,5.5C12.5,3.07,10.93,1.5,8.5,1.5L8.5,1.5z"/>
</svg>
