<?xml version="1.0" encoding="utf-8"?>
<!-- Generator: Adobe Illustrator 17.0.0, SVG Export Plug-In . SVG Version: 6.00 Build 0)  -->
<!DOCTYPE svg PUBLIC "-//W3C//DTD SVG 1.1//EN" "http://www.w3.org/Graphics/SVG/1.1/DTD/svg11.dtd">
<svg version="1.1" id="图层_1" xmlns="http://www.w3.org/2000/svg" xmlns:xlink="http://www.w3.org/1999/xlink" x="0px" y="0px"
	 width="10px" height="10px" viewBox="0 0 10 10" enable-background="new 0 0 10 10" xml:space="preserve">
<g>
	<g>
		<path fill-rule="evenodd" clip-rule="evenodd" d="M4.801,4.955L5.947,10l3.899-3.899L4.801,4.955z M5.651,5.873L8.47,6.56
			L6.406,8.624L5.651,5.873z M3.758,2.757H0.442c-0.159,0-0.288,0.129-0.288,0.288V6.36c0,0.159,0.129,0.288,0.288,0.288h3.315
			c0.159,0,0.288-0.129,0.288-0.288V3.045C4.046,2.886,3.917,2.757,3.758,2.757z M3.397,5.808C3.397,5.914,3.311,6,3.205,6h-2.21
			C0.889,6,0.803,5.914,0.803,5.808v-2.21c0-0.106,0.086-0.192,0.192-0.192h2.21c0.106,0,0.192,0.086,0.192,0.192V5.808z
			 M6.965,4.541c1.254,0,2.27-1.016,2.27-2.27S8.219,0,6.965,0s-2.27,1.016-2.27,2.27S5.711,4.541,6.965,4.541z M6.965,0.649
			c0.896,0,1.622,0.726,1.622,1.622S7.86,3.892,6.965,3.892S5.343,3.166,5.343,2.27S6.069,0.649,6.965,0.649z"/>
	</g>
</g>
</svg>
