<?xml version="1.0" encoding="utf-8"?>
<!-- Generator: Adobe Illustrator 17.0.0, SVG Export Plug-In . SVG Version: 6.00 Build 0)  -->
<!DOCTYPE svg PUBLIC "-//W3C//DTD SVG 1.1//EN" "http://www.w3.org/Graphics/SVG/1.1/DTD/svg11.dtd">
<svg version="1.1" id="图层_1" xmlns="http://www.w3.org/2000/svg" xmlns:xlink="http://www.w3.org/1999/xlink" x="0px" y="0px"
	 width="10px" height="10px" viewBox="0 0 10 10" enable-background="new 0 0 10 10" xml:space="preserve">
<g>
	<path d="M5.083,10L4.988,9.961C4.806,9.886,0.526,8.107,0.526,5.937V0h8.948v6.109c0,2.174-4.12,3.787-4.295,3.854L5.083,10z
		 M1.042,0.516v5.42c0,1.477,2.834,2.992,4.047,3.507c1.164-0.468,3.869-1.865,3.869-3.335V0.516H1.042z"/>
</g>
<g>
	<path d="M5.081,6.515l1.957-3.307h0.457L7.494,2.561h-0.8L5.362,4.773L4.027,2.56L2.505,2.558l0.001,0.64L3.011,3.2L5.081,6.515
		L5.081,6.515z M5.081,6.515"/>
</g>
</svg>
