<?xml version="1.0" encoding="utf-8"?>
<!-- Generator: Adobe Illustrator 16.0.0, SVG Export Plug-In . SVG Version: 6.00 Build 0)  -->
<!DOCTYPE svg PUBLIC "-//W3C//DTD SVG 1.1//EN" "http://www.w3.org/Graphics/SVG/1.1/DTD/svg11.dtd">
<svg version="1.1" id="Layer_1" xmlns="http://www.w3.org/2000/svg" xmlns:xlink="http://www.w3.org/1999/xlink" x="0px" y="0px"
	 width="16px" height="16px" viewBox="0 0 16 16" enable-background="new 0 0 16 16" xml:space="preserve">
<g>
	<g>
		<path fill-rule="evenodd" clip-rule="evenodd" fill="#231F20" d="M14.866,12.875c-0.157-0.256-0.307-0.516-0.459-0.773
			c-0.541-0.912-1.082-1.824-1.623-2.737c-0.494-0.837-0.989-1.674-1.482-2.511c-0.47-0.796-0.933-1.594-1.407-2.387
			c-0.398-0.67-0.812-1.332-1.211-2.003C8.541,2.222,8.365,2.046,8.07,2.007C7.74,1.963,7.516,2.147,7.363,2.375
			C7.065,2.819,6.811,3.292,6.54,3.753C5.902,4.838,5.269,5.925,4.626,7.007c-0.5,0.844-1.017,1.678-1.518,2.521
			c-0.653,1.1-1.294,2.207-1.954,3.303c-0.159,0.264-0.203,0.549-0.079,0.792c0.13,0.251,0.388,0.38,0.728,0.378
			c2.059-0.015,4.118-0.008,6.178-0.008c2.078,0,4.156,0.004,6.234-0.004c0.15,0,0.326-0.031,0.448-0.109
			C15.03,13.643,15.095,13.244,14.866,12.875z M8,13c-0.552,0-1-0.447-1-1s0.448-1,1-1c0.553,0,1,0.447,1,1S8.553,13,8,13z
			 M8.752,9.717C8.752,9.873,8.625,10,8.469,10H7.564c-0.156,0-0.283-0.127-0.283-0.283L7,5.284C7,5.127,7.127,5,7.284,5h1.433
			C8.873,5,9,5.127,9,5.284L8.752,9.717z"/>
	</g>
</g>
</svg>
