<?xml version="1.0" encoding="iso-8859-1"?>
<!-- Generator: Adobe Illustrator 16.0.0, SVG Export Plug-In . SVG Version: 6.00 Build 0)  -->
<!DOCTYPE svg PUBLIC "-//W3C//DTD SVG 1.1//EN" "http://www.w3.org/Graphics/SVG/1.1/DTD/svg11.dtd">
<svg version="1.1" id="Layer_1" xmlns="http://www.w3.org/2000/svg" xmlns:xlink="http://www.w3.org/1999/xlink" x="0px" y="0px"
	 width="12px" height="16px" viewBox="0 0 12 16" style="enable-background:new 0 0 12 16;" xml:space="preserve">
<path style="fill:#f00;" d="M4.999,11.104c0.471,1.02,1.141,1.925,1.992,2.691l0.015,0.013c0.146,0.117,0.376,0.272,0.701,0.272
	c0.51,0,0.924-0.399,0.924-0.89c0-0.448-0.299-0.624-0.589-0.793c-0.009-0.005-0.018-0.011-0.028-0.016
	c-1.268-1.241-1.965-2.876-1.965-4.607c0-1.707,0.68-3.327,1.915-4.562c0.019-0.014,0.053-0.038,0.083-0.06
	C8.266,3,8.631,2.744,8.631,2.332c0-0.491-0.415-0.89-0.924-0.89c-0.472,0-0.937,0.456-1.068,0.613
	C5.107,3.601,4.265,5.625,4.265,7.757C4.265,8.922,4.512,10.048,4.999,11.104z"/>
<path style="fill:#f00;" d="M10.465,11.705l0.03,0.023l0.035,0.017c0.177,0.084,0.333,0.123,0.494,0.123
	c0.062,0,0.116-0.006,0.158-0.01c0.012-0.001,0.024-0.003,0.036-0.004c0.458-0.042,0.766-0.399,0.766-0.887
	c0-0.404-0.242-0.569-0.476-0.729c-0.058-0.04-0.118-0.081-0.184-0.13c-0.663-0.625-1.028-1.458-1.028-2.344
	c0-0.851,0.342-1.659,0.963-2.278c0.07-0.042,0.135-0.075,0.198-0.108c0.236-0.122,0.53-0.274,0.53-0.704
	c0-0.491-0.415-0.89-0.924-0.89c-0.354,0-0.666,0.118-0.929,0.352L10.13,4.139C9.621,4.604,9.22,5.15,8.939,5.764
	c-0.292,0.637-0.44,1.315-0.44,2.017C8.499,9.313,9.216,10.744,10.465,11.705z"/>
<path style="fill:#f00;" d="M0.707,11.985c0.454,1.25,1.114,2.417,1.96,3.471C2.906,15.817,3.206,16,3.56,16
	c0.5,0,0.876-0.375,0.876-0.872c0-0.316-0.16-0.508-0.315-0.694l-0.014-0.017c-0.718-0.906-1.277-1.909-1.661-2.98
	c-0.397-1.111-0.599-2.275-0.599-3.46c0-1.195,0.205-2.369,0.61-3.488c0.39-1.078,0.957-2.086,1.686-2.996
	C4.287,1.328,4.366,1.121,4.366,0.91C4.366,0.408,3.942,0,3.42,0C3.04,0,2.698,0.221,2.552,0.557
	C1.744,1.593,1.115,2.736,0.681,3.954C0.226,5.232-0.005,6.571-0.005,7.932C-0.005,9.321,0.235,10.685,0.707,11.985z"/>
</svg>
