<?xml version="1.0" encoding="utf-8"?>
<!-- Generator: Adobe Illustrator 17.0.0, SVG Export Plug-In . SVG Version: 6.00 Build 0)  -->
<!DOCTYPE svg PUBLIC "-//W3C//DTD SVG 1.1//EN" "http://www.w3.org/Graphics/SVG/1.1/DTD/svg11.dtd">
<svg version="1.1" id="Layer_1" xmlns="http://www.w3.org/2000/svg" xmlns:xlink="http://www.w3.org/1999/xlink" x="0px" y="0px"
	 width="16px" height="16px" viewBox="0 0 16 16" enable-background="new 0 0 16 16" xml:space="preserve">
<g>
	<path d="M8.5,5.521c-1.105,0-2,0.896-2,2c0,1.105,0.895,2,2,2c1.104,0,2-0.895,2-2S9.604,5.521,8.5,5.521z M8.5,8.521
		c-0.551,0-1-0.449-1-1s0.449-1,1-1c0.551,0,1,0.449,1,1S9.051,8.521,8.5,8.521z"/>
	<path d="M14.854,15.167l-2.811-2.811C13.53,11.264,14.5,9.509,14.5,7.521c0-3.314-2.686-6-6-6c-3.314,0-6,2.687-6,6
		c0,1.987,0.969,3.743,2.457,4.835l-2.81,2.81l0.707,0.707l2.982-2.982c0.804,0.399,1.706,0.63,2.665,0.63
		c0.958,0,1.861-0.23,2.664-0.629l2.982,2.982L14.854,15.167z M3.5,7.521c0-2.757,2.243-5,5-5c2.757,0,5,2.243,5,5s-2.243,5-5,5
		C5.743,12.521,3.5,10.278,3.5,7.521z"/>
</g>
</svg>
