<?xml version="1.0" encoding="utf-8"?>
<!DOCTYPE svg PUBLIC "-//W3C//DTD SVG 1.1//EN" "http://www.w3.org/Graphics/SVG/1.1/DTD/svg11.dtd">
<svg style="width:308px;height:308px;" version="1.1" id="图形" xmlns="http://www.w3.org/2000/svg" xmlns:xlink="http://www.w3.org/1999/xlink" x="0px" y="0px" width="1024px" height="1024px" viewBox="0 0 1024 1024" enable-background="new 0 0 1024 1024" xml:space="preserve">
  <path class="svgpath" data-index="path_0" fill="#272636" d="M897.030033 839.927728l27.261985 90.969879-99.410767-54.672578c-36.245289 9.12448-72.654046 18.271252-108.743297 18.271252-172.4289 0-308.248424-118.387902-308.248424-264.171537 0-145.531002 135.819524-264.171537 308.248424-264.171537 162.851168 0 307.839754 118.633104 307.839754 264.171537C1023.977709 712.415345 969.788104 785.106543 897.030033 839.927728zM616.199633 511.936842c-18.048341 0-36.245289 18.271252-36.245289 36.408757 0 18.397568 18.204378 36.423618 36.245289 36.423618 27.418023 0 45.369769-18.02605 45.369769-36.423618C661.561972 530.208094 643.610225 511.936842 616.199633 511.936842zM815.548722 511.936842c-17.922025 0-36.000087 18.271252-36.000087 36.408757 0 18.397568 18.078062 36.423618 36.000087 36.423618 27.165391 0 45.369769-18.02605 45.369769-36.423618C860.911061 530.208094 842.714113 511.936842 815.548722 511.936842zM385.078331 634.686365c0 26.444646 4.101558 51.945636 11.19012 76.280061-11.19012 0.884213-22.461974 1.44892-33.837853 1.44892-45.243453 0-81.607628-9.265657-126.947675-18.278682l-126.695043 63.819349L145.040598 648.447389C54.30849 584.761786 0.014861 502.671185 0.014861 402.695711c0-173.201657 163.192964-309.600749 362.415737-309.600749 178.202289 0 334.314121 108.981069 365.677665 255.641485-11.531916-1.292882-23.152997-2.154804-34.900394-2.154804C521.053892 346.589074 385.078331 475.654401 385.078331 634.686365zM244.689137 247.891621c-27.15796 0-54.575983 18.03348-54.575983 45.429212 0 27.284277 27.418023 45.570389 54.575983 45.570389 27.165391 0 45.243453-18.286112 45.243453-45.570389C289.93259 265.917671 271.854528 247.891621 244.689137 247.891621zM498.339286 247.891621c-27.165391 0-54.427376 18.03348-54.427376 45.429212 0 27.284277 27.261985 45.570389 54.427376 45.570389 27.291707 0 45.369769-18.286112 45.369769-45.570389C543.709055 265.917671 525.630993 247.891621 498.339286 247.891621z" />

</svg>
