<?xml version="1.0" encoding="utf-8"?>
<!-- Generated by IcoMoon.io -->
<!DOCTYPE svg PUBLIC "-//W3C//DTD SVG 1.1//EN" "http://www.w3.org/Graphics/SVG/1.1/DTD/svg11.dtd">
<svg version="1.1" xmlns="http://www.w3.org/2000/svg" xmlns:xlink="http://www.w3.org/1999/xlink" width="1024" height="1024" viewBox="0 0 1024 1024"><g id="icomoon-ignore">
</g>
<path d="M512 1020.32c-280.737 0-508.32-227.582-508.32-508.32 0-280.736 227.582-508.32 508.32-508.32s508.32 227.583 508.32 508.32c0 280.737-227.582 508.32-508.32 508.32zM412.993 247.25c-131.871 0-239.873 91.373-239.873 207.416 0 66.953 35.913 121.963 95.974 164.633l-23.979 73.354 83.848-42.734c30.019 6.019 54.091 12.213 84.030 12.213 7.53 0 15.004-0.367 22.409-0.962-4.696-16.303-7.404-33.38-7.404-51.095 0-106.541 89.965-193.007 203.949-193.007 7.769 0 15.462 0.577 23.095 1.429-20.753-98.243-124.089-171.244-242.052-171.244zM647.122 430.161c-114.159 0-204.046 79.484-204.046 176.991 0 97.649 89.887 176.94 204.046 176.94 23.874 0 47.972-6.099 71.976-12.212l65.813 36.637-18.051-60.966c48.14-36.718 84.021-85.421 84.021-140.401 0-97.506-95.962-176.991-203.757-176.991zM712.932 576.629c-11.869 0-23.842-12.068-23.842-24.409 0-12.131 11.972-24.378 23.842-24.378 17.965 0 30.012 12.247 30.012 24.378 0 12.342-12.045 24.409-30.012 24.409zM580.975 576.629c-11.953 0-23.986-12.068-23.986-24.409 0-12.131 12.035-24.378 23.986-24.378 18.138 0 30.011 12.247 30.011 24.378 0 12.342-11.871 24.409-30.011 24.409zM502.95 411.914c-17.98 0-36.006-12.259-36.006-30.54 0-18.359 18.028-30.426 36.006-30.426 18.067 0 30.011 12.068 30.011 30.426 0 18.279-11.942 30.54-30.011 30.54zM335.066 411.914c-17.991 0-36.128-12.259-36.128-30.54 0-18.359 18.138-30.426 36.128-30.426 17.989 0 29.938 12.068 29.938 30.426 0 18.279-11.948 30.54-29.938 30.54z"></path>
</svg>
