<?xml version="1.0" encoding="utf-8"?>
<!DOCTYPE svg PUBLIC "-//W3C//DTD SVG 1.1//EN" "http://www.w3.org/Graphics/SVG/1.1/DTD/svg11.dtd">
<svg version="1.1" id="图形" xmlns="http://www.w3.org/2000/svg" xmlns:xlink="http://www.w3.org/1999/xlink" x="0px" y="0px" width="1024px" height="1024px" viewBox="0 0 1024 1024" enable-background="new 0 0 1024 1024" xml:space="preserve">
  <path fill="#272636" d="M906.607128 22.290675c43.568257 39.814722 70.00964 92.125822 70.00964 149.411633 0 99.698573-80.07218 184.303945-191.17002 214.275062-6.624029 159.75879-169.243583 287.633206-368.913183 287.633206-203.879253 0-369.150364-133.313758-369.150364-297.768725 0-75.519529 34.854606-144.474627 92.287591-196.960876 17.973426-16.425063-51.836739-107.909888-77.69186-145.049942 43.692321 12.068237 139.06326 66.45558 179.861977 66.45558 19.09973 0 36.930848-1.724729 52.585986-5.540296 38.218922-10.799625 79.311986-16.676839 122.10667-16.676839 8.309836 0 16.552775 0.246911 24.730034 0.684783 43.934367-78.391239 141.724548-132.944 255.315825-132.944 32.460906 0 63.633738 4.451698 92.629374 12.652066 11.878492 2.898469 25.400221 4.204787 39.886484 4.204787 30.950248 0 86.834869-27.120085 119.979342-36.276473-19.603283 28.170977-56.103557 83.432848-42.467496 95.895169L906.607128 22.290675 906.607128 22.290675zM416.533565 132.461685c-36.868817 0-72.968925 4.92241-107.311463 14.623706l-0.945074 0.266372-0.954804 0.232315c-19.29434 4.709556-41.321731 7.093525-65.481315 7.093525-13.882973 0-50.585155-5.325009-56.73239-17.486902 28.909278 57.193372 6.088852 68.277613-8.739194 81.838264-23.947946 21.902111-42.566017 46.504432-55.309306 73.153804-12.794375 26.763705-19.28461 54.915222-19.28461 83.655432 0 62.76286 31.210538 122.504403 87.878464 168.220665 28.93482 23.338574 62.834622 41.735277 100.749466 54.67196 39.843913 13.593491 82.281001 20.487541 126.130226 20.487541 43.85409 0 86.286313-6.89405 126.135091-20.487541 37.909979-12.936683 71.814646-31.32852 100.749466-54.67196 50.581506-40.798717 80.851836-92.771683 86.781351-148.095585l0.004865 0c-11.028291 1.064272-22.24511 1.629857-33.629781 1.629857-154.661231 0-280.040993-101.13382-280.040993-225.895697 0-13.366041 1.453492-26.469358 4.209652-39.198052l0 0.004865C419.33108 132.48966 417.93962 132.461685 416.533565 132.461685L416.533565 132.461685 416.533565 132.461685zM859.658742 52.26909c-13.564299-13.977845 2.132193-35.685346 6.909862-47.629519 0 0-13.075342 8.818254-37.468458 12.419751-19.171493 2.830356-37.135189-1.933934-52.780596-5.758016l-0.954804-0.233532-0.95602-0.266372c-24.882072-7.036359-51.070463-10.598933-77.829303-10.598933-31.813828 0-62.582846 4.992956-91.442255 14.832912-27.309829 9.316942-51.678618 22.529727-72.431315 39.268598-39.839048 32.137367-61.780081 73.828857-61.780081 117.393465 0 43.568257 21.936167 85.264612 61.780081 117.401979 20.752697 16.738871 45.121486 29.951656 72.431315 39.268598 28.859409 9.844821 59.628427 14.834128 91.442255 14.834128 31.813828 0 62.582846-4.989307 91.442255-14.834128 27.309829-9.321807 51.678618-22.529727 72.427666-39.268598 39.839048-32.137367 61.784946-73.828857 61.784946-117.401979 0-19.83195-4.49062-39.273463-13.34658-57.79423-8.942318-18.69105-22.050501-36.005236-38.974251-51.474278l0 0M254.539195 434.049626c0.295564 31.395417 19.936552 56.68617 44.130193 56.68617 24.368789 0 44.128976-25.684838 44.128976-57.366088 0-31.684899-19.755322-57.370953-44.128976-57.370953-24.19364 0-43.834629 25.300483-44.125328 56.654546L254.539195 434.049626 254.539195 434.049626zM484.08504 434.049626c0.294347 31.395417 19.936552 56.68617 44.124111 56.68617 24.373655 0 44.130193-25.684838 44.130193-57.366088 0-31.684899-19.756538-57.370953-44.130193-57.370953-24.187559 0-43.829764 25.300483-44.124111 56.654546L484.08504 434.049626 484.08504 434.049626zM585.829449 213.678414c0.294347 24.126743 15.40701 43.540282 34.004404 43.540282 18.785922 0 34.008053-19.797893 34.008053-44.214118 0-24.425956-15.222131-44.215335-34.008053-44.215335-18.601043 0-33.710057 19.408673-34.004404 43.497711L585.829449 213.678414 585.829449 213.678414zM749.678693 213.678414c0.295564 24.126743 15.408227 43.540282 34.00927 43.540282 18.787138 0 34.014135-19.797893 34.014135-44.214118 0-24.425956-15.226996-44.215335-34.014135-44.215335-18.601043 0-33.713706 19.408673-34.00927 43.497711L749.678693 213.678414 749.678693 213.678414zM749.678693 213.678414" transform="translate(0, 812) scale(1, -1)"/>
</svg>
