<?xml version="1.0" encoding="utf-8"?>
<!-- Generated by IcoMoon.io -->
<!DOCTYPE svg PUBLIC "-//W3C//DTD SVG 1.1//EN" "http://www.w3.org/Graphics/SVG/1.1/DTD/svg11.dtd">
<svg version="1.1" xmlns="http://www.w3.org/2000/svg" xmlns:xlink="http://www.w3.org/1999/xlink" width="1024" height="1024" viewBox="0 0 1024 1024"><g id="icomoon-ignore">
</g>
<path d="M446.799 485.998c-99.529 4.149-179.635 56.218-179.635 121.306 0 65.069 80.104 113.602 179.635 108.863 99.531-4.149 179.636-65.089 180.248-129.582 0-65.088-80.715-105.307-180.248-100.586zM514.162 649.304c-30.348 38.46-91.030 56.811-149.304 26.036-27.906-14.796-26.702-43.777-26.702-43.777s-11.518-91.717 88.605-102.954c100.141-11.239 118.344 82.236 87.399 120.697zM400.062 600.195c-18.815 1.78-32.165 17.759-32.165 33.129 0 15.388 15.185 26.054 33.997 23.684 18.203-1.779 33.368-15.981 33.369-31.37 0-15.387-13.962-27.219-35.201-25.441zM447.412 587.77c-6.685 4.149-7.887 13.018-4.259 18.351 3.647 5.907 11.535 6.5 17.608 1.777 6.055-4.741 8.501-13.018 4.852-18.35-3.036-5.924-10.924-7.091-18.202-1.779zM511.999 4.801c-280.127 0-507.199 227.071-507.199 507.199 0 280.124 227.068 507.199 507.199 507.199 280.107 0 507.198-227.073 507.198-507.199s-227.091-507.199-507.198-507.199zM715.042 629.19c-40.665 85.201-176.008 126.621-276.129 118.92-95.291-7.683-217.265-38.441-230.005-150.878 0 0-6.683-50.868 44.294-117.734 0 0 72.218-99.4 157.177-127.806 84.977-27.813 94.679 19.519 94.679 47.924-4.852 24.256-12.741 37.868 18.811 28.404 0 0 83.754-37.867 117.734-4.148 27.924 27.22 4.868 64.498 4.868 64.498s-11.537 12.424 12.128 17.165c23.667 4.721 97.718 38.459 56.444 123.653zM633.101 393.707c-9.091 0-16.37-7.111-16.37-15.981s7.277-15.982 16.37-15.982c0 0 101.957-18.332 89.827 88.755 0 0.593 0 1.186 0 1.779-0.609 7.683-7.887 13.61-15.777 13.61-9.111 0-16.388-7.111-16.999-16.575 0 0.001 16.388-71.585-57.052-55.605zM805.46 480.683c-3.035 18.333-12.128 19.516-23.053 19.516-12.741 0-23.665-7.682-23.665-20.701 0-11.239 4.853-22.498 4.853-22.498 1.202-4.721 12.741-33.72-7.278-77.495-36.423-59.757-109.844-60.94-118.342-57.402-9.112 2.963-21.854 4.739-21.854 4.739-13.348 0-23.663-10.054-23.663-23.071 0-10.648 7.277-19.535 17.593-22.481 0 0 0-0.594 0.61-0.594 0.609-0.593 1.815-1.186 2.427-1.186 10.312-1.779 46.737-8.889 81.938-0.593 63.106 14.201 149.897 73.957 110.437 201.762z"></path>
</svg>
