<?xml version="1.0" encoding="iso-8859-1"?>
<!-- Generator: Adobe Illustrator 16.0.0, SVG Export Plug-In . SVG Version: 6.00 Build 0)  -->
<!DOCTYPE svg PUBLIC "-//W3C//DTD SVG 1.1//EN" "http://www.w3.org/Graphics/SVG/1.1/DTD/svg11.dtd">
<svg version="1.1" id="Layer_1" xmlns="http://www.w3.org/2000/svg" xmlns:xlink="http://www.w3.org/1999/xlink" x="0px" y="0px"
	 width="170px" height="101px" viewBox="0 0 170 101" style="enable-background:new 0 0 170 101;" xml:space="preserve">
<path style="fill:rgb(255,0,0);" d="M168.422,29.478c0.543,1.39,0.607,2.777,0.529,4.158c-0.105,1.855-0.327,3.689-1.527,5.057
	c-1.184,1.351-2.111,1.157-2.57-0.697c-0.22-0.886-0.277-1.957-0.096-2.847C165.266,32.654,166.456,30.736,168.422,29.478z"/>
<path style="fill:rgb(255,0,0);" d="M163.289,16.252c1.234,2.553,1.967,5.163,1.668,8.107c-0.017,0.173-0.039,0.35-0.084,0.514
	c-0.287,1.041-0.791,2.136-1.65,2.126c-0.508-0.006-1.162-1.009-1.484-1.743C160.549,22.551,161.305,18.162,163.289,16.252z"/>
<path style="fill:rgb(255,0,0);" d="M164.382,63.479c-1.248-0.012-1.509-0.338-1.535-1.61c-0.041-1.958,0.951-3.245,2.087-4.189
	c1.1-0.913,2.418-1.429,3.652-2.079c0.385-0.203,0.799-0.154,0.705,0.559c-0.348,2.627-2.005,6.305-4.205,7.131
	C164.791,63.398,164.484,63.452,164.382,63.479z"/>
<path style="fill:rgb(255,0,0);" d="M158.836,78.686c-1.47,2.269-3.276,3.721-5.518,4.371c-1.009,0.292-1.945,0.07-2.874-0.448
	c-0.583-0.325-0.73-0.876-0.378-1.407c0.521-0.783,1.084-1.661,1.793-2.093c2.098-1.278,4.334-1.423,6.599-0.681
	C158.56,78.461,158.648,78.555,158.836,78.686z"/>
<path style="fill:rgb(255,0,0);" d="M169.775,42.735c0.776,2.922-0.764,7.785-2.779,8.907c-1.223,0.682-1.918,0.276-2.096-1.359
	c-0.08-0.734-0.02-1.547,0.157-2.256C165.63,45.732,167.861,43.276,169.775,42.735z"/>
<path style="fill:rgb(255,0,0);" d="M144.594,74.503c0.979,3.085,0.196,7.196-1.811,8.904c-1.471,1.253-2.24,0.966-2.542-1.312
	c-0.122-0.924,0.134-2.019,0.444-2.916C141.371,77.193,143.371,74.926,144.594,74.503z"/>
<path style="fill:rgb(255,0,0);" d="M150.477,67.129c1.477,2.474,2.167,5.008,1.807,7.84c-0.107,0.843-0.487,1.705-0.914,2.398
	c-0.605,0.982-1.145,1.009-1.734,0c-0.505-0.864-0.973-1.93-1.065-2.961C148.33,71.734,149.107,69.373,150.477,67.129z"/>
<path style="fill:rgb(255,0,0);" d="M154.995,58.773c0.282,0.371,0.601,0.705,0.834,1.112c1.163,2.029,2.077,4.212,1.887,6.776
	c-0.064,0.869-0.495,1.727-0.854,2.522c-0.31,0.687-0.785,0.505-1.22,0.093c-0.785-0.745-1.362-1.678-1.59-2.876
	c-0.446-2.349-0.276-4.644,0.476-6.872c0.055-0.159,0.119-0.316,0.196-0.46C154.768,58.986,154.848,58.931,154.995,58.773z"/>
<path style="fill:rgb(255,0,0);" d="M165.578,67.891c-0.584,2.834-4.199,6.512-6.338,6.1c-0.605-0.116-1.607-0.428-1.664-0.82
	c-0.105-0.725,0.2-1.727,0.604-2.345c1.1-1.683,2.716-2.318,4.371-2.674C163.503,67.947,164.487,67.977,165.578,67.891z"/>
<path style="fill:rgb(255,0,0);" d="M155.46,4.142c2.034,2.217,3.421,4.839,3.952,8.11c0.016,0.099,0.026,0.222-0.006,0.307
	c-0.298,0.795-0.605,1.585-0.91,2.377c-0.626-0.415-1.369-0.683-1.854-1.274c-1.119-1.367-1.652-3.15-1.766-5.079
	C154.791,7.097,154.714,5.583,155.46,4.142z"/>
<path style="fill:rgb(255,0,0);" d="M136.311,79.021c0.4,2.861-0.104,5.199-1.433,7.265c-0.667,1.036-1.503,1.761-2.633,1.877
	c-0.552,0.058-0.94-0.181-1.001-0.81c-0.086-0.875-0.25-1.881,0-2.637C132.158,81.957,133.988,80.332,136.311,79.021z"/>
<path style="fill:rgb(255,0,0);" d="M150.211,87.381c-1.467,1.408-3.061,1.935-4.703,2.255c-1.621,0.315-3.193,0.251-4.612-1.025
	c-0.624-0.562-0.657-0.976-0.121-1.646c0.791-0.99,1.767-1.311,2.829-1.411C145.893,85.335,148.026,85.984,150.211,87.381z"/>
<path style="fill:rgb(255,0,0);" d="M157.127,49.196c2.4,1.955,4.333,4.391,4.819,8.093c0.094,0.711-0.366,1.533-0.571,2.305
	c-0.539-0.223-1.154-0.31-1.604-0.693c-1.611-1.372-2.297-3.484-2.674-5.742c-0.207-1.242-0.22-2.536-0.32-3.806
	C156.894,49.3,157.01,49.249,157.127,49.196z"/>
<path style="fill:rgb(255,0,0);" d="M139.772,93.089c-1.237,0.241-2.468,0.591-3.712,0.697c-1.787,0.153-3.586,0.074-5.094-1.37
	c-0.393-0.377-0.646-0.978-0.964-1.476c0.44-0.399,0.837-0.983,1.329-1.165c1.936-0.715,3.81-0.182,5.6,0.777
	c1.01,0.541,1.956,1.264,2.932,1.904C139.832,92.668,139.803,92.879,139.772,93.089z"/>
<path style="fill:rgb(255,0,0);" d="M156.773,38.554c2.765,1.391,5.195,3.3,6.367,6.937c0.217,0.67,0.021,1.543,0.016,2.323
	c-0.623-0.098-1.307-0.024-1.859-0.324c-1.596-0.866-2.592-2.556-3.379-4.384c-0.586-1.363-0.983-2.85-1.465-4.282
	C156.561,38.733,156.667,38.644,156.773,38.554z"/>
<path style="fill:rgb(255,0,0);" d="M145.688,11.096c3.408-0.754,6.361-0.259,8.924,2.326c0.392,0.396,0.541,1.158,0.803,1.751
	c-0.462,0.292-0.943,0.865-1.383,0.82c-1.158-0.119-2.348-0.336-3.434-0.825C148.794,14.357,147.184,13.081,145.688,11.096z"/>
<path style="fill:rgb(255,0,0);" d="M155.205,28.083c1.941,0.385,3.426,1.312,4.71,2.62c0.921,0.938,1.778,2.058,2.428,3.287
	c0.362,0.685,0.243,1.76,0.341,2.659c-0.683-0.08-1.433,0.039-2.035-0.275c-2.076-1.083-3.34-3.247-4.428-5.567
	C155.857,30.029,155.606,29.172,155.205,28.083z"/>
<path style="fill:rgb(255,0,0);" d="M145.518-0.498c2.803,1.333,5.4,2.832,6.983,6.054c0.325,0.663,0.235,1.636,0.338,2.466
	c-0.621-0.007-1.314,0.208-1.851-0.06c-2.871-1.437-4.514-4.262-5.465-7.792C145.482,0.017,145.518-0.167,145.518-0.498z"/>
<path style="fill:rgb(255,0,0);" d="M150.9,17.803c1.008,0.204,2.041,0.301,3.021,0.634c2.031,0.69,3.969,1.67,5.229,3.923
	c0.295,0.527,0.357,1.251,0.527,1.885c-0.54,0.144-1.137,0.542-1.607,0.38c-1.121-0.385-2.256-0.884-3.252-1.613
	c-1.629-1.191-2.993-2.801-4.031-4.78C150.825,18.089,150.862,17.946,150.9,17.803z"/>
<path style="fill:rgb(255,0,0);" d="M127.311,82.649c0.4,2.862-0.104,5.199-1.433,7.265c-0.667,1.037-1.503,1.762-2.633,1.877
	c-0.552,0.058-0.94-0.181-1.002-0.81c-0.085-0.874-0.249-1.88,0.001-2.636C123.158,85.586,124.988,83.961,127.311,82.649z"/>
<path style="fill:rgb(255,0,0);" d="M130.772,96.717c-1.237,0.241-2.468,0.591-3.712,0.697c-1.787,0.154-3.586,0.074-5.094-1.369
	c-0.393-0.377-0.646-0.979-0.964-1.477c0.44-0.398,0.837-0.982,1.329-1.164c1.936-0.716,3.81-0.182,5.6,0.776
	c1.01,0.54,1.956,1.264,2.931,1.904C130.832,96.296,130.803,96.506,130.772,96.717z"/>
<path style="fill:rgb(255,0,0);" d="M1.579,29.466c-0.543,1.389-0.607,2.776-0.529,4.156c0.105,1.854,0.327,3.688,1.526,5.056
	c1.185,1.351,2.112,1.157,2.571-0.697c0.219-0.885,0.277-1.956,0.096-2.846C4.735,32.642,3.544,30.724,1.579,29.466z"/>
<path style="fill:rgb(255,0,0);" d="M6.712,16.246c-1.236,2.553-1.968,5.162-1.669,8.105c0.018,0.173,0.04,0.35,0.085,0.514
	c0.287,1.04,0.792,2.135,1.65,2.125c0.508-0.005,1.163-1.008,1.485-1.742C9.452,22.542,8.696,18.155,6.712,16.246z"/>
<path style="fill:rgb(255,0,0);" d="M5.619,63.455c1.248-0.013,1.508-0.338,1.535-1.61c0.041-1.958-0.951-3.245-2.087-4.188
	c-1.099-0.913-2.417-1.429-3.652-2.079c-0.384-0.203-0.799-0.154-0.704,0.559c0.348,2.627,2.005,6.303,4.206,7.128
	C5.208,63.375,5.516,63.428,5.619,63.455z"/>
<path style="fill:rgb(255,0,0);" d="M11.164,78.655c1.47,2.269,3.277,3.72,5.518,4.37c1.009,0.292,1.946,0.07,2.875-0.447
	c0.583-0.325,0.73-0.877,0.378-1.406c-0.521-0.785-1.085-1.662-1.793-2.094c-2.097-1.278-4.334-1.422-6.599-0.68
	C11.44,78.432,11.352,78.525,11.164,78.655z"/>
<path style="fill:rgb(255,0,0);" d="M0.224,42.719c-0.776,2.921,0.765,7.782,2.781,8.904c1.223,0.682,1.918,0.276,2.095-1.358
	c0.08-0.733,0.02-1.547-0.158-2.255C4.37,45.715,2.139,43.26,0.224,42.719z"/>
<path style="fill:rgb(255,0,0);" d="M25.407,74.475c-0.98,3.084-0.197,7.194,1.81,8.9c1.471,1.252,2.241,0.967,2.542-1.312
	c0.122-0.923-0.134-2.018-0.444-2.915C28.628,77.164,26.63,74.896,25.407,74.475z"/>
<path style="fill:rgb(255,0,0);" d="M19.524,67.104c-1.477,2.473-2.167,5.007-1.807,7.836c0.107,0.844,0.488,1.705,0.914,2.398
	c0.605,0.982,1.144,1.008,1.734-0.001c0.505-0.862,0.973-1.929,1.065-2.958C21.67,71.707,20.893,69.346,19.524,67.104z"/>
<path style="fill:rgb(255,0,0);" d="M15.005,58.751c-0.281,0.371-0.6,0.704-0.834,1.112c-1.163,2.028-2.076,4.209-1.887,6.773
	c0.064,0.868,0.495,1.726,0.854,2.521c0.31,0.688,0.785,0.505,1.22,0.092c0.785-0.744,1.362-1.676,1.59-2.874
	c0.447-2.348,0.276-4.642-0.476-6.868c-0.054-0.16-0.119-0.316-0.196-0.461C15.232,58.963,15.153,58.908,15.005,58.751z"/>
<path style="fill:rgb(255,0,0);" d="M4.422,67.865c0.583,2.832,4.199,6.51,6.338,6.098c0.605-0.117,1.606-0.429,1.664-0.82
	c0.106-0.725-0.201-1.727-0.604-2.344c-1.1-1.682-2.715-2.317-4.371-2.674C6.497,67.921,5.513,67.95,4.422,67.865z"/>
<path style="fill:rgb(255,0,0);" d="M14.54,4.14c-2.034,2.216-3.421,4.838-3.952,8.107c-0.016,0.099-0.027,0.222,0.005,0.307
	c0.298,0.795,0.606,1.584,0.911,2.376c0.625-0.415,1.368-0.682,1.853-1.273c1.12-1.368,1.652-3.149,1.766-5.078
	C15.21,7.094,15.286,5.58,14.54,4.14z"/>
<path style="fill:rgb(255,0,0);" d="M33.689,78.991c-0.399,2.861,0.103,5.197,1.433,7.263c0.667,1.035,1.503,1.76,2.633,1.876
	c0.552,0.058,0.941-0.181,1.002-0.81c0.084-0.875,0.249-1.879-0.001-2.635C37.842,81.926,36.012,80.303,33.689,78.991z"/>
<path style="fill:rgb(255,0,0);" d="M19.789,87.348c1.468,1.408,3.062,1.934,4.704,2.254c1.621,0.316,3.194,0.251,4.612-1.025
	c0.624-0.561,0.657-0.975,0.122-1.645c-0.792-0.99-1.768-1.309-2.83-1.41C24.107,85.303,21.974,85.951,19.789,87.348z"/>
<path style="fill:rgb(255,0,0);" d="M12.873,49.178c-2.4,1.954-4.333,4.389-4.819,8.089c-0.094,0.712,0.367,1.534,0.571,2.306
	c0.539-0.224,1.154-0.311,1.604-0.693c1.611-1.372,2.296-3.484,2.673-5.74c0.208-1.243,0.221-2.536,0.321-3.806
	C13.106,49.281,12.99,49.229,12.873,49.178z"/>
<path style="fill:rgb(255,0,0);" d="M30.228,93.054c1.237,0.241,2.468,0.591,3.712,0.697c1.787,0.153,3.585,0.073,5.093-1.37
	c0.394-0.377,0.647-0.977,0.964-1.475c-0.44-0.399-0.836-0.982-1.33-1.164c-1.935-0.716-3.809-0.182-5.599,0.775
	c-1.01,0.541-1.956,1.264-2.931,1.904C30.167,92.633,30.198,92.844,30.228,93.054z"/>
<path style="fill:rgb(255,0,0);" d="M13.226,38.539c-2.764,1.39-5.194,3.299-6.367,6.934c-0.216,0.67-0.021,1.543-0.016,2.322
	c0.624-0.097,1.308-0.024,1.859-0.324c1.596-0.866,2.593-2.555,3.38-4.382c0.586-1.362,0.983-2.849,1.464-4.28
	C13.44,38.719,13.333,38.629,13.226,38.539z"/>
<path style="fill:rgb(255,0,0);" d="M24.312,11.091c-3.408-0.754-6.361-0.259-8.923,2.325c-0.392,0.396-0.542,1.158-0.804,1.75
	c0.462,0.292,0.944,0.865,1.384,0.82c1.157-0.119,2.347-0.336,3.433-0.824C21.206,14.351,22.816,13.076,24.312,11.091z"/>
<path style="fill:rgb(255,0,0);" d="M14.795,28.072c-1.941,0.385-3.426,1.312-4.71,2.619c-0.921,0.938-1.778,2.057-2.428,3.285
	c-0.362,0.685-0.243,1.759-0.34,2.658c0.682-0.08,1.432,0.039,2.035-0.275c2.077-1.083,3.34-3.246,4.428-5.565
	C14.143,30.018,14.394,29.161,14.795,28.072z"/>
<path style="fill:rgb(255,0,0);" d="M24.482-0.498c-2.802,1.333-5.399,2.831-6.983,6.052c-0.325,0.662-0.236,1.635-0.337,2.465
	c0.621-0.007,1.314,0.208,1.85-0.06c2.872-1.437,4.515-4.261,5.466-7.79C24.518,0.017,24.482-0.167,24.482-0.498z"/>
<path style="fill:rgb(255,0,0);" d="M19.101,17.796c-1.009,0.204-2.042,0.301-3.022,0.634c-2.032,0.69-3.969,1.669-5.229,3.921
	c-0.295,0.526-0.357,1.251-0.527,1.885c0.54,0.143,1.136,0.542,1.607,0.379c1.121-0.385,2.255-0.884,3.251-1.612
	c1.629-1.191,2.994-2.8,4.031-4.778C19.175,18.083,19.138,17.939,19.101,17.796z"/>
<path style="fill:rgb(255,0,0);" d="M42.689,82.618c-0.399,2.86,0.103,5.197,1.433,7.263c0.667,1.035,1.503,1.76,2.633,1.876
	c0.552,0.058,0.941-0.181,1.002-0.81c0.084-0.875,0.249-1.879-0.001-2.636C46.842,85.553,45.012,83.929,42.689,82.618z"/>
<path style="fill:rgb(255,0,0);" d="M39.228,96.681c1.237,0.241,2.467,0.59,3.712,0.696c1.787,0.154,3.585,0.074,5.093-1.369
	c0.394-0.377,0.647-0.977,0.964-1.475c-0.44-0.399-0.836-0.982-1.33-1.165c-1.935-0.715-3.809-0.181-5.6,0.776
	c-1.01,0.541-1.956,1.264-2.93,1.904C39.167,96.26,39.198,96.47,39.228,96.681z"/>
<path style="fill-rule:evenodd;clip-rule:evenodd;fill:rgb(255,0,0);" d="M86,85.5l2.637,4.715l5.362,1.016l-3.733,3.928l0.678,5.342
	L86,98.214l-4.944,2.286l0.678-5.342l-3.733-3.928l5.362-1.016L86,85.5"/>
<path style="fill-rule:evenodd;clip-rule:evenodd;fill:rgb(255,0,0);" d="M103.5,87.5l2.143,3.771l4.356,0.812l-3.032,3.143l0.55,4.273
	l-4.017-1.828L99.483,99.5l0.55-4.273l-3.032-3.143l4.356-0.812L103.5,87.5"/>
<path style="fill-rule:evenodd;clip-rule:evenodd;fill:rgb(255,0,0);" d="M67.5,87.5l-2.142,3.771l-4.357,0.812l3.033,3.143l-0.55,4.273
	l4.017-1.828l4.017,1.828l-0.551-4.273l3.033-3.143l-4.356-0.812L67.5,87.5"/>
</svg>
