<?xml version="1.0" encoding="utf-8"?>
<!-- Generator: Adobe Illustrator 17.0.0, SVG Export Plug-In . SVG Version: 6.00 Build 0)  -->
<!DOCTYPE svg PUBLIC "-//W3C//DTD SVG 1.1//EN" "http://www.w3.org/Graphics/SVG/1.1/DTD/svg11.dtd">
<svg version="1.1" id="图层_1" xmlns="http://www.w3.org/2000/svg" xmlns:xlink="http://www.w3.org/1999/xlink" x="0px" y="0px"
	 width="32px" height="32px" viewBox="0 0 32 32" enable-background="new 0 0 32 32" xml:space="preserve">
<path fill="#323333" d="M16,0C7.163,0,0,7.163,0,16s7.163,16,16,16s16-7.163,16-16S24.837,0,16,0z M16.217,25.137H7.551
	c-0.419,0-0.908-0.273-0.908-1.042V7.688c0-0.769,0.489-1.042,0.908-1.042h16.847c0.419,0,0.908,0.272,0.908,1.042v9.493
	c0,0.297-0.241,0.538-0.538,0.538s-0.538-0.241-0.538-0.538v-9.46H7.727l-0.009,16.34h8.5c0.297,0,0.538,0.241,0.538,0.538
	S16.514,25.137,16.217,25.137z M22.566,15.555h-8.341c-0.271,0-0.492-0.22-0.492-0.492s0.22-0.492,0.492-0.492h8.341
	c0.271,0,0.492,0.22,0.492,0.492S22.838,15.555,22.566,15.555z M23.059,18.695c0,0.271-0.221,0.492-0.492,0.492h-8.341
	c-0.271,0-0.492-0.221-0.492-0.492s0.22-0.492,0.492-0.492h8.341C22.838,18.203,23.059,18.424,23.059,18.695z M22.566,12.019h-8.341
	c-0.271,0-0.492-0.22-0.492-0.492s0.22-0.492,0.492-0.492h8.341c0.271,0,0.492,0.22,0.492,0.492S22.838,12.019,22.566,12.019z
	 M11.384,15.601H9.637c-0.297,0-0.538-0.241-0.538-0.538s0.241-0.538,0.538-0.538h1.748c0.297,0,0.538,0.241,0.538,0.538
	S11.681,15.601,11.384,15.601z M11.922,18.695c0,0.297-0.241,0.538-0.538,0.538H9.637c-0.297,0-0.538-0.241-0.538-0.538
	s0.241-0.538,0.538-0.538h1.748C11.681,18.157,11.922,18.398,11.922,18.695z M11.384,12.064H9.637c-0.297,0-0.538-0.241-0.538-0.538
	s0.241-0.538,0.538-0.538h1.748c0.297,0,0.538,0.241,0.538,0.538S11.681,12.064,11.384,12.064z M26.351,19.859l-5.984,5.879
	l-2.058-2.009c-0.212-0.207-0.217-0.548-0.009-0.761c0.208-0.212,0.549-0.217,0.761-0.009l1.304,1.272l5.339-5.229
	c0.247-0.164,0.582-0.099,0.747,0.148C26.604,19.381,26.558,19.686,26.351,19.859z"/>
</svg>
