<?xml version="1.0" encoding="UTF-8" standalone="no"?>
<svg width="12px" height="15px" viewBox="0 0 12 15" version="1.1" xmlns="http://www.w3.org/2000/svg" xmlns:xlink="http://www.w3.org/1999/xlink">
    <!-- Generator: Sketch 40 (33762) - http://www.bohemiancoding.com/sketch -->
    <title>地点</title>
    <desc>Created with Sketch.</desc>
    <defs></defs>
    <g id="老师端" stroke="none" stroke-width="1" fill="none" fill-rule="evenodd">
        <g id="可报名—还没有老师报名" transform="translate(-15.000000, -587.000000)" stroke="#9D9D9E">
            <g id="Group-Copy" transform="translate(1.000000, 542.000000)">
                <g id="地点" transform="translate(15.000000, 46.000000)">
                    <path d="M5,3 C4.1715842,3 3.5,3.67157661 3.5,4.5 C3.5,5.32836649 4.17158419,6 5,6 C5.82841581,6 6.5,5.32836649 6.5,4.5 C6.49999999,3.67157663 5.8284158,3 5,3 L5,3 Z M5,-2.66453526e-15 C2.24299312,-2.66453526e-15 -2.66453526e-15,2.29884373 -2.66453526e-15,5.12457345 C-2.66453526e-15,7.33794491 2.90192677,11.0875822 4.14952737,12.5970616 C4.36059128,12.852578 4.67193487,13 4.99993402,13 C5.32799915,13 5.63926028,12.852578 5.85040665,12.5972546 C7.09807323,11.0877752 10,7.33839511 10,5.12457347 C10,2.29882764 7.75705635,-2.66453526e-15 5,-2.66453526e-15 L5,-2.66453526e-15 Z" id="Shape"></path>
                </g>
            </g>
        </g>
    </g>
</svg>