<?xml version="1.0" encoding="UTF-8" standalone="no"?>
<svg width="74px" height="19px" viewBox="0 0 74 19" version="1.1" xmlns="http://www.w3.org/2000/svg" xmlns:xlink="http://www.w3.org/1999/xlink">
    <!-- Generator: Sketch 3.8.3 (29802) - http://www.bohemiancoding.com/sketch -->
    <title>随时插班</title>
    <desc>Created with Sketch.</desc>
    <defs></defs>
    <g id="Page-1" stroke="none" stroke-width="1" fill="none" fill-rule="evenodd">
        <g id="Artboard-1" transform="translate(-338.000000, -71.000000)" fill="#000000">
            <g id="随时插班" transform="translate(338.000000, 71.000000)">
                <path d="M1,0.994771168 L1,0.994771168 L1,18.0052288 C1,18.0006063 0.999398863,18 0.990129262,18 L73.0098707,18 C72.9983449,18 73,17.9983487 73,18.0052288 L73,0.994771168 C73,0.999393717 73.0006011,1 73.0098707,1 L0.990129262,1 C1.00165514,1 1,1.0016513 1,0.994771168 L1,0.994771168 Z M0,0.994771168 C0,0.445374222 0.453369457,0 0.990129262,0 L73.0098707,0 C73.556704,0 74,0.450925395 74,0.994771168 L74,18.0052288 C74,18.5546258 73.5466305,19 73.0098707,19 L0.990129262,19 C0.44329597,19 0,18.5490746 0,18.0052288 L0,0.994771168 L0,0.994771168 Z" id="Rectangle-1-Copy-10"></path>
                <path d="M0,0.994771168 C0,0.445374222 0.450925395,0 0.994771168,0 L19,0 L19,19 L0.994771168,19 C0.445374222,19 0,18.5490746 0,18.0052288 L0,0.994771168 Z M14.244,5.204 C13.3959958,5.38000088 12.3840059,5.51599952 11.208,5.612 L11.208,6.92 L14.472,6.92 L14.472,7.712 L11.208,7.712 L11.208,13.736 L13.188,13.736 L13.188,12.068 L11.784,12.068 L11.784,11.324 L13.188,11.324 L13.188,9.752 L11.796,9.752 L11.796,8.996 L13.98,8.996 L13.98,15.212 L13.188,15.212 L13.188,14.504 L8.388,14.504 L8.388,15.092 L7.596,15.092 L7.596,9.296 C8.28400344,9.12799916 8.91599712,8.88800156 9.492,8.576 L9.984,9.26 C9.51199764,9.48400112 8.98000296,9.6759992 8.388,9.836 L8.388,11.336 L9.84,11.336 L9.84,12.08 L8.388,12.08 L8.388,13.736 L10.404,13.736 L10.404,7.712 L7.452,7.712 L7.452,6.92 L10.404,6.92 L10.404,5.66 C9.55599576,5.70800024 8.64000492,5.732 7.656,5.732 L7.38,4.94 C9.94801284,4.94 12.0959914,4.78800152 13.824,4.484 L14.244,5.204 Z M7.08,9.944 C6.61599768,10.2000013 6.2640012,10.3879994 6.024,10.508 L6.024,14.072 C6.024,14.7600034 5.69600328,15.104 5.04,15.104 L4.044,15.104 L3.864,14.288 C4.20800172,14.3280002 4.4999988,14.348 4.74,14.348 C5.03600148,14.348 5.184,14.1880016 5.184,13.868 L5.184,10.892 C4.6639974,11.1080011 4.204002,11.2839993 3.804,11.42 L3.6,10.604 C4.14400272,10.4599993 4.67199744,10.2800011 5.184,10.064 L5.184,7.232 L3.66,7.232 L3.66,6.404 L5.184,6.404 L5.184,4.208 L6.024,4.208 L6.024,6.404 L7.08,6.404 L7.08,7.232 L6.024,7.232 L6.024,9.68 C6.5040024,9.42399872 6.85599888,9.22800068 7.08,9.092 L7.08,9.944 Z" id="Combined-Shape"></path>
                <path d="M23,4.54 L26.012,4.54 L26.012,5.188 C25.7959989,6.19600504 25.5320016,7.25199448 25.22,8.356 C25.7320026,9.37200508 26.0079998,10.2559962 26.048,11.008 C26.048,11.5120025 25.952001,11.867999 25.76,12.076 C25.4799986,12.3560014 25.0080033,12.5 24.344,12.508 L24.092,11.704 C24.3480013,11.7280001 24.5599992,11.74 24.728,11.74 C24.9040009,11.7159999 25.0399995,11.6560005 25.136,11.56 C25.2160004,11.4399994 25.256,11.2560012 25.256,11.008 C25.256,10.2639963 24.9840027,9.42000472 24.44,8.476 C24.7840017,7.26799396 25.0439991,6.21200452 25.22,5.308 L23.804,5.308 L23.804,14.98 L23,14.98 L23,4.54 Z M26.9,4.756 C27.3560023,5.4360034 27.7199986,6.06399712 27.992,6.64 L27.356,7.096 C27.0679986,6.47199688 26.7040022,5.82400336 26.264,5.152 L26.9,4.756 Z M33.488,14.044 L33.272,14.86 L31.04,14.86 C30.8159989,14.86 30.4800022,14.8520001 30.032,14.836 C29.5279975,14.8199999 29.0840019,14.7480006 28.7,14.62 C28.3239981,14.4839993 28.0040013,14.2440017 27.74,13.9 C27.5959993,13.7319992 27.4720005,13.648 27.368,13.648 C27.1199988,13.648 26.6640033,14.1119954 26,15.04 L25.484,14.392 C26.084003,13.591996 26.5919979,13.096001 27.008,12.904 L27.008,8.86 L25.988,8.86 L25.988,8.092 L27.812,8.092 L27.812,13.024 L27.884,13.108 C28.1080011,13.4120015 28.3959982,13.6479992 28.748,13.816 C29.0840017,13.9440006 29.451998,14.0199999 29.852,14.044 C30.4120028,14.0600001 30.8319986,14.068 31.112,14.068 C31.704003,14.068 32.495995,14.0600001 33.488,14.044 L33.488,14.044 Z M28.28,5.212 L29.948,5.212 C30.0520005,4.65999724 30.1199998,4.28000104 30.152,4.072 L30.992,4.18 L30.776,5.212 L33.428,5.212 L33.428,6.004 L30.56,6.004 C30.4639995,6.34800172 30.3280009,6.74799772 30.152,7.204 L32.96,7.204 L32.96,12.496 C32.96,13.0240026 32.6800028,13.2999999 32.12,13.324 L31.244,13.324 L31.052,12.58 C31.4360019,12.6120002 31.7079992,12.628 31.868,12.628 C32.076001,12.628 32.18,12.5000013 32.18,12.244 L32.18,11.332 L30.044,11.332 L30.044,13.36 L29.3,13.36 L29.3,8.824 C29.0119986,9.24000208 28.7200015,9.58399864 28.424,9.856 L27.98,9.28 C28.772004,8.42399572 29.3599981,7.33200664 29.744,6.004 L28.28,6.004 L28.28,5.212 Z M30.044,9.652 L30.044,10.636 L32.18,10.636 L32.18,9.652 L30.044,9.652 Z M32.18,8.956 L32.18,7.888 L30.044,7.888 L30.044,8.956 L32.18,8.956 Z M38.444,4.96 L38.444,13.804 L37.604,13.804 L37.604,13 L35.828,13 L35.828,14.092 L34.988,14.092 L34.988,4.96 L38.444,4.96 Z M35.828,12.196 L37.604,12.196 L37.604,9.304 L35.828,9.304 L35.828,12.196 Z M35.828,8.5 L37.604,8.5 L37.604,5.752 L35.828,5.752 L35.828,8.5 Z M40.172,8.536 C40.9320038,9.68800576 41.5039981,10.6719959 41.888,11.488 L41.168,11.992 C40.7279978,11.0559953 40.1600035,10.0520054 39.464,8.98 L40.172,8.536 Z M40.808,14.944 L40.628,14.104 C41.5560046,14.1360002 42.219998,14.152 42.62,14.152 C42.9720018,14.152 43.148,13.9640019 43.148,13.588 L43.148,7.096 L38.996,7.096 L38.996,6.268 L43.148,6.268 L43.148,4.156 L44.024,4.156 L44.024,6.268 L45.5,6.268 L45.5,7.096 L44.024,7.096 L44.024,13.804 C44.024,14.5640038 43.6520037,14.944 42.908,14.944 L40.808,14.944 Z M57.248,5.068 C56.3999958,5.24400088 55.3880059,5.37999952 54.212,5.476 L54.212,6.784 L57.476,6.784 L57.476,7.576 L54.212,7.576 L54.212,13.6 L56.192,13.6 L56.192,11.932 L54.788,11.932 L54.788,11.188 L56.192,11.188 L56.192,9.616 L54.8,9.616 L54.8,8.86 L56.984,8.86 L56.984,15.076 L56.192,15.076 L56.192,14.368 L51.392,14.368 L51.392,14.956 L50.6,14.956 L50.6,9.16 C51.2880034,8.99199916 51.9199971,8.75200156 52.496,8.44 L52.988,9.124 C52.5159976,9.34800112 51.984003,9.5399992 51.392,9.7 L51.392,11.2 L52.844,11.2 L52.844,11.944 L51.392,11.944 L51.392,13.6 L53.408,13.6 L53.408,7.576 L50.456,7.576 L50.456,6.784 L53.408,6.784 L53.408,5.524 C52.5599958,5.57200024 51.6440049,5.596 50.66,5.596 L50.384,4.804 C52.9520128,4.804 55.0999914,4.65200152 56.828,4.348 L57.248,5.068 Z M50.084,9.808 C49.6199977,10.0640013 49.2680012,10.2519994 49.028,10.372 L49.028,13.936 C49.028,14.6240034 48.7000033,14.968 48.044,14.968 L47.048,14.968 L46.868,14.152 C47.2120017,14.1920002 47.5039988,14.212 47.744,14.212 C48.0400015,14.212 48.188,14.0520016 48.188,13.732 L48.188,10.756 C47.6679974,10.9720011 47.208002,11.1479993 46.808,11.284 L46.604,10.468 C47.1480027,10.3239993 47.6759974,10.1440011 48.188,9.928 L48.188,7.096 L46.664,7.096 L46.664,6.268 L48.188,6.268 L48.188,4.072 L49.028,4.072 L49.028,6.268 L50.084,6.268 L50.084,7.096 L49.028,7.096 L49.028,9.544 C49.5080024,9.28799872 49.8599989,9.09200068 50.084,8.956 L50.084,9.808 Z M67.004,5.656 L65.816,5.656 L65.816,4.864 L69.32,4.864 L69.32,5.656 L67.844,5.656 L67.844,9.004 L69.14,9.004 L69.14,9.796 L67.844,9.796 L67.844,13.756 L69.488,13.756 L69.488,14.56 L65.3,14.56 L65.3,13.756 L67.004,13.756 L67.004,9.796 L65.816,9.796 L65.816,9.004 L67.004,9.004 L67.004,5.656 Z M64.328,4 L65.156,4 L65.156,9.412 C65.1239998,11.9800128 64.2840082,13.8519941 62.636,15.028 L62,14.464 C63.5280076,13.4159948 64.3039999,11.7320116 64.328,9.412 L64.328,4 Z M60.056,5.764 L58.688,5.764 L58.688,4.96 L62.216,4.96 L62.216,5.764 L60.896,5.764 L60.896,8.8 L62.06,8.8 L62.06,9.592 L60.896,9.592 L60.896,12.712 C61.3360022,12.5439992 61.8079975,12.3320013 62.312,12.076 L62.312,12.94 C61.2559947,13.4440025 60.0600067,13.8839981 58.724,14.26 L58.52,13.444 C58.9680022,13.3399995 59.4799971,13.2000009 60.056,13.024 L60.056,9.592 L58.796,9.592 L58.796,8.8 L60.056,8.8 L60.056,5.764 Z M62.72,6.04 L63.512,6.04 L63.512,7.192 C63.504,8.92800868 63.2560024,10.2079959 62.768,11.032 L62.156,10.492 C62.5240018,9.80399656 62.712,8.70400756 62.72,7.192 L62.72,6.04 Z" id="随时插班-copy"></path>
            </g>
        </g>
    </g>
</svg>