<?xml version="1.0" encoding="UTF-8" standalone="no"?>
<svg width="74px" height="19px" viewBox="0 0 74 19" version="1.1" xmlns="http://www.w3.org/2000/svg" xmlns:xlink="http://www.w3.org/1999/xlink">
    <!-- Generator: Sketch 3.8.3 (29802) - http://www.bohemiancoding.com/sketch -->
    <title>随时退班</title>
    <desc>Created with Sketch.</desc>
    <defs></defs>
    <g id="Page-1" stroke="none" stroke-width="1" fill="none" fill-rule="evenodd">
        <g id="Artboard-1" transform="translate(-254.000000, -71.000000)" fill="#000000">
            <g id="随时退班" transform="translate(254.000000, 71.000000)">
                <path d="M1,0.994771168 L1,0.994771168 L1,18.0052288 C1,18.0006063 0.999398863,18 0.990129262,18 L73.0098707,18 C72.9983449,18 73,17.9983487 73,18.0052288 L73,0.994771168 C73,0.999393717 73.0006011,1 73.0098707,1 L0.990129262,1 C1.00165514,1 1,1.0016513 1,0.994771168 L1,0.994771168 Z M0,0.994771168 C0,0.445374222 0.453369457,0 0.990129262,0 L73.0098707,0 C73.556704,0 74,0.450925395 74,0.994771168 L74,18.0052288 C74,18.5546258 73.5466305,19 73.0098707,19 L0.990129262,19 C0.44329597,19 0,18.5490746 0,18.0052288 L0,0.994771168 L0,0.994771168 Z" id="Rectangle-1-Copy-9"></path>
                <path d="M1.13686838e-13,0.994771168 C1.13686838e-13,0.445374222 0.450925395,0 0.994771168,0 L19,0 L19,19 L0.994771168,19 C0.445374222,19 1.13686838e-13,18.5490746 1.13686838e-13,18.0052288 L1.13686838e-13,0.994771168 Z M4.512,4.388 C5.33600412,5.03600324 6.01999728,5.66399696 6.564,6.272 L5.94,6.896 C5.4599976,6.295997 4.78800432,5.64800348 3.924,4.952 L4.512,4.388 Z M11.328,14.984 C10.935998,14.984 10.244005,14.9760001 9.252,14.96 C8.49999624,14.9439999 7.88800236,14.8720006 7.416,14.744 C6.95999772,14.5999993 6.54800184,14.3080022 6.18,13.868 C6.02799924,13.667999 5.88000072,13.568 5.736,13.568 C5.44799856,13.568 4.97200332,14.1199945 4.308,15.224 L3.66,14.636 C4.3000032,13.627995 4.86399756,13.0160011 5.352,12.8 L5.352,9.152 L3.648,9.152 L3.648,8.36 L6.156,8.36 L6.156,12.86 C6.2360004,12.9240003 6.32799948,13.0119994 6.432,13.124 C6.72000144,13.4680017 7.01999844,13.7199992 7.332,13.88 C7.6920018,14.0480008 8.21599656,14.1439999 8.904,14.168 C9.73600416,14.1840001 10.5039965,14.192 11.208,14.192 C11.600002,14.192 12.2119958,14.1840001 13.044,14.168 C13.7480035,14.1519999 14.2279987,14.1360001 14.484,14.12 L14.268,14.984 L11.328,14.984 Z M10.164,9.548 C10.8840036,9.97200212 11.4959975,10.3639982 12,10.724 C12.4880024,10.2919978 12.8919984,9.88000196 13.212,9.488 L13.836,9.98 C13.4119979,10.4680024 13.0120019,10.8719984 12.636,11.192 C13.2920033,11.7040026 13.8479977,12.1879977 14.304,12.644 L13.764,13.28 C12.7079947,12.1679944 11.3440084,11.1200049 9.672,10.136 L10.164,9.548 Z M8.556,7.256 L8.556,8.36 L12.636,8.36 L12.636,7.256 L8.556,7.256 Z M12.636,6.536 L12.636,5.42 L8.556,5.42 L8.556,6.536 L12.636,6.536 Z M8.556,9.128 L8.556,12.38 C9.3160038,12.2439993 10.1159958,12.0560012 10.956,11.816 L11.148,12.596 C10.2039953,12.8600013 9.01600716,13.1119988 7.584,13.352 L7.392,12.62 C7.60800108,12.5479996 7.716,12.4280008 7.716,12.26 L7.716,4.652 L13.476,4.652 L13.476,9.128 L8.556,9.128 Z" id="Combined-Shape"></path>
                <path d="M23,4.54 L26.012,4.54 L26.012,5.188 C25.7959989,6.19600504 25.5320016,7.25199448 25.22,8.356 C25.7320026,9.37200508 26.0079998,10.2559962 26.048,11.008 C26.048,11.5120025 25.952001,11.867999 25.76,12.076 C25.4799986,12.3560014 25.0080033,12.5 24.344,12.508 L24.092,11.704 C24.3480013,11.7280001 24.5599992,11.74 24.728,11.74 C24.9040009,11.7159999 25.0399995,11.6560005 25.136,11.56 C25.2160004,11.4399994 25.256,11.2560012 25.256,11.008 C25.256,10.2639963 24.9840027,9.42000472 24.44,8.476 C24.7840017,7.26799396 25.0439991,6.21200452 25.22,5.308 L23.804,5.308 L23.804,14.98 L23,14.98 L23,4.54 Z M26.9,4.756 C27.3560023,5.4360034 27.7199986,6.06399712 27.992,6.64 L27.356,7.096 C27.0679986,6.47199688 26.7040022,5.82400336 26.264,5.152 L26.9,4.756 Z M33.488,14.044 L33.272,14.86 L31.04,14.86 C30.8159989,14.86 30.4800022,14.8520001 30.032,14.836 C29.5279975,14.8199999 29.0840019,14.7480006 28.7,14.62 C28.3239981,14.4839993 28.0040013,14.2440017 27.74,13.9 C27.5959993,13.7319992 27.4720005,13.648 27.368,13.648 C27.1199988,13.648 26.6640033,14.1119954 26,15.04 L25.484,14.392 C26.084003,13.591996 26.5919979,13.096001 27.008,12.904 L27.008,8.86 L25.988,8.86 L25.988,8.092 L27.812,8.092 L27.812,13.024 L27.884,13.108 C28.1080011,13.4120015 28.3959982,13.6479992 28.748,13.816 C29.0840017,13.9440006 29.451998,14.0199999 29.852,14.044 C30.4120028,14.0600001 30.8319986,14.068 31.112,14.068 C31.704003,14.068 32.495995,14.0600001 33.488,14.044 L33.488,14.044 Z M28.28,5.212 L29.948,5.212 C30.0520005,4.65999724 30.1199998,4.28000104 30.152,4.072 L30.992,4.18 L30.776,5.212 L33.428,5.212 L33.428,6.004 L30.56,6.004 C30.4639995,6.34800172 30.3280009,6.74799772 30.152,7.204 L32.96,7.204 L32.96,12.496 C32.96,13.0240026 32.6800028,13.2999999 32.12,13.324 L31.244,13.324 L31.052,12.58 C31.4360019,12.6120002 31.7079992,12.628 31.868,12.628 C32.076001,12.628 32.18,12.5000013 32.18,12.244 L32.18,11.332 L30.044,11.332 L30.044,13.36 L29.3,13.36 L29.3,8.824 C29.0119986,9.24000208 28.7200015,9.58399864 28.424,9.856 L27.98,9.28 C28.772004,8.42399572 29.3599981,7.33200664 29.744,6.004 L28.28,6.004 L28.28,5.212 Z M30.044,9.652 L30.044,10.636 L32.18,10.636 L32.18,9.652 L30.044,9.652 Z M32.18,8.956 L32.18,7.888 L30.044,7.888 L30.044,8.956 L32.18,8.956 Z M38.444,4.96 L38.444,13.804 L37.604,13.804 L37.604,13 L35.828,13 L35.828,14.092 L34.988,14.092 L34.988,4.96 L38.444,4.96 Z M35.828,12.196 L37.604,12.196 L37.604,9.304 L35.828,9.304 L35.828,12.196 Z M35.828,8.5 L37.604,8.5 L37.604,5.752 L35.828,5.752 L35.828,8.5 Z M40.172,8.536 C40.9320038,9.68800576 41.5039981,10.6719959 41.888,11.488 L41.168,11.992 C40.7279978,11.0559953 40.1600035,10.0520054 39.464,8.98 L40.172,8.536 Z M40.808,14.944 L40.628,14.104 C41.5560046,14.1360002 42.219998,14.152 42.62,14.152 C42.9720018,14.152 43.148,13.9640019 43.148,13.588 L43.148,7.096 L38.996,7.096 L38.996,6.268 L43.148,6.268 L43.148,4.156 L44.024,4.156 L44.024,6.268 L45.5,6.268 L45.5,7.096 L44.024,7.096 L44.024,13.804 C44.024,14.5640038 43.6520037,14.944 42.908,14.944 L40.808,14.944 Z M47.516,4.252 C48.3400041,4.90000324 49.0239973,5.52799696 49.568,6.136 L48.944,6.76 C48.4639976,6.159997 47.7920043,5.51200348 46.928,4.816 L47.516,4.252 Z M54.332,14.848 C53.939998,14.848 53.248005,14.8400001 52.256,14.824 C51.5039962,14.8079999 50.8920024,14.7360006 50.42,14.608 C49.9639977,14.4639993 49.5520018,14.1720022 49.184,13.732 C49.0319992,13.531999 48.8840007,13.432 48.74,13.432 C48.4519986,13.432 47.9760033,13.9839945 47.312,15.088 L46.664,14.5 C47.3040032,13.491995 47.8679976,12.8800011 48.356,12.664 L48.356,9.016 L46.652,9.016 L46.652,8.224 L49.16,8.224 L49.16,12.724 C49.2400004,12.7880003 49.3319995,12.8759994 49.436,12.988 C49.7240014,13.3320017 50.0239984,13.5839992 50.336,13.744 C50.6960018,13.9120008 51.2199966,14.0079999 51.908,14.032 C52.7400042,14.0480001 53.5079965,14.056 54.212,14.056 C54.604002,14.056 55.2159958,14.0480001 56.048,14.032 C56.7520035,14.0159999 57.2319987,14.0000001 57.488,13.984 L57.272,14.848 L54.332,14.848 Z M53.168,9.412 C53.8880036,9.83600212 54.4999975,10.2279982 55.004,10.588 C55.4920024,10.1559978 55.8959984,9.74400196 56.216,9.352 L56.84,9.844 C56.4159979,10.3320024 56.0160019,10.7359984 55.64,11.056 C56.2960033,11.5680026 56.8519977,12.0519977 57.308,12.508 L56.768,13.144 C55.7119947,12.0319944 54.3480084,10.9840049 52.676,10 L53.168,9.412 Z M51.56,7.12 L51.56,8.224 L55.64,8.224 L55.64,7.12 L51.56,7.12 Z M55.64,6.4 L55.64,5.284 L51.56,5.284 L51.56,6.4 L55.64,6.4 Z M51.56,8.992 L51.56,12.244 C52.3200038,12.1079993 53.1199958,11.9200012 53.96,11.68 L54.152,12.46 C53.2079953,12.7240013 52.0200072,12.9759988 50.588,13.216 L50.396,12.484 C50.6120011,12.4119996 50.72,12.2920008 50.72,12.124 L50.72,4.516 L56.48,4.516 L56.48,8.992 L51.56,8.992 Z M67.004,5.656 L65.816,5.656 L65.816,4.864 L69.32,4.864 L69.32,5.656 L67.844,5.656 L67.844,9.004 L69.14,9.004 L69.14,9.796 L67.844,9.796 L67.844,13.756 L69.488,13.756 L69.488,14.56 L65.3,14.56 L65.3,13.756 L67.004,13.756 L67.004,9.796 L65.816,9.796 L65.816,9.004 L67.004,9.004 L67.004,5.656 Z M64.328,4 L65.156,4 L65.156,9.412 C65.1239998,11.9800128 64.2840082,13.8519941 62.636,15.028 L62,14.464 C63.5280076,13.4159948 64.3039999,11.7320116 64.328,9.412 L64.328,4 Z M60.056,5.764 L58.688,5.764 L58.688,4.96 L62.216,4.96 L62.216,5.764 L60.896,5.764 L60.896,8.8 L62.06,8.8 L62.06,9.592 L60.896,9.592 L60.896,12.712 C61.3360022,12.5439992 61.8079975,12.3320013 62.312,12.076 L62.312,12.94 C61.2559947,13.4440025 60.0600067,13.8839981 58.724,14.26 L58.52,13.444 C58.9680022,13.3399995 59.4799971,13.2000009 60.056,13.024 L60.056,9.592 L58.796,9.592 L58.796,8.8 L60.056,8.8 L60.056,5.764 Z M62.72,6.04 L63.512,6.04 L63.512,7.192 C63.504,8.92800868 63.2560024,10.2079959 62.768,11.032 L62.156,10.492 C62.5240018,9.80399656 62.712,8.70400756 62.72,7.192 L62.72,6.04 Z" id="随时退班-copy"></path>
            </g>
        </g>
    </g>
</svg>