<?xml version="1.0" encoding="UTF-8" standalone="no"?>
<svg width="12px" height="16px" viewBox="0 0 12 16" version="1.1" xmlns="http://www.w3.org/2000/svg" xmlns:xlink="http://www.w3.org/1999/xlink">
    <!-- Generator: Sketch 3.8.3 (29802) - http://www.bohemiancoding.com/sketch -->
    <title>ic_bold</title>
    <desc>Created with Sketch.</desc>
    <defs></defs>
    <g id="过渡版本" stroke="none" stroke-width="1" fill="none" fill-rule="evenodd">
        <g id="Artboard-6" transform="translate(-851.000000, -277.000000)" fill="#000000">
            <path d="M851,292.126953 L851,277 L856.371094,277 C858.018237,277 859.287756,277.312497 860.179688,277.9375 C861.071619,278.562503 861.517578,279.42838 861.517578,280.535156 C861.517578,281.355473 861.240888,282.074867 860.6875,282.693359 C860.134112,283.311852 859.437504,283.73828 858.597656,283.972656 L858.597656,284.011719 C859.652349,284.141928 860.503577,284.532549 861.151367,285.183594 C861.799157,285.834639 862.123047,286.651688 862.123047,287.634766 C862.123047,289.00847 861.634771,290.100582 860.658203,290.911133 C859.681636,291.721684 858.347014,292.126953 856.654297,292.126953 L851,292.126953 Z M854.222656,279.402344 L854.222656,283.142578 L855.755859,283.142578 C856.49154,283.142578 857.070961,282.966799 857.494141,282.615234 C857.91732,282.26367 858.128906,281.772139 858.128906,281.140625 C858.128906,279.981765 857.282561,279.402344 855.589844,279.402344 L854.222656,279.402344 Z M854.222656,285.574219 L854.222656,289.724609 L856.136719,289.724609 C856.950525,289.724609 857.586912,289.535809 858.045898,289.158203 C858.504885,288.780597 858.734375,288.256514 858.734375,287.585938 C858.734375,286.947913 858.506513,286.453127 858.050781,286.101562 C857.59505,285.749998 856.94727,285.574219 856.107422,285.574219 L854.222656,285.574219 Z" id="ic_bold"></path>
        </g>
    </g>
</svg>