<?xml version="1.0" encoding="UTF-8" standalone="no"?>
<svg width="20px" height="20px" viewBox="0 0 20 20" version="1.1" xmlns="http://www.w3.org/2000/svg" xmlns:xlink="http://www.w3.org/1999/xlink">
    <!-- Generator: Sketch 3.8.3 (29802) - http://www.bohemiancoding.com/sketch -->
    <title>ic-bulk add</title>
    <desc>Created with Sketch.</desc>
    <defs></defs>
    <g id="过渡版本" stroke="none" stroke-width="1" fill="none" fill-rule="evenodd">
        <g id="Artboard-6" transform="translate(-47.000000, -180.000000)" fill="#000000">
            <g id="ic-bulk-add" transform="translate(47.000000, 180.000000)">
                <g id="ic-single-lesson-copy" transform="translate(0.000000, 2.000000)">
                    <rect id="Rectangle-254-Copy-2" x="7" y="4" width="7" height="1"></rect>
                    <rect id="Rectangle-254-Copy-3" x="7" y="7" width="7" height="1"></rect>
                    <rect id="Rectangle-904" x="3" y="1" width="1" height="16"></rect>
                    <path d="M1,0 L17,0 L17,1 L1,1 L1,0 Z M17,0 L18,0 L18,18 L17,18 L17,0 Z M1,17 L17,17 L17,18 L1,18 L1,17 Z M0,0 L1,0 L1,18 L0,18 L0,0 Z" id="Combined-Shape"></path>
                </g>
                <path d="M19,1 L20,1 L20,0 L2,0 L2,1 L19,1 L19,18 L20,18 L20,0 L19,0 L19,1 Z" id="Combined-Shape"></path>
            </g>
        </g>
    </g>
</svg>