<?xml version="1.0" encoding="utf-8"?>
<!-- Generator: Adobe Illustrator 17.0.0, SVG Export Plug-In . SVG Version: 6.00 Build 0)  -->
<!DOCTYPE svg PUBLIC "-//W3C//DTD SVG 1.1//EN" "http://www.w3.org/Graphics/SVG/1.1/DTD/svg11.dtd">
<svg version="1.1" id="图层_1" xmlns="http://www.w3.org/2000/svg" xmlns:xlink="http://www.w3.org/1999/xlink" x="0px" y="0px"
	 width="64px" height="64px" viewBox="0 0 64 64" enable-background="new 0 0 64 64" xml:space="preserve">
<path fill-rule="evenodd" clip-rule="evenodd" d="M28,48h9v-9h-9V48z M14,34h9v-9h-9V34z M14,48h9v-9h-9V48z M41,48h9v-9h-9V48z
	 M41,34h9v-9h-9V34z M28,34h9v-9h-9V34z M53,6.011V2h-9v4.009L20,6.004V2h-9v4.002L2,6v56h60l0.084-55.987L53,6.011z M6.954,58L7,16
	h50l0.054,42.057L6.954,58z"/>
</svg>
