<?xml version="1.0" encoding="utf-8"?>
<!-- Generator: Adobe Illustrator 17.0.0, SVG Export Plug-In . SVG Version: 6.00 Build 0)  -->
<!DOCTYPE svg PUBLIC "-//W3C//DTD SVG 1.1//EN" "http://www.w3.org/Graphics/SVG/1.1/DTD/svg11.dtd">
<svg version="1.1" id="图层_1" xmlns="http://www.w3.org/2000/svg" xmlns:xlink="http://www.w3.org/1999/xlink" x="0px" y="0px"
	 width="16px" height="16px" viewBox="0 0 16 16" enable-background="new 0 0 16 16" xml:space="preserve">
<g>
	<g>
		<path fill="#2D2D2D" d="M3.086,12.298h2.44l0.013-1.224H3.08L3.086,12.298z M3.08,9.845h2.459V8.615H3.08V9.845z M3.086,6.164
			L3.08,7.386h2.459L5.526,6.164H3.086z M15.284,1.88c-0.049-0.001-1.261-0.004-2.968-0.008V0.625h-1.233V1.87
			c-0.781-0.001-1.619-0.003-2.471-0.004V0.624H7.383v1.24C6.534,1.862,5.697,1.861,4.914,1.86V0.625H3.682v1.233
			C1.892,1.855,0.621,1.853,0.621,1.853C0.132,1.853,0,2.271,0,2.758v11.734c0,0.487,0.398,0.883,0.886,0.883h14.225
			c0.489,0,0.886-0.396,0.886-0.883V2.758C16.019,2.272,15.885,1.883,15.284,1.88z M14.804,13.878c0,0.169-0.138,0.306-0.307,0.306
			H1.501c-0.17,0-0.307-0.137-0.307-0.306V3.373c0-0.169,0.138-0.306,0.307-0.306h2.18v1.864h1.233V3.067h2.469v1.86h1.229v-1.86
			h2.471v1.864h1.233V3.067h2.18c0.17,0,0.307,0.137,0.307,0.306V13.878z M6.774,6.164L6.768,7.386h2.459L9.214,6.164H6.774z
			 M6.774,8.623L6.768,9.845h2.459L9.214,8.623H6.774z M6.774,11.082l-0.006,1.222h2.459l-0.013-1.222H6.774z M10.463,11.082
			l-0.006,1.222h2.459l-0.013-1.222H10.463z M10.463,8.623l-0.006,1.221h2.459l-0.013-1.221H10.463z M10.463,6.164l-0.006,1.221
			h2.459l-0.013-1.221H10.463z"/>
	</g>
</g>
</svg>
