<?xml version="1.0" encoding="utf-8"?>
<!-- Generator: Adobe Illustrator 17.0.0, SVG Export Plug-In . SVG Version: 6.00 Build 0)  -->
<!DOCTYPE svg PUBLIC "-//W3C//DTD SVG 1.1//EN" "http://www.w3.org/Graphics/SVG/1.1/DTD/svg11.dtd">
<svg version="1.1" id="图层_1" xmlns="http://www.w3.org/2000/svg" xmlns:xlink="http://www.w3.org/1999/xlink" x="0px" y="0px"
	 width="8px" height="8px" viewBox="0 0 8 8" enable-background="new 0 0 8 8" xml:space="preserve">
<g>
	<path fill="#040000" d="M4,8C1.794,8,0,6.206,0,4s1.794-4,4-4c2.206,0,4,1.794,4,4S6.206,8,4,8z M4,0.654
		C2.155,0.654,0.654,2.155,0.654,4S2.155,7.346,4,7.346c1.845,0,3.346-1.501,3.346-3.346S5.845,0.654,4,0.654z"/>
	<path fill="#040000" d="M3.446,5.739L1.66,3.992C1.531,3.866,1.529,3.659,1.655,3.53C1.78,3.401,1.988,3.399,2.116,3.525
		l1.333,1.304l2.436-2.348c0.13-0.123,0.336-0.121,0.462,0.009c0.125,0.13,0.121,0.336-0.009,0.462L3.446,5.739z"/>
</g>
</svg>
