<?xml version="1.0" encoding="UTF-8" standalone="no"?>
<svg width="15px" height="15px" viewBox="0 0 15 15" version="1.1" xmlns="http://www.w3.org/2000/svg" xmlns:xlink="http://www.w3.org/1999/xlink">
    <!-- Generator: Sketch 39.1 (31720) - http://www.bohemiancoding.com/sketch -->
    <title>Combined Shape Copy 2</title>
    <desc>Created with Sketch.</desc>
    <defs></defs>
    <g id="Page-1" stroke="none" stroke-width="1" fill="none" fill-rule="evenodd">
        <g id="从资料库添加-copy" transform="translate(-300.000000, -373.000000)" fill="#3D3D3E">
            <g id="Group-5" transform="translate(260.000000, 199.000000)">
                <g id="Group-7-Copy" transform="translate(15.000000, 172.000000)">
                    <path d="M31.1890903,11.8819775 L28.5596687,9.25255581 C28.3651009,9.05798806 28.0488155,9.05828514 27.8535534,9.25354729 C27.6640018,9.44309886 27.6578473,9.76494802 27.8525619,9.95966259 L30.8243932,12.9314939 C30.9661364,13.0732371 31.1724771,13.1115623 31.3495649,13.0464307 C31.429292,13.0233271 31.504677,12.9806044 31.5674834,12.917798 L37.917798,6.56748341 C38.1171998,6.36808161 38.1198833,6.04881554 37.9246212,5.85355339 C37.7350696,5.66400182 37.4097217,5.66134611 37.2106912,5.86037663 L31.1890903,11.8819775 Z M25,3.00748397 C25,2.45106594 25.4489202,2 26.007484,2 L38.992516,2 C39.5489341,2 40,2.44892021 40,3.00748397 L40,15.992516 C40,16.5489341 39.5510798,17 38.992516,17 L26.007484,17 C25.4510659,17 25,16.5510798 25,15.992516 L25,3.00748397 Z M26,3.99850233 C26,3.44704472 26.4474894,3 26.9985023,3 L38.0014977,3 C38.5529553,3 39,3.44748943 39,3.99850233 L39,15.0014977 C39,15.5529553 38.5525106,16 38.0014977,16 L26.9985023,16 C26.4470447,16 26,15.5525106 26,15.0014977 L26,3.99850233 Z" id="Combined-Shape-Copy-2"></path>
                </g>
            </g>
        </g>
    </g>
</svg>