<?xml version="1.0" encoding="UTF-8" standalone="no"?>
<svg width="28px" height="28px" viewBox="0 0 28 28" version="1.1" xmlns="http://www.w3.org/2000/svg" xmlns:xlink="http://www.w3.org/1999/xlink">
    <!-- Generator: Sketch 3.8.3 (29802) - http://www.bohemiancoding.com/sketch -->
    <title>ic_select</title>
    <desc>Created with Sketch.</desc>
    <defs></defs>
    <g id="过渡版本" stroke="none" stroke-width="1" fill="none" fill-rule="evenodd">
        <g id="Artboard-6" transform="translate(-708.000000, -276.000000)" fill="#000000">
            <path d="M722,303.5 C729.455844,303.5 735.5,297.455844 735.5,290 C735.5,282.544156 729.455844,276.5 722,276.5 C714.544156,276.5 708.5,282.544156 708.5,290 C708.5,297.455844 714.544156,303.5 722,303.5 L722,303.5 Z M722,302.5 C715.096441,302.5 709.5,296.903559 709.5,290 C709.5,283.096441 715.096441,277.5 722,277.5 C728.903559,277.5 734.5,283.096441 734.5,290 C734.5,296.903559 728.903559,302.5 722,302.5 L722,302.5 Z" id="ic_select"></path>
        </g>
    </g>
</svg>