<?xml version="1.0" encoding="utf-8"?>
<!-- Generator: Adobe Illustrator 17.0.0, SVG Export Plug-In . SVG Version: 6.00 Build 0)  -->
<!DOCTYPE svg PUBLIC "-//W3C//DTD SVG 1.1//EN" "http://www.w3.org/Graphics/SVG/1.1/DTD/svg11.dtd">
<svg version="1.1" id="图层_1" xmlns="http://www.w3.org/2000/svg" xmlns:xlink="http://www.w3.org/1999/xlink" x="0px" y="0px"
	 width="16px" height="16px" viewBox="0 0 16 16" enable-background="new 0 0 16 16" xml:space="preserve">
<path fill="#333030" d="M15.984,9.764c0-1.3-1.741-2.319-3.875-2.319c-0.142,0-0.313,0.005-0.45,0.014V3.665
	c0.02-0.096,0.012-0.194,0.012-0.293c0-1.281-1.619-2.285-3.753-2.285c-2.134,0-3.805,1.004-3.805,2.285
	c0,0.1,0.014,0.197,0.033,0.293v1.04c-0.12-0.007-0.242-0.011-0.366-0.011c-2.134,0-3.774,1.004-3.774,2.285
	c0,0.1-0.018,0.198,0.002,0.294v5.314h0.026c0.067,1.211,1.686,2.15,3.746,2.15c2.058,0,3.78-0.937,3.85-2.15h0.026v-0.221
	c0.122,0.007,0.137,0.019,0.262,0.019c0.142,0,0.281-0.006,0.419-0.015v0.062h0.028l-0.008,0.145c0,1.249,1.672,2.337,3.808,2.337
	c2.135,0,3.808-0.993,3.808-2.263l-0.004-0.144h0.024v-2.444C16.013,9.964,15.984,9.865,15.984,9.764L15.984,9.764L15.984,9.764z
	 M12.165,8.182c1.877,0,3.185,0.833,3.185,1.582c0,0.748-1.308,1.582-3.185,1.582c-1.877,0-3.185-0.834-3.185-1.582
	C8.98,9.016,10.288,8.182,12.165,8.182L12.165,8.182L12.165,8.182z M15.384,11.06v0.4c-0.179,0.801-1.606,1.471-3.219,1.471
	c-1.612,0-3.038-0.669-3.219-1.469V11.06c0.686,0.621,1.86,1.022,3.219,1.022C13.525,12.083,14.698,11.681,15.384,11.06
	L15.384,11.06L15.384,11.06z M7.919,7.834c-0.124,0-0.142-0.005-0.263-0.013V7.273c0.012-0.059,0.021-0.12,0.026-0.18
	c0.112,0.007,0.121,0.011,0.236,0.011c1.352,0,2.461-0.405,3.12-1.026v0.308C10.862,7.174,9.508,7.834,7.919,7.834L7.919,7.834
	L7.919,7.834z M11.091,7.527c-0.055,0.009-0.111,0.017-0.165,0.027c0.056-0.045,0.114-0.088,0.165-0.135V7.527L11.091,7.527
	L11.091,7.527z M7.919,1.813c1.85,0,3.086,0.821,3.086,1.558c0,0.737-1.237,1.558-3.086,1.558S4.78,4.109,4.78,3.371
	C4.78,2.634,6.069,1.813,7.919,1.813L7.919,1.813L7.919,1.813z M4.747,4.649c0.057,0.052,0.123,0.1,0.187,0.149
	C4.873,4.786,4.809,4.778,4.747,4.769V4.649L4.747,4.649L4.747,4.649z M3.781,5.421c1.85,0,3.191,0.822,3.191,1.558
	c0,0.737-1.341,1.558-3.191,1.558c-1.85,0-3.138-0.821-3.138-1.558C0.642,6.242,1.931,5.421,3.781,5.421L3.781,5.421L3.781,5.421z
	 M0.609,8.257c0.676,0.612,1.833,1.007,3.172,1.007c1.339,0,2.548-0.396,3.224-1.007v0.394C6.828,9.44,5.37,10.1,3.781,10.1
	c-1.588,0-2.994-0.66-3.172-1.448V8.257L0.609,8.257L0.609,8.257z M0.609,9.686c0.659,0.62,1.82,1.026,3.172,1.026
	c1.352,0,2.565-0.405,3.224-1.026v0.308c-0.177,0.789-1.635,1.449-3.224,1.449c-1.588,0-2.994-0.659-3.172-1.448V9.686L0.609,9.686
	L0.609,9.686z M0.609,11.028c0.659,0.62,1.82,1.026,3.172,1.026c1.352,0,2.565-0.405,3.224-1.026v0.308
	c-0.177,0.789-1.635,1.449-3.224,1.449c-1.588,0-2.994-0.659-3.172-1.448V11.028L0.609,11.028L0.609,11.028z M3.781,14.126
	c-1.649,0-3.097-0.711-3.183-1.539h0.011V12.37c0.659,0.62,1.82,1.025,3.172,1.025c1.352,0,2.565-0.405,3.224-1.026v0.218h0.011
	C6.93,13.415,5.429,14.126,3.781,14.126L3.781,14.126L3.781,14.126z M7.598,6.476C7.472,6.129,7.116,5.814,6.765,5.549
	c0.363,0.067,0.749,0.107,1.154,0.107c1.339,0,2.444-0.396,3.12-1.007v0.394c-0.177,0.789-1.531,1.449-3.12,1.449
	C7.775,6.492,7.738,6.486,7.598,6.476L7.598,6.476L7.598,6.476z M8.338,11.756c-0.138,0.01-0.277,0.018-0.419,0.018
	c-0.124,0-0.142-0.005-0.263-0.013v-0.644c0.121,0.008,0.138,0.013,0.263,0.013c0.143,0,0.282-0.007,0.419-0.017V11.756
	L8.338,11.756L8.338,11.756z M8.338,10.5c-0.138,0.011-0.277,0.018-0.419,0.018c-0.124,0-0.142-0.006-0.263-0.013V9.774
	c0.121,0.008,0.138,0.013,0.263,0.013c0.132,0,0.261-0.006,0.388-0.015c0.003,0.085,0.014,0.169,0.031,0.251V10.5L8.338,10.5
	L8.338,10.5z M8.428,9.152C8.261,9.167,8.091,9.176,7.919,9.176c-0.124,0-0.142-0.005-0.262-0.013v-0.73
	c0.12,0.008,0.138,0.013,0.262,0.013c0.408,0,0.796-0.041,1.161-0.11C8.778,8.574,8.554,8.85,8.428,9.152L8.428,9.152L8.428,9.152z
	 M12.165,14.293c-1.715,0-3.222-0.758-3.239-1.625l0.005-0.162h0.009c0.668,0.632,1.848,1.046,3.224,1.046
	c1.375,0,2.555-0.413,3.223-1.046h0.01l0.005,0.147C15.404,13.527,13.891,14.293,12.165,14.293L12.165,14.293L12.165,14.293z
	 M3.479,7.455c-0.028-0.034-0.05-0.101-0.065-0.2H2.962c-0.003,0.219,0.09,0.374,0.281,0.465C3.351,7.77,3.516,7.804,3.736,7.821
	v0.236h0.162V7.819C4.071,7.81,4.221,7.777,4.347,7.722c0.207-0.09,0.31-0.235,0.31-0.434c0-0.151-0.075-0.268-0.225-0.351
	C4.341,6.888,4.163,6.83,3.898,6.766V6.314C4.009,6.32,4.085,6.35,4.127,6.407c0.024,0.032,0.041,0.084,0.05,0.154h0.441
	C4.61,6.371,4.513,6.234,4.325,6.149C4.222,6.096,4.079,6.065,3.898,6.055v-0.16H3.736v0.158c-0.114,0.006-0.201,0.016-0.26,0.03
	c-0.097,0.021-0.185,0.06-0.265,0.116C3.15,6.242,3.102,6.293,3.068,6.353c-0.034,0.06-0.051,0.127-0.051,0.2
	c0,0.111,0.044,0.207,0.131,0.286C3.236,6.918,3.387,6.98,3.6,7.024l0.136,0.028v0.506C3.608,7.543,3.523,7.508,3.479,7.455
	L3.479,7.455L3.479,7.455z M3.898,7.092C3.991,7.116,4.057,7.14,4.095,7.163c0.065,0.04,0.098,0.093,0.098,0.161
	c0,0.089-0.035,0.152-0.104,0.188c-0.04,0.02-0.103,0.035-0.19,0.043V7.092L3.898,7.092L3.898,7.092z M3.555,6.673
	c-0.07-0.039-0.106-0.091-0.106-0.158c0-0.061,0.024-0.109,0.07-0.144c0.047-0.035,0.119-0.053,0.216-0.055v0.416
	C3.654,6.714,3.594,6.695,3.555,6.673L3.555,6.673L3.555,6.673z M11.814,10.116c-0.028-0.034-0.05-0.101-0.065-0.2h-0.452
	c-0.003,0.219,0.09,0.374,0.281,0.465c0.108,0.05,0.273,0.084,0.493,0.102v0.236h0.163V10.48c0.173-0.01,0.323-0.042,0.449-0.097
	c0.207-0.09,0.31-0.235,0.31-0.434c0-0.151-0.075-0.268-0.225-0.351c-0.091-0.05-0.269-0.107-0.534-0.172V8.975
	c0.11,0.005,0.186,0.036,0.228,0.092c0.024,0.032,0.041,0.084,0.05,0.154h0.441c-0.007-0.19-0.104-0.327-0.292-0.411
	c-0.103-0.053-0.246-0.085-0.427-0.095v-0.16H12.07v0.158c-0.114,0.007-0.2,0.016-0.26,0.03c-0.097,0.021-0.185,0.06-0.265,0.116
	c-0.061,0.043-0.109,0.095-0.143,0.155c-0.034,0.06-0.051,0.127-0.051,0.2c0,0.111,0.044,0.207,0.132,0.286
	c0.088,0.079,0.238,0.141,0.451,0.185l0.136,0.029v0.506C11.943,10.203,11.857,10.168,11.814,10.116L11.814,10.116L11.814,10.116z
	 M12.233,9.752c0.093,0.025,0.158,0.048,0.197,0.071c0.065,0.04,0.098,0.093,0.098,0.161c0,0.089-0.035,0.152-0.104,0.188
	c-0.04,0.02-0.103,0.035-0.19,0.043V9.752L12.233,9.752L12.233,9.752z M11.889,9.333c-0.07-0.039-0.105-0.091-0.105-0.157
	c0-0.061,0.023-0.109,0.07-0.144c0.047-0.035,0.119-0.054,0.216-0.055v0.416C11.989,9.375,11.928,9.355,11.889,9.333L11.889,9.333
	L11.889,9.333z M7.591,3.884c-0.028-0.034-0.05-0.101-0.065-0.2H7.073C7.07,3.902,7.164,4.057,7.355,4.148
	C7.463,4.198,7.627,4.232,7.847,4.25v0.236H8.01V4.247c0.173-0.01,0.323-0.042,0.449-0.097c0.207-0.09,0.31-0.235,0.31-0.434
	c0-0.151-0.075-0.268-0.225-0.351C8.452,3.316,8.274,3.259,8.01,3.194V2.742c0.11,0.006,0.187,0.036,0.228,0.093
	c0.024,0.032,0.041,0.084,0.05,0.154h0.44c-0.007-0.19-0.104-0.327-0.292-0.411C8.333,2.525,8.191,2.493,8.01,2.483v-0.16H7.847
	v0.158c-0.114,0.006-0.2,0.016-0.26,0.03C7.49,2.532,7.402,2.57,7.323,2.626C7.261,2.67,7.214,2.722,7.18,2.782
	c-0.034,0.06-0.051,0.127-0.051,0.2c0,0.112,0.044,0.207,0.132,0.286c0.088,0.079,0.238,0.141,0.451,0.185l0.136,0.029v0.506
	C7.72,3.971,7.634,3.937,7.591,3.884L7.591,3.884L7.591,3.884z M8.01,3.52c0.093,0.025,0.158,0.048,0.197,0.071
	C8.272,3.63,8.304,3.684,8.304,3.752c0,0.089-0.035,0.152-0.104,0.188C8.16,3.961,8.097,3.975,8.01,3.983V3.52L8.01,3.52L8.01,3.52z
	 M7.666,3.102C7.596,3.063,7.561,3.01,7.561,2.944c0-0.061,0.023-0.109,0.07-0.144C7.678,2.765,7.75,2.746,7.847,2.745v0.416
	C7.766,3.143,7.705,3.123,7.666,3.102L7.666,3.102L7.666,3.102z M7.666,3.102"/>
</svg>
