<?xml version="1.0" encoding="utf-8"?>
<!-- Generator: Adobe Illustrator 17.0.0, SVG Export Plug-In . SVG Version: 6.00 Build 0)  -->
<!DOCTYPE svg PUBLIC "-//W3C//DTD SVG 1.1//EN" "http://www.w3.org/Graphics/SVG/1.1/DTD/svg11.dtd">
<svg version="1.1" id="图层_1" xmlns="http://www.w3.org/2000/svg" xmlns:xlink="http://www.w3.org/1999/xlink" x="0px" y="0px"
	 width="16px" height="16px" viewBox="0 0 16 16" enable-background="new 0 0 16 16" xml:space="preserve">
<path fill="#1E1C1C" d="M16,14.19c0,0.273-0.224,0.495-0.5,0.495c-0.276,0-0.5-0.222-0.5-0.495c0-2.35-1.657-4.308-3.875-4.815
	V9.351c-0.296-0.091-0.516-0.354-0.516-0.677c0-0.352,0.26-0.632,0.598-0.694C12.259,7.518,13,6.489,13,5.276
	c0-1.641-1.343-2.971-3-2.971V2.299C9.739,2.282,9.531,2.073,9.531,1.81c0-0.263,0.208-0.472,0.469-0.489V1.315
	c0.007,0,0.014,0.002,0.021,0.002c0.004,0,0.007-0.002,0.01-0.002c0.011,0,0.02,0.006,0.031,0.006C12.242,1.355,14,3.11,14,5.277
	c0,1.426-0.767,2.665-1.909,3.363C14.369,9.482,16,11.639,16,14.19L16,14.19z M8.091,8.64c2.278,0.843,3.909,3,3.909,5.55
	c0,0.273-0.224,0.495-0.5,0.495c-0.276,0-0.5-0.222-0.5-0.495c0-2.735-2.239-4.952-5-4.952c-2.761,0-5,2.217-5,4.952
	c0,0.273-0.224,0.495-0.5,0.495c-0.276,0-0.5-0.222-0.5-0.495c0-2.55,1.63-4.707,3.909-5.55C2.767,7.942,2,6.702,2,5.276
	c0-2.188,1.791-3.961,4-3.961c2.209,0,4,1.774,4,3.961C10,6.702,9.233,7.942,8.091,8.64L8.091,8.64z M6,2.305
	c-1.657,0-3,1.33-3,2.971c0,1.641,1.343,2.971,3,2.971c1.657,0,3-1.33,3-2.971S7.657,2.305,6,2.305L6,2.305z M6,2.305"/>
</svg>
