<?xml version="1.0" encoding="UTF-8" standalone="no"?>
<svg width="19px" height="16px" viewBox="0 0 19 16" version="1.1" xmlns="http://www.w3.org/2000/svg" xmlns:xlink="http://www.w3.org/1999/xlink">
    <!-- Generator: Sketch 39.1 (31720) - http://www.bohemiancoding.com/sketch -->
    <title>Combined Shape</title>
    <desc>Created with Sketch.</desc>
    <defs></defs>
    <g id="Page-1" stroke="none" stroke-width="1" fill="none" fill-rule="evenodd">
        <path d="M16.0335205,2.46875072 C17.3559082,2.44888464 17.8842448,3.11953125 18.0067383,3.92209893 L18,13.4463384 C18,14.7947195 16.9279232,15.8877983 15.609739,15.8877983 L2.39026102,15.8877983 C1.07015631,15.8877983 0,14.7985273 0,13.4463384 L0,2.48163925 C0,1.13325815 1.07611055,0.028341702 2.40829422,0.0154198918 C2.40829422,0.0154198918 3.39440992,7.15175709e-07 5.03261719,7.15175709e-07 C5.64814516,7.15175709e-07 5.74431152,-0.00022249911 7.26130371,0.00721797708 C9.68591309,0.613914406 9.12278646,2.67044271 11.5594482,2.49925667 C11.5821615,2.53580729 16.0335205,2.46875072 16.0335205,2.46875072 Z M12.9666667,9.5 C12.9666667,7.290861 11.1758057,5.5 8.96666667,5.5 C6.75752767,5.5 4.96666667,7.290861 4.96666667,9.5 C4.96666667,11.709139 6.75752767,13.5 8.96666667,13.5 C11.1758057,13.5 12.9666667,11.709139 12.9666667,9.5 Z M5.89990234,9.46976134 C5.89990234,7.77437559 7.27428404,6.3999939 8.96966979,6.3999939 C10.6650555,6.3999939 12.0394372,7.77437559 12.0394372,9.46976134 C12.0394372,11.1651471 10.6650555,12.5395288 8.96966979,12.5395288 C7.27428404,12.5395288 5.89990234,11.1651471 5.89990234,9.46976134 Z M6.89990234,8.8999939 L10.8999023,8.8999939 L10.8999023,9.8999939 L6.89990234,9.8999939 L6.89990234,8.8999939 Z" id="Combined-Shape" fill="#CDCDCE"></path>
    </g>
</svg>