<?xml version="1.0" encoding="UTF-8" standalone="no"?>
<svg width="19px" height="16px" viewBox="0 0 19 16" version="1.1" xmlns="http://www.w3.org/2000/svg" xmlns:xlink="http://www.w3.org/1999/xlink">
    <!-- Generator: Sketch 39.1 (31720) - http://www.bohemiancoding.com/sketch -->
    <title>Combined Shape</title>
    <desc>Created with Sketch.</desc>
    <defs></defs>
    <g id="Page-1" stroke="none" stroke-width="1" fill="none" fill-rule="evenodd">
        <path d="M9.6152969,10.5937631 L9.6152969,5.55835022 C9.6152969,5.24716187 9.36345707,5 9.0527969,5 C8.75122219,5 8.4902969,5.24998191 8.4902969,5.55835022 L8.4902969,10.6300802 L6.95687725,9.09666058 C6.73430335,8.87408668 6.3824331,8.87837173 6.16276318,9.09804164 C5.94951766,9.31128716 5.94247495,9.67324853 6.16138212,9.8921557 L8.60113727,12.3319109 C8.72158643,12.45236 8.87990124,12.5063714 9.03463835,12.4957635 C9.18937545,12.5063714 9.34769026,12.45236 9.46813942,12.3319109 L11.9078946,9.8921557 C12.1268017,9.67324853 12.119759,9.31128716 11.9065135,9.09804164 C11.6868436,8.87837173 11.3349733,8.87408668 11.1123994,9.09666058 L9.6152969,10.5937631 Z M16.0405974,2.46984038 C17.3635688,2.44996554 18.0146861,3.24562964 18.0146861,3.92383008 L18.0079449,13.4522734 C18.0079449,14.8012496 16.9353949,15.8948109 15.6166288,15.8948109 L2.39131604,15.8948109 C1.07062866,15.8948109 0,14.8050591 0,13.4522734 L0,2.4827346 C0,1.13375835 1.07658553,0.0283542115 2.4093572,0.0154266979 C2.4093572,0.0154266979 3.39590816,7.15491376e-07 5.0348385,7.15491376e-07 C5.65063816,7.15491376e-07 5.74684696,-0.000222597317 7.26450873,0.00722116297 C9.69018828,0.614185377 9.36052624,2.60725219 11.5645504,2.5003598 C11.5677012,2.45510173 16.0405974,2.46984038 16.0405974,2.46984038 Z" id="Combined-Shape" fill="#CDCDCE"></path>
    </g>
</svg>