<?xml version="1.0" encoding="utf-8"?>
<!-- Generator: Adobe Illustrator 18.0.0, SVG Export Plug-In . SVG Version: 6.00 Build 0)  -->
<!DOCTYPE svg PUBLIC "-//W3C//DTD SVG 1.1//EN" "http://www.w3.org/Graphics/SVG/1.1/DTD/svg11.dtd">
<svg version="1.1" id="图层_1" xmlns="http://www.w3.org/2000/svg" xmlns:xlink="http://www.w3.org/1999/xlink" x="0px" y="0px"
	 viewBox="0 0 12 12" enable-background="new 0 0 12 12" xml:space="preserve">
<g>
	<g>
		<path fill="#272636" d="M9.3,9.1c0,0.1-0.1,0.2-0.2,0.2H2.9c-0.1,0-0.2-0.1-0.2-0.2V2.9c0-0.1,0.1-0.2,0.2-0.2h4l0.8-0.9H2
			C1.9,1.8,1.8,1.9,1.8,2V10c0,0.1,0.1,0.2,0.2,0.2h8c0.1,0,0.2-0.1,0.2-0.2V4.3L9.3,5.1L9.3,9.1L9.3,9.1z M9.3,9.1"/>
	</g>
	<rect x="7.2" y="1.3" transform="matrix(0.7071 0.7071 -0.7071 0.7071 5.3214 -4.1659)" fill="#272636" width="1.1" height="6"/>
</g>
</svg>
