<?xml version="1.0" encoding="UTF-8" standalone="no"?>
<svg width="14px" height="14px" viewBox="0 0 14 14" version="1.1" xmlns="http://www.w3.org/2000/svg" xmlns:xlink="http://www.w3.org/1999/xlink">
    <!-- Generator: Sketch 3.8.3 (29802) - http://www.bohemiancoding.com/sketch -->
    <title>ic_prompt copy</title>
    <desc>Created with Sketch.</desc>
    <defs></defs>
    <g id="过渡版本" stroke="none" stroke-width="1" fill="none" fill-rule="evenodd">
        <g id="Artboard-6" transform="translate(-130.000000, -283.000000)" fill="#000000">
            <g id="ic_prompt-copy" transform="translate(130.000000, 283.000000)">
                <path d="M7,13.5 C10.5898509,13.5 13.5,10.5898509 13.5,7 C13.5,3.41014913 10.5898509,0.5 7,0.5 C3.41014913,0.5 0.5,3.41014913 0.5,7 C0.5,10.5898509 3.41014913,13.5 7,13.5 L7,13.5 Z M7,12.5 C3.96243388,12.5 1.5,10.0375661 1.5,7 C1.5,3.96243388 3.96243388,1.5 7,1.5 C10.0375661,1.5 12.5,3.96243388 12.5,7 C12.5,10.0375661 10.0375661,12.5 7,12.5 L7,12.5 Z" id="Oval-54"></path>
                <path d="M7.5,8.0909091 L7.50000007,3.18181811 C7.50000007,2.90567574 7.27614245,2.68181811 7.00000008,2.6818181 C6.7238577,2.6818181 6.50000007,2.90567572 6.50000007,3.1818181 L6.5,8.09090908 C6.5,8.36705146 6.72385762,8.59090909 6.99999999,8.59090909 C7.27614237,8.59090909 7.5,8.36705147 7.5,8.0909091 L7.5,8.0909091 Z" id="Check"></path>
                <path d="M7.49999998,10.2727273 L7.49999999,9.72727275 C7.5,9.45113037 7.27614238,9.22727274 7,9.22727274 C6.72385763,9.22727273 6.5,9.45113035 6.49999999,9.72727273 L6.49999998,10.2727273 C6.49999998,10.5488696 6.7238576,10.7727273 6.99999997,10.7727273 C7.27614235,10.7727273 7.49999998,10.5488696 7.49999998,10.2727273 L7.49999998,10.2727273 Z" id="Check-Copy"></path>
            </g>
        </g>
    </g>
</svg>