<?xml version="1.0" encoding="UTF-8" standalone="no"?>
<svg width="24px" height="16px" viewBox="0 0 24 16" version="1.1" xmlns="http://www.w3.org/2000/svg" xmlns:xlink="http://www.w3.org/1999/xlink">
    <!-- Generator: Sketch 3.8.3 (29802) - http://www.bohemiancoding.com/sketch -->
    <title>ic_font size</title>
    <desc>Created with Sketch.</desc>
    <defs></defs>
    <g id="过渡版本" stroke="none" stroke-width="1" fill="none" fill-rule="evenodd">
        <g id="Artboard-6" transform="translate(-898.000000, -277.000000)" fill="#000000">
            <g id="ic_font-size" transform="translate(898.000000, 277.000000)">
                <path d="M13.8378906,16 L11.6796875,16 L10.1367188,11.859375 L3.83789063,11.859375 L2.3828125,16 L0.224609375,16 L5.98632812,0.873046875 L8.07617188,0.873046875 L13.8378906,16 Z M9.53125,10.1503906 L7.24609375,3.86132812 C7.17447881,3.6595042 7.09635459,3.30794521 7.01171875,2.80664062 L6.96289062,2.80664062 C6.89127568,3.26237207 6.80989629,3.61393105 6.71875,3.86132812 L4.453125,10.1503906 L9.53125,10.1503906 Z" id="适学人群-copy-2"></path>
                <path d="M23.0703125,16 L21.34375,16 L20.109375,12.6875 L15.0703125,12.6875 L13.90625,16 L12.1796875,16 L16.7890625,3.8984375 L18.4609375,3.8984375 L23.0703125,16 Z M19.625,11.3203125 L17.796875,6.2890625 C17.739583,6.12760336 17.6770837,5.84635617 17.609375,5.4453125 L17.5703125,5.4453125 C17.5130205,5.80989766 17.447917,6.09114484 17.375,6.2890625 L15.5625,11.3203125 L19.625,11.3203125 Z" id="适学人群-copy-3"></path>
            </g>
        </g>
    </g>
</svg>