<?xml version="1.0" encoding="utf-8"?>
<!-- Generator: Adobe Illustrator 17.0.0, SVG Export Plug-In . SVG Version: 6.00 Build 0)  -->
<!DOCTYPE svg PUBLIC "-//W3C//DTD SVG 1.1//EN" "http://www.w3.org/Graphics/SVG/1.1/DTD/svg11.dtd">
<svg version="1.1" id="图层_1" xmlns="http://www.w3.org/2000/svg" xmlns:xlink="http://www.w3.org/1999/xlink" x="0px" y="0px"
	 width="16px" height="16px" viewBox="0 0 16 16" enable-background="new 0 0 16 16" xml:space="preserve">
<g id="rUWTH8_1_">
	<g>
		<path d="M11.526,1c0.303,0,0.607,0,0.91,0c0.045,0.021,0.089,0.05,0.136,0.06c1.806,0.373,2.833,1.529,3.281,3.265
			C15.907,4.53,15.951,4.737,16,4.943c0,0.329,0,0.657,0,0.986c-0.021,0.059-0.056,0.116-0.059,0.176
			c-0.112,1.678-0.839,3.065-2.106,4.129c-1.805,1.515-3.663,2.966-5.497,4.446c-0.105,0.085-0.2,0.182-0.3,0.273
			c-0.025,0-0.051,0-0.076,0c-0.091-0.083-0.177-0.171-0.273-0.248c-1.881-1.522-3.785-3.017-5.637-4.574
			C0.977,9.228,0.334,8.034,0.109,6.632C0.076,6.423,0.037,6.214,0,6.005c0-0.354,0-0.708,0-1.062
			c0.028-0.121,0.06-0.24,0.084-0.362c0.32-1.615,1.178-2.792,2.756-3.377C3.075,1.117,3.323,1.067,3.564,1c0.303,0,0.607,0,0.91,0
			C4.518,1.022,4.56,1.055,4.607,1.063c1.311,0.242,2.256,0.99,2.85,2.156C7.715,3.728,7.848,4.301,8.03,4.822
			C8.008,4.849,8.021,4.84,8.024,4.829c0.034-0.16,0.06-0.322,0.099-0.481c0.37-1.513,1.229-2.606,2.719-3.151
			C11.064,1.116,11.298,1.065,11.526,1z"/>
	</g>
</g>
</svg>
