<?xml version="1.0" encoding="UTF-8" standalone="no"?>
<svg width="16px" height="16px" viewBox="0 0 16 16" version="1.1" xmlns="http://www.w3.org/2000/svg" xmlns:xlink="http://www.w3.org/1999/xlink">
    <!-- Generator: Sketch 3.8.3 (29802) - http://www.bohemiancoding.com/sketch -->
    <title>ic_help copy</title>
    <desc>Created with Sketch.</desc>
    <defs></defs>
    <g id="过渡版本" stroke="none" stroke-width="1" fill="none" fill-rule="evenodd">
        <g id="Artboard-6" transform="translate(-204.000000, -213.000000)">
            <g id="ic_help-copy" transform="translate(204.000000, 213.000000)">
                <rect id="Rectangle-3-Copy-3" opacity="0.2" x="0" y="0" width="16" height="16"></rect>
                <g id="?" transform="translate(0.666667, 0.666667)" fill="#000000">
                    <path d="M1,7.33333333 L1,7.33333333 C1,10.8259155 3.83854774,13.6666667 7.33333333,13.6666667 C10.8259155,13.6666667 13.6666667,10.8281189 13.6666667,7.33333333 C13.6666667,3.84075116 10.8281189,1 7.33333333,1 C3.84075116,1 1,3.83854774 1,7.33333333 L1,7.33333333 Z M0,7.33333333 C0,3.28324517 3.29148628,0 7.33333333,0 C11.3834215,0 14.6666667,3.29148628 14.6666667,7.33333333 C14.6666667,11.3834215 11.3751804,14.6666667 7.33333333,14.6666667 C3.28324517,14.6666667 0,11.3751804 0,7.33333333 L0,7.33333333 Z" id="Rectangle-81"></path>
                    <path d="M6.59126984,9.07613169 L6.59126984,8.89506173 C6.59126984,8.44238457 6.66402044,8.08779278 6.80952381,7.83127572 C6.95502718,7.57475866 7.26057968,7.26543391 7.72619048,6.90329218 C8.19180127,6.54115045 8.49007871,6.24691471 8.62103175,6.02057613 C8.75198478,5.79423755 8.81746032,5.50000181 8.81746032,5.13786008 C8.81746032,4.80589683 8.68650925,4.5267501 8.42460317,4.30041152 C8.1626971,4.07407294 7.78439401,3.96090535 7.28968254,3.96090535 C6.6494677,3.96090535 5.98016222,4.12688449 5.28174603,4.45884774 L4.88888889,3.64403292 C5.70370778,3.25171272 6.48941421,3.05555556 7.24603175,3.05555556 C8.06085063,3.05555556 8.68650575,3.24416821 9.12301587,3.62139918 C9.55952599,3.99863014 9.77777778,4.50411206 9.77777778,5.13786008 C9.77777778,5.56035877 9.69775212,5.92249506 9.53769841,6.22427984 C9.3776447,6.52606461 9.0357169,6.88820091 8.51190476,7.31069959 C7.98809262,7.73319827 7.66799,8.03497852 7.5515873,8.21604938 C7.4351846,8.39712025 7.37698413,8.65363346 7.37698413,8.98559671 L7.37698413,9.07613169 L6.59126984,9.07613169 Z M7.46172555,11.1596061 C7.35419813,11.2710352 7.19290942,11.3267489 6.97785458,11.3267489 C6.76279974,11.3267489 6.6082314,11.2710352 6.51414491,11.1596061 C6.42005841,11.0481769 6.37301587,10.8810358 6.37301587,10.6581775 C6.37301587,10.4353193 6.42005841,10.2743685 6.51414491,10.1753204 C6.6082314,10.0762723 6.76279974,10.026749 6.97785458,10.026749 C7.19290942,10.026749 7.35419813,10.0762723 7.46172555,10.1753204 C7.56925297,10.2743685 7.62301587,10.4353193 7.62301587,10.6581775 C7.62301587,10.8810358 7.56925297,11.0481769 7.46172555,11.1596061 Z" id="？"></path>
                </g>
            </g>
        </g>
    </g>
</svg>