<?xml version="1.0" encoding="UTF-8" standalone="no"?>
<svg width="74px" height="19px" viewBox="0 0 74 19" version="1.1" xmlns="http://www.w3.org/2000/svg" xmlns:xlink="http://www.w3.org/1999/xlink">
    <!-- Generator: Sketch 3.8.3 (29802) - http://www.bohemiancoding.com/sketch -->
    <title>限时插班</title>
    <desc>Created with Sketch.</desc>
    <defs></defs>
    <g id="Page-1" stroke="none" stroke-width="1" fill="none" fill-rule="evenodd">
        <g id="Artboard-1" transform="translate(-424.000000, -71.000000)" fill="#000000">
            <g id="限时插班" transform="translate(424.000000, 71.000000)">
                <path d="M1,0.994771168 L1,0.994771168 L1,18.0052288 C1,18.0006063 0.999398863,18 0.990129262,18 L73.0098707,18 C72.9983449,18 73,17.9983487 73,18.0052288 L73,0.994771168 C73,0.999393717 73.0006011,1 73.0098707,1 L0.990129262,1 C1.00165514,1 1,1.0016513 1,0.994771168 L1,0.994771168 Z M0,0.994771168 C0,0.445374222 0.453369457,0 0.990129262,0 L73.0098707,0 C73.556704,0 74,0.450925395 74,0.994771168 L74,18.0052288 C74,18.5546258 73.5466305,19 73.0098707,19 L0.990129262,19 C0.44329597,19 0,18.5490746 0,18.0052288 L0,0.994771168 L0,0.994771168 Z" id="Rectangle-1-Copy-11"></path>
                <path d="M0,0.994771168 C0,0.445374222 0.450925395,0 0.994771168,0 L19,0 L19,19 L0.994771168,19 C0.445374222,19 0,18.5490746 0,18.0052288 L0,0.994771168 Z M14.244,5.204 C13.3959958,5.38000088 12.3840059,5.51599952 11.208,5.612 L11.208,6.92 L14.472,6.92 L14.472,7.712 L11.208,7.712 L11.208,13.736 L13.188,13.736 L13.188,12.068 L11.784,12.068 L11.784,11.324 L13.188,11.324 L13.188,9.752 L11.796,9.752 L11.796,8.996 L13.98,8.996 L13.98,15.212 L13.188,15.212 L13.188,14.504 L8.388,14.504 L8.388,15.092 L7.596,15.092 L7.596,9.296 C8.28400344,9.12799916 8.91599712,8.88800156 9.492,8.576 L9.984,9.26 C9.51199764,9.48400112 8.98000296,9.6759992 8.388,9.836 L8.388,11.336 L9.84,11.336 L9.84,12.08 L8.388,12.08 L8.388,13.736 L10.404,13.736 L10.404,7.712 L7.452,7.712 L7.452,6.92 L10.404,6.92 L10.404,5.66 C9.55599576,5.70800024 8.64000492,5.732 7.656,5.732 L7.38,4.94 C9.94801284,4.94 12.0959914,4.78800152 13.824,4.484 L14.244,5.204 Z M7.08,9.944 C6.61599768,10.2000013 6.2640012,10.3879994 6.024,10.508 L6.024,14.072 C6.024,14.7600034 5.69600328,15.104 5.04,15.104 L4.044,15.104 L3.864,14.288 C4.20800172,14.3280002 4.4999988,14.348 4.74,14.348 C5.03600148,14.348 5.184,14.1880016 5.184,13.868 L5.184,10.892 C4.6639974,11.1080011 4.204002,11.2839993 3.804,11.42 L3.6,10.604 C4.14400272,10.4599993 4.67199744,10.2800011 5.184,10.064 L5.184,7.232 L3.66,7.232 L3.66,6.404 L5.184,6.404 L5.184,4.208 L6.024,4.208 L6.024,6.404 L7.08,6.404 L7.08,7.232 L6.024,7.232 L6.024,9.68 C6.5040024,9.42399872 6.85599888,9.22800068 7.08,9.092 L7.08,9.944 Z" id="Combined-Shape"></path>
                <path d="M23,4.54 L26.684,4.54 L26.684,5.236 C26.3399983,6.2760052 25.9080026,7.39999396 25.388,8.608 C26.1640039,9.67200532 26.5759998,10.6319957 26.624,11.488 C26.624,12.0000026 26.5000012,12.3719988 26.252,12.604 C25.9159983,12.8760014 25.3160043,13.0199999 24.452,13.036 L24.164,12.16 C24.4200013,12.1920002 24.5759997,12.208 24.632,12.208 C25.0800022,12.1839999 25.3799992,12.1240005 25.532,12.028 C25.6840008,11.9159994 25.76,11.7360012 25.76,11.488 C25.76,10.6639959 25.3400042,9.74800504 24.5,8.74 C25.0760029,7.47599368 25.5159985,6.35200492 25.82,5.368 L23.84,5.368 L23.84,15.076 L23,15.076 L23,4.54 Z M28.1,7.54 L28.1,8.896 L31.64,8.896 L31.64,7.54 L28.1,7.54 Z M31.64,6.748 L31.64,5.368 L28.1,5.368 L28.1,6.748 L31.64,6.748 Z M28.1,9.688 L28.1,13.792 C28.8040035,13.583999 29.5199964,13.3120017 30.248,12.976 L30.44,13.78 C29.5679956,14.1560019 28.4840065,14.5159983 27.188,14.86 L26.984,14.116 C27.1600009,14.0519997 27.248,13.9600006 27.248,13.84 L27.248,4.552 L32.48,4.552 L32.48,9.688 L30.26,9.688 C30.4040007,10.4160036 30.6479983,11.0719971 30.992,11.656 C31.584003,11.3279984 32.1439974,10.8440032 32.672,10.204 L33.236,10.768 C32.6759972,11.4240033 32.0600034,11.9239983 31.388,12.268 C31.9480028,13.0360038 32.6759955,13.6839974 33.572,14.212 L33.092,14.968 C31.09199,13.6879936 29.888002,11.9280112 29.48,9.688 L28.1,9.688 Z M38.432,4.96 L38.432,13.804 L37.592,13.804 L37.592,13 L35.816,13 L35.816,14.092 L34.976,14.092 L34.976,4.96 L38.432,4.96 Z M35.816,12.196 L37.592,12.196 L37.592,9.304 L35.816,9.304 L35.816,12.196 Z M35.816,8.5 L37.592,8.5 L37.592,5.752 L35.816,5.752 L35.816,8.5 Z M40.16,8.536 C40.9200038,9.68800576 41.4919981,10.6719959 41.876,11.488 L41.156,11.992 C40.7159978,11.0559953 40.1480035,10.0520054 39.452,8.98 L40.16,8.536 Z M40.796,14.944 L40.616,14.104 C41.5440046,14.1360002 42.207998,14.152 42.608,14.152 C42.9600018,14.152 43.136,13.9640019 43.136,13.588 L43.136,7.096 L38.984,7.096 L38.984,6.268 L43.136,6.268 L43.136,4.156 L44.012,4.156 L44.012,6.268 L45.488,6.268 L45.488,7.096 L44.012,7.096 L44.012,13.804 C44.012,14.5640038 43.6400037,14.944 42.896,14.944 L40.796,14.944 Z M57.236,5.068 C56.3879958,5.24400088 55.3760059,5.37999952 54.2,5.476 L54.2,6.784 L57.464,6.784 L57.464,7.576 L54.2,7.576 L54.2,13.6 L56.18,13.6 L56.18,11.932 L54.776,11.932 L54.776,11.188 L56.18,11.188 L56.18,9.616 L54.788,9.616 L54.788,8.86 L56.972,8.86 L56.972,15.076 L56.18,15.076 L56.18,14.368 L51.38,14.368 L51.38,14.956 L50.588,14.956 L50.588,9.16 C51.2760034,8.99199916 51.9079971,8.75200156 52.484,8.44 L52.976,9.124 C52.5039976,9.34800112 51.972003,9.5399992 51.38,9.7 L51.38,11.2 L52.832,11.2 L52.832,11.944 L51.38,11.944 L51.38,13.6 L53.396,13.6 L53.396,7.576 L50.444,7.576 L50.444,6.784 L53.396,6.784 L53.396,5.524 C52.5479958,5.57200024 51.6320049,5.596 50.648,5.596 L50.372,4.804 C52.9400128,4.804 55.0879914,4.65200152 56.816,4.348 L57.236,5.068 Z M50.072,9.808 C49.6079977,10.0640013 49.2560012,10.2519994 49.016,10.372 L49.016,13.936 C49.016,14.6240034 48.6880033,14.968 48.032,14.968 L47.036,14.968 L46.856,14.152 C47.2000017,14.1920002 47.4919988,14.212 47.732,14.212 C48.0280015,14.212 48.176,14.0520016 48.176,13.732 L48.176,10.756 C47.6559974,10.9720011 47.196002,11.1479993 46.796,11.284 L46.592,10.468 C47.1360027,10.3239993 47.6639974,10.1440011 48.176,9.928 L48.176,7.096 L46.652,7.096 L46.652,6.268 L48.176,6.268 L48.176,4.072 L49.016,4.072 L49.016,6.268 L50.072,6.268 L50.072,7.096 L49.016,7.096 L49.016,9.544 C49.4960024,9.28799872 49.8479989,9.09200068 50.072,8.956 L50.072,9.808 Z M66.992,5.656 L65.804,5.656 L65.804,4.864 L69.308,4.864 L69.308,5.656 L67.832,5.656 L67.832,9.004 L69.128,9.004 L69.128,9.796 L67.832,9.796 L67.832,13.756 L69.476,13.756 L69.476,14.56 L65.288,14.56 L65.288,13.756 L66.992,13.756 L66.992,9.796 L65.804,9.796 L65.804,9.004 L66.992,9.004 L66.992,5.656 Z M64.316,4 L65.144,4 L65.144,9.412 C65.1119998,11.9800128 64.2720082,13.8519941 62.624,15.028 L61.988,14.464 C63.5160076,13.4159948 64.2919999,11.7320116 64.316,9.412 L64.316,4 Z M60.044,5.764 L58.676,5.764 L58.676,4.96 L62.204,4.96 L62.204,5.764 L60.884,5.764 L60.884,8.8 L62.048,8.8 L62.048,9.592 L60.884,9.592 L60.884,12.712 C61.3240022,12.5439992 61.7959975,12.3320013 62.3,12.076 L62.3,12.94 C61.2439947,13.4440025 60.0480067,13.8839981 58.712,14.26 L58.508,13.444 C58.9560022,13.3399995 59.4679971,13.2000009 60.044,13.024 L60.044,9.592 L58.784,9.592 L58.784,8.8 L60.044,8.8 L60.044,5.764 Z M62.708,6.04 L63.5,6.04 L63.5,7.192 C63.492,8.92800868 63.2440024,10.2079959 62.756,11.032 L62.144,10.492 C62.5120018,9.80399656 62.7,8.70400756 62.708,7.192 L62.708,6.04 Z" id="限时插班-copy"></path>
            </g>
        </g>
    </g>
</svg>