<?xml version="1.0" encoding="UTF-8" standalone="no"?>
<svg width="15px" height="17px" viewBox="0 0 15 17" version="1.1" xmlns="http://www.w3.org/2000/svg" xmlns:xlink="http://www.w3.org/1999/xlink">
    <!-- Generator: Sketch 39.1 (31720) - http://www.bohemiancoding.com/sketch -->
    <title>Combined Shape</title>
    <desc>Created with Sketch.</desc>
    <defs>
        <path d="M0,8.37348123 C0,7.26975052 0.893397331,6.375 1.99188419,6.375 L13.0081158,6.375 C14.1082031,6.375 15,7.26260656 15,8.37348123 L15,15.0015188 C15,16.1052495 14.1066027,17 13.0081158,17 L1.99188419,17 C0.891796927,17 0,16.1123934 0,15.0015188 L0,8.37348123 Z M3.78571429,5.51634261 C3.78571429,3.58607714 5.44259146,2 7.5,2 C9.5635554,2 11.2142857,3.57967139 11.2142857,5.51634261 L11.2142857,6.32264223 L13.2142857,6.32264223 L13.2142857,5.51634261 C13.2142857,2.45493647 10.648918,0 7.5,0 C4.35708858,0 1.78571429,2.46149687 1.78571429,5.51634261 L1.78571429,6.32264223 L3.78571429,6.32264223 L3.78571429,5.51634261 Z" id="path-1"></path>
        <mask id="mask-2" maskContentUnits="userSpaceOnUse" maskUnits="objectBoundingBox" x="0" y="0" width="15" height="17" fill="white">
            <use xlink:href="#path-1"></use>
        </mask>
    </defs>
    <g id="Page-1" stroke="none" stroke-width="1" fill="none" fill-rule="evenodd">
        <use id="Combined-Shape" stroke="#CDCDCE" mask="url(#mask-2)" stroke-width="2" fill="#CDCDCE" xlink:href="#path-1"></use>
    </g>
</svg>