<?xml version="1.0" encoding="UTF-8" standalone="no"?>
<svg width="15px" height="18px" viewBox="0 0 15 18" version="1.1" xmlns="http://www.w3.org/2000/svg" xmlns:xlink="http://www.w3.org/1999/xlink">
    <!-- Generator: Sketch 39.1 (31720) - http://www.bohemiancoding.com/sketch -->
    <title>Combined Shape</title>
    <desc>Created with Sketch.</desc>
    <defs></defs>
    <g id="Page-1" stroke="none" stroke-width="1" fill="none" fill-rule="evenodd">
        <path d="M10.9038615,4.18821624 L10.8628211,4.19778032 C10.5865349,3.01220763 9.14775483,2 7.45714896,2 C5.54871797,2 4.1000061,3.25643474 4.0999747,4.63852655 L4.11250779,6.875 L13.0081158,6.875 C14.1082031,6.875 15,7.76260656 15,8.87348123 L15,15.5015188 C15,16.6052495 14.1066027,17.5 13.0081158,17.5 L1.99188419,17.5 C0.891796927,17.5 0,16.6123934 0,15.5015188 L0,8.87348123 C0,7.76975052 0.893397331,6.875 1.99188419,6.875 L2.11247638,6.875 L2.1000061,4.64973428 C2.1000061,2.08175695 4.50450095,0 7.45714896,0 C10.0019713,0 12.2318394,1.55761287 12.7816654,3.62767152 C12.8571861,3.76834025 12.9000244,3.92917046 12.9000244,4.1000061 C12.9000244,4.65229085 12.4523092,5.1000061 11.9000244,5.1000061 C11.3774638,5.1000061 10.9485196,4.6991863 10.9038615,4.18821624 Z" id="Combined-Shape" fill="#CDCDCE"></path>
    </g>
</svg>