<?xml version="1.0" encoding="UTF-8" standalone="no"?>
<svg width="14px" height="17px" viewBox="0 0 14 17" version="1.1" xmlns="http://www.w3.org/2000/svg" xmlns:xlink="http://www.w3.org/1999/xlink">
    <!-- Generator: Sketch 3.8.3 (29802) - http://www.bohemiancoding.com/sketch -->
    <title>ic_position</title>
    <desc>Created with Sketch.</desc>
    <defs></defs>
    <g id="过渡版本" stroke="none" stroke-width="1" fill="none" fill-rule="evenodd">
        <g id="Artboard-6" transform="translate(-887.000000, -210.000000)" fill="#000000">
            <g id="ic_position" transform="translate(887.000000, 210.000000)">
                <path d="M7.35015515,16.5569193 C7.39931255,16.5086935 7.48951925,16.4185357 7.61493423,16.29055 C7.82285322,16.0783692 8.0542498,15.8366121 8.30329215,15.5693658 C9.01473904,14.8059149 9.72622179,13.9900334 10.3913063,13.1538952 C11.0478054,12.3285504 11.6239493,11.5267207 12.0976184,10.7627464 C12.9992444,9.30852635 13.5,8.04618846 13.5,7 C13.5,3.41014913 10.5898509,0.5 7,0.5 C3.41014913,0.5 0.5,3.41014913 0.5,7 C0.5,8.04618846 1.00075564,9.30852635 1.90238161,10.7627464 C2.37605074,11.5267207 2.95219455,12.3285504 3.60869367,13.1538952 C4.27377821,13.9900334 4.98526096,14.8059149 5.69670785,15.5693658 C5.9457502,15.8366121 6.17714678,16.0783692 6.38506577,16.29055 C6.51048075,16.4185357 6.60068745,16.5086935 6.64984485,16.5569193 L7,16.9004385 L7.35015515,16.5569193 L7.35015515,16.5569193 Z M6.64984485,15.8430807 L7.35015515,15.8430807 C7.30556255,15.7993332 7.219988,15.713805 7.09930923,15.5906527 C6.89707197,15.38427 6.6714373,15.1485329 6.42829215,14.8876148 C5.73348904,14.1420243 5.03872179,13.3453111 4.39130633,12.5313862 C3.75747798,11.7345429 3.20348007,10.9635341 2.7522818,10.2358027 C1.94039225,8.92631728 1.5,7.81614741 1.5,7 C1.5,3.96243388 3.96243388,1.5 7,1.5 C10.0375661,1.5 12.5,3.96243388 12.5,7 C12.5,7.81614741 12.0596077,8.92631728 11.2477182,10.2358027 C10.7965199,10.9635341 10.242522,11.7345429 9.60869367,12.5313862 C8.96127821,13.3453111 8.26651096,14.1420243 7.57170785,14.8876148 C7.3285627,15.1485329 7.10292803,15.38427 6.90069077,15.5906527 C6.780012,15.713805 6.69443745,15.7993332 6.64984485,15.8430807 L6.64984485,15.8430807 Z" id="Oval-1"></path>
                <path d="M7,9.5 C8.38071187,9.5 9.5,8.38071187 9.5,7 C9.5,5.61928813 8.38071187,4.5 7,4.5 C5.61928813,4.5 4.5,5.61928813 4.5,7 C4.5,8.38071187 5.61928813,9.5 7,9.5 L7,9.5 Z M7,8.5 C6.17157288,8.5 5.5,7.82842712 5.5,7 C5.5,6.17157288 6.17157288,5.5 7,5.5 C7.82842712,5.5 8.5,6.17157288 8.5,7 C8.5,7.82842712 7.82842712,8.5 7,8.5 L7,8.5 Z" id="Oval-2"></path>
            </g>
        </g>
    </g>
</svg>