<?xml version="1.0" encoding="UTF-8" standalone="no"?>
<svg width="16px" height="24px" viewBox="0 0 16 24" version="1.1" xmlns="http://www.w3.org/2000/svg" xmlns:xlink="http://www.w3.org/1999/xlink">
    <!-- Generator: Sketch 3.8.3 (29802) - http://www.bohemiancoding.com/sketch -->
    <title>ic_recording</title>
    <desc>Created with Sketch.</desc>
    <defs></defs>
    <g id="过渡版本" stroke="none" stroke-width="1" fill="none" fill-rule="evenodd">
        <g id="Artboard-6" transform="translate(-639.000000, -277.000000)">
            <g id="ic_recording" transform="translate(635.000000, 277.000000)">
                <rect id="Rectangle-637" x="0" y="0" width="24" height="24"></rect>
                <path d="M8,4.99009984 L8,4.99009984 L8,13.0099002 C8,15.2074062 9.79387218,17 12,17 C14.2060771,17 16,15.2110178 16,13.0099002 L16,4.99009984 C16,2.79259377 14.2061278,1 12,1 C9.79392288,1 8,2.78898215 8,4.99009984 L8,4.99009984 Z M7,4.99009984 C7,2.2341438 9.24419519,0 12,0 C14.7614237,0 17,2.24331781 17,4.99009984 L17,13.0099002 C17,15.7658562 14.7558048,18 12,18 C9.23857625,18 7,15.7566822 7,13.0099002 L7,4.99009984 L7,4.99009984 Z" id="Rectangle-636" fill="#000000"></path>
                <path d="M5,11.000936 L4,11 L4,14.1449604 C4,17.9034031 7.04833232,20.939628 10.8086408,20.939628 L13.1913592,20.939628 C16.9528615,20.939628 20,17.8960364 20,14.141576 L20,11.0149766 L19,11.0149766 L19,14.141576 C19,17.3438419 16.4004855,19.939628 13.1913592,19.939628 L10.8086408,19.939628 C7.59799858,19.939628 5,17.3485035 5,14.1449604 L5,11.000936 Z" id="Rectangle-636-Copy" fill="#000000"></path>
                <rect id="Rectangle-637" fill="#000000" x="11.5" y="20" width="1" height="3"></rect>
                <rect id="Rectangle-638" fill="#000000" x="9.5" y="23" width="5" height="1" rx="0.5"></rect>
            </g>
        </g>
    </g>
</svg>