<?xml version="1.0" encoding="utf-8"?>
<!-- Generator: Adobe Illustrator 16.0.0, SVG Export Plug-In . SVG Version: 6.00 Build 0)  -->
<!DOCTYPE svg PUBLIC "-//W3C//DTD SVG 1.1//EN" "http://www.w3.org/Graphics/SVG/1.1/DTD/svg11.dtd">
<svg version="1.1" id="Layer_1" xmlns="http://www.w3.org/2000/svg" xmlns:xlink="http://www.w3.org/1999/xlink" x="0px" y="0px"
	 width="16px" height="16px" viewBox="0.5 -0.458 16 16" enable-background="new 0.5 -0.458 16 16" xml:space="preserve">
<g>
	<circle fill-rule="evenodd" clip-rule="evenodd" fill="#231F20" cx="5.5" cy="5.542" r="1"/>
	<circle fill-rule="evenodd" clip-rule="evenodd" fill="#231F20" cx="11.5" cy="5.542" r="1"/>
	<path fill-rule="evenodd" clip-rule="evenodd" fill="#231F20" d="M8.5,0.042c-4.136,0-7.5,3.364-7.5,7.5c0,4.137,3.364,7.5,7.5,7.5
		s7.5-3.363,7.5-7.5C16,3.406,12.636,0.042,8.5,0.042z M8.5,14.042c-3.584,0-6.5-2.916-6.5-6.5c0-3.584,2.916-6.5,6.5-6.5
		s6.5,2.916,6.5,6.5C15,11.126,12.084,14.042,8.5,14.042z"/>
	<path fill-rule="evenodd" clip-rule="evenodd" fill="#231F20" d="M11,9.542H6c-0.276,0-0.5,0.225-0.5,0.5
		c0,0.277,0.224,0.5,0.5,0.5h5c0.276,0,0.5-0.223,0.5-0.5C11.5,9.767,11.276,9.542,11,9.542z"/>
</g>
</svg>
