<?xml version="1.0" encoding="UTF-8" standalone="no"?>
<svg width="21px" height="21px" viewBox="0 0 21 21" version="1.1" xmlns="http://www.w3.org/2000/svg" xmlns:xlink="http://www.w3.org/1999/xlink">
    <!-- Generator: Sketch 3.8.3 (29802) - http://www.bohemiancoding.com/sketch -->
    <title>ic_edit_big</title>
    <desc>Created with Sketch.</desc>
    <defs></defs>
    <g id="过渡版本" stroke="none" stroke-width="1" fill="none" fill-rule="evenodd">
        <g id="Artboard-6" transform="translate(-767.000000, -206.000000)" fill="#000000">
            <path d="M786.5,217.383333 L786.5,226.25 L787,225.75 L768,225.75 L768.5,226.25 L768.5,207.25 L768,207.75 L778.133333,207.75 C778.409476,207.75 778.633333,207.526142 778.633333,207.25 C778.633333,206.973858 778.409476,206.75 778.133333,206.75 L768,206.75 C767.723858,206.75 767.5,206.973858 767.5,207.25 L767.5,226.25 C767.5,226.526142 767.723858,226.75 768,226.75 L787,226.75 C787.276142,226.75 787.5,226.526142 787.5,226.25 L787.5,217.383333 C787.5,217.107191 787.276142,216.883333 787,216.883333 C786.723858,216.883333 786.5,217.107191 786.5,217.383333 Z M777.308944,217.611207 L787.361207,207.558944 C787.546264,207.373887 787.546264,207.07385 787.361207,206.888793 C787.17615,206.703736 786.876113,206.703736 786.691056,206.888793 L776.638793,216.941056 C776.453736,217.126113 776.453736,217.42615 776.638793,217.611207 C776.82385,217.796264 777.123887,217.796264 777.308944,217.611207 Z" id="ic_edit_big"></path>
        </g>
    </g>
</svg>