<?xml version="1.0" encoding="utf-8"?>
<!-- Generator: Adobe Illustrator 17.0.0, SVG Export Plug-In . SVG Version: 6.00 Build 0)  -->
<!DOCTYPE svg PUBLIC "-//W3C//DTD SVG 1.1//EN" "http://www.w3.org/Graphics/SVG/1.1/DTD/svg11.dtd">
<svg version="1.1" id="图层_1" xmlns="http://www.w3.org/2000/svg" xmlns:xlink="http://www.w3.org/1999/xlink" x="0px" y="0px"
	 width="64px" height="64px" viewBox="0 0 64 64" enable-background="new 0 0 64 64" xml:space="preserve">
<g>
	<path d="M52.304,46.211c-7.742-6.178-9.891-3.119-13.385,0.398c-2.435,2.455-8.642-2.633-14.006-7.954
		c-5.365-5.325-10.5-11.498-8.058-13.953c3.488-3.512,6.532-5.685,0.292-13.38C10.915,3.622,6.8,9.565,3.421,12.973
		c-3.905,3.929-0.14,18.509,14.342,32.884c14.48,14.371,29.09,18.027,32.99,14.098C54.131,56.548,60.046,52.389,52.304,46.211z"/>
	<path d="M40.466,24.621c3.196,3.201,3.833,6.211,4.206,8.207c0,0,0.153,1.024,0.881,1.752c1.23,1.23,3.24,1.177,4.403,0.015
		c1.134-1.134,0.886-2.753,0.886-2.753c-0.637-4.043-2.598-8.269-5.964-11.633c-3.364-3.369-7.589-5.325-11.633-5.962
		c0,0-1.617-0.254-2.752,0.881c-1.163,1.167-1.215,3.178,0.015,4.408c0.728,0.722,1.752,0.88,1.752,0.88
		C34.255,20.788,37.26,21.42,40.466,24.621z"/>
	<path d="M52.505,11.494c-9.144-9.14-18.529-9.987-23.189-9.317c0,0-1.23,0.163-1.986,0.924c-1.177,1.172-1.25,3.163,0.005,4.421
		c1.12,1.115,2.827,0.833,2.827,0.833c5.398-0.814,12.059,1.689,17.926,7.556c5.867,5.867,8.37,12.527,7.556,17.926
		c0,0-0.283,1.708,0.833,2.823c1.253,1.259,3.244,1.187,4.421,0.01c0.756-0.756,0.924-1.986,0.924-1.986
		C62.493,30.023,61.645,20.639,52.505,11.494z"/>
</g>
</svg>
