<?xml version="1.0" encoding="UTF-8" standalone="no"?>
<svg width="18px" height="18px" viewBox="0 0 18 18" version="1.1" xmlns="http://www.w3.org/2000/svg" xmlns:xlink="http://www.w3.org/1999/xlink">
    <!-- Generator: Sketch 3.8.3 (29802) - http://www.bohemiancoding.com/sketch -->
    <title>ic_cell add copy</title>
    <desc>Created with Sketch.</desc>
    <defs></defs>
    <g id="过渡版本" stroke="none" stroke-width="1" fill="none" fill-rule="evenodd">
        <g id="Artboard-6" transform="translate(-48.000000, -278.000000)" fill="#000000">
            <g id="ic_cell-add-copy" transform="translate(48.000000, 278.000000)">
                <path d="M9,17 L9,17 C13.418278,17 17,13.418278 17,9 C17,4.581722 13.418278,1 9,1 C4.581722,1 1,4.581722 1,9 C1,13.418278 4.581722,17 9,17 L9,17 Z M9,18 L9,18 C4.02943725,18 0,13.9705627 0,9 C0,4.02943725 4.02943725,0 9,0 C13.9705627,0 18,4.02943725 18,9 C18,13.9705627 13.9705627,18 9,18 L9,18 Z" id="Oval-62"></path>
                <g id="Path-164-+-Path-165" transform="translate(3.600000, 3.600000)">
                    <polygon id="Path-164" points="4.9 0 4.9 10.8 5.9 10.8 5.9 0"></polygon>
                    <polygon id="Path-165" points="0 5.9 10.8 5.9 10.8 4.9 0 4.9"></polygon>
                </g>
            </g>
        </g>
    </g>
</svg>