<?xml version="1.0" encoding="utf-8"?>
<!-- Generator: Adobe Illustrator 17.0.0, SVG Export Plug-In . SVG Version: 6.00 Build 0)  -->
<!DOCTYPE svg PUBLIC "-//W3C//DTD SVG 1.1//EN" "http://www.w3.org/Graphics/SVG/1.1/DTD/svg11.dtd">
<svg version="1.1" id="图层_1" xmlns="http://www.w3.org/2000/svg" xmlns:xlink="http://www.w3.org/1999/xlink" x="0px" y="0px"
	 width="16px" height="16px" viewBox="0 0 16 16" enable-background="new 0 0 16 16" xml:space="preserve">
<path fill="#1E1C1C" d="M3.24,11.332H1.277V16h1.969L3.24,11.332z M6.726,4.946L6.029,4.251l-5.096,5.09l0.699,0.698L6.726,4.946z
	 M9.972,7.213l0.419-0.889L5.983,4.251L5.563,5.144L9.972,7.213z M13.75,2.232l-0.784-0.595L9.16,6.616l0.786,0.597L13.75,2.232z
	 M7.176,7.41H5.214V16h1.97L7.176,7.41z M11.123,9.354H9.16V16h1.97L11.123,9.354z M15.06,5.424h-1.963V16h1.969L15.06,5.424z
	 M11.825,0.749l3.108,2.404L14.893,0L11.825,0.749z M11.825,0.749"/>
</svg>
