<?xml version="1.0" encoding="utf-8"?>
<!DOCTYPE svg PUBLIC "-//W3C//DTD SVG 1.1//EN" "http://www.w3.org/Graphics/SVG/1.1/DTD/svg11.dtd">
<svg style="width:308px;height:308px;" version="1.1" id="图形" xmlns="http://www.w3.org/2000/svg" xmlns:xlink="http://www.w3.org/1999/xlink" x="0px" y="0px" width="1024px" height="1024px" viewBox="0 0 1024 1024" enable-background="new 0 0 1024 1024" xml:space="preserve">
  <path class="svgpath" data-index="path_0" fill="#272636" d="M934.592 801.344l-165.504-165.504c30.848-54.656 48.768-117.632 48.768-184.768 0-207.808-169.152-376.896-376.96-376.896C233.088 74.176 64 243.264 64 451.072c0 207.808 169.088 376.896 376.832 376.896 77.76 0 150.08-23.744 210.176-64.192l160.576 160.64c17.024 16.896 39.232 25.344 61.504 25.344s44.48-8.512 61.504-25.344C968.512 890.368 968.512 835.392 934.592 801.344zM179.968 451.072c0-143.872 117.056-260.928 260.864-260.928 144 0 260.992 117.12 260.992 260.928s-116.992 260.928-260.992 260.928C297.024 712 179.968 594.944 179.968 451.072z" />

</svg>
