<?xml version="1.0" encoding="utf-8"?>
<!-- Generator: Adobe Illustrator 16.0.0, SVG Export Plug-In . SVG Version: 6.00 Build 0)  -->
<!DOCTYPE svg PUBLIC "-//W3C//DTD SVG 1.1//EN" "http://www.w3.org/Graphics/SVG/1.1/DTD/svg11.dtd">
<svg version="1.1" id="Layer_1" xmlns="http://www.w3.org/2000/svg" xmlns:xlink="http://www.w3.org/1999/xlink" x="0px" y="0px"
	 width="16px" height="16px" viewBox="0.5 0.5 16 16" enable-background="new 0.5 0.5 16 16" xml:space="preserve">
<path d="M15.5,13.72l-2.975-2.975c0.746-0.969,1.195-2.18,1.195-3.495c0-3.17-2.579-5.75-5.75-5.75S2.22,4.08,2.22,7.25
	c0,3.171,2.58,5.751,5.75,5.751c1.315,0,2.524-0.449,3.494-1.195l2.975,2.975L15.5,13.72z M7.971,11.501
	c-2.344,0-4.25-1.908-4.25-4.251C3.72,4.907,5.627,3,7.971,3s4.25,1.907,4.25,4.25C12.221,9.593,10.314,11.501,7.971,11.501z"/>
</svg>
