<?xml version="1.0" encoding="utf-8"?>
<!-- Generator: Adobe Illustrator 16.0.0, SVG Export Plug-In . SVG Version: 6.00 Build 0)  -->
<!DOCTYPE svg PUBLIC "-//W3C//DTD SVG 1.1//EN" "http://www.w3.org/Graphics/SVG/1.1/DTD/svg11.dtd">
<svg version="1.1" id="Layer_1" xmlns="http://www.w3.org/2000/svg" xmlns:xlink="http://www.w3.org/1999/xlink" x="0px" y="0px"
	 width="16px" height="16px" viewBox="0 0 16 16" enable-background="new 0 0 16 16" xml:space="preserve">
<path fill-rule="evenodd" clip-rule="evenodd" fill="#231F20" d="M12,11c-0.582,0-1.102,0.253-1.467,0.65l-4.6-3.164
	C5.973,8.33,6,8.169,6,8c0-0.228-0.046-0.443-0.117-0.647l4.68-2.966C10.927,4.764,11.435,5,12,5c1.104,0,2-0.896,2-2s-0.896-2-2-2
	s-2,0.896-2,2c0,0.178,0.031,0.348,0.074,0.513L5.333,6.519C4.979,6.2,4.514,6,4,6C2.896,6,2,6.896,2,8s0.896,2,2,2
	c0.574,0,1.087-0.245,1.452-0.632l4.606,3.17C10.023,12.687,10,12.84,10,13c0,1.104,0.896,2,2,2s2-0.896,2-2S13.104,11,12,11z"/>
</svg>
