<?xml version="1.0" encoding="utf-8"?>
<!-- Generator: Adobe Illustrator 16.0.0, SVG Export Plug-In . SVG Version: 6.00 Build 0)  -->
<!DOCTYPE svg PUBLIC "-//W3C//DTD SVG 1.1//EN" "http://www.w3.org/Graphics/SVG/1.1/DTD/svg11.dtd">
<svg version="1.1" id="Layer_1" xmlns="http://www.w3.org/2000/svg" xmlns:xlink="http://www.w3.org/1999/xlink" x="0px" y="0px"
	 width="16px" height="16px" viewBox="0.466 0.497 16 16" enable-background="new 0.466 0.497 16 16" xml:space="preserve">
<g>
	<path fill="#231F20" d="M12.022,9.466c-0.247-0.123-0.547-0.022-0.671,0.224c-0.74,1.48-2.265,1.641-2.886,1.641h0h0
		c-0.621,0-2.145-0.16-2.885-1.641C5.457,9.443,5.156,9.342,4.909,9.466C4.662,9.589,4.562,9.89,4.686,10.137
		c0.686,1.373,2.099,2.193,3.779,2.193h0h0c1.681,0,3.094-0.82,3.78-2.193C12.369,9.89,12.27,9.589,12.022,9.466z"/>
	<circle fill="#231F20" cx="5.466" cy="6.496" r="1"/>
	<circle fill="#231F20" cx="11.466" cy="6.496" r="1"/>
	<path fill="#231F20" d="M8.466,0.997c-4.136,0-7.5,3.364-7.5,7.5c0,4.136,3.364,7.5,7.5,7.5s7.5-3.364,7.5-7.5
		C15.966,4.361,12.602,0.997,8.466,0.997z M8.466,14.996c-3.584,0-6.5-2.916-6.5-6.5s2.916-6.5,6.5-6.5s6.5,2.916,6.5,6.5
		S12.05,14.996,8.466,14.996z"/>
</g>
</svg>
