<?xml version="1.0" encoding="UTF-8" standalone="no"?>
<svg width="14px" height="14px" viewBox="0 0 14 14" version="1.1" xmlns="http://www.w3.org/2000/svg" xmlns:xlink="http://www.w3.org/1999/xlink">
    <!-- Generator: Sketch 3.8.3 (29802) - http://www.bohemiancoding.com/sketch -->
    <title>ic_select_done copy</title>
    <desc>Created with Sketch.</desc>
    <defs></defs>
    <g id="过渡版本" stroke="none" stroke-width="1" fill="none" fill-rule="evenodd">
        <g id="Artboard-6" transform="translate(-399.000000, -215.000000)" fill="#000000">
            <path d="M400,217.005859 L400,217.005859 L400,226.994141 C400,227.550235 400.449918,228 401.005859,228 L410.994141,228 C411.550235,228 412,227.550082 412,226.994141 L412,217.005859 C412,216.449765 411.550082,216 410.994141,216 L401.005859,216 C400.449765,216 400,216.449918 400,217.005859 L400,217.005859 Z M399,217.005859 C399,215.898054 399.89706,215 401.005859,215 L410.994141,215 C412.101946,215 413,215.89706 413,217.005859 L413,226.994141 C413,228.101946 412.10294,229 410.994141,229 L401.005859,229 C399.898054,229 399,228.10294 399,226.994141 L399,217.005859 L399,217.005859 Z" id="ic_select_done-copy"></path>
        </g>
    </g>
</svg>