<?xml version="1.0" encoding="UTF-8" standalone="no"?>
<svg width="24px" height="20px" viewBox="0 0 24 20" version="1.1" xmlns="http://www.w3.org/2000/svg" xmlns:xlink="http://www.w3.org/1999/xlink">
    <!-- Generator: Sketch 3.8.3 (29802) - http://www.bohemiancoding.com/sketch -->
    <title>ic_video</title>
    <desc>Created with Sketch.</desc>
    <defs></defs>
    <g id="过渡版本" stroke="none" stroke-width="1" fill="none" fill-rule="evenodd">
        <g id="Artboard-6" transform="translate(-589.000000, -279.000000)">
            <g id="ic_video" transform="translate(589.000000, 277.000000)">
                <rect id="Rectangle-563" x="0" y="0" width="24" height="24"></rect>
                <g id="Group-2" transform="translate(0.000000, 1.400000)" fill="#000000">
                    <path d="M1,2.59079514 L1,2.59079514 L1,18.6092049 C1,19.1508341 1.45127785,19.6 2.00494659,19.6 L21.9950534,19.6 C22.5520073,19.6 23,19.1550745 23,18.6092049 L23,2.59079514 C23,2.04916585 22.5487222,1.6 21.9950534,1.6 L2.00494659,1.6 C1.4479927,1.6 1,2.04492552 1,2.59079514 L1,2.59079514 Z M0,2.59079514 C0,1.49130934 0.897026226,0.6 2.00494659,0.6 L21.9950534,0.6 C23.1023548,0.6 24,1.49821238 24,2.59079514 L24,18.6092049 C24,19.7086907 23.1029738,20.6 21.9950534,20.6 L2.00494659,20.6 C0.897645164,20.6 0,19.7017876 0,18.6092049 L0,2.59079514 L0,2.59079514 Z" id="Rectangle-4"></path>
                    <path d="M16.6341133,11.0531551 L16.6341133,11.0531551 L16.6341133,11.0531551 L9.19899407,5.43010178 C9.25592791,5.47315987 9.43835829,5.51436639 9.68457351,5.38980827 C9.92655998,5.26738943 10,5.10264921 10,5.03415635 L10,16.1454497 C10,16.0816481 9.93041493,15.9273523 9.71262189,15.8104315 C9.48775972,15.6897157 9.30797247,15.7210625 9.24688111,15.7635822 L16.650114,10.6109113 C16.5416983,10.686369 16.5378395,10.9803449 16.6341133,11.0531551 L16.6341133,11.0531551 Z M17.2373156,10.2555668 C17.6803564,10.590631 17.6739566,11.1166818 17.2213724,11.4316816 L9.81813952,16.5843525 C9.36629354,16.8988385 9,16.701886 9,16.1454497 L9,5.03415635 C9,4.47727097 9.35435958,4.29382225 9.80219638,4.63251356 L17.2373156,10.2555668 L17.2373156,10.2555668 Z" id="Triangle-1"></path>
                </g>
            </g>
        </g>
    </g>
</svg>