<?xml version="1.0" encoding="UTF-8" standalone="no"?>
<svg width="20px" height="20px" viewBox="0 0 20 20" version="1.1" xmlns="http://www.w3.org/2000/svg" xmlns:xlink="http://www.w3.org/1999/xlink">
    <!-- Generator: Sketch 3.8.3 (29802) - http://www.bohemiancoding.com/sketch -->
    <title>ic_delete_big</title>
    <desc>Created with Sketch.</desc>
    <defs></defs>
    <g id="过渡版本" stroke="none" stroke-width="1" fill="none" fill-rule="evenodd">
        <g id="Artboard-6" transform="translate(-825.000000, -207.000000)" fill="#000000">
            <g id="ic_delete_big" transform="translate(825.000000, 207.000000)">
                <path d="M6.6428397,3.29980469 L6.6428397,1.46987359 C6.6428397,1.20780675 6.85167816,1 7.12379674,1 L13.1618827,1 C13.4269453,1 13.6428397,1.21410535 13.6428397,1.46987359 L13.6428397,3.29980469 L14.6428397,3.29980469 L14.6428397,1.46987359 C14.6428397,0.659949324 13.9773759,0 13.1618827,0 L7.12379674,0 C6.30049901,0 5.6428397,0.654410334 5.6428397,1.46987359 L5.6428397,3.29980469 L6.6428397,3.29980469 L6.6428397,3.29980469 Z" id="Rectangle-168"></path>
                <path d="M3.10526316,4.11151068 L3.10526316,4.11151068 L3.10526316,18.9937525 C3.10526316,18.9977052 3.10754357,19 3.10613482,19 L17.1043915,19 C17.1054035,19 17.1052632,19.0001414 17.1052632,18.9937525 L17.1052632,4.11151068 C17.1052632,4.10755799 17.1029827,4.10526316 17.1043915,4.10526316 L3.10613482,4.10526316 C3.10512284,4.10526316 3.10526316,4.10512175 3.10526316,4.11151068 L3.10526316,4.11151068 Z M2.10526316,4.11151068 C2.10526316,3.55577552 2.54989402,3.10526316 3.10613482,3.10526316 L17.1043915,3.10526316 C17.6571577,3.10526316 18.1052632,3.55715656 18.1052632,4.11151068 L18.1052632,18.9937525 C18.1052632,19.5494876 17.6606323,20 17.1043915,20 L3.10613482,20 C2.55336866,20 2.10526316,19.5481066 2.10526316,18.9937525 L2.10526316,4.11151068 L2.10526316,4.11151068 Z" id="Rectangle-167"></path>
                <rect id="Rectangle-166" x="0" y="3.10526316" width="20" height="1" rx="0.5"></rect>
                <rect id="Rectangle-169-Copy-2" x="13.6842105" y="8.36842105" width="1" height="8" rx="0.5"></rect>
                <rect id="Rectangle-169-Copy-3" x="9.47368421" y="8.36842105" width="1" height="8" rx="0.5"></rect>
                <rect id="Rectangle-169-Copy-4" x="5.26315789" y="8.36842105" width="1" height="8" rx="0.5"></rect>
            </g>
        </g>
    </g>
</svg>