<?xml version="1.0" encoding="UTF-8" standalone="no"?>
<svg width="15px" height="15px" viewBox="0 0 15 15" version="1.1" xmlns="http://www.w3.org/2000/svg" xmlns:xlink="http://www.w3.org/1999/xlink">
    <!-- Generator: Sketch 39.1 (31720) - http://www.bohemiancoding.com/sketch -->
    <title>Combined Shape Copy</title>
    <desc>Created with Sketch.</desc>
    <defs></defs>
    <g id="Page-1" stroke="none" stroke-width="1" fill="none" fill-rule="evenodd">
        <g id="从资料库添加-copy" transform="translate(-283.000000, -390.000000)" fill="#9D9E9E">
            <g id="Group-5" transform="translate(260.000000, 199.000000)">
                <g id="Group-7-Copy" transform="translate(15.000000, 172.000000)">
                    <path d="M8,20.007484 C8,19.4510659 8.44892021,19 9.00748397,19 L21.992516,19 C22.5489341,19 23,19.4489202 23,20.007484 L23,32.992516 C23,33.5489341 22.5510798,34 21.992516,34 L9.00748397,34 C8.45106594,34 8,33.5510798 8,32.992516 L8,20.007484 Z M9,20.9985023 C9,20.4470447 9.44748943,20 9.99850233,20 L21.0014977,20 C21.5529553,20 22,20.4474894 22,20.9985023 L22,32.0014977 C22,32.5529553 21.5525106,33 21.0014977,33 L9.99850233,33 C9.44704472,33 9,32.5525106 9,32.0014977 L9,20.9985023 Z" id="Combined-Shape-Copy"></path>
                </g>
            </g>
        </g>
    </g>
</svg>