<?xml version="1.0" encoding="utf-8"?>
<!-- Generator: Adobe Illustrator 16.0.0, SVG Export Plug-In . SVG Version: 6.00 Build 0)  -->
<!DOCTYPE svg PUBLIC "-//W3C//DTD SVG 1.1//EN" "http://www.w3.org/Graphics/SVG/1.1/DTD/svg11.dtd">
<svg version="1.1" id="Layer_1" xmlns="http://www.w3.org/2000/svg" xmlns:xlink="http://www.w3.org/1999/xlink" x="0px" y="0px"
	 width="16px" height="16px" viewBox="0 0 16 16" enable-background="new 0 0 16 16" xml:space="preserve">
<path fill-rule="evenodd" clip-rule="evenodd" fill="#231F20" d="M8,8c1.656,0,3-1.344,3-3V4c0-1.657-1.344-3-3-3
	C6.343,1,5,2.343,5,4v1C5,6.656,6.343,8,8,8z M14,11c0,0-3.265-2-5-2C7.264,9,8.736,9,7,9c-1.735,0-5,2-5,2s0,1,0,2S2,14,3,14h10
	c1,0,1,0,1.001-1S14,11,14,11z"/>
</svg>
