<?xml version="1.0" encoding="UTF-8" standalone="no"?>
<svg width="21px" height="5px" viewBox="0 0 21 5" version="1.1" xmlns="http://www.w3.org/2000/svg" xmlns:xlink="http://www.w3.org/1999/xlink">
    <!-- Generator: Sketch 40 (33762) - http://www.bohemiancoding.com/sketch -->
    <title>ic_moreactions copy 2</title>
    <desc>Created with Sketch.</desc>
    <defs></defs>
    <g id="学生端" stroke="none" stroke-width="1" fill="none" fill-rule="evenodd">
        <g id="详情页-已有报名老师" transform="translate(-334.000000, -398.000000)" fill="#CDCDCE">
            <g id="Group-6" transform="translate(-1.000000, 375.000000)">
                <g id="ic_moreactions-copy-2" transform="translate(335.000000, 23.000000)">
                    <path d="M0,2.5 C0,1.11928813 1.10966206,0 2.5,0 C3.88071187,0 5,1.10966206 5,2.5 C5,3.88071187 3.89033794,5 2.5,5 C1.11928813,5 0,3.89033794 0,2.5 Z M8,2.5 C8,1.11928813 9.10966206,0 10.5,0 C11.8807119,0 13,1.10966206 13,2.5 C13,3.88071187 11.8903379,5 10.5,5 C9.11928813,5 8,3.89033794 8,2.5 Z M16,2.5 C16,1.11928813 17.1096621,0 18.5,0 C19.8807119,0 21,1.10966206 21,2.5 C21,3.88071187 19.8903379,5 18.5,5 C17.1192881,5 16,3.89033794 16,2.5 Z" id="ic_moreactions"></path>
                </g>
            </g>
        </g>
    </g>
</svg>