<?xml version="1.0" encoding="utf-8"?>
<!-- Generator: Adobe Illustrator 17.0.0, SVG Export Plug-In . SVG Version: 6.00 Build 0)  -->
<!DOCTYPE svg PUBLIC "-//W3C//DTD SVG 1.1//EN" "http://www.w3.org/Graphics/SVG/1.1/DTD/svg11.dtd">
<svg version="1.1" id="图层_1" xmlns="http://www.w3.org/2000/svg" xmlns:xlink="http://www.w3.org/1999/xlink" x="0px" y="0px"
	 width="48px" height="48px" viewBox="0 0 48 48" enable-background="new 0 0 48 48" xml:space="preserve">
<g>
	<g>
		<path fill-rule="evenodd" clip-rule="evenodd" fill="#323333" d="M24.002,15.422c-4.731,0-8.578,3.847-8.578,8.577
			c0,4.73,3.848,8.578,8.578,8.578c3.841,0,7.098-2.537,8.188-6.022l-3.053,0.003c-0.943,1.886-2.887,3.186-5.135,3.186
			c-3.168,0-5.743-2.577-5.743-5.745c0-3.168,2.578-5.745,5.743-5.745c2.636,0,4.858,1.788,5.53,4.214h2.902
			C31.71,18.467,28.209,15.422,24.002,15.422z M42.178,17.625h-0.829l-0.065-0.172l-0.231,0.1l0.201-0.166
			c-0.145-0.378-0.279-0.704-0.413-0.998l-0.067-0.149l0.586-0.589c1.1-1.098,1.707-2.561,1.707-4.116
			c0-1.555-0.605-3.018-1.707-4.118l-0.777-0.779c-1.1-1.1-2.562-1.705-4.119-1.705c-1.555,0-3.017,0.605-4.117,1.705l-0.586,0.589
			l-0.149-0.067c-0.318-0.144-0.672-0.289-1.083-0.443l-0.152-0.058V5.823C30.377,2.612,27.764,0,24.553,0h-1.102
			c-3.211,0-5.824,2.613-5.824,5.823v0.836l-0.152,0.057c-0.41,0.154-0.764,0.301-1.083,0.445l-0.151,0.065l-0.587-0.587
			c-1.1-1.1-2.563-1.705-4.117-1.705c-1.555,0-3.017,0.605-4.117,1.705L6.641,7.418c-1.1,1.1-1.705,2.561-1.705,4.118
			c0,1.555,0.605,3.018,1.707,4.118l0.587,0.589L7.163,16.39c-0.134,0.296-0.264,0.612-0.414,1.002l-0.094,0.234H5.824
			C2.613,17.625,0,20.238,0,23.448v1.102c0,3.212,2.613,5.823,5.824,5.823h0.829l0.094,0.238c0.145,0.38,0.279,0.705,0.413,1
			l0.067,0.147l-0.587,0.588c-1.1,1.1-1.705,2.562-1.705,4.118s0.605,3.018,1.705,4.118l0.779,0.779
			c1.1,1.1,2.562,1.705,4.117,1.705c1.555,0,3.017-0.605,4.117-1.705l0.588-0.587l0.149,0.067c0.319,0.144,0.673,0.289,1.083,0.443
			l0.152,0.058v0.834c0,3.211,2.613,5.823,5.824,5.823h1.102c3.211,0,5.823-2.613,5.823-5.823v-0.834l0.152-0.058
			c0.411-0.154,0.765-0.299,1.083-0.443l0.147-0.067l0.588,0.587c1.1,1.1,2.561,1.705,4.117,1.705c1.556,0,3.018-0.605,4.119-1.705
			l0.779-0.779c1.1-1.098,1.707-2.562,1.707-4.118s-0.605-3.019-1.707-4.118l-0.587-0.588l0.067-0.149
			c0.134-0.294,0.267-0.622,0.414-1.001l-0.234-0.09l0.273,0.003l0.055-0.147h0.829c3.211,0,5.824-2.613,5.824-5.823v-1.102
			C48.002,20.238,45.389,17.625,42.178,17.625z M45.174,24.55h-0.005c0,0.191-0.02,0.386-0.06,0.584
			c-0.013,0.069-0.033,0.126-0.048,0.174l-0.035,0.117c-0.02,0.075-0.043,0.162-0.08,0.252c-0.038,0.094-0.085,0.176-0.149,0.293
			l-0.03,0.057c-0.02,0.038-0.043,0.084-0.075,0.134c-0.082,0.127-0.174,0.239-0.279,0.359c-0.012,0.015-0.029,0.037-0.05,0.06
			c-0.102,0.109-0.219,0.214-0.395,0.351c-0.438,0.329-0.964,0.53-1.516,0.582c-0.028,0.002-0.057,0.005-0.089,0.01
			c-0.05,0.007-0.112,0.015-0.182,0.015h-2.935l-0.047,0.191c-0.368,1.486-0.986,2.949-1.839,4.349l-0.104,0.169l2.103,2.103
			c0.456,0.456,0.746,1.045,0.841,1.745c0.023,0.179,0.03,0.334,0.025,0.476c-0.002,0.035-0.005,0.065-0.01,0.12
			c-0.008,0.124-0.022,0.268-0.054,0.411c-0.012,0.054-0.029,0.1-0.04,0.139l-0.037,0.127c-0.023,0.077-0.048,0.164-0.089,0.259
			c-0.035,0.087-0.079,0.161-0.145,0.28l-0.039,0.07c-0.02,0.04-0.045,0.092-0.08,0.144c-0.112,0.167-0.237,0.319-0.371,0.455
			l-0.781,0.779c-0.135,0.134-0.286,0.259-0.456,0.373c-0.052,0.035-0.1,0.058-0.139,0.079l-0.07,0.037l0.124,0.217l-0.186-0.182
			c-0.065,0.037-0.139,0.079-0.224,0.114c-0.085,0.037-0.166,0.06-0.249,0.084l0.07,0.241l-0.145-0.219l-0.062,0.02
			c-0.035,0.012-0.082,0.027-0.135,0.037c-0.147,0.033-0.291,0.047-0.399,0.055l-0.229,0.013c-0.117,0-0.244-0.01-0.428-0.032
			c-0.655-0.092-1.242-0.381-1.698-0.836l-2.1-2.102l-0.169,0.104c-1.403,0.856-2.865,1.476-4.351,1.842l-0.19,0.047v2.929
			c0,0.073-0.008,0.139-0.015,0.186l-0.01,0.08c-0.05,0.557-0.251,1.082-0.608,1.557c-0.109,0.14-0.214,0.258-0.326,0.361
			c-0.023,0.022-0.043,0.039-0.088,0.072c-0.099,0.085-0.209,0.176-0.331,0.256c-0.047,0.03-0.092,0.053-0.144,0.08l-0.077,0.04
			c-0.077,0.044-0.164,0.092-0.266,0.135c-0.088,0.035-0.174,0.059-0.306,0.095l-0.07,0.022c-0.043,0.015-0.099,0.033-0.164,0.045
			c-0.194,0.039-0.391,0.058-0.585,0.058H23.45c-0.194,0-0.39-0.02-0.585-0.058c-0.064-0.013-0.117-0.032-0.174-0.05l-0.119-0.035
			c-0.074-0.02-0.159-0.044-0.251-0.08c-0.099-0.042-0.186-0.09-0.301-0.154l-0.057-0.03c-0.035-0.017-0.079-0.038-0.124-0.07
			c-0.13-0.084-0.241-0.176-0.356-0.276c-0.017-0.013-0.04-0.03-0.068-0.057c-0.109-0.102-0.216-0.219-0.353-0.398
			c-0.328-0.438-0.528-0.961-0.579-1.511l-0.01-0.085c-0.007-0.05-0.017-0.114-0.017-0.185v-2.927l-0.191-0.047
			c-1.486-0.368-2.95-0.988-4.351-1.842l-0.169-0.103l-2.096,2.105c-0.456,0.455-1.043,0.744-1.74,0.841
			c-0.142,0.017-0.267,0.027-0.384,0.027l-0.214-0.012c-0.122-0.01-0.266-0.023-0.416-0.057c-0.052-0.01-0.097-0.025-0.134-0.037
			l-0.074-0.022l-0.068,0.241v-0.261c-0.074-0.022-0.157-0.045-0.246-0.083c-0.087-0.035-0.164-0.08-0.284-0.149l-0.073-0.038
			c-0.04-0.02-0.089-0.045-0.139-0.077c-0.166-0.112-0.319-0.237-0.455-0.371l-0.779-0.779c-0.135-0.137-0.259-0.289-0.371-0.458
			c-0.035-0.052-0.06-0.104-0.095-0.171l-0.052-0.094c-0.039-0.069-0.082-0.144-0.121-0.236c-0.038-0.092-0.063-0.177-0.085-0.254
			l-0.04-0.137c-0.012-0.035-0.027-0.079-0.037-0.127c-0.032-0.142-0.044-0.284-0.06-0.465l-0.005-0.067
			c-0.005-0.145,0.002-0.301,0.03-0.528c0.092-0.654,0.381-1.241,0.836-1.695l2.103-2.103l-0.104-0.169
			c-0.852-1.399-1.471-2.862-1.84-4.349l-0.047-0.19H5.824c-0.072,0-0.136-0.008-0.19-0.017L5.6,27.767l-0.042-0.257
			C5,27.459,4.473,27.258,4,26.901c-0.137-0.105-0.254-0.212-0.356-0.319c-0.024-0.025-0.04-0.047-0.077-0.095
			c-0.08-0.092-0.172-0.204-0.256-0.333c-0.029-0.042-0.048-0.082-0.067-0.115L3.016,26.14l0.197-0.164l-0.03-0.055
			c-0.04-0.073-0.087-0.155-0.127-0.253c-0.037-0.09-0.06-0.175-0.095-0.304l-0.022-0.07c-0.015-0.045-0.033-0.102-0.047-0.169
			c-0.039-0.192-0.06-0.388-0.06-0.584V23.44c0-0.195,0.02-0.39,0.06-0.583c0.013-0.069,0.033-0.125,0.048-0.174l0.037-0.122
			c0.02-0.073,0.043-0.159,0.078-0.246c0.039-0.094,0.084-0.174,0.151-0.296l0.03-0.058c0.018-0.035,0.042-0.082,0.074-0.132
			c0.08-0.126,0.17-0.231,0.282-0.366c0.01-0.014,0.025-0.032,0.047-0.055c0.102-0.11,0.219-0.216,0.393-0.351
			c0.438-0.329,0.965-0.53,1.521-0.58l0.082-0.01c0.05-0.007,0.114-0.017,0.186-0.017h2.935l0.047-0.191
			c0.368-1.488,0.986-2.949,1.839-4.349l0.104-0.169l-2.1-2.091c-0.454-0.455-0.744-1.042-0.841-1.749
			c-0.023-0.176-0.03-0.331-0.025-0.475l0.01-0.117c0.012-0.131,0.024-0.271,0.055-0.416c0.01-0.052,0.027-0.099,0.037-0.135
			l0.044-0.145c0.022-0.072,0.045-0.154,0.08-0.238c0.037-0.087,0.08-0.166,0.12-0.232l0.032-0.058L7.94,9.964l0.254,0.055
			c0.02-0.04,0.045-0.09,0.08-0.144C8.383,9.71,8.508,9.558,8.645,9.421l0.777-0.779c0.139-0.135,0.291-0.261,0.456-0.373
			c0.052-0.033,0.102-0.058,0.152-0.085l0.112-0.062c0.068-0.037,0.145-0.08,0.232-0.117c0.09-0.039,0.175-0.064,0.244-0.084
			l0.151-0.045c0.035-0.01,0.077-0.025,0.13-0.035c0.147-0.034,0.294-0.045,0.445-0.057c0.022-0.002,0.047-0.005,0.084-0.007
			l0.088-0.002c0.121,0,0.246,0.008,0.44,0.032c0.654,0.092,1.24,0.381,1.695,0.836l2.1,2.101l0.169-0.104
			c1.397-0.854,2.862-1.475,4.351-1.842l0.19-0.047V5.822c0-0.074,0.008-0.139,0.015-0.187l0.01-0.078
			c0.05-0.557,0.251-1.082,0.608-1.557c0.109-0.139,0.214-0.257,0.326-0.361c0.025-0.023,0.047-0.04,0.087-0.072
			c0.1-0.085,0.209-0.177,0.334-0.256c0.045-0.03,0.089-0.052,0.149-0.084l0.063-0.033c0.079-0.043,0.169-0.095,0.271-0.137
			c0.088-0.037,0.174-0.06,0.251-0.08l0.127-0.038c0.043-0.015,0.098-0.033,0.164-0.045c0.194-0.039,0.389-0.059,0.583-0.059h1.102
			c0.194,0,0.389,0.02,0.587,0.06c0.062,0.012,0.113,0.03,0.172,0.049l0.117,0.035c0.075,0.02,0.161,0.043,0.251,0.08
			c0.101,0.04,0.187,0.09,0.299,0.152l0.077,0.039c0.032,0.017,0.068,0.035,0.105,0.06c0.125,0.082,0.236,0.172,0.359,0.277
			c0.015,0.014,0.039,0.03,0.065,0.055c0.11,0.104,0.217,0.221,0.353,0.396c0.329,0.438,0.528,0.963,0.582,1.531l0.008,0.074
			c0.007,0.05,0.015,0.111,0.015,0.181v2.927l0.19,0.047c1.488,0.368,2.952,0.988,4.351,1.842l0.169,0.104l2.101-2.101
			c0.454-0.453,1.041-0.742,1.755-0.839c0.135-0.018,0.259-0.027,0.38-0.027l0.088,0.002c0.034,0,0.062,0.005,0.122,0.012
			c0.112,0.008,0.259,0.022,0.408,0.054C37.16,7.855,37.207,7.87,37.304,7.9l0.073,0.022c0.075,0.022,0.162,0.047,0.253,0.085
			c0.09,0.037,0.167,0.082,0.284,0.149l0.08,0.042c0.037,0.02,0.084,0.042,0.134,0.075c0.164,0.11,0.316,0.236,0.453,0.37
			l0.779,0.781c0.134,0.135,0.259,0.288,0.369,0.453c0.035,0.052,0.06,0.104,0.094,0.169l0.055,0.099
			c0.037,0.068,0.082,0.144,0.117,0.231c0.039,0.092,0.065,0.179,0.087,0.259l0.04,0.134c0.012,0.035,0.025,0.079,0.037,0.127
			c0.034,0.147,0.045,0.291,0.059,0.448c0.002,0.022,0.005,0.052,0.007,0.082c0.005,0.147-0.002,0.306-0.029,0.528
			c-0.092,0.654-0.381,1.24-0.836,1.698l-2.103,2.102l0.104,0.169c0.852,1.399,1.471,2.862,1.838,4.349l0.047,0.191h2.935
			c0.072,0,0.135,0.008,0.186,0.017l0.082,0.01c0.556,0.05,1.083,0.251,1.558,0.609c0.139,0.107,0.254,0.212,0.363,0.328
			c0.018,0.018,0.032,0.037,0.072,0.089c0.085,0.099,0.174,0.204,0.254,0.329c0.03,0.045,0.052,0.09,0.098,0.181l0.032,0.057
			c0.04,0.072,0.085,0.154,0.124,0.246c0.034,0.084,0.055,0.164,0.075,0.236l0.04,0.132c0.015,0.047,0.035,0.105,0.049,0.174
			c0.039,0.195,0.06,0.393,0.06,0.583V24.55z"/>
	</g>
</g>
</svg>
