<?xml version="1.0" encoding="utf-8"?>
<!-- Generator: Adobe Illustrator 17.0.0, SVG Export Plug-In . SVG Version: 6.00 Build 0)  -->
<!DOCTYPE svg PUBLIC "-//W3C//DTD SVG 1.1//EN" "http://www.w3.org/Graphics/SVG/1.1/DTD/svg11.dtd">
<svg version="1.1" id="图层_1" xmlns="http://www.w3.org/2000/svg" xmlns:xlink="http://www.w3.org/1999/xlink" x="0px" y="0px"
	 width="48px" height="48px" viewBox="0 0 48 48" enable-background="new 0 0 48 48" xml:space="preserve">
<g>
	<g>
		<path fill-rule="evenodd" clip-rule="evenodd" fill="#323333" d="M12.5,35h23v-2h-23V35z M35.5,27h-23v2h23V27z M46.5,9V4.688
			C46.5,2.109,44.385,0,41.8,0H6.2C3.615,0,1.5,2.109,1.5,4.688v38.625C1.5,45.891,3.615,48,6.2,48h35.6
			c2.585,0,4.7-2.109,4.7-4.688V15h-3v30h-39V3h39v6H46.5z M12.5,20v3h16v-3c0-1.719-1.915-2.25-4.5-2.25h-3.133h-3.133
			C15.148,17.75,12.5,18.281,12.5,20z M25.567,13.062c0-2.589-2.104-4.687-4.7-4.687c-2.596,0-4.7,2.098-4.7,4.687
			c0,2.589,2.104,4.688,4.7,4.688C23.463,17.75,25.567,15.652,25.567,13.062z"/>
	</g>
</g>
</svg>
