<?xml version="1.0" encoding="utf-8"?>
<!-- Generator: Adobe Illustrator 17.0.0, SVG Export Plug-In . SVG Version: 6.00 Build 0)  -->
<!DOCTYPE svg PUBLIC "-//W3C//DTD SVG 1.1//EN" "http://www.w3.org/Graphics/SVG/1.1/DTD/svg11.dtd">
<svg version="1.1" id="图层_1" xmlns="http://www.w3.org/2000/svg" xmlns:xlink="http://www.w3.org/1999/xlink" x="0px" y="0px"
	 width="48px" height="48px" viewBox="0 0 48 48" enable-background="new 0 0 48 48" xml:space="preserve">
<g>
	<g>
		<path fill-rule="evenodd" clip-rule="evenodd" fill="#323333" d="M48,3.125C48,1.398,46.599,0,44.875,0H3.125
			C1.398,0,0,1.397,0,3.125V32c0,1.727,1.273,3,3,3h19v10h-8v3h20v-3h-8V35h8v-3H5c-1.837,0-2-0.304-2-2V5c0-1.511-0.109-2,2-2
			h38.433C45.065,3,45,3.054,45,4.567V30c0,1.853,0.099,2-2,2h-4v3h6c1.724,0,3-1.273,3-3L48,3.125z M14,13h21v-3H14V13z M14,22h21
			v-3H14V22z"/>
	</g>
</g>
</svg>
