<?xml version="1.0" encoding="utf-8"?>
<!-- Generator: Adobe Illustrator 17.0.0, SVG Export Plug-In . SVG Version: 6.00 Build 0)  -->
<!DOCTYPE svg PUBLIC "-//W3C//DTD SVG 1.1//EN" "http://www.w3.org/Graphics/SVG/1.1/DTD/svg11.dtd">
<svg version="1.1" id="图层_1" xmlns="http://www.w3.org/2000/svg" xmlns:xlink="http://www.w3.org/1999/xlink" x="0px" y="0px"
	 width="16px" height="16px" viewBox="0 0 16 16" enable-background="new 0 0 16 16" xml:space="preserve">
<g>
	<path fill-rule="evenodd" clip-rule="evenodd" fill="#ffffff" d="M9.504,7.213l0.838-0.838c0.158,0.042,0.321,0.063,0.484,0.063
		c0.471,0,0.941-0.177,1.301-0.537l1.311-1.312L8.848,0L7.536,1.311C7.052,1.796,6.899,2.479,7.062,3.097L3.42,6.74
		C3.261,6.698,3.098,6.677,2.936,6.677c-0.471,0-0.941,0.177-1.301,0.537L0.323,8.525l4.59,4.59l1.312-1.312
		c0.484-0.484,0.637-1.168,0.474-1.785l0.838-0.838l6.174,6.173l1.967-1.967L9.504,7.213z M8.192,8.525L7.536,7.869L6.881,8.525
		L6.043,9.363L5.666,9.74l0.136,0.516c0.086,0.327-0.001,0.66-0.233,0.893l-0.656,0.656L1.634,8.525L2.29,7.869
		c0.171-0.171,0.4-0.265,0.646-0.265c0.083,0,0.166,0.011,0.247,0.032l0.516,0.136l0.377-0.377l3.643-3.643l0.377-0.377L7.959,2.86
		C7.873,2.533,7.96,2.2,8.192,1.967l0.656-0.656l3.279,3.279l-0.656,0.656c-0.171,0.171-0.4,0.265-0.646,0.265
		c-0.083,0-0.166-0.011-0.247-0.032l-0.516-0.136L9.685,5.72L8.848,6.558L8.192,7.213l0.656,0.656l5.518,5.518l-0.656,0.656
		L8.192,8.525z"/>
	<rect x="0.323" y="15.073" fill-rule="evenodd" clip-rule="evenodd" fill="#ffffff" width="6.492" height="0.927"/>
</g>
</svg>
