<?xml version="1.0" encoding="utf-8"?>
<!-- Generator: Adobe Illustrator 17.0.0, SVG Export Plug-In . SVG Version: 6.00 Build 0)  -->
<!DOCTYPE svg PUBLIC "-//W3C//DTD SVG 1.1//EN" "http://www.w3.org/Graphics/SVG/1.1/DTD/svg11.dtd">
<svg version="1.1" id="图层_1" xmlns="http://www.w3.org/2000/svg" xmlns:xlink="http://www.w3.org/1999/xlink" x="0px" y="0px"
	 width="16px" height="16px" viewBox="0 0 16 16" enable-background="new 0 0 16 16" xml:space="preserve">
<g>
	<path fill="#ffffff" d="M8,0C3.582,0,0,3.582,0,8c0,4.418,3.582,8,8,8c4.418,0,8-3.582,8-8C16,3.582,12.418,0,8,0z M8,14.857
		c-3.781,0-6.857-3.076-6.857-6.857c0-3.781,3.076-6.857,6.857-6.857S14.857,4.219,14.857,8C14.857,11.781,11.781,14.857,8,14.857z"
		/>
	<path fill="#ffffff" d="M12,8c0.314,0,0.571-0.257,0.571-0.572c0-0.314-0.257-0.571-0.571-0.571H8.807c0,0,0.001,0,0.001-0.001
		l2.471-2.47c0.223-0.223,0.223-0.585,0-0.808c-0.223-0.223-0.585-0.223-0.808,0L8,6.049l-2.471-2.47
		c-0.223-0.223-0.585-0.223-0.808,0c-0.223,0.223-0.223,0.585,0,0.808l2.47,2.469c0.001,0.001,0.002,0.001,0.003,0.002H4
		c-0.314,0-0.571,0.257-0.571,0.571C3.429,7.743,3.686,8,4,8h3.428v1.143H4c-0.314,0-0.571,0.257-0.571,0.571
		c0,0.314,0.257,0.571,0.571,0.571h3.428v2.876c0,0.316,0.256,0.571,0.571,0.571s0.571-0.255,0.571-0.571v-2.876H12
		c0.314,0,0.571-0.257,0.571-0.571c0-0.314-0.257-0.571-0.571-0.571H8.571V8H12z"/>
</g>
</svg>
