<?xml version="1.0" encoding="utf-8"?>
<!-- Generator: Adobe Illustrator 17.0.0, SVG Export Plug-In . SVG Version: 6.00 Build 0)  -->
<!DOCTYPE svg PUBLIC "-//W3C//DTD SVG 1.1//EN" "http://www.w3.org/Graphics/SVG/1.1/DTD/svg11.dtd">
<svg version="1.1" id="图层_1" xmlns="http://www.w3.org/2000/svg" xmlns:xlink="http://www.w3.org/1999/xlink" x="0px" y="0px"
	 width="16px" height="16px" viewBox="0 0 16 16" enable-background="new 0 0 16 16" xml:space="preserve">
<g>
	<path fill-rule="evenodd" clip-rule="evenodd" fill="#ffffff" d="M8.24,8.696c1.112-0.66,1.866-1.861,1.866-3.248
		c0-2.093-1.697-3.789-3.789-3.789c-2.093,0-3.79,1.697-3.79,3.789c0,1.387,0.753,2.588,1.866,3.248C1.845,9.51,0,11.894,0,14.711
		c0,0.142,0.012,0.281,0.021,0.421h0.842c-0.011-0.139-0.021-0.279-0.021-0.421c0-3.023,2.451-5.474,5.474-5.474
		c3.023,0,5.474,2.451,5.474,5.474c0,0.142-0.011,0.282-0.021,0.421h0.842c0.009-0.14,0.021-0.279,0.021-0.421
		C12.632,11.894,10.786,9.51,8.24,8.696z M3.368,5.448c0-1.628,1.32-2.947,2.948-2.947c1.628,0,2.947,1.32,2.947,2.947
		c0,1.628-1.32,2.948-2.947,2.948C4.688,8.395,3.368,7.076,3.368,5.448z"/>
	<path fill-rule="evenodd" clip-rule="evenodd" fill="#ffffff" d="M11.608,7.854c1.112-0.66,1.866-1.861,1.866-3.248
		c0-1.949-1.476-3.535-3.368-3.747v0.842c1.427,0.206,2.526,1.421,2.526,2.905c0,1.174-0.691,2.179-1.684,2.653v1.289
		c2.413,0.571,4.21,2.734,4.21,5.321c0,0.439-0.057,0.864-0.155,1.273h0.869C15.956,14.73,16,14.305,16,13.869
		C16,11.052,14.155,8.668,11.608,7.854z"/>
</g>
</svg>
